<svg xmlns="http://www.w3.org/2000/svg" width="990" height="558"><style>.t{dominant-baseline:central;font-variant-ligatures:none;white-space:pre;font-family:Consolas,Courier New,Monaco,monospace;font-size:16px}.b{font-weight:700}:root{color-scheme:light dark;background:#fff}.cc{fill:#23d18b}.c2{fill:#0dbc79}.c4{fill:#2472c8}.c6{fill:#11a8cd}.c1{fill:#cd3131}.b0{fill:#000}.b1{fill:#cd3131}.b2{fill:#0dbc79}.b3{fill:#e5e510}.b4{fill:#2472c8}.b5{fill:#bc3fbc}.b6{fill:#11a8cd}.b7{fill:#e5e5e5}.ba{fill:#666}.bb{fill:#f14c4c}.bc{fill:#23d18b}.bd{fill:#f5f543}.be{fill:#3b8eea}.bf{fill:#d670d6}.bg{fill:#29b8db}.bh{fill:#e5e5e5}svg text{fill:#000}@media (prefers-color-scheme:dark){:root{background:#181818}.cc{fill:#23d18b}.c2{fill:#0dbc79}.c4{fill:#2472c8}.c6{fill:#11a8cd}.c1{fill:#cd3131}.b0{fill:#e5e5e5}.b1{fill:#cd3131}.b2{fill:#0dbc79}.b3{fill:#e5e510}.b4{fill:#2472c8}.b5{fill:#bc3fbc}.b6{fill:#11a8cd}.b7{fill:#000}.ba{fill:#e5e5e5}.bb{fill:#f14c4c}.bc{fill:#23d18b}.bd{fill:#f5f543}.be{fill:#3b8eea}.bf{fill:#d670d6}.bg{fill:#29b8db}.bh{fill:#666}svg text{fill:#e5e5e5}}</style><text y="10" class="t cc"><tspan textLength="50">Admin</tspan></text><text x="50" y="10" class="t"><tspan textLength="50">@WIN </tspan></text><text x="100" y="10" class="t c2"><tspan textLength="100">/c/c/ansi2</tspan></text><text x="200" y="10" class="t"><tspan textLength="90"> (main)&gt; </tspan></text><text x="290" y="10" class="t c4"><tspan textLength="50">uname</tspan></text><text x="340" y="10" class="t"/><text x="350" y="10" class="t c6"><tspan textLength="20">-a</tspan></text><text x="370" y="10" class="t"/><text y="28" class="t"><tspan textLength="1000">MINGW64_NT-10.0-26200 WIN 3.6.5-0eeda3e1.x86_64 2025-10-10 14:51 UTC x86_64 Msys                    </tspan></text><text y="46" class="t cc"><tspan textLength="50">Admin</tspan></text><text x="50" y="46" class="t"><tspan textLength="50">@WIN </tspan></text><text x="100" y="46" class="t c2"><tspan textLength="100">/c/c/ansi2</tspan></text><text x="200" y="46" class="t"><tspan textLength="90"> (main)&gt; </tspan></text><text x="290" y="46" class="t c4"><tspan textLength="80">neofetch</tspan></text><text x="370" y="46" class="t"/><text y="64" class="t c6"/><text x="370" y="64" class="t c1 b"><tspan textLength="50">Admin</tspan></text><text x="420" y="64" class="t"><tspan textLength="10">@</tspan></text><text x="430" y="64" class="t c1 b"><tspan textLength="30">WIN</tspan></text><text x="460" y="64" class="t"/><text y="82" class="t c6"><tspan textLength="370">################  ################   </tspan></text><text x="370" y="82" class="t"><tspan textLength="630">-------                                                        </tspan></text><text y="100" class="t c6"><tspan textLength="370">################  ################   </tspan></text><text x="370" y="100" class="t c2 b"><tspan textLength="40">OS: </tspan></text><text x="410" y="100" class="t"><tspan textLength="590">Windows 11 专业版 x86_64                                      </tspan></text><text y="118" class="t c6"><tspan textLength="370">################  ################   </tspan></text><text x="370" y="118" class="t c2 b"><tspan textLength="60">Host: </tspan></text><text x="430" y="118" class="t"><tspan textLength="570">ASUS                                                     </tspan></text><text y="136" class="t c6"><tspan textLength="370">################  ################   </tspan></text><text x="370" y="136" class="t c2 b"><tspan textLength="80">Kernel: </tspan></text><text x="450" y="136" class="t"><tspan textLength="550">10.0.26200 (25H2)                                      </tspan></text><text y="154" class="t c6"><tspan textLength="370">################  ################   </tspan></text><text x="370" y="154" class="t c2 b"><tspan textLength="80">Uptime: </tspan></text><text x="450" y="154" class="t"><tspan textLength="550">8 days, 22 hours, 21 mins                              </tspan></text><text y="172" class="t c6"><tspan textLength="370">################  ################   </tspan></text><text x="370" y="172" class="t c2 b"><tspan textLength="100">Packages: </tspan></text><text x="470" y="172" class="t"><tspan textLength="530">182 (pacman)                                         </tspan></text><text y="190" class="t c6"><tspan textLength="370">################  ################   </tspan></text><text x="370" y="190" class="t c2 b"><tspan textLength="70">Shell: </tspan></text><text x="440" y="190" class="t"><tspan textLength="560">fish 4.2.1-1 (Built by MSYS2 project)                   </tspan></text><text y="208" class="t c6"/><text x="370" y="208" class="t c2 b"><tspan textLength="230">Display(LG ULTRAGEAR): </tspan></text><text x="600" y="208" class="t"><tspan textLength="400">3840x2160 @ 144Hz (as 5760x3240) *      </tspan></text><text y="226" class="t c6"><tspan textLength="370">################  ################   </tspan></text><text x="370" y="226" class="t c2 b"><tspan textLength="230">Display(LG ULTRAGEAR): </tspan></text><text x="600" y="226" class="t"><tspan textLength="400">3840x2160 @ 144Hz (as 5760x3240)        </tspan></text><text y="244" class="t c6"><tspan textLength="370">################  ################   </tspan></text><text x="370" y="244" class="t c2 b"><tspan textLength="40">DE: </tspan></text><text x="410" y="244" class="t"><tspan textLength="590">Fluent                                                     </tspan></text><text y="262" class="t c6"><tspan textLength="370">################  ################   </tspan></text><text x="370" y="262" class="t c2 b"><tspan textLength="40">WM: </tspan></text><text x="410" y="262" class="t"><tspan textLength="590">Explorer (Theme: Custom)                                   </tspan></text><text y="280" class="t c6"><tspan textLength="370">################  ################   </tspan></text><text x="370" y="280" class="t c2 b"><tspan textLength="100">Terminal: </tspan></text><text x="470" y="280" class="t"><tspan textLength="530">VSCode (1.106.1)                                     </tspan></text><text y="298" class="t c6"><tspan textLength="370">################  ################   </tspan></text><text x="370" y="298" class="t c2 b"><tspan textLength="90">Disk(C): </tspan></text><text x="460" y="298" class="t"><tspan textLength="540">212.7 GiB / 930.5 GiB (23%)                           </tspan></text><text y="316" class="t c6"><tspan textLength="370">################  ################   </tspan></text><text x="370" y="316" class="t c2 b"><tspan textLength="90">Disk(D): </tspan></text><text x="460" y="316" class="t"><tspan textLength="540">1 TiB / 1.8 TiB (57%)                                 </tspan></text><text y="334" class="t c6"><tspan textLength="370">################  ################   </tspan></text><text x="370" y="334" class="t c2 b"><tspan textLength="50">CPU: </tspan></text><text x="420" y="334" class="t"><tspan textLength="580">Intel(R) Core(TM) i7-14700KF (28) 3.40 GHz                </tspan></text><text y="352" class="t c6"/><text x="370" y="352" class="t c2 b"><tspan textLength="50">GPU: </tspan></text><text x="420" y="352" class="t"><tspan textLength="580">NVIDIA GeForce RTX 4080 (4 GiB) @ (32.0.15.8180)          </tspan></text><text y="370" class="t c6"/><text x="370" y="370" class="t c2 b"><tspan textLength="80">Memory: </tspan></text><text x="450" y="370" class="t"><tspan textLength="550">23.9 GiB / 31.8 GiB (75%)                              </tspan></text><text y="388" class="t c6"/><text x="370" y="388" class="t c2 b"><tspan textLength="130">Temperature: </tspan></text><text x="500" y="388" class="t"><tspan textLength="500">CPU (avg of 1 sensors): 27.9°C                    </tspan></text><text y="406" class="t c6"/><text x="370" y="406" class="t c2 b"><tspan textLength="100">Local IP: </tspan></text><text x="470" y="406" class="t"><tspan textLength="530">192.168.50.95                                        </tspan></text><text y="424" class="t c6"/><text x="370" y="424" class="t c2 b"><tspan textLength="90">Network: </tspan></text><text x="460" y="424" class="t"><tspan textLength="540">VirtualBox Host-Only Ethernet Adapter (192.168.56.1)  </tspan></text><text y="442" class="t c6"/><text x="370" y="442" class="t c2 b"/><text x="460" y="442" class="t"><tspan textLength="540">Intel(R) Wi-Fi 6 AX201 160MHz (192.168.50.95)         </tspan></text><text y="460" class="t c6"/><text x="370" y="460" class="t c2 b"><tspan textLength="80">Locale: </tspan></text><text x="450" y="460" class="t"><tspan textLength="550">zh-CN                                                  </tspan></text><text y="478" class="t c6"/><text x="370" y="478" class="t"/><text y="496" class="t c6"/><path d="M370 488h30v18h-30Z" class="b0"/><text x="370" y="496" class="t"/><path d="M400 488h30v18h-30Z" class="b1"/><text x="400" y="496" class="t"/><path d="M430 488h30v18h-30Z" class="b2"/><text x="430" y="496" class="t"/><path d="M460 488h30v18h-30Z" class="b3"/><text x="460" y="496" class="t"/><path d="M490 488h30v18h-30Z" class="b4"/><text x="490" y="496" class="t"/><path d="M520 488h30v18h-30Z" class="b5"/><text x="520" y="496" class="t"/><path d="M550 488h30v18h-30Z" class="b6"/><text x="550" y="496" class="t"/><path d="M580 488h30v18h-30Z" class="b7"/><text x="580" y="496" class="t"/><text x="610" y="496" class="t"/><text y="514" class="t c6"/><path d="M370 506h30v18h-30Z" class="ba"/><text x="370" y="514" class="t"/><path d="M400 506h30v18h-30Z" class="bb"/><text x="400" y="514" class="t"/><path d="M430 506h30v18h-30Z" class="bc"/><text x="430" y="514" class="t"/><path d="M460 506h30v18h-30Z" class="bd"/><text x="460" y="514" class="t"/><path d="M490 506h30v18h-30Z" class="be"/><text x="490" y="514" class="t"/><path d="M520 506h30v18h-30Z" class="bf"/><text x="520" y="514" class="t"/><path d="M550 506h30v18h-30Z" class="bg"/><text x="550" y="514" class="t"/><path d="M580 506h30v18h-30Z" class="bh"/><text x="580" y="514" class="t"/><text x="610" y="514" class="t"/><text y="532" class="t"/><text y="550" class="t"/><text y="568" class="t"/></svg>