<svg width="870" height="72" xmlns="http://www.w3.org/2000/svg" xmlns:xlink="http://www.w3.org/1999/xlink"><style>.t{dominant-baseline:central;font-variant-ligatures:none;white-space: pre;font-family:Consolas,Courier New,Monaco;font-size:16px;}:root {color-scheme: light dark; background: #FFFFFF}.c000000{fill:#000000}.c030000{fill:#030000}.c060000{fill:#060000}.c090000{fill:#090000}.c0C0000{fill:#0C0000}.c0F0000{fill:#0F0000}.c120000{fill:#120000}.c150000{fill:#150000}.c180000{fill:#180000}.c1B0000{fill:#1B0000}.c1E0000{fill:#1E0000}.c210000{fill:#210000}.c240000{fill:#240000}.c270000{fill:#270000}.c2A0000{fill:#2A0000}.c2D0000{fill:#2D0000}.c300000{fill:#300000}.c330000{fill:#330000}.c360000{fill:#360000}.c390000{fill:#390000}.c3C0000{fill:#3C0000}.c3F0000{fill:#3F0000}.c420000{fill:#420000}.c450000{fill:#450000}.c480000{fill:#480000}.c4B0000{fill:#4B0000}.c4E0000{fill:#4E0000}.c510000{fill:#510000}.c540000{fill:#540000}.c570000{fill:#570000}.c5A0000{fill:#5A0000}.c5D0000{fill:#5D0000}.c600000{fill:#600000}.c630000{fill:#630000}.c660000{fill:#660000}.c690000{fill:#690000}.c6C0000{fill:#6C0000}.c6F0000{fill:#6F0000}.c720000{fill:#720000}.c750000{fill:#750000}.c780000{fill:#780000}.c7B0000{fill:#7B0000}.c7E0000{fill:#7E0000}.c810000{fill:#810000}.c840000{fill:#840000}.c870000{fill:#870000}.c8A0000{fill:#8A0000}.c8D0000{fill:#8D0000}.c900000{fill:#900000}.c930000{fill:#930000}.c960000{fill:#960000}.c990000{fill:#990000}.c9C0000{fill:#9C0000}.c9F0000{fill:#9F0000}.cA20000{fill:#A20000}.cA50000{fill:#A50000}.cA80000{fill:#A80000}.cAB0000{fill:#AB0000}.cAE0000{fill:#AE0000}.cB10000{fill:#B10000}.cB40000{fill:#B40000}.cB70000{fill:#B70000}.cBA0000{fill:#BA0000}.cBD0000{fill:#BD0000}.cC00000{fill:#C00000}.cC30000{fill:#C30000}.cC60000{fill:#C60000}.cC90000{fill:#C90000}.cCC0000{fill:#CC0000}.cCF0000{fill:#CF0000}.cD20000{fill:#D20000}.cD50000{fill:#D50000}.cD80000{fill:#D80000}.cDB0000{fill:#DB0000}.cDE0000{fill:#DE0000}.cE10000{fill:#E10000}.cE40000{fill:#E40000}.cE70000{fill:#E70000}.cEA0000{fill:#EA0000}.cED0000{fill:#ED0000}.cF00000{fill:#F00000}.cF30000{fill:#F30000}.cF60000{fill:#F60000}.cF90000{fill:#F90000}.cFC0000{fill:#FC0000}.cFF0000{fill:#FF0000}.c000300{fill:#000300}.c000600{fill:#000600}.c000900{fill:#000900}.c000C00{fill:#000C00}.c000F00{fill:#000F00}.c001200{fill:#001200}.c001500{fill:#001500}.c001800{fill:#001800}.c001B00{fill:#001B00}.c001E00{fill:#001E00}.c002100{fill:#002100}.c002400{fill:#002400}.c002700{fill:#002700}.c002A00{fill:#002A00}.c002D00{fill:#002D00}.c003000{fill:#003000}.c003300{fill:#003300}.c003600{fill:#003600}.c003900{fill:#003900}.c003C00{fill:#003C00}.c003F00{fill:#003F00}.c004200{fill:#004200}.c004500{fill:#004500}.c004800{fill:#004800}.c004B00{fill:#004B00}.c004E00{fill:#004E00}.c005100{fill:#005100}.c005400{fill:#005400}.c005700{fill:#005700}.c005A00{fill:#005A00}.c005D00{fill:#005D00}.c006000{fill:#006000}.c006300{fill:#006300}.c006600{fill:#006600}.c006900{fill:#006900}.c006C00{fill:#006C00}.c006F00{fill:#006F00}.c007200{fill:#007200}.c007500{fill:#007500}.c007800{fill:#007800}.c007B00{fill:#007B00}.c007E00{fill:#007E00}.c008100{fill:#008100}.c008400{fill:#008400}.c008700{fill:#008700}.c008A00{fill:#008A00}.c008D00{fill:#008D00}.c009000{fill:#009000}.c009300{fill:#009300}.c009600{fill:#009600}.c009900{fill:#009900}.c009C00{fill:#009C00}.c009F00{fill:#009F00}.c00A200{fill:#00A200}.c00A500{fill:#00A500}.c00A800{fill:#00A800}.c00AB00{fill:#00AB00}.c00AE00{fill:#00AE00}.c00B100{fill:#00B100}.c00B400{fill:#00B400}.c00B700{fill:#00B700}.c00BA00{fill:#00BA00}.c00BD00{fill:#00BD00}.c00C000{fill:#00C000}.c00C300{fill:#00C300}.c00C600{fill:#00C600}.c00C900{fill:#00C900}.c00CC00{fill:#00CC00}.c00CF00{fill:#00CF00}.c00D200{fill:#00D200}.c00D500{fill:#00D500}.c00D800{fill:#00D800}.c00DB00{fill:#00DB00}.c00DE00{fill:#00DE00}.c00E100{fill:#00E100}.c00E400{fill:#00E400}.c00E700{fill:#00E700}.c00EA00{fill:#00EA00}.c00ED00{fill:#00ED00}.c00F000{fill:#00F000}.c00F300{fill:#00F300}.c00F600{fill:#00F600}.c00F900{fill:#00F900}.c00FC00{fill:#00FC00}.c00FF00{fill:#00FF00}.c000003{fill:#000003}.c000006{fill:#000006}.c000009{fill:#000009}.c00000C{fill:#00000C}.c00000F{fill:#00000F}.c000012{fill:#000012}.c000015{fill:#000015}.c000018{fill:#000018}.c00001B{fill:#00001B}.c00001E{fill:#00001E}.c000021{fill:#000021}.c000024{fill:#000024}.c000027{fill:#000027}.c00002A{fill:#00002A}.c00002D{fill:#00002D}.c000030{fill:#000030}.c000033{fill:#000033}.c000036{fill:#000036}.c000039{fill:#000039}.c00003C{fill:#00003C}.c00003F{fill:#00003F}.c000042{fill:#000042}.c000045{fill:#000045}.c000048{fill:#000048}.c00004B{fill:#00004B}.c00004E{fill:#00004E}.c000051{fill:#000051}.c000054{fill:#000054}.c000057{fill:#000057}.c00005A{fill:#00005A}.c00005D{fill:#00005D}.c000060{fill:#000060}.c000063{fill:#000063}.c000066{fill:#000066}.c000069{fill:#000069}.c00006C{fill:#00006C}.c00006F{fill:#00006F}.c000072{fill:#000072}.c000075{fill:#000075}.c000078{fill:#000078}.c00007B{fill:#00007B}.c00007E{fill:#00007E}.c000081{fill:#000081}.c000084{fill:#000084}.c000087{fill:#000087}.c00008A{fill:#00008A}.c00008D{fill:#00008D}.c000090{fill:#000090}.c000093{fill:#000093}.c000096{fill:#000096}.c000099{fill:#000099}.c00009C{fill:#00009C}.c00009F{fill:#00009F}.c0000A2{fill:#0000A2}.c0000A5{fill:#0000A5}.c0000A8{fill:#0000A8}.c0000AB{fill:#0000AB}.c0000AE{fill:#0000AE}.c0000B1{fill:#0000B1}.c0000B4{fill:#0000B4}.c0000B7{fill:#0000B7}.c0000BA{fill:#0000BA}.c0000BD{fill:#0000BD}.c0000C0{fill:#0000C0}.c0000C3{fill:#0000C3}.c0000C6{fill:#0000C6}.c0000C9{fill:#0000C9}.c0000CC{fill:#0000CC}.c0000CF{fill:#0000CF}.c0000D2{fill:#0000D2}.c0000D5{fill:#0000D5}.c0000D8{fill:#0000D8}.c0000DB{fill:#0000DB}.c0000DE{fill:#0000DE}.c0000E1{fill:#0000E1}.c0000E4{fill:#0000E4}.c0000E7{fill:#0000E7}.c0000EA{fill:#0000EA}.c0000ED{fill:#0000ED}.c0000F0{fill:#0000F0}.c0000F3{fill:#0000F3}.c0000F6{fill:#0000F6}.c0000F9{fill:#0000F9}.c0000FC{fill:#0000FC}.c0000FF{fill:#0000FF}svg > text{fill:#000000}@media (prefers-color-scheme: dark) {:root {background: #181818}.c000000{fill:#000000}.c030000{fill:#030000}.c060000{fill:#060000}.c090000{fill:#090000}.c0C0000{fill:#0C0000}.c0F0000{fill:#0F0000}.c120000{fill:#120000}.c150000{fill:#150000}.c180000{fill:#180000}.c1B0000{fill:#1B0000}.c1E0000{fill:#1E0000}.c210000{fill:#210000}.c240000{fill:#240000}.c270000{fill:#270000}.c2A0000{fill:#2A0000}.c2D0000{fill:#2D0000}.c300000{fill:#300000}.c330000{fill:#330000}.c360000{fill:#360000}.c390000{fill:#390000}.c3C0000{fill:#3C0000}.c3F0000{fill:#3F0000}.c420000{fill:#420000}.c450000{fill:#450000}.c480000{fill:#480000}.c4B0000{fill:#4B0000}.c4E0000{fill:#4E0000}.c510000{fill:#510000}.c540000{fill:#540000}.c570000{fill:#570000}.c5A0000{fill:#5A0000}.c5D0000{fill:#5D0000}.c600000{fill:#600000}.c630000{fill:#630000}.c660000{fill:#660000}.c690000{fill:#690000}.c6C0000{fill:#6C0000}.c6F0000{fill:#6F0000}.c720000{fill:#720000}.c750000{fill:#750000}.c780000{fill:#780000}.c7B0000{fill:#7B0000}.c7E0000{fill:#7E0000}.c810000{fill:#810000}.c840000{fill:#840000}.c870000{fill:#870000}.c8A0000{fill:#8A0000}.c8D0000{fill:#8D0000}.c900000{fill:#900000}.c930000{fill:#930000}.c960000{fill:#960000}.c990000{fill:#990000}.c9C0000{fill:#9C0000}.c9F0000{fill:#9F0000}.cA20000{fill:#A20000}.cA50000{fill:#A50000}.cA80000{fill:#A80000}.cAB0000{fill:#AB0000}.cAE0000{fill:#AE0000}.cB10000{fill:#B10000}.cB40000{fill:#B40000}.cB70000{fill:#B70000}.cBA0000{fill:#BA0000}.cBD0000{fill:#BD0000}.cC00000{fill:#C00000}.cC30000{fill:#C30000}.cC60000{fill:#C60000}.cC90000{fill:#C90000}.cCC0000{fill:#CC0000}.cCF0000{fill:#CF0000}.cD20000{fill:#D20000}.cD50000{fill:#D50000}.cD80000{fill:#D80000}.cDB0000{fill:#DB0000}.cDE0000{fill:#DE0000}.cE10000{fill:#E10000}.cE40000{fill:#E40000}.cE70000{fill:#E70000}.cEA0000{fill:#EA0000}.cED0000{fill:#ED0000}.cF00000{fill:#F00000}.cF30000{fill:#F30000}.cF60000{fill:#F60000}.cF90000{fill:#F90000}.cFC0000{fill:#FC0000}.cFF0000{fill:#FF0000}.c000300{fill:#000300}.c000600{fill:#000600}.c000900{fill:#000900}.c000C00{fill:#000C00}.c000F00{fill:#000F00}.c001200{fill:#001200}.c001500{fill:#001500}.c001800{fill:#001800}.c001B00{fill:#001B00}.c001E00{fill:#001E00}.c002100{fill:#002100}.c002400{fill:#002400}.c002700{fill:#002700}.c002A00{fill:#002A00}.c002D00{fill:#002D00}.c003000{fill:#003000}.c003300{fill:#003300}.c003600{fill:#003600}.c003900{fill:#003900}.c003C00{fill:#003C00}.c003F00{fill:#003F00}.c004200{fill:#004200}.c004500{fill:#004500}.c004800{fill:#004800}.c004B00{fill:#004B00}.c004E00{fill:#004E00}.c005100{fill:#005100}.c005400{fill:#005400}.c005700{fill:#005700}.c005A00{fill:#005A00}.c005D00{fill:#005D00}.c006000{fill:#006000}.c006300{fill:#006300}.c006600{fill:#006600}.c006900{fill:#006900}.c006C00{fill:#006C00}.c006F00{fill:#006F00}.c007200{fill:#007200}.c007500{fill:#007500}.c007800{fill:#007800}.c007B00{fill:#007B00}.c007E00{fill:#007E00}.c008100{fill:#008100}.c008400{fill:#008400}.c008700{fill:#008700}.c008A00{fill:#008A00}.c008D00{fill:#008D00}.c009000{fill:#009000}.c009300{fill:#009300}.c009600{fill:#009600}.c009900{fill:#009900}.c009C00{fill:#009C00}.c009F00{fill:#009F00}.c00A200{fill:#00A200}.c00A500{fill:#00A500}.c00A800{fill:#00A800}.c00AB00{fill:#00AB00}.c00AE00{fill:#00AE00}.c00B100{fill:#00B100}.c00B400{fill:#00B400}.c00B700{fill:#00B700}.c00BA00{fill:#00BA00}.c00BD00{fill:#00BD00}.c00C000{fill:#00C000}.c00C300{fill:#00C300}.c00C600{fill:#00C600}.c00C900{fill:#00C900}.c00CC00{fill:#00CC00}.c00CF00{fill:#00CF00}.c00D200{fill:#00D200}.c00D500{fill:#00D500}.c00D800{fill:#00D800}.c00DB00{fill:#00DB00}.c00DE00{fill:#00DE00}.c00E100{fill:#00E100}.c00E400{fill:#00E400}.c00E700{fill:#00E700}.c00EA00{fill:#00EA00}.c00ED00{fill:#00ED00}.c00F000{fill:#00F000}.c00F300{fill:#00F300}.c00F600{fill:#00F600}.c00F900{fill:#00F900}.c00FC00{fill:#00FC00}.c00FF00{fill:#00FF00}.c000003{fill:#000003}.c000006{fill:#000006}.c000009{fill:#000009}.c00000C{fill:#00000C}.c00000F{fill:#00000F}.c000012{fill:#000012}.c000015{fill:#000015}.c000018{fill:#000018}.c00001B{fill:#00001B}.c00001E{fill:#00001E}.c000021{fill:#000021}.c000024{fill:#000024}.c000027{fill:#000027}.c00002A{fill:#00002A}.c00002D{fill:#00002D}.c000030{fill:#000030}.c000033{fill:#000033}.c000036{fill:#000036}.c000039{fill:#000039}.c00003C{fill:#00003C}.c00003F{fill:#00003F}.c000042{fill:#000042}.c000045{fill:#000045}.c000048{fill:#000048}.c00004B{fill:#00004B}.c00004E{fill:#00004E}.c000051{fill:#000051}.c000054{fill:#000054}.c000057{fill:#000057}.c00005A{fill:#00005A}.c00005D{fill:#00005D}.c000060{fill:#000060}.c000063{fill:#000063}.c000066{fill:#000066}.c000069{fill:#000069}.c00006C{fill:#00006C}.c00006F{fill:#00006F}.c000072{fill:#000072}.c000075{fill:#000075}.c000078{fill:#000078}.c00007B{fill:#00007B}.c00007E{fill:#00007E}.c000081{fill:#000081}.c000084{fill:#000084}.c000087{fill:#000087}.c00008A{fill:#00008A}.c00008D{fill:#00008D}.c000090{fill:#000090}.c000093{fill:#000093}.c000096{fill:#000096}.c000099{fill:#000099}.c00009C{fill:#00009C}.c00009F{fill:#00009F}.c0000A2{fill:#0000A2}.c0000A5{fill:#0000A5}.c0000A8{fill:#0000A8}.c0000AB{fill:#0000AB}.c0000AE{fill:#0000AE}.c0000B1{fill:#0000B1}.c0000B4{fill:#0000B4}.c0000B7{fill:#0000B7}.c0000BA{fill:#0000BA}.c0000BD{fill:#0000BD}.c0000C0{fill:#0000C0}.c0000C3{fill:#0000C3}.c0000C6{fill:#0000C6}.c0000C9{fill:#0000C9}.c0000CC{fill:#0000CC}.c0000CF{fill:#0000CF}.c0000D2{fill:#0000D2}.c0000D5{fill:#0000D5}.c0000D8{fill:#0000D8}.c0000DB{fill:#0000DB}.c0000DE{fill:#0000DE}.c0000E1{fill:#0000E1}.c0000E4{fill:#0000E4}.c0000E7{fill:#0000E7}.c0000EA{fill:#0000EA}.c0000ED{fill:#0000ED}.c0000F0{fill:#0000F0}.c0000F3{fill:#0000F3}.c0000F6{fill:#0000F6}.c0000F9{fill:#0000F9}.c0000FC{fill:#0000FC}.c0000FF{fill:#0000FF}svg > text{fill:#E5E5E5}}</style><text x="0" y="10" width="10" height="18" class='t c000000' ><tspan textLength="10">█</tspan></text><text x="10" y="10" width="10" height="18" class='t c030000' ><tspan textLength="10">█</tspan></text><text x="20" y="10" width="10" height="18" class='t c060000' ><tspan textLength="10">█</tspan></text><text x="30" y="10" width="10" height="18" class='t c090000' ><tspan textLength="10">█</tspan></text><text x="40" y="10" width="10" height="18" class='t c0C0000' ><tspan textLength="10">█</tspan></text><text x="50" y="10" width="10" height="18" class='t c0F0000' ><tspan textLength="10">█</tspan></text><text x="60" y="10" width="10" height="18" class='t c120000' ><tspan textLength="10">█</tspan></text><text x="70" y="10" width="10" height="18" class='t c150000' ><tspan textLength="10">█</tspan></text><text x="80" y="10" width="10" height="18" class='t c180000' ><tspan textLength="10">█</tspan></text><text x="90" y="10" width="10" height="18" class='t c1B0000' ><tspan textLength="10">█</tspan></text><text x="100" y="10" width="10" height="18" class='t c1E0000' ><tspan textLength="10">█</tspan></text><text x="110" y="10" width="10" height="18" class='t c210000' ><tspan textLength="10">█</tspan></text><text x="120" y="10" width="10" height="18" class='t c240000' ><tspan textLength="10">█</tspan></text><text x="130" y="10" width="10" height="18" class='t c270000' ><tspan textLength="10">█</tspan></text><text x="140" y="10" width="10" height="18" class='t c2A0000' ><tspan textLength="10">█</tspan></text><text x="150" y="10" width="10" height="18" class='t c2D0000' ><tspan textLength="10">█</tspan></text><text x="160" y="10" width="10" height="18" class='t c300000' ><tspan textLength="10">█</tspan></text><text x="170" y="10" width="10" height="18" class='t c330000' ><tspan textLength="10">█</tspan></text><text x="180" y="10" width="10" height="18" class='t c360000' ><tspan textLength="10">█</tspan></text><text x="190" y="10" width="10" height="18" class='t c390000' ><tspan textLength="10">█</tspan></text><text x="200" y="10" width="10" height="18" class='t c3C0000' ><tspan textLength="10">█</tspan></text><text x="210" y="10" width="10" height="18" class='t c3F0000' ><tspan textLength="10">█</tspan></text><text x="220" y="10" width="10" height="18" class='t c420000' ><tspan textLength="10">█</tspan></text><text x="230" y="10" width="10" height="18" class='t c450000' ><tspan textLength="10">█</tspan></text><text x="240" y="10" width="10" height="18" class='t c480000' ><tspan textLength="10">█</tspan></text><text x="250" y="10" width="10" height="18" class='t c4B0000' ><tspan textLength="10">█</tspan></text><text x="260" y="10" width="10" height="18" class='t c4E0000' ><tspan textLength="10">█</tspan></text><text x="270" y="10" width="10" height="18" class='t c510000' ><tspan textLength="10">█</tspan></text><text x="280" y="10" width="10" height="18" class='t c540000' ><tspan textLength="10">█</tspan></text><text x="290" y="10" width="10" height="18" class='t c570000' ><tspan textLength="10">█</tspan></text><text x="300" y="10" width="10" height="18" class='t c5A0000' ><tspan textLength="10">█</tspan></text><text x="310" y="10" width="10" height="18" class='t c5D0000' ><tspan textLength="10">█</tspan></text><text x="320" y="10" width="10" height="18" class='t c600000' ><tspan textLength="10">█</tspan></text><text x="330" y="10" width="10" height="18" class='t c630000' ><tspan textLength="10">█</tspan></text><text x="340" y="10" width="10" height="18" class='t c660000' ><tspan textLength="10">█</tspan></text><text x="350" y="10" width="10" height="18" class='t c690000' ><tspan textLength="10">█</tspan></text><text x="360" y="10" width="10" height="18" class='t c6C0000' ><tspan textLength="10">█</tspan></text><text x="370" y="10" width="10" height="18" class='t c6F0000' ><tspan textLength="10">█</tspan></text><text x="380" y="10" width="10" height="18" class='t c720000' ><tspan textLength="10">█</tspan></text><text x="390" y="10" width="10" height="18" class='t c750000' ><tspan textLength="10">█</tspan></text><text x="400" y="10" width="10" height="18" class='t c780000' ><tspan textLength="10">█</tspan></text><text x="410" y="10" width="10" height="18" class='t c7B0000' ><tspan textLength="10">█</tspan></text><text x="420" y="10" width="10" height="18" class='t c7E0000' ><tspan textLength="10">█</tspan></text><text x="430" y="10" width="10" height="18" class='t c810000' ><tspan textLength="10">█</tspan></text><text x="440" y="10" width="10" height="18" class='t c840000' ><tspan textLength="10">█</tspan></text><text x="450" y="10" width="10" height="18" class='t c870000' ><tspan textLength="10">█</tspan></text><text x="460" y="10" width="10" height="18" class='t c8A0000' ><tspan textLength="10">█</tspan></text><text x="470" y="10" width="10" height="18" class='t c8D0000' ><tspan textLength="10">█</tspan></text><text x="480" y="10" width="10" height="18" class='t c900000' ><tspan textLength="10">█</tspan></text><text x="490" y="10" width="10" height="18" class='t c930000' ><tspan textLength="10">█</tspan></text><text x="500" y="10" width="10" height="18" class='t c960000' ><tspan textLength="10">█</tspan></text><text x="510" y="10" width="10" height="18" class='t c990000' ><tspan textLength="10">█</tspan></text><text x="520" y="10" width="10" height="18" class='t c9C0000' ><tspan textLength="10">█</tspan></text><text x="530" y="10" width="10" height="18" class='t c9F0000' ><tspan textLength="10">█</tspan></text><text x="540" y="10" width="10" height="18" class='t cA20000' ><tspan textLength="10">█</tspan></text><text x="550" y="10" width="10" height="18" class='t cA50000' ><tspan textLength="10">█</tspan></text><text x="560" y="10" width="10" height="18" class='t cA80000' ><tspan textLength="10">█</tspan></text><text x="570" y="10" width="10" height="18" class='t cAB0000' ><tspan textLength="10">█</tspan></text><text x="580" y="10" width="10" height="18" class='t cAE0000' ><tspan textLength="10">█</tspan></text><text x="590" y="10" width="10" height="18" class='t cB10000' ><tspan textLength="10">█</tspan></text><text x="600" y="10" width="10" height="18" class='t cB40000' ><tspan textLength="10">█</tspan></text><text x="610" y="10" width="10" height="18" class='t cB70000' ><tspan textLength="10">█</tspan></text><text x="620" y="10" width="10" height="18" class='t cBA0000' ><tspan textLength="10">█</tspan></text><text x="630" y="10" width="10" height="18" class='t cBD0000' ><tspan textLength="10">█</tspan></text><text x="640" y="10" width="10" height="18" class='t cC00000' ><tspan textLength="10">█</tspan></text><text x="650" y="10" width="10" height="18" class='t cC30000' ><tspan textLength="10">█</tspan></text><text x="660" y="10" width="10" height="18" class='t cC60000' ><tspan textLength="10">█</tspan></text><text x="670" y="10" width="10" height="18" class='t cC90000' ><tspan textLength="10">█</tspan></text><text x="680" y="10" width="10" height="18" class='t cCC0000' ><tspan textLength="10">█</tspan></text><text x="690" y="10" width="10" height="18" class='t cCF0000' ><tspan textLength="10">█</tspan></text><text x="700" y="10" width="10" height="18" class='t cD20000' ><tspan textLength="10">█</tspan></text><text x="710" y="10" width="10" height="18" class='t cD50000' ><tspan textLength="10">█</tspan></text><text x="720" y="10" width="10" height="18" class='t cD80000' ><tspan textLength="10">█</tspan></text><text x="730" y="10" width="10" height="18" class='t cDB0000' ><tspan textLength="10">█</tspan></text><text x="740" y="10" width="10" height="18" class='t cDE0000' ><tspan textLength="10">█</tspan></text><text x="750" y="10" width="10" height="18" class='t cE10000' ><tspan textLength="10">█</tspan></text><text x="760" y="10" width="10" height="18" class='t cE40000' ><tspan textLength="10">█</tspan></text><text x="770" y="10" width="10" height="18" class='t cE70000' ><tspan textLength="10">█</tspan></text><text x="780" y="10" width="10" height="18" class='t cEA0000' ><tspan textLength="10">█</tspan></text><text x="790" y="10" width="10" height="18" class='t cED0000' ><tspan textLength="10">█</tspan></text><text x="800" y="10" width="10" height="18" class='t cF00000' ><tspan textLength="10">█</tspan></text><text x="810" y="10" width="10" height="18" class='t cF30000' ><tspan textLength="10">█</tspan></text><text x="820" y="10" width="10" height="18" class='t cF60000' ><tspan textLength="10">█</tspan></text><text x="830" y="10" width="10" height="18" class='t cF90000' ><tspan textLength="10">█</tspan></text><text x="840" y="10" width="10" height="18" class='t cFC0000' ><tspan textLength="10">█</tspan></text><text x="850" y="10" width="10" height="18" class='t cFF0000' ><tspan textLength="10">█</tspan></text><text x="0" y="28" width="10" height="18" class='t c000000' ><tspan textLength="10">█</tspan></text><text x="10" y="28" width="10" height="18" class='t c000300' ><tspan textLength="10">█</tspan></text><text x="20" y="28" width="10" height="18" class='t c000600' ><tspan textLength="10">█</tspan></text><text x="30" y="28" width="10" height="18" class='t c000900' ><tspan textLength="10">█</tspan></text><text x="40" y="28" width="10" height="18" class='t c000C00' ><tspan textLength="10">█</tspan></text><text x="50" y="28" width="10" height="18" class='t c000F00' ><tspan textLength="10">█</tspan></text><text x="60" y="28" width="10" height="18" class='t c001200' ><tspan textLength="10">█</tspan></text><text x="70" y="28" width="10" height="18" class='t c001500' ><tspan textLength="10">█</tspan></text><text x="80" y="28" width="10" height="18" class='t c001800' ><tspan textLength="10">█</tspan></text><text x="90" y="28" width="10" height="18" class='t c001B00' ><tspan textLength="10">█</tspan></text><text x="100" y="28" width="10" height="18" class='t c001E00' ><tspan textLength="10">█</tspan></text><text x="110" y="28" width="10" height="18" class='t c002100' ><tspan textLength="10">█</tspan></text><text x="120" y="28" width="10" height="18" class='t c002400' ><tspan textLength="10">█</tspan></text><text x="130" y="28" width="10" height="18" class='t c002700' ><tspan textLength="10">█</tspan></text><text x="140" y="28" width="10" height="18" class='t c002A00' ><tspan textLength="10">█</tspan></text><text x="150" y="28" width="10" height="18" class='t c002D00' ><tspan textLength="10">█</tspan></text><text x="160" y="28" width="10" height="18" class='t c003000' ><tspan textLength="10">█</tspan></text><text x="170" y="28" width="10" height="18" class='t c003300' ><tspan textLength="10">█</tspan></text><text x="180" y="28" width="10" height="18" class='t c003600' ><tspan textLength="10">█</tspan></text><text x="190" y="28" width="10" height="18" class='t c003900' ><tspan textLength="10">█</tspan></text><text x="200" y="28" width="10" height="18" class='t c003C00' ><tspan textLength="10">█</tspan></text><text x="210" y="28" width="10" height="18" class='t c003F00' ><tspan textLength="10">█</tspan></text><text x="220" y="28" width="10" height="18" class='t c004200' ><tspan textLength="10">█</tspan></text><text x="230" y="28" width="10" height="18" class='t c004500' ><tspan textLength="10">█</tspan></text><text x="240" y="28" width="10" height="18" class='t c004800' ><tspan textLength="10">█</tspan></text><text x="250" y="28" width="10" height="18" class='t c004B00' ><tspan textLength="10">█</tspan></text><text x="260" y="28" width="10" height="18" class='t c004E00' ><tspan textLength="10">█</tspan></text><text x="270" y="28" width="10" height="18" class='t c005100' ><tspan textLength="10">█</tspan></text><text x="280" y="28" width="10" height="18" class='t c005400' ><tspan textLength="10">█</tspan></text><text x="290" y="28" width="10" height="18" class='t c005700' ><tspan textLength="10">█</tspan></text><text x="300" y="28" width="10" height="18" class='t c005A00' ><tspan textLength="10">█</tspan></text><text x="310" y="28" width="10" height="18" class='t c005D00' ><tspan textLength="10">█</tspan></text><text x="320" y="28" width="10" height="18" class='t c006000' ><tspan textLength="10">█</tspan></text><text x="330" y="28" width="10" height="18" class='t c006300' ><tspan textLength="10">█</tspan></text><text x="340" y="28" width="10" height="18" class='t c006600' ><tspan textLength="10">█</tspan></text><text x="350" y="28" width="10" height="18" class='t c006900' ><tspan textLength="10">█</tspan></text><text x="360" y="28" width="10" height="18" class='t c006C00' ><tspan textLength="10">█</tspan></text><text x="370" y="28" width="10" height="18" class='t c006F00' ><tspan textLength="10">█</tspan></text><text x="380" y="28" width="10" height="18" class='t c007200' ><tspan textLength="10">█</tspan></text><text x="390" y="28" width="10" height="18" class='t c007500' ><tspan textLength="10">█</tspan></text><text x="400" y="28" width="10" height="18" class='t c007800' ><tspan textLength="10">█</tspan></text><text x="410" y="28" width="10" height="18" class='t c007B00' ><tspan textLength="10">█</tspan></text><text x="420" y="28" width="10" height="18" class='t c007E00' ><tspan textLength="10">█</tspan></text><text x="430" y="28" width="10" height="18" class='t c008100' ><tspan textLength="10">█</tspan></text><text x="440" y="28" width="10" height="18" class='t c008400' ><tspan textLength="10">█</tspan></text><text x="450" y="28" width="10" height="18" class='t c008700' ><tspan textLength="10">█</tspan></text><text x="460" y="28" width="10" height="18" class='t c008A00' ><tspan textLength="10">█</tspan></text><text x="470" y="28" width="10" height="18" class='t c008D00' ><tspan textLength="10">█</tspan></text><text x="480" y="28" width="10" height="18" class='t c009000' ><tspan textLength="10">█</tspan></text><text x="490" y="28" width="10" height="18" class='t c009300' ><tspan textLength="10">█</tspan></text><text x="500" y="28" width="10" height="18" class='t c009600' ><tspan textLength="10">█</tspan></text><text x="510" y="28" width="10" height="18" class='t c009900' ><tspan textLength="10">█</tspan></text><text x="520" y="28" width="10" height="18" class='t c009C00' ><tspan textLength="10">█</tspan></text><text x="530" y="28" width="10" height="18" class='t c009F00' ><tspan textLength="10">█</tspan></text><text x="540" y="28" width="10" height="18" class='t c00A200' ><tspan textLength="10">█</tspan></text><text x="550" y="28" width="10" height="18" class='t c00A500' ><tspan textLength="10">█</tspan></text><text x="560" y="28" width="10" height="18" class='t c00A800' ><tspan textLength="10">█</tspan></text><text x="570" y="28" width="10" height="18" class='t c00AB00' ><tspan textLength="10">█</tspan></text><text x="580" y="28" width="10" height="18" class='t c00AE00' ><tspan textLength="10">█</tspan></text><text x="590" y="28" width="10" height="18" class='t c00B100' ><tspan textLength="10">█</tspan></text><text x="600" y="28" width="10" height="18" class='t c00B400' ><tspan textLength="10">█</tspan></text><text x="610" y="28" width="10" height="18" class='t c00B700' ><tspan textLength="10">█</tspan></text><text x="620" y="28" width="10" height="18" class='t c00BA00' ><tspan textLength="10">█</tspan></text><text x="630" y="28" width="10" height="18" class='t c00BD00' ><tspan textLength="10">█</tspan></text><text x="640" y="28" width="10" height="18" class='t c00C000' ><tspan textLength="10">█</tspan></text><text x="650" y="28" width="10" height="18" class='t c00C300' ><tspan textLength="10">█</tspan></text><text x="660" y="28" width="10" height="18" class='t c00C600' ><tspan textLength="10">█</tspan></text><text x="670" y="28" width="10" height="18" class='t c00C900' ><tspan textLength="10">█</tspan></text><text x="680" y="28" width="10" height="18" class='t c00CC00' ><tspan textLength="10">█</tspan></text><text x="690" y="28" width="10" height="18" class='t c00CF00' ><tspan textLength="10">█</tspan></text><text x="700" y="28" width="10" height="18" class='t c00D200' ><tspan textLength="10">█</tspan></text><text x="710" y="28" width="10" height="18" class='t c00D500' ><tspan textLength="10">█</tspan></text><text x="720" y="28" width="10" height="18" class='t c00D800' ><tspan textLength="10">█</tspan></text><text x="730" y="28" width="10" height="18" class='t c00DB00' ><tspan textLength="10">█</tspan></text><text x="740" y="28" width="10" height="18" class='t c00DE00' ><tspan textLength="10">█</tspan></text><text x="750" y="28" width="10" height="18" class='t c00E100' ><tspan textLength="10">█</tspan></text><text x="760" y="28" width="10" height="18" class='t c00E400' ><tspan textLength="10">█</tspan></text><text x="770" y="28" width="10" height="18" class='t c00E700' ><tspan textLength="10">█</tspan></text><text x="780" y="28" width="10" height="18" class='t c00EA00' ><tspan textLength="10">█</tspan></text><text x="790" y="28" width="10" height="18" class='t c00ED00' ><tspan textLength="10">█</tspan></text><text x="800" y="28" width="10" height="18" class='t c00F000' ><tspan textLength="10">█</tspan></text><text x="810" y="28" width="10" height="18" class='t c00F300' ><tspan textLength="10">█</tspan></text><text x="820" y="28" width="10" height="18" class='t c00F600' ><tspan textLength="10">█</tspan></text><text x="830" y="28" width="10" height="18" class='t c00F900' ><tspan textLength="10">█</tspan></text><text x="840" y="28" width="10" height="18" class='t c00FC00' ><tspan textLength="10">█</tspan></text><text x="850" y="28" width="10" height="18" class='t c00FF00' ><tspan textLength="10">█</tspan></text><text x="0" y="46" width="10" height="18" class='t c000000' ><tspan textLength="10">█</tspan></text><text x="10" y="46" width="10" height="18" class='t c000003' ><tspan textLength="10">█</tspan></text><text x="20" y="46" width="10" height="18" class='t c000006' ><tspan textLength="10">█</tspan></text><text x="30" y="46" width="10" height="18" class='t c000009' ><tspan textLength="10">█</tspan></text><text x="40" y="46" width="10" height="18" class='t c00000C' ><tspan textLength="10">█</tspan></text><text x="50" y="46" width="10" height="18" class='t c00000F' ><tspan textLength="10">█</tspan></text><text x="60" y="46" width="10" height="18" class='t c000012' ><tspan textLength="10">█</tspan></text><text x="70" y="46" width="10" height="18" class='t c000015' ><tspan textLength="10">█</tspan></text><text x="80" y="46" width="10" height="18" class='t c000018' ><tspan textLength="10">█</tspan></text><text x="90" y="46" width="10" height="18" class='t c00001B' ><tspan textLength="10">█</tspan></text><text x="100" y="46" width="10" height="18" class='t c00001E' ><tspan textLength="10">█</tspan></text><text x="110" y="46" width="10" height="18" class='t c000021' ><tspan textLength="10">█</tspan></text><text x="120" y="46" width="10" height="18" class='t c000024' ><tspan textLength="10">█</tspan></text><text x="130" y="46" width="10" height="18" class='t c000027' ><tspan textLength="10">█</tspan></text><text x="140" y="46" width="10" height="18" class='t c00002A' ><tspan textLength="10">█</tspan></text><text x="150" y="46" width="10" height="18" class='t c00002D' ><tspan textLength="10">█</tspan></text><text x="160" y="46" width="10" height="18" class='t c000030' ><tspan textLength="10">█</tspan></text><text x="170" y="46" width="10" height="18" class='t c000033' ><tspan textLength="10">█</tspan></text><text x="180" y="46" width="10" height="18" class='t c000036' ><tspan textLength="10">█</tspan></text><text x="190" y="46" width="10" height="18" class='t c000039' ><tspan textLength="10">█</tspan></text><text x="200" y="46" width="10" height="18" class='t c00003C' ><tspan textLength="10">█</tspan></text><text x="210" y="46" width="10" height="18" class='t c00003F' ><tspan textLength="10">█</tspan></text><text x="220" y="46" width="10" height="18" class='t c000042' ><tspan textLength="10">█</tspan></text><text x="230" y="46" width="10" height="18" class='t c000045' ><tspan textLength="10">█</tspan></text><text x="240" y="46" width="10" height="18" class='t c000048' ><tspan textLength="10">█</tspan></text><text x="250" y="46" width="10" height="18" class='t c00004B' ><tspan textLength="10">█</tspan></text><text x="260" y="46" width="10" height="18" class='t c00004E' ><tspan textLength="10">█</tspan></text><text x="270" y="46" width="10" height="18" class='t c000051' ><tspan textLength="10">█</tspan></text><text x="280" y="46" width="10" height="18" class='t c000054' ><tspan textLength="10">█</tspan></text><text x="290" y="46" width="10" height="18" class='t c000057' ><tspan textLength="10">█</tspan></text><text x="300" y="46" width="10" height="18" class='t c00005A' ><tspan textLength="10">█</tspan></text><text x="310" y="46" width="10" height="18" class='t c00005D' ><tspan textLength="10">█</tspan></text><text x="320" y="46" width="10" height="18" class='t c000060' ><tspan textLength="10">█</tspan></text><text x="330" y="46" width="10" height="18" class='t c000063' ><tspan textLength="10">█</tspan></text><text x="340" y="46" width="10" height="18" class='t c000066' ><tspan textLength="10">█</tspan></text><text x="350" y="46" width="10" height="18" class='t c000069' ><tspan textLength="10">█</tspan></text><text x="360" y="46" width="10" height="18" class='t c00006C' ><tspan textLength="10">█</tspan></text><text x="370" y="46" width="10" height="18" class='t c00006F' ><tspan textLength="10">█</tspan></text><text x="380" y="46" width="10" height="18" class='t c000072' ><tspan textLength="10">█</tspan></text><text x="390" y="46" width="10" height="18" class='t c000075' ><tspan textLength="10">█</tspan></text><text x="400" y="46" width="10" height="18" class='t c000078' ><tspan textLength="10">█</tspan></text><text x="410" y="46" width="10" height="18" class='t c00007B' ><tspan textLength="10">█</tspan></text><text x="420" y="46" width="10" height="18" class='t c00007E' ><tspan textLength="10">█</tspan></text><text x="430" y="46" width="10" height="18" class='t c000081' ><tspan textLength="10">█</tspan></text><text x="440" y="46" width="10" height="18" class='t c000084' ><tspan textLength="10">█</tspan></text><text x="450" y="46" width="10" height="18" class='t c000087' ><tspan textLength="10">█</tspan></text><text x="460" y="46" width="10" height="18" class='t c00008A' ><tspan textLength="10">█</tspan></text><text x="470" y="46" width="10" height="18" class='t c00008D' ><tspan textLength="10">█</tspan></text><text x="480" y="46" width="10" height="18" class='t c000090' ><tspan textLength="10">█</tspan></text><text x="490" y="46" width="10" height="18" class='t c000093' ><tspan textLength="10">█</tspan></text><text x="500" y="46" width="10" height="18" class='t c000096' ><tspan textLength="10">█</tspan></text><text x="510" y="46" width="10" height="18" class='t c000099' ><tspan textLength="10">█</tspan></text><text x="520" y="46" width="10" height="18" class='t c00009C' ><tspan textLength="10">█</tspan></text><text x="530" y="46" width="10" height="18" class='t c00009F' ><tspan textLength="10">█</tspan></text><text x="540" y="46" width="10" height="18" class='t c0000A2' ><tspan textLength="10">█</tspan></text><text x="550" y="46" width="10" height="18" class='t c0000A5' ><tspan textLength="10">█</tspan></text><text x="560" y="46" width="10" height="18" class='t c0000A8' ><tspan textLength="10">█</tspan></text><text x="570" y="46" width="10" height="18" class='t c0000AB' ><tspan textLength="10">█</tspan></text><text x="580" y="46" width="10" height="18" class='t c0000AE' ><tspan textLength="10">█</tspan></text><text x="590" y="46" width="10" height="18" class='t c0000B1' ><tspan textLength="10">█</tspan></text><text x="600" y="46" width="10" height="18" class='t c0000B4' ><tspan textLength="10">█</tspan></text><text x="610" y="46" width="10" height="18" class='t c0000B7' ><tspan textLength="10">█</tspan></text><text x="620" y="46" width="10" height="18" class='t c0000BA' ><tspan textLength="10">█</tspan></text><text x="630" y="46" width="10" height="18" class='t c0000BD' ><tspan textLength="10">█</tspan></text><text x="640" y="46" width="10" height="18" class='t c0000C0' ><tspan textLength="10">█</tspan></text><text x="650" y="46" width="10" height="18" class='t c0000C3' ><tspan textLength="10">█</tspan></text><text x="660" y="46" width="10" height="18" class='t c0000C6' ><tspan textLength="10">█</tspan></text><text x="670" y="46" width="10" height="18" class='t c0000C9' ><tspan textLength="10">█</tspan></text><text x="680" y="46" width="10" height="18" class='t c0000CC' ><tspan textLength="10">█</tspan></text><text x="690" y="46" width="10" height="18" class='t c0000CF' ><tspan textLength="10">█</tspan></text><text x="700" y="46" width="10" height="18" class='t c0000D2' ><tspan textLength="10">█</tspan></text><text x="710" y="46" width="10" height="18" class='t c0000D5' ><tspan textLength="10">█</tspan></text><text x="720" y="46" width="10" height="18" class='t c0000D8' ><tspan textLength="10">█</tspan></text><text x="730" y="46" width="10" height="18" class='t c0000DB' ><tspan textLength="10">█</tspan></text><text x="740" y="46" width="10" height="18" class='t c0000DE' ><tspan textLength="10">█</tspan></text><text x="750" y="46" width="10" height="18" class='t c0000E1' ><tspan textLength="10">█</tspan></text><text x="760" y="46" width="10" height="18" class='t c0000E4' ><tspan textLength="10">█</tspan></text><text x="770" y="46" width="10" height="18" class='t c0000E7' ><tspan textLength="10">█</tspan></text><text x="780" y="46" width="10" height="18" class='t c0000EA' ><tspan textLength="10">█</tspan></text><text x="790" y="46" width="10" height="18" class='t c0000ED' ><tspan textLength="10">█</tspan></text><text x="800" y="46" width="10" height="18" class='t c0000F0' ><tspan textLength="10">█</tspan></text><text x="810" y="46" width="10" height="18" class='t c0000F3' ><tspan textLength="10">█</tspan></text><text x="820" y="46" width="10" height="18" class='t c0000F6' ><tspan textLength="10">█</tspan></text><text x="830" y="46" width="10" height="18" class='t c0000F9' ><tspan textLength="10">█</tspan></text><text x="840" y="46" width="10" height="18" class='t c0000FC' ><tspan textLength="10">█</tspan></text><text x="850" y="46" width="10" height="18" class='t c0000FF' ><tspan textLength="10">█</tspan></text></svg>