<svg width="250" height="324" xmlns="http://www.w3.org/2000/svg" xmlns:xlink="http://www.w3.org/1999/xlink"><style>.t{dominant-baseline:central;font-variant-ligatures:none;white-space: pre;font-family:Consolas,Courier New,Monaco;font-size:16px;}:root {color-scheme: light dark; background: #FFFFFF}.c0{fill:#000000}.c1{fill:#CD3131}.c2{fill:#0DBC79}.c3{fill:#E5E510}.c4{fill:#2472C8}.c5{fill:#BC3FBC}.c6{fill:#11A8CD}.c7{fill:#E5E5E5}.ca{fill:#666666}.cb{fill:#F14C4C}.cc{fill:#23D18B}.cd{fill:#F5F543}.ce{fill:#3B8EEA}.cf{fill:#D670D6}.cg{fill:#29B8DB}.ch{fill:#E5E5E5}.c10{fill:#000000}.c11{fill:#00005F}.c12{fill:#000087}.c13{fill:#0000AF}.c14{fill:#0000D7}.c15{fill:#0000FF}.c16{fill:#005F00}.c17{fill:#005F5F}.c18{fill:#005F87}.c19{fill:#005FAF}.c1A{fill:#005FD7}.c1B{fill:#005FFF}.c1C{fill:#008700}.c1D{fill:#00875F}.c1E{fill:#008787}.c1F{fill:#0087AF}.c20{fill:#0087D7}.c21{fill:#0087FF}.c22{fill:#00AF00}.c23{fill:#00AF5F}.c24{fill:#00AF87}.c25{fill:#00AFAF}.c26{fill:#00AFD7}.c27{fill:#00AFFF}.c28{fill:#00D700}.c29{fill:#00D75F}.c2A{fill:#00D787}.c2B{fill:#00D7AF}.c2C{fill:#00D7D7}.c2D{fill:#00D7FF}.c2E{fill:#00FF00}.c2F{fill:#00FF5F}.c30{fill:#00FF87}.c31{fill:#00FFAF}.c32{fill:#00FFD7}.c33{fill:#00FFFF}.c34{fill:#5F0000}.c35{fill:#5F005F}.c36{fill:#5F0087}.c37{fill:#5F00AF}.c38{fill:#5F00D7}.c39{fill:#5F00FF}.c3A{fill:#5F5F00}.c3B{fill:#5F5F5F}.c3C{fill:#5F5F87}.c3D{fill:#5F5FAF}.c3E{fill:#5F5FD7}.c3F{fill:#5F5FFF}.c40{fill:#5F8700}.c41{fill:#5F875F}.c42{fill:#5F8787}.c43{fill:#5F87AF}.c44{fill:#5F87D7}.c45{fill:#5F87FF}.c46{fill:#5FAF00}.c47{fill:#5FAF5F}.c48{fill:#5FAF87}.c49{fill:#5FAFAF}.c4A{fill:#5FAFD7}.c4B{fill:#5FAFFF}.c4C{fill:#5FD700}.c4D{fill:#5FD75F}.c4E{fill:#5FD787}.c4F{fill:#5FD7AF}.c50{fill:#5FD7D7}.c51{fill:#5FD7FF}.c52{fill:#5FFF00}.c53{fill:#5FFF5F}.c54{fill:#5FFF87}.c55{fill:#5FFFAF}.c56{fill:#5FFFD7}.c57{fill:#5FFFFF}.c58{fill:#870000}.c59{fill:#87005F}.c5A{fill:#870087}.c5B{fill:#8700AF}.c5C{fill:#8700D7}.c5D{fill:#8700FF}.c5E{fill:#875F00}.c5F{fill:#875F5F}.c60{fill:#875F87}.c61{fill:#875FAF}.c62{fill:#875FD7}.c63{fill:#875FFF}.c64{fill:#878700}.c65{fill:#87875F}.c66{fill:#878787}.c67{fill:#8787AF}.c68{fill:#8787D7}.c69{fill:#8787FF}.c6A{fill:#87AF00}.c6B{fill:#87AF5F}.c6C{fill:#87AF87}.c6D{fill:#87AFAF}.c6E{fill:#87AFD7}.c6F{fill:#87AFFF}.c70{fill:#87D700}.c71{fill:#87D75F}.c72{fill:#87D787}.c73{fill:#87D7AF}.c74{fill:#87D7D7}.c75{fill:#87D7FF}.c76{fill:#87FF00}.c77{fill:#87FF5F}.c78{fill:#87FF87}.c79{fill:#87FFAF}.c7A{fill:#87FFD7}.c7B{fill:#87FFFF}.c7C{fill:#AF0000}.c7D{fill:#AF005F}.c7E{fill:#AF0087}.c7F{fill:#AF00AF}.c80{fill:#AF00D7}.c81{fill:#AF00FF}.c82{fill:#AF5F00}.c83{fill:#AF5F5F}.c84{fill:#AF5F87}.c85{fill:#AF5FAF}.c86{fill:#AF5FD7}.c87{fill:#AF5FFF}.c88{fill:#AF8700}.c89{fill:#AF875F}.c8A{fill:#AF8787}.c8B{fill:#AF87AF}.c8C{fill:#AF87D7}.c8D{fill:#AF87FF}.c8E{fill:#AFAF00}.c8F{fill:#AFAF5F}.c90{fill:#AFAF87}.c91{fill:#AFAFAF}.c92{fill:#AFAFD7}.c93{fill:#AFAFFF}.c94{fill:#AFD700}.c95{fill:#AFD75F}.c96{fill:#AFD787}.c97{fill:#AFD7AF}.c98{fill:#AFD7D7}.c99{fill:#AFD7FF}.c9A{fill:#AFFF00}.c9B{fill:#AFFF5F}.c9C{fill:#AFFF87}.c9D{fill:#AFFFAF}.c9E{fill:#AFFFD7}.c9F{fill:#AFFFFF}.cA0{fill:#D70000}.cA1{fill:#D7005F}.cA2{fill:#D70087}.cA3{fill:#D700AF}.cA4{fill:#D700D7}.cA5{fill:#D700FF}.cA6{fill:#D75F00}.cA7{fill:#D75F5F}.cA8{fill:#D75F87}.cA9{fill:#D75FAF}.cAA{fill:#D75FD7}.cAB{fill:#D75FFF}.cAC{fill:#D78700}.cAD{fill:#D7875F}.cAE{fill:#D78787}.cAF{fill:#D787AF}.cB0{fill:#D787D7}.cB1{fill:#D787FF}.cB2{fill:#D7AF00}.cB3{fill:#D7AF5F}.cB4{fill:#D7AF87}.cB5{fill:#D7AFAF}.cB6{fill:#D7AFD7}.cB7{fill:#D7AFFF}.cB8{fill:#D7D700}.cB9{fill:#D7D75F}.cBA{fill:#D7D787}.cBB{fill:#D7D7AF}.cBC{fill:#D7D7D7}.cBD{fill:#D7D7FF}.cBE{fill:#D7FF00}.cBF{fill:#D7FF5F}.cC0{fill:#D7FF87}.cC1{fill:#D7FFAF}.cC2{fill:#D7FFD7}.cC3{fill:#D7FFFF}.cC4{fill:#FF0000}.cC5{fill:#FF005F}.cC6{fill:#FF0087}.cC7{fill:#FF00AF}.cC8{fill:#FF00D7}.cC9{fill:#FF00FF}.cCA{fill:#FF5F00}.cCB{fill:#FF5F5F}.cCC{fill:#FF5F87}.cCD{fill:#FF5FAF}.cCE{fill:#FF5FD7}.cCF{fill:#FF5FFF}.cD0{fill:#FF8700}.cD1{fill:#FF875F}.cD2{fill:#FF8787}.cD3{fill:#FF87AF}.cD4{fill:#FF87D7}.cD5{fill:#FF87FF}.cD6{fill:#FFAF00}.cD7{fill:#FFAF5F}.cD8{fill:#FFAF87}.cD9{fill:#FFAFAF}.cDA{fill:#FFAFD7}.cDB{fill:#FFAFFF}.cDC{fill:#FFD700}.cDD{fill:#FFD75F}.cDE{fill:#FFD787}.cDF{fill:#FFD7AF}.cE0{fill:#FFD7D7}.cE1{fill:#FFD7FF}.cE2{fill:#FFFF00}.cE3{fill:#FFFF5F}.cE4{fill:#FFFF87}.cE5{fill:#FFFFAF}.cE6{fill:#FFFFD7}.cE7{fill:#FFFFFF}.cE8{fill:#080808}.cE9{fill:#121212}.cEA{fill:#1C1C1C}.cEB{fill:#262626}.cEC{fill:#303030}.cED{fill:#3A3A3A}.cEE{fill:#444444}.cEF{fill:#4E4E4E}.cF0{fill:#585858}.cF1{fill:#626262}.cF2{fill:#6C6C6C}.cF3{fill:#767676}.cF4{fill:#808080}.cF5{fill:#8A8A8A}.cF6{fill:#949494}.cF7{fill:#9E9E9E}.cF8{fill:#A8A8A8}.cF9{fill:#B2B2B2}.cFA{fill:#BCBCBC}.cFB{fill:#C6C6C6}.cFC{fill:#D0D0D0}.cFD{fill:#DADADA}.cFE{fill:#E4E4E4}.cFF{fill:#EEEEEE}svg > text{fill:#000000}@media (prefers-color-scheme: dark) {:root {background: #181818}.c0{fill:#E5E5E5}.c1{fill:#CD3131}.c2{fill:#0DBC79}.c3{fill:#E5E510}.c4{fill:#2472C8}.c5{fill:#BC3FBC}.c6{fill:#11A8CD}.c7{fill:#000000}.ca{fill:#E5E5E5}.cb{fill:#F14C4C}.cc{fill:#23D18B}.cd{fill:#F5F543}.ce{fill:#3B8EEA}.cf{fill:#D670D6}.cg{fill:#29B8DB}.ch{fill:#666666}.c10{fill:#000000}.c11{fill:#00005F}.c12{fill:#000087}.c13{fill:#0000AF}.c14{fill:#0000D7}.c15{fill:#0000FF}.c16{fill:#005F00}.c17{fill:#005F5F}.c18{fill:#005F87}.c19{fill:#005FAF}.c1A{fill:#005FD7}.c1B{fill:#005FFF}.c1C{fill:#008700}.c1D{fill:#00875F}.c1E{fill:#008787}.c1F{fill:#0087AF}.c20{fill:#0087D7}.c21{fill:#0087FF}.c22{fill:#00AF00}.c23{fill:#00AF5F}.c24{fill:#00AF87}.c25{fill:#00AFAF}.c26{fill:#00AFD7}.c27{fill:#00AFFF}.c28{fill:#00D700}.c29{fill:#00D75F}.c2A{fill:#00D787}.c2B{fill:#00D7AF}.c2C{fill:#00D7D7}.c2D{fill:#00D7FF}.c2E{fill:#00FF00}.c2F{fill:#00FF5F}.c30{fill:#00FF87}.c31{fill:#00FFAF}.c32{fill:#00FFD7}.c33{fill:#00FFFF}.c34{fill:#5F0000}.c35{fill:#5F005F}.c36{fill:#5F0087}.c37{fill:#5F00AF}.c38{fill:#5F00D7}.c39{fill:#5F00FF}.c3A{fill:#5F5F00}.c3B{fill:#5F5F5F}.c3C{fill:#5F5F87}.c3D{fill:#5F5FAF}.c3E{fill:#5F5FD7}.c3F{fill:#5F5FFF}.c40{fill:#5F8700}.c41{fill:#5F875F}.c42{fill:#5F8787}.c43{fill:#5F87AF}.c44{fill:#5F87D7}.c45{fill:#5F87FF}.c46{fill:#5FAF00}.c47{fill:#5FAF5F}.c48{fill:#5FAF87}.c49{fill:#5FAFAF}.c4A{fill:#5FAFD7}.c4B{fill:#5FAFFF}.c4C{fill:#5FD700}.c4D{fill:#5FD75F}.c4E{fill:#5FD787}.c4F{fill:#5FD7AF}.c50{fill:#5FD7D7}.c51{fill:#5FD7FF}.c52{fill:#5FFF00}.c53{fill:#5FFF5F}.c54{fill:#5FFF87}.c55{fill:#5FFFAF}.c56{fill:#5FFFD7}.c57{fill:#5FFFFF}.c58{fill:#870000}.c59{fill:#87005F}.c5A{fill:#870087}.c5B{fill:#8700AF}.c5C{fill:#8700D7}.c5D{fill:#8700FF}.c5E{fill:#875F00}.c5F{fill:#875F5F}.c60{fill:#875F87}.c61{fill:#875FAF}.c62{fill:#875FD7}.c63{fill:#875FFF}.c64{fill:#878700}.c65{fill:#87875F}.c66{fill:#878787}.c67{fill:#8787AF}.c68{fill:#8787D7}.c69{fill:#8787FF}.c6A{fill:#87AF00}.c6B{fill:#87AF5F}.c6C{fill:#87AF87}.c6D{fill:#87AFAF}.c6E{fill:#87AFD7}.c6F{fill:#87AFFF}.c70{fill:#87D700}.c71{fill:#87D75F}.c72{fill:#87D787}.c73{fill:#87D7AF}.c74{fill:#87D7D7}.c75{fill:#87D7FF}.c76{fill:#87FF00}.c77{fill:#87FF5F}.c78{fill:#87FF87}.c79{fill:#87FFAF}.c7A{fill:#87FFD7}.c7B{fill:#87FFFF}.c7C{fill:#AF0000}.c7D{fill:#AF005F}.c7E{fill:#AF0087}.c7F{fill:#AF00AF}.c80{fill:#AF00D7}.c81{fill:#AF00FF}.c82{fill:#AF5F00}.c83{fill:#AF5F5F}.c84{fill:#AF5F87}.c85{fill:#AF5FAF}.c86{fill:#AF5FD7}.c87{fill:#AF5FFF}.c88{fill:#AF8700}.c89{fill:#AF875F}.c8A{fill:#AF8787}.c8B{fill:#AF87AF}.c8C{fill:#AF87D7}.c8D{fill:#AF87FF}.c8E{fill:#AFAF00}.c8F{fill:#AFAF5F}.c90{fill:#AFAF87}.c91{fill:#AFAFAF}.c92{fill:#AFAFD7}.c93{fill:#AFAFFF}.c94{fill:#AFD700}.c95{fill:#AFD75F}.c96{fill:#AFD787}.c97{fill:#AFD7AF}.c98{fill:#AFD7D7}.c99{fill:#AFD7FF}.c9A{fill:#AFFF00}.c9B{fill:#AFFF5F}.c9C{fill:#AFFF87}.c9D{fill:#AFFFAF}.c9E{fill:#AFFFD7}.c9F{fill:#AFFFFF}.cA0{fill:#D70000}.cA1{fill:#D7005F}.cA2{fill:#D70087}.cA3{fill:#D700AF}.cA4{fill:#D700D7}.cA5{fill:#D700FF}.cA6{fill:#D75F00}.cA7{fill:#D75F5F}.cA8{fill:#D75F87}.cA9{fill:#D75FAF}.cAA{fill:#D75FD7}.cAB{fill:#D75FFF}.cAC{fill:#D78700}.cAD{fill:#D7875F}.cAE{fill:#D78787}.cAF{fill:#D787AF}.cB0{fill:#D787D7}.cB1{fill:#D787FF}.cB2{fill:#D7AF00}.cB3{fill:#D7AF5F}.cB4{fill:#D7AF87}.cB5{fill:#D7AFAF}.cB6{fill:#D7AFD7}.cB7{fill:#D7AFFF}.cB8{fill:#D7D700}.cB9{fill:#D7D75F}.cBA{fill:#D7D787}.cBB{fill:#D7D7AF}.cBC{fill:#D7D7D7}.cBD{fill:#D7D7FF}.cBE{fill:#D7FF00}.cBF{fill:#D7FF5F}.cC0{fill:#D7FF87}.cC1{fill:#D7FFAF}.cC2{fill:#D7FFD7}.cC3{fill:#D7FFFF}.cC4{fill:#FF0000}.cC5{fill:#FF005F}.cC6{fill:#FF0087}.cC7{fill:#FF00AF}.cC8{fill:#FF00D7}.cC9{fill:#FF00FF}.cCA{fill:#FF5F00}.cCB{fill:#FF5F5F}.cCC{fill:#FF5F87}.cCD{fill:#FF5FAF}.cCE{fill:#FF5FD7}.cCF{fill:#FF5FFF}.cD0{fill:#FF8700}.cD1{fill:#FF875F}.cD2{fill:#FF8787}.cD3{fill:#FF87AF}.cD4{fill:#FF87D7}.cD5{fill:#FF87FF}.cD6{fill:#FFAF00}.cD7{fill:#FFAF5F}.cD8{fill:#FFAF87}.cD9{fill:#FFAFAF}.cDA{fill:#FFAFD7}.cDB{fill:#FFAFFF}.cDC{fill:#FFD700}.cDD{fill:#FFD75F}.cDE{fill:#FFD787}.cDF{fill:#FFD7AF}.cE0{fill:#FFD7D7}.cE1{fill:#FFD7FF}.cE2{fill:#FFFF00}.cE3{fill:#FFFF5F}.cE4{fill:#FFFF87}.cE5{fill:#FFFFAF}.cE6{fill:#FFFFD7}.cE7{fill:#FFFFFF}.cE8{fill:#080808}.cE9{fill:#121212}.cEA{fill:#1C1C1C}.cEB{fill:#262626}.cEC{fill:#303030}.cED{fill:#3A3A3A}.cEE{fill:#444444}.cEF{fill:#4E4E4E}.cF0{fill:#585858}.cF1{fill:#626262}.cF2{fill:#6C6C6C}.cF3{fill:#767676}.cF4{fill:#808080}.cF5{fill:#8A8A8A}.cF6{fill:#949494}.cF7{fill:#9E9E9E}.cF8{fill:#A8A8A8}.cF9{fill:#B2B2B2}.cFA{fill:#BCBCBC}.cFB{fill:#C6C6C6}.cFC{fill:#D0D0D0}.cFD{fill:#DADADA}.cFE{fill:#E4E4E4}.cFF{fill:#EEEEEE}svg > text{fill:#E5E5E5}}</style><text x="0" y="10" width="10" height="18" class='t c0' ><tspan textLength="10">█</tspan></text><text x="10" y="10" width="10" height="18" class='t c1' ><tspan textLength="10">█</tspan></text><text x="20" y="10" width="10" height="18" class='t c2' ><tspan textLength="10">█</tspan></text><text x="30" y="10" width="10" height="18" class='t c3' ><tspan textLength="10">█</tspan></text><text x="40" y="10" width="10" height="18" class='t c4' ><tspan textLength="10">█</tspan></text><text x="50" y="10" width="10" height="18" class='t c5' ><tspan textLength="10">█</tspan></text><text x="60" y="10" width="10" height="18" class='t c6' ><tspan textLength="10">█</tspan></text><text x="70" y="10" width="10" height="18" class='t c7' ><tspan textLength="10">█</tspan></text><text x="0" y="28" width="10" height="18" class='t ca' ><tspan textLength="10">█</tspan></text><text x="10" y="28" width="10" height="18" class='t cb' ><tspan textLength="10">█</tspan></text><text x="20" y="28" width="10" height="18" class='t cc' ><tspan textLength="10">█</tspan></text><text x="30" y="28" width="10" height="18" class='t cd' ><tspan textLength="10">█</tspan></text><text x="40" y="28" width="10" height="18" class='t ce' ><tspan textLength="10">█</tspan></text><text x="50" y="28" width="10" height="18" class='t cf' ><tspan textLength="10">█</tspan></text><text x="60" y="28" width="10" height="18" class='t cg' ><tspan textLength="10">█</tspan></text><text x="70" y="28" width="10" height="18" class='t ch' ><tspan textLength="10">█</tspan></text><text x="0" y="64" width="10" height="18" class='t c10' ><tspan textLength="10">█</tspan></text><text x="10" y="64" width="10" height="18" class='t c11' ><tspan textLength="10">█</tspan></text><text x="20" y="64" width="10" height="18" class='t c12' ><tspan textLength="10">█</tspan></text><text x="30" y="64" width="10" height="18" class='t c13' ><tspan textLength="10">█</tspan></text><text x="40" y="64" width="10" height="18" class='t c14' ><tspan textLength="10">█</tspan></text><text x="50" y="64" width="10" height="18" class='t c15' ><tspan textLength="10">█</tspan></text><text x="60" y="64" width="10" height="18" class='t c16' ><tspan textLength="10">█</tspan></text><text x="70" y="64" width="10" height="18" class='t c17' ><tspan textLength="10">█</tspan></text><text x="80" y="64" width="10" height="18" class='t c18' ><tspan textLength="10">█</tspan></text><text x="90" y="64" width="10" height="18" class='t c19' ><tspan textLength="10">█</tspan></text><text x="100" y="64" width="10" height="18" class='t c1A' ><tspan textLength="10">█</tspan></text><text x="110" y="64" width="10" height="18" class='t c1B' ><tspan textLength="10">█</tspan></text><text x="120" y="64" width="10" height="18" class='t c1C' ><tspan textLength="10">█</tspan></text><text x="130" y="64" width="10" height="18" class='t c1D' ><tspan textLength="10">█</tspan></text><text x="140" y="64" width="10" height="18" class='t c1E' ><tspan textLength="10">█</tspan></text><text x="150" y="64" width="10" height="18" class='t c1F' ><tspan textLength="10">█</tspan></text><text x="160" y="64" width="10" height="18" class='t c20' ><tspan textLength="10">█</tspan></text><text x="170" y="64" width="10" height="18" class='t c21' ><tspan textLength="10">█</tspan></text><text x="0" y="82" width="10" height="18" class='t c22' ><tspan textLength="10">█</tspan></text><text x="10" y="82" width="10" height="18" class='t c23' ><tspan textLength="10">█</tspan></text><text x="20" y="82" width="10" height="18" class='t c24' ><tspan textLength="10">█</tspan></text><text x="30" y="82" width="10" height="18" class='t c25' ><tspan textLength="10">█</tspan></text><text x="40" y="82" width="10" height="18" class='t c26' ><tspan textLength="10">█</tspan></text><text x="50" y="82" width="10" height="18" class='t c27' ><tspan textLength="10">█</tspan></text><text x="60" y="82" width="10" height="18" class='t c28' ><tspan textLength="10">█</tspan></text><text x="70" y="82" width="10" height="18" class='t c29' ><tspan textLength="10">█</tspan></text><text x="80" y="82" width="10" height="18" class='t c2A' ><tspan textLength="10">█</tspan></text><text x="90" y="82" width="10" height="18" class='t c2B' ><tspan textLength="10">█</tspan></text><text x="100" y="82" width="10" height="18" class='t c2C' ><tspan textLength="10">█</tspan></text><text x="110" y="82" width="10" height="18" class='t c2D' ><tspan textLength="10">█</tspan></text><text x="120" y="82" width="10" height="18" class='t c2E' ><tspan textLength="10">█</tspan></text><text x="130" y="82" width="10" height="18" class='t c2F' ><tspan textLength="10">█</tspan></text><text x="140" y="82" width="10" height="18" class='t c30' ><tspan textLength="10">█</tspan></text><text x="150" y="82" width="10" height="18" class='t c31' ><tspan textLength="10">█</tspan></text><text x="160" y="82" width="10" height="18" class='t c32' ><tspan textLength="10">█</tspan></text><text x="170" y="82" width="10" height="18" class='t c33' ><tspan textLength="10">█</tspan></text><text x="0" y="100" width="10" height="18" class='t c34' ><tspan textLength="10">█</tspan></text><text x="10" y="100" width="10" height="18" class='t c35' ><tspan textLength="10">█</tspan></text><text x="20" y="100" width="10" height="18" class='t c36' ><tspan textLength="10">█</tspan></text><text x="30" y="100" width="10" height="18" class='t c37' ><tspan textLength="10">█</tspan></text><text x="40" y="100" width="10" height="18" class='t c38' ><tspan textLength="10">█</tspan></text><text x="50" y="100" width="10" height="18" class='t c39' ><tspan textLength="10">█</tspan></text><text x="60" y="100" width="10" height="18" class='t c3A' ><tspan textLength="10">█</tspan></text><text x="70" y="100" width="10" height="18" class='t c3B' ><tspan textLength="10">█</tspan></text><text x="80" y="100" width="10" height="18" class='t c3C' ><tspan textLength="10">█</tspan></text><text x="90" y="100" width="10" height="18" class='t c3D' ><tspan textLength="10">█</tspan></text><text x="100" y="100" width="10" height="18" class='t c3E' ><tspan textLength="10">█</tspan></text><text x="110" y="100" width="10" height="18" class='t c3F' ><tspan textLength="10">█</tspan></text><text x="120" y="100" width="10" height="18" class='t c40' ><tspan textLength="10">█</tspan></text><text x="130" y="100" width="10" height="18" class='t c41' ><tspan textLength="10">█</tspan></text><text x="140" y="100" width="10" height="18" class='t c42' ><tspan textLength="10">█</tspan></text><text x="150" y="100" width="10" height="18" class='t c43' ><tspan textLength="10">█</tspan></text><text x="160" y="100" width="10" height="18" class='t c44' ><tspan textLength="10">█</tspan></text><text x="170" y="100" width="10" height="18" class='t c45' ><tspan textLength="10">█</tspan></text><text x="0" y="118" width="10" height="18" class='t c46' ><tspan textLength="10">█</tspan></text><text x="10" y="118" width="10" height="18" class='t c47' ><tspan textLength="10">█</tspan></text><text x="20" y="118" width="10" height="18" class='t c48' ><tspan textLength="10">█</tspan></text><text x="30" y="118" width="10" height="18" class='t c49' ><tspan textLength="10">█</tspan></text><text x="40" y="118" width="10" height="18" class='t c4A' ><tspan textLength="10">█</tspan></text><text x="50" y="118" width="10" height="18" class='t c4B' ><tspan textLength="10">█</tspan></text><text x="60" y="118" width="10" height="18" class='t c4C' ><tspan textLength="10">█</tspan></text><text x="70" y="118" width="10" height="18" class='t c4D' ><tspan textLength="10">█</tspan></text><text x="80" y="118" width="10" height="18" class='t c4E' ><tspan textLength="10">█</tspan></text><text x="90" y="118" width="10" height="18" class='t c4F' ><tspan textLength="10">█</tspan></text><text x="100" y="118" width="10" height="18" class='t c50' ><tspan textLength="10">█</tspan></text><text x="110" y="118" width="10" height="18" class='t c51' ><tspan textLength="10">█</tspan></text><text x="120" y="118" width="10" height="18" class='t c52' ><tspan textLength="10">█</tspan></text><text x="130" y="118" width="10" height="18" class='t c53' ><tspan textLength="10">█</tspan></text><text x="140" y="118" width="10" height="18" class='t c54' ><tspan textLength="10">█</tspan></text><text x="150" y="118" width="10" height="18" class='t c55' ><tspan textLength="10">█</tspan></text><text x="160" y="118" width="10" height="18" class='t c56' ><tspan textLength="10">█</tspan></text><text x="170" y="118" width="10" height="18" class='t c57' ><tspan textLength="10">█</tspan></text><text x="0" y="136" width="10" height="18" class='t c58' ><tspan textLength="10">█</tspan></text><text x="10" y="136" width="10" height="18" class='t c59' ><tspan textLength="10">█</tspan></text><text x="20" y="136" width="10" height="18" class='t c5A' ><tspan textLength="10">█</tspan></text><text x="30" y="136" width="10" height="18" class='t c5B' ><tspan textLength="10">█</tspan></text><text x="40" y="136" width="10" height="18" class='t c5C' ><tspan textLength="10">█</tspan></text><text x="50" y="136" width="10" height="18" class='t c5D' ><tspan textLength="10">█</tspan></text><text x="60" y="136" width="10" height="18" class='t c5E' ><tspan textLength="10">█</tspan></text><text x="70" y="136" width="10" height="18" class='t c5F' ><tspan textLength="10">█</tspan></text><text x="80" y="136" width="10" height="18" class='t c60' ><tspan textLength="10">█</tspan></text><text x="90" y="136" width="10" height="18" class='t c61' ><tspan textLength="10">█</tspan></text><text x="100" y="136" width="10" height="18" class='t c62' ><tspan textLength="10">█</tspan></text><text x="110" y="136" width="10" height="18" class='t c63' ><tspan textLength="10">█</tspan></text><text x="120" y="136" width="10" height="18" class='t c64' ><tspan textLength="10">█</tspan></text><text x="130" y="136" width="10" height="18" class='t c65' ><tspan textLength="10">█</tspan></text><text x="140" y="136" width="10" height="18" class='t c66' ><tspan textLength="10">█</tspan></text><text x="150" y="136" width="10" height="18" class='t c67' ><tspan textLength="10">█</tspan></text><text x="160" y="136" width="10" height="18" class='t c68' ><tspan textLength="10">█</tspan></text><text x="170" y="136" width="10" height="18" class='t c69' ><tspan textLength="10">█</tspan></text><text x="0" y="154" width="10" height="18" class='t c6A' ><tspan textLength="10">█</tspan></text><text x="10" y="154" width="10" height="18" class='t c6B' ><tspan textLength="10">█</tspan></text><text x="20" y="154" width="10" height="18" class='t c6C' ><tspan textLength="10">█</tspan></text><text x="30" y="154" width="10" height="18" class='t c6D' ><tspan textLength="10">█</tspan></text><text x="40" y="154" width="10" height="18" class='t c6E' ><tspan textLength="10">█</tspan></text><text x="50" y="154" width="10" height="18" class='t c6F' ><tspan textLength="10">█</tspan></text><text x="60" y="154" width="10" height="18" class='t c70' ><tspan textLength="10">█</tspan></text><text x="70" y="154" width="10" height="18" class='t c71' ><tspan textLength="10">█</tspan></text><text x="80" y="154" width="10" height="18" class='t c72' ><tspan textLength="10">█</tspan></text><text x="90" y="154" width="10" height="18" class='t c73' ><tspan textLength="10">█</tspan></text><text x="100" y="154" width="10" height="18" class='t c74' ><tspan textLength="10">█</tspan></text><text x="110" y="154" width="10" height="18" class='t c75' ><tspan textLength="10">█</tspan></text><text x="120" y="154" width="10" height="18" class='t c76' ><tspan textLength="10">█</tspan></text><text x="130" y="154" width="10" height="18" class='t c77' ><tspan textLength="10">█</tspan></text><text x="140" y="154" width="10" height="18" class='t c78' ><tspan textLength="10">█</tspan></text><text x="150" y="154" width="10" height="18" class='t c79' ><tspan textLength="10">█</tspan></text><text x="160" y="154" width="10" height="18" class='t c7A' ><tspan textLength="10">█</tspan></text><text x="170" y="154" width="10" height="18" class='t c7B' ><tspan textLength="10">█</tspan></text><text x="0" y="172" width="10" height="18" class='t c7C' ><tspan textLength="10">█</tspan></text><text x="10" y="172" width="10" height="18" class='t c7D' ><tspan textLength="10">█</tspan></text><text x="20" y="172" width="10" height="18" class='t c7E' ><tspan textLength="10">█</tspan></text><text x="30" y="172" width="10" height="18" class='t c7F' ><tspan textLength="10">█</tspan></text><text x="40" y="172" width="10" height="18" class='t c80' ><tspan textLength="10">█</tspan></text><text x="50" y="172" width="10" height="18" class='t c81' ><tspan textLength="10">█</tspan></text><text x="60" y="172" width="10" height="18" class='t c82' ><tspan textLength="10">█</tspan></text><text x="70" y="172" width="10" height="18" class='t c83' ><tspan textLength="10">█</tspan></text><text x="80" y="172" width="10" height="18" class='t c84' ><tspan textLength="10">█</tspan></text><text x="90" y="172" width="10" height="18" class='t c85' ><tspan textLength="10">█</tspan></text><text x="100" y="172" width="10" height="18" class='t c86' ><tspan textLength="10">█</tspan></text><text x="110" y="172" width="10" height="18" class='t c87' ><tspan textLength="10">█</tspan></text><text x="120" y="172" width="10" height="18" class='t c88' ><tspan textLength="10">█</tspan></text><text x="130" y="172" width="10" height="18" class='t c89' ><tspan textLength="10">█</tspan></text><text x="140" y="172" width="10" height="18" class='t c8A' ><tspan textLength="10">█</tspan></text><text x="150" y="172" width="10" height="18" class='t c8B' ><tspan textLength="10">█</tspan></text><text x="160" y="172" width="10" height="18" class='t c8C' ><tspan textLength="10">█</tspan></text><text x="170" y="172" width="10" height="18" class='t c8D' ><tspan textLength="10">█</tspan></text><text x="0" y="190" width="10" height="18" class='t c8E' ><tspan textLength="10">█</tspan></text><text x="10" y="190" width="10" height="18" class='t c8F' ><tspan textLength="10">█</tspan></text><text x="20" y="190" width="10" height="18" class='t c90' ><tspan textLength="10">█</tspan></text><text x="30" y="190" width="10" height="18" class='t c91' ><tspan textLength="10">█</tspan></text><text x="40" y="190" width="10" height="18" class='t c92' ><tspan textLength="10">█</tspan></text><text x="50" y="190" width="10" height="18" class='t c93' ><tspan textLength="10">█</tspan></text><text x="60" y="190" width="10" height="18" class='t c94' ><tspan textLength="10">█</tspan></text><text x="70" y="190" width="10" height="18" class='t c95' ><tspan textLength="10">█</tspan></text><text x="80" y="190" width="10" height="18" class='t c96' ><tspan textLength="10">█</tspan></text><text x="90" y="190" width="10" height="18" class='t c97' ><tspan textLength="10">█</tspan></text><text x="100" y="190" width="10" height="18" class='t c98' ><tspan textLength="10">█</tspan></text><text x="110" y="190" width="10" height="18" class='t c99' ><tspan textLength="10">█</tspan></text><text x="120" y="190" width="10" height="18" class='t c9A' ><tspan textLength="10">█</tspan></text><text x="130" y="190" width="10" height="18" class='t c9B' ><tspan textLength="10">█</tspan></text><text x="140" y="190" width="10" height="18" class='t c9C' ><tspan textLength="10">█</tspan></text><text x="150" y="190" width="10" height="18" class='t c9D' ><tspan textLength="10">█</tspan></text><text x="160" y="190" width="10" height="18" class='t c9E' ><tspan textLength="10">█</tspan></text><text x="170" y="190" width="10" height="18" class='t c9F' ><tspan textLength="10">█</tspan></text><text x="0" y="208" width="10" height="18" class='t cA0' ><tspan textLength="10">█</tspan></text><text x="10" y="208" width="10" height="18" class='t cA1' ><tspan textLength="10">█</tspan></text><text x="20" y="208" width="10" height="18" class='t cA2' ><tspan textLength="10">█</tspan></text><text x="30" y="208" width="10" height="18" class='t cA3' ><tspan textLength="10">█</tspan></text><text x="40" y="208" width="10" height="18" class='t cA4' ><tspan textLength="10">█</tspan></text><text x="50" y="208" width="10" height="18" class='t cA5' ><tspan textLength="10">█</tspan></text><text x="60" y="208" width="10" height="18" class='t cA6' ><tspan textLength="10">█</tspan></text><text x="70" y="208" width="10" height="18" class='t cA7' ><tspan textLength="10">█</tspan></text><text x="80" y="208" width="10" height="18" class='t cA8' ><tspan textLength="10">█</tspan></text><text x="90" y="208" width="10" height="18" class='t cA9' ><tspan textLength="10">█</tspan></text><text x="100" y="208" width="10" height="18" class='t cAA' ><tspan textLength="10">█</tspan></text><text x="110" y="208" width="10" height="18" class='t cAB' ><tspan textLength="10">█</tspan></text><text x="120" y="208" width="10" height="18" class='t cAC' ><tspan textLength="10">█</tspan></text><text x="130" y="208" width="10" height="18" class='t cAD' ><tspan textLength="10">█</tspan></text><text x="140" y="208" width="10" height="18" class='t cAE' ><tspan textLength="10">█</tspan></text><text x="150" y="208" width="10" height="18" class='t cAF' ><tspan textLength="10">█</tspan></text><text x="160" y="208" width="10" height="18" class='t cB0' ><tspan textLength="10">█</tspan></text><text x="170" y="208" width="10" height="18" class='t cB1' ><tspan textLength="10">█</tspan></text><text x="0" y="226" width="10" height="18" class='t cB2' ><tspan textLength="10">█</tspan></text><text x="10" y="226" width="10" height="18" class='t cB3' ><tspan textLength="10">█</tspan></text><text x="20" y="226" width="10" height="18" class='t cB4' ><tspan textLength="10">█</tspan></text><text x="30" y="226" width="10" height="18" class='t cB5' ><tspan textLength="10">█</tspan></text><text x="40" y="226" width="10" height="18" class='t cB6' ><tspan textLength="10">█</tspan></text><text x="50" y="226" width="10" height="18" class='t cB7' ><tspan textLength="10">█</tspan></text><text x="60" y="226" width="10" height="18" class='t cB8' ><tspan textLength="10">█</tspan></text><text x="70" y="226" width="10" height="18" class='t cB9' ><tspan textLength="10">█</tspan></text><text x="80" y="226" width="10" height="18" class='t cBA' ><tspan textLength="10">█</tspan></text><text x="90" y="226" width="10" height="18" class='t cBB' ><tspan textLength="10">█</tspan></text><text x="100" y="226" width="10" height="18" class='t cBC' ><tspan textLength="10">█</tspan></text><text x="110" y="226" width="10" height="18" class='t cBD' ><tspan textLength="10">█</tspan></text><text x="120" y="226" width="10" height="18" class='t cBE' ><tspan textLength="10">█</tspan></text><text x="130" y="226" width="10" height="18" class='t cBF' ><tspan textLength="10">█</tspan></text><text x="140" y="226" width="10" height="18" class='t cC0' ><tspan textLength="10">█</tspan></text><text x="150" y="226" width="10" height="18" class='t cC1' ><tspan textLength="10">█</tspan></text><text x="160" y="226" width="10" height="18" class='t cC2' ><tspan textLength="10">█</tspan></text><text x="170" y="226" width="10" height="18" class='t cC3' ><tspan textLength="10">█</tspan></text><text x="0" y="244" width="10" height="18" class='t cC4' ><tspan textLength="10">█</tspan></text><text x="10" y="244" width="10" height="18" class='t cC5' ><tspan textLength="10">█</tspan></text><text x="20" y="244" width="10" height="18" class='t cC6' ><tspan textLength="10">█</tspan></text><text x="30" y="244" width="10" height="18" class='t cC7' ><tspan textLength="10">█</tspan></text><text x="40" y="244" width="10" height="18" class='t cC8' ><tspan textLength="10">█</tspan></text><text x="50" y="244" width="10" height="18" class='t cC9' ><tspan textLength="10">█</tspan></text><text x="60" y="244" width="10" height="18" class='t cCA' ><tspan textLength="10">█</tspan></text><text x="70" y="244" width="10" height="18" class='t cCB' ><tspan textLength="10">█</tspan></text><text x="80" y="244" width="10" height="18" class='t cCC' ><tspan textLength="10">█</tspan></text><text x="90" y="244" width="10" height="18" class='t cCD' ><tspan textLength="10">█</tspan></text><text x="100" y="244" width="10" height="18" class='t cCE' ><tspan textLength="10">█</tspan></text><text x="110" y="244" width="10" height="18" class='t cCF' ><tspan textLength="10">█</tspan></text><text x="120" y="244" width="10" height="18" class='t cD0' ><tspan textLength="10">█</tspan></text><text x="130" y="244" width="10" height="18" class='t cD1' ><tspan textLength="10">█</tspan></text><text x="140" y="244" width="10" height="18" class='t cD2' ><tspan textLength="10">█</tspan></text><text x="150" y="244" width="10" height="18" class='t cD3' ><tspan textLength="10">█</tspan></text><text x="160" y="244" width="10" height="18" class='t cD4' ><tspan textLength="10">█</tspan></text><text x="170" y="244" width="10" height="18" class='t cD5' ><tspan textLength="10">█</tspan></text><text x="0" y="262" width="10" height="18" class='t cD6' ><tspan textLength="10">█</tspan></text><text x="10" y="262" width="10" height="18" class='t cD7' ><tspan textLength="10">█</tspan></text><text x="20" y="262" width="10" height="18" class='t cD8' ><tspan textLength="10">█</tspan></text><text x="30" y="262" width="10" height="18" class='t cD9' ><tspan textLength="10">█</tspan></text><text x="40" y="262" width="10" height="18" class='t cDA' ><tspan textLength="10">█</tspan></text><text x="50" y="262" width="10" height="18" class='t cDB' ><tspan textLength="10">█</tspan></text><text x="60" y="262" width="10" height="18" class='t cDC' ><tspan textLength="10">█</tspan></text><text x="70" y="262" width="10" height="18" class='t cDD' ><tspan textLength="10">█</tspan></text><text x="80" y="262" width="10" height="18" class='t cDE' ><tspan textLength="10">█</tspan></text><text x="90" y="262" width="10" height="18" class='t cDF' ><tspan textLength="10">█</tspan></text><text x="100" y="262" width="10" height="18" class='t cE0' ><tspan textLength="10">█</tspan></text><text x="110" y="262" width="10" height="18" class='t cE1' ><tspan textLength="10">█</tspan></text><text x="120" y="262" width="10" height="18" class='t cE2' ><tspan textLength="10">█</tspan></text><text x="130" y="262" width="10" height="18" class='t cE3' ><tspan textLength="10">█</tspan></text><text x="140" y="262" width="10" height="18" class='t cE4' ><tspan textLength="10">█</tspan></text><text x="150" y="262" width="10" height="18" class='t cE5' ><tspan textLength="10">█</tspan></text><text x="160" y="262" width="10" height="18" class='t cE6' ><tspan textLength="10">█</tspan></text><text x="170" y="262" width="10" height="18" class='t cE7' ><tspan textLength="10">█</tspan></text><text x="0" y="298" width="10" height="18" class='t cE8' ><tspan textLength="10">█</tspan></text><text x="10" y="298" width="10" height="18" class='t cE9' ><tspan textLength="10">█</tspan></text><text x="20" y="298" width="10" height="18" class='t cEA' ><tspan textLength="10">█</tspan></text><text x="30" y="298" width="10" height="18" class='t cEB' ><tspan textLength="10">█</tspan></text><text x="40" y="298" width="10" height="18" class='t cEC' ><tspan textLength="10">█</tspan></text><text x="50" y="298" width="10" height="18" class='t cED' ><tspan textLength="10">█</tspan></text><text x="60" y="298" width="10" height="18" class='t cEE' ><tspan textLength="10">█</tspan></text><text x="70" y="298" width="10" height="18" class='t cEF' ><tspan textLength="10">█</tspan></text><text x="80" y="298" width="10" height="18" class='t cF0' ><tspan textLength="10">█</tspan></text><text x="90" y="298" width="10" height="18" class='t cF1' ><tspan textLength="10">█</tspan></text><text x="100" y="298" width="10" height="18" class='t cF2' ><tspan textLength="10">█</tspan></text><text x="110" y="298" width="10" height="18" class='t cF3' ><tspan textLength="10">█</tspan></text><text x="120" y="298" width="10" height="18" class='t cF4' ><tspan textLength="10">█</tspan></text><text x="130" y="298" width="10" height="18" class='t cF5' ><tspan textLength="10">█</tspan></text><text x="140" y="298" width="10" height="18" class='t cF6' ><tspan textLength="10">█</tspan></text><text x="150" y="298" width="10" height="18" class='t cF7' ><tspan textLength="10">█</tspan></text><text x="160" y="298" width="10" height="18" class='t cF8' ><tspan textLength="10">█</tspan></text><text x="170" y="298" width="10" height="18" class='t cF9' ><tspan textLength="10">█</tspan></text><text x="180" y="298" width="10" height="18" class='t cFA' ><tspan textLength="10">█</tspan></text><text x="190" y="298" width="10" height="18" class='t cFB' ><tspan textLength="10">█</tspan></text><text x="200" y="298" width="10" height="18" class='t cFC' ><tspan textLength="10">█</tspan></text><text x="210" y="298" width="10" height="18" class='t cFD' ><tspan textLength="10">█</tspan></text><text x="220" y="298" width="10" height="18" class='t cFE' ><tspan textLength="10">█</tspan></text><text x="230" y="298" width="10" height="18" class='t cFF' ><tspan textLength="10">█</tspan></text></svg>