<svg width="800" height="306" xmlns="http://www.w3.org/2000/svg" xmlns:xlink="http://www.w3.org/1999/xlink"><style>.t{dominant-baseline:central;font-variant-ligatures:none;white-space: pre;font-family:Consolas,Courier New,Monaco;font-size:16px;}.b{font-weight:bold}:root {color-scheme: light dark; background: #FFFFFF}.c2{fill:#0DBC79}.c4{fill:#2472C8}.c6{fill:#11A8CD}.c5{fill:#BC3FBC}svg > text{fill:#000000}@media (prefers-color-scheme: dark) {:root {background: #181818}.c2{fill:#0DBC79}.c4{fill:#2472C8}.c6{fill:#11A8CD}.c5{fill:#BC3FBC}svg > text{fill:#E5E5E5}}</style><text x="0" y="10" width="110" height="18" class='t b' ><tspan textLength="110">Benchmark 1</tspan></text><text x="110" y="10" width="290" height="18" class='t' ><tspan textLength="290">: svgo ./bench.svg -o ./a.svg</tspan></text><text x="0" y="28" width="80" height="18" class='t' ><tspan textLength="80">  Time (</tspan></text><text x="80" y="28" width="40" height="18" class='t c2 b' ><tspan textLength="40">mean</tspan></text><text x="120" y="28" width="30" height="18" class='t' ><tspan textLength="30"> ± </tspan></text><text x="150" y="28" width="10" height="18" class='t c2' ><tspan textLength="10">σ</tspan></text><text x="160" y="28" width="70" height="18" class='t' ><tspan textLength="70">):     </tspan></text><text x="230" y="28" width="80" height="18" class='t c2 b' ><tspan textLength="80"> 1.154 s</tspan></text><text x="310" y="28" width="30" height="18" class='t' ><tspan textLength="30"> ± </tspan></text><text x="340" y="28" width="80" height="18" class='t c2' ><tspan textLength="80"> 0.017 s</tspan></text><text x="420" y="28" width="110" height="18" class='t' ><tspan textLength="110">    [User: </tspan></text><text x="530" y="28" width="70" height="18" class='t c4' ><tspan textLength="70">1.048 s</tspan></text><text x="600" y="28" width="100" height="18" class='t' ><tspan textLength="100">, System: </tspan></text><text x="700" y="28" width="70" height="18" class='t c4' ><tspan textLength="70">0.316 s</tspan></text><text x="770" y="28" width="10" height="18" class='t' ><tspan textLength="10">]</tspan></text><text x="0" y="46" width="90" height="18" class='t' ><tspan textLength="90">  Range (</tspan></text><text x="90" y="46" width="30" height="18" class='t c6' ><tspan textLength="30">min</tspan></text><text x="120" y="46" width="30" height="18" class='t' ><tspan textLength="30"> … </tspan></text><text x="150" y="46" width="30" height="18" class='t c5' ><tspan textLength="30">max</tspan></text><text x="180" y="46" width="50" height="18" class='t' ><tspan textLength="50">):   </tspan></text><text x="230" y="46" width="80" height="18" class='t c6' ><tspan textLength="80"> 1.125 s</tspan></text><text x="310" y="46" width="30" height="18" class='t' ><tspan textLength="30"> … </tspan></text><text x="340" y="46" width="80" height="18" class='t c5' ><tspan textLength="80"> 1.178 s</tspan></text><text x="420" y="46" width="40" height="18" class='t' ><tspan textLength="40">    </tspan></text><text x="460" y="46" width="70" height="18" class='t' opacity="0.5"><tspan textLength="70">10 runs</tspan></text><text x="0" y="64" width="10" height="18" class='t' ><tspan textLength="10"> </tspan></text><text x="0" y="82" width="110" height="18" class='t b' ><tspan textLength="110">Benchmark 2</tspan></text><text x="110" y="82" width="260" height="18" class='t' ><tspan textLength="260">: osvg ./bench.svg ./b.svg</tspan></text><text x="0" y="100" width="80" height="18" class='t' ><tspan textLength="80">  Time (</tspan></text><text x="80" y="100" width="40" height="18" class='t c2 b' ><tspan textLength="40">mean</tspan></text><text x="120" y="100" width="30" height="18" class='t' ><tspan textLength="30"> ± </tspan></text><text x="150" y="100" width="10" height="18" class='t c2' ><tspan textLength="10">σ</tspan></text><text x="160" y="100" width="70" height="18" class='t' ><tspan textLength="70">):     </tspan></text><text x="230" y="100" width="80" height="18" class='t c2 b' ><tspan textLength="80">15.603 s</tspan></text><text x="310" y="100" width="30" height="18" class='t' ><tspan textLength="30"> ± </tspan></text><text x="340" y="100" width="80" height="18" class='t c2' ><tspan textLength="80"> 0.146 s</tspan></text><text x="420" y="100" width="110" height="18" class='t' ><tspan textLength="110">    [User: </tspan></text><text x="530" y="100" width="80" height="18" class='t c4' ><tspan textLength="80">14.569 s</tspan></text><text x="610" y="100" width="100" height="18" class='t' ><tspan textLength="100">, System: </tspan></text><text x="710" y="100" width="70" height="18" class='t c4' ><tspan textLength="70">0.519 s</tspan></text><text x="780" y="100" width="10" height="18" class='t' ><tspan textLength="10">]</tspan></text><text x="0" y="118" width="90" height="18" class='t' ><tspan textLength="90">  Range (</tspan></text><text x="90" y="118" width="30" height="18" class='t c6' ><tspan textLength="30">min</tspan></text><text x="120" y="118" width="30" height="18" class='t' ><tspan textLength="30"> … </tspan></text><text x="150" y="118" width="30" height="18" class='t c5' ><tspan textLength="30">max</tspan></text><text x="180" y="118" width="50" height="18" class='t' ><tspan textLength="50">):   </tspan></text><text x="230" y="118" width="80" height="18" class='t c6' ><tspan textLength="80">15.390 s</tspan></text><text x="310" y="118" width="30" height="18" class='t' ><tspan textLength="30"> … </tspan></text><text x="340" y="118" width="80" height="18" class='t c5' ><tspan textLength="80">15.804 s</tspan></text><text x="420" y="118" width="40" height="18" class='t' ><tspan textLength="40">    </tspan></text><text x="460" y="118" width="70" height="18" class='t' opacity="0.5"><tspan textLength="70">10 runs</tspan></text><text x="0" y="136" width="10" height="18" class='t' ><tspan textLength="10"> </tspan></text><text x="0" y="154" width="110" height="18" class='t b' ><tspan textLength="110">Benchmark 3</tspan></text><text x="110" y="154" width="380" height="18" class='t' ><tspan textLength="380">: oxvg optimize  ./bench.svg &gt; ./c.svg</tspan></text><text x="0" y="172" width="80" height="18" class='t' ><tspan textLength="80">  Time (</tspan></text><text x="80" y="172" width="40" height="18" class='t c2 b' ><tspan textLength="40">mean</tspan></text><text x="120" y="172" width="30" height="18" class='t' ><tspan textLength="30"> ± </tspan></text><text x="150" y="172" width="10" height="18" class='t c2' ><tspan textLength="10">σ</tspan></text><text x="160" y="172" width="70" height="18" class='t' ><tspan textLength="70">):     </tspan></text><text x="230" y="172" width="80" height="18" class='t c2 b' ><tspan textLength="80">500.0 ms</tspan></text><text x="310" y="172" width="30" height="18" class='t' ><tspan textLength="30"> ± </tspan></text><text x="340" y="172" width="80" height="18" class='t c2' ><tspan textLength="80">  4.3 ms</tspan></text><text x="420" y="172" width="110" height="18" class='t' ><tspan textLength="110">    [User: </tspan></text><text x="530" y="172" width="80" height="18" class='t c4' ><tspan textLength="80">411.6 ms</tspan></text><text x="610" y="172" width="100" height="18" class='t' ><tspan textLength="100">, System: </tspan></text><text x="710" y="172" width="70" height="18" class='t c4' ><tspan textLength="70">83.1 ms</tspan></text><text x="780" y="172" width="10" height="18" class='t' ><tspan textLength="10">]</tspan></text><text x="0" y="190" width="90" height="18" class='t' ><tspan textLength="90">  Range (</tspan></text><text x="90" y="190" width="30" height="18" class='t c6' ><tspan textLength="30">min</tspan></text><text x="120" y="190" width="30" height="18" class='t' ><tspan textLength="30"> … </tspan></text><text x="150" y="190" width="30" height="18" class='t c5' ><tspan textLength="30">max</tspan></text><text x="180" y="190" width="50" height="18" class='t' ><tspan textLength="50">):   </tspan></text><text x="230" y="190" width="80" height="18" class='t c6' ><tspan textLength="80">495.6 ms</tspan></text><text x="310" y="190" width="30" height="18" class='t' ><tspan textLength="30"> … </tspan></text><text x="340" y="190" width="80" height="18" class='t c5' ><tspan textLength="80">507.5 ms</tspan></text><text x="420" y="190" width="40" height="18" class='t' ><tspan textLength="40">    </tspan></text><text x="460" y="190" width="70" height="18" class='t' opacity="0.5"><tspan textLength="70">10 runs</tspan></text><text x="0" y="208" width="10" height="18" class='t' ><tspan textLength="10"> </tspan></text><text x="0" y="226" width="70" height="18" class='t b' ><tspan textLength="70">Summary</tspan></text><text x="0" y="244" width="20" height="18" class='t' ><tspan textLength="20">  </tspan></text><text x="20" y="244" width="360" height="18" class='t c6' ><tspan textLength="360">oxvg optimize  ./bench.svg &gt; ./c.svg</tspan></text><text x="380" y="244" width="40" height="18" class='t' ><tspan textLength="40"> ran</tspan></text><text x="0" y="262" width="80" height="18" class='t c2 b' ><tspan textLength="80">    2.31</tspan></text><text x="80" y="262" width="30" height="18" class='t' ><tspan textLength="30"> ± </tspan></text><text x="110" y="262" width="40" height="18" class='t c2' ><tspan textLength="40">0.04</tspan></text><text x="150" y="262" width="190" height="18" class='t' ><tspan textLength="190"> times faster than </tspan></text><text x="340" y="262" width="270" height="18" class='t c5' ><tspan textLength="270">svgo ./bench.svg -o ./a.svg</tspan></text><text x="0" y="280" width="80" height="18" class='t c2 b' ><tspan textLength="80">   31.21</tspan></text><text x="80" y="280" width="30" height="18" class='t' ><tspan textLength="30"> ± </tspan></text><text x="110" y="280" width="40" height="18" class='t c2' ><tspan textLength="40">0.40</tspan></text><text x="150" y="280" width="190" height="18" class='t' ><tspan textLength="190"> times faster than </tspan></text><text x="340" y="280" width="240" height="18" class='t c5' ><tspan textLength="240">osvg ./bench.svg ./b.svg</tspan></text></svg>