<svg xmlns="http://www.w3.org/2000/svg" width="1020" height="384"><style><![CDATA[@keyframes blink_keyframes{50%{opacity:0}}tspan{dominant-baseline:central;font-variant-ligatures:none;white-space:pre;font-family:Consolas,Courier New,Monaco;font-size:32px}:root{color-scheme:light dark;background-color:#fff}.green{fill:#0dbc79}.blue{fill:#2472c8}.magenta{fill:#bc3fbc}.cyan{fill:#11a8cd}svg>text{fill:#000}@media (prefers-color-scheme:dark){:root{background-color:#181818}.green{fill:#0dbc79}.blue{fill:#2472c8}.magenta{fill:#bc3fbc}.cyan{fill:#11a8cd}svg>text{fill:#e5e5e5}}.bold{font-weight:700}.underline{text-decoration:underline}.color256_16{fill:#000}.color256_81{fill:#5fd7ff}.color256_149{fill:#afd75f}.color256_184{fill:#d7d700}.color256_243{fill:#767676}.color256_249{fill:#b2b2b2}.bg-color256_186{fill:#d7d787}]]></style><text y="16" class="magenta"><tspan textLength="40">╭─</tspan></text><text x="40" y="16" class="green bold"><tspan textLength="20">#</tspan></text><text x="60" y="16" class="magenta"><tspan textLength="120">─┬────</tspan></text><text x="180" y="16" class="green bold"><tspan textLength="80">name</tspan></text><text x="260" y="16" class="magenta"><tspan textLength="120">────┬─</tspan></text><text x="380" y="16" class="green bold"><tspan textLength="80">type</tspan></text><text x="460" y="16" class="magenta"><tspan textLength="80">─┬──</tspan></text><text x="540" y="16" class="green bold"><tspan textLength="80">size</tspan></text><text x="620" y="16" class="magenta"><tspan textLength="140">───┬───</tspan></text><text x="760" y="16" class="green bold"><tspan textLength="160">modified</tspan></text><text x="920" y="16" class="magenta"><tspan textLength="80">───╮</tspan></text><text y="48" class="magenta"><tspan textLength="20">│</tspan></text><text x="20" y="48"><tspan textLength="20"> </tspan></text><text x="40" y="48" class="cyan bold"><tspan textLength="20">0</tspan></text><text x="60" y="48"><tspan textLength="20"> </tspan></text><text x="80" y="48" class="magenta"><tspan textLength="20">│</tspan></text><text x="100" y="48"><tspan textLength="20"> </tspan></text><text x="120" y="48" class="color256_243 underline" text-decoration="underline"><tspan textLength="200">Cargo.lock</tspan></text><text x="320" y="48"><tspan textLength="20"> </tspan></text><text x="340" y="48" class="magenta"><tspan textLength="20">│</tspan></text><text x="360" y="48"><tspan textLength="120"> file </tspan></text><text x="480" y="48" class="magenta"><tspan textLength="20">│</tspan></text><text x="500" y="48"><tspan textLength="20"> </tspan></text><text x="520" y="48" class="blue"><tspan textLength="140">60.5 KB</tspan></text><text x="660" y="48"><tspan textLength="20"> </tspan></text><text x="680" y="48" class="magenta"><tspan textLength="20">│</tspan></text><text x="700" y="48"><tspan textLength="20"> </tspan></text><text x="720" y="48" class="color256_184"><tspan textLength="240">12 hours ago</tspan></text><text x="960" y="48"><tspan textLength="20"> </tspan></text><text x="980" y="48" class="magenta"><tspan textLength="20">│</tspan></text><text y="80" class="magenta"><tspan textLength="20">│</tspan></text><text x="20" y="80"><tspan textLength="20"> </tspan></text><text x="40" y="80" class="cyan bold"><tspan textLength="20">1</tspan></text><text x="60" y="80"><tspan textLength="20"> </tspan></text><text x="80" y="80" class="magenta"><tspan textLength="20">│</tspan></text><text x="100" y="80"><tspan textLength="20"> </tspan></text><text x="120" y="80" class="color256_149 underline" text-decoration="underline"><tspan textLength="200">Cargo.toml</tspan></text><text x="320" y="80"><tspan textLength="20"> </tspan></text><text x="340" y="80" class="magenta"><tspan textLength="20">│</tspan></text><text x="360" y="80"><tspan textLength="120"> file </tspan></text><text x="480" y="80" class="magenta"><tspan textLength="20">│</tspan></text><text x="500" y="80"><tspan textLength="60">   </tspan></text><text x="560" y="80" class="blue"><tspan textLength="100">463 B</tspan></text><text x="660" y="80"><tspan textLength="20"> </tspan></text><text x="680" y="80" class="magenta"><tspan textLength="20">│</tspan></text><text x="700" y="80"><tspan textLength="20"> </tspan></text><text x="720" y="80" class="color256_184"><tspan textLength="240">12 hours ago</tspan></text><text x="960" y="80"><tspan textLength="20"> </tspan></text><text x="980" y="80" class="magenta"><tspan textLength="20">│</tspan></text><text y="112" class="magenta"><tspan textLength="20">│</tspan></text><text x="20" y="112"><tspan textLength="20"> </tspan></text><text x="40" y="112" class="cyan bold"><tspan textLength="20">2</tspan></text><text x="60" y="112"><tspan textLength="20"> </tspan></text><text x="80" y="112" class="magenta"><tspan textLength="20">│</tspan></text><text x="100" y="112"><tspan textLength="20"> </tspan></text><text x="120" y="112" class="color256_249 underline" text-decoration="underline"><tspan textLength="140">LICENSE</tspan></text><text x="260" y="112"><tspan textLength="80">    </tspan></text><text x="340" y="112" class="magenta"><tspan textLength="20">│</tspan></text><text x="360" y="112"><tspan textLength="120"> file </tspan></text><text x="480" y="112" class="magenta"><tspan textLength="20">│</tspan></text><text x="500" y="112"><tspan textLength="40">  </tspan></text><text x="540" y="112" class="blue"><tspan textLength="120">1.1 KB</tspan></text><text x="660" y="112"><tspan textLength="20"> </tspan></text><text x="680" y="112" class="magenta"><tspan textLength="20">│</tspan></text><text x="700" y="112"><tspan textLength="20"> </tspan></text><text x="720" y="112" class="color256_184"><tspan textLength="240">12 hours ago</tspan></text><text x="960" y="112"><tspan textLength="20"> </tspan></text><text x="980" y="112" class="magenta"><tspan textLength="20">│</tspan></text><text y="144" class="magenta"><tspan textLength="20">│</tspan></text><text x="20" y="144"><tspan textLength="20"> </tspan></text><text x="40" y="144" class="cyan bold"><tspan textLength="20">3</tspan></text><text x="60" y="144"><tspan textLength="20"> </tspan></text><text x="80" y="144" class="magenta"><tspan textLength="20">│</tspan></text><text x="100" y="144"><tspan textLength="20"> </tspan></text><path d="M120 128h180v32H120z" class="bg-color256_186"/><text x="120" y="144" class="color256_16 underline" text-decoration="underline"><tspan textLength="180">README.md</tspan></text><text x="300" y="144"><tspan textLength="40">  </tspan></text><text x="340" y="144" class="magenta"><tspan textLength="20">│</tspan></text><text x="360" y="144"><tspan textLength="120"> file </tspan></text><text x="480" y="144" class="magenta"><tspan textLength="20">│</tspan></text><text x="500" y="144"><tspan textLength="40">  </tspan></text><text x="540" y="144" class="blue"><tspan textLength="120">4.2 KB</tspan></text><text x="660" y="144"><tspan textLength="20"> </tspan></text><text x="680" y="144" class="magenta"><tspan textLength="20">│</tspan></text><text x="700" y="144"><tspan textLength="20"> </tspan></text><text x="720" y="144" class="color256_184"><tspan textLength="240">12 hours ago</tspan></text><text x="960" y="144"><tspan textLength="20"> </tspan></text><text x="980" y="144" class="magenta"><tspan textLength="20">│</tspan></text><text y="176" class="magenta"><tspan textLength="20">│</tspan></text><text x="20" y="176"><tspan textLength="20"> </tspan></text><text x="40" y="176" class="cyan bold"><tspan textLength="20">4</tspan></text><text x="60" y="176"><tspan textLength="20"> </tspan></text><text x="80" y="176" class="magenta"><tspan textLength="20">│</tspan></text><text x="100" y="176"><tspan textLength="20"> </tspan></text><text x="120" y="176" class="color256_81 underline" text-decoration="underline"><tspan textLength="140">benches</tspan></text><text x="260" y="176"><tspan textLength="80">    </tspan></text><text x="340" y="176" class="magenta"><tspan textLength="20">│</tspan></text><text x="360" y="176"><tspan textLength="120"> dir  </tspan></text><text x="480" y="176" class="magenta"><tspan textLength="20">│</tspan></text><text x="500" y="176"><tspan textLength="60">   </tspan></text><text x="560" y="176" class="blue"><tspan textLength="100">128 B</tspan></text><text x="660" y="176"><tspan textLength="20"> </tspan></text><text x="680" y="176" class="magenta"><tspan textLength="20">│</tspan></text><text x="700" y="176"><tspan textLength="20"> </tspan></text><text x="720" y="176" class="color256_184"><tspan textLength="240">12 hours ago</tspan></text><text x="960" y="176"><tspan textLength="20"> </tspan></text><text x="980" y="176" class="magenta"><tspan textLength="20">│</tspan></text><text y="208" class="magenta"><tspan textLength="20">│</tspan></text><text x="20" y="208"><tspan textLength="20"> </tspan></text><text x="40" y="208" class="cyan bold"><tspan textLength="20">5</tspan></text><text x="60" y="208"><tspan textLength="20"> </tspan></text><text x="80" y="208" class="magenta"><tspan textLength="20">│</tspan></text><text x="100" y="208"><tspan textLength="20"> </tspan></text><text x="120" y="208" class="color256_81 underline" text-decoration="underline"><tspan textLength="60">src</tspan></text><text x="180" y="208"><tspan textLength="160">        </tspan></text><text x="340" y="208" class="magenta"><tspan textLength="20">│</tspan></text><text x="360" y="208"><tspan textLength="120"> dir  </tspan></text><text x="480" y="208" class="magenta"><tspan textLength="20">│</tspan></text><text x="500" y="208"><tspan textLength="60">   </tspan></text><text x="560" y="208" class="blue"><tspan textLength="100">448 B</tspan></text><text x="660" y="208"><tspan textLength="20"> </tspan></text><text x="680" y="208" class="magenta"><tspan textLength="20">│</tspan></text><text x="700" y="208"><tspan textLength="20"> </tspan></text><text x="720" y="208" class="color256_184"><tspan textLength="240">12 hours ago</tspan></text><text x="960" y="208"><tspan textLength="20"> </tspan></text><text x="980" y="208" class="magenta"><tspan textLength="20">│</tspan></text><text y="240" class="magenta"><tspan textLength="20">│</tspan></text><text x="20" y="240"><tspan textLength="20"> </tspan></text><text x="40" y="240" class="cyan bold"><tspan textLength="20">6</tspan></text><text x="60" y="240"><tspan textLength="20"> </tspan></text><text x="80" y="240" class="magenta"><tspan textLength="20">│</tspan></text><text x="100" y="240"><tspan textLength="20"> </tspan></text><text x="120" y="240" class="color256_81 underline" text-decoration="underline"><tspan textLength="120">target</tspan></text><text x="240" y="240"><tspan textLength="100">     </tspan></text><text x="340" y="240" class="magenta"><tspan textLength="20">│</tspan></text><text x="360" y="240"><tspan textLength="120"> dir  </tspan></text><text x="480" y="240" class="magenta"><tspan textLength="20">│</tspan></text><text x="500" y="240"><tspan textLength="60">   </tspan></text><text x="560" y="240" class="blue"><tspan textLength="100">256 B</tspan></text><text x="660" y="240"><tspan textLength="20"> </tspan></text><text x="680" y="240" class="magenta"><tspan textLength="20">│</tspan></text><text x="700" y="240"><tspan textLength="20"> </tspan></text><text x="720" y="240" class="color256_184"><tspan textLength="240">11 hours ago</tspan></text><text x="960" y="240"><tspan textLength="20"> </tspan></text><text x="980" y="240" class="magenta"><tspan textLength="20">│</tspan></text><text y="272" class="magenta"><tspan textLength="20">│</tspan></text><text x="20" y="272"><tspan textLength="20"> </tspan></text><text x="40" y="272" class="cyan bold"><tspan textLength="20">7</tspan></text><text x="60" y="272"><tspan textLength="20"> </tspan></text><text x="80" y="272" class="magenta"><tspan textLength="20">│</tspan></text><text x="100" y="272"><tspan textLength="20"> </tspan></text><text x="120" y="272" class="color256_81 underline" text-decoration="underline"><tspan textLength="100">tests</tspan></text><text x="220" y="272"><tspan textLength="120">      </tspan></text><text x="340" y="272" class="magenta"><tspan textLength="20">│</tspan></text><text x="360" y="272"><tspan textLength="120"> dir  </tspan></text><text x="480" y="272" class="magenta"><tspan textLength="20">│</tspan></text><text x="500" y="272"><tspan textLength="40">  </tspan></text><text x="540" y="272" class="blue"><tspan textLength="120">1.0 KB</tspan></text><text x="660" y="272"><tspan textLength="20"> </tspan></text><text x="680" y="272" class="magenta"><tspan textLength="20">│</tspan></text><text x="700" y="272"><tspan textLength="20"> </tspan></text><text x="720" y="272" class="color256_184"><tspan textLength="240">12 hours ago</tspan></text><text x="960" y="272"><tspan textLength="20"> </tspan></text><text x="980" y="272" class="magenta"><tspan textLength="20">│</tspan></text><text y="304" class="magenta"><tspan textLength="20">│</tspan></text><text x="20" y="304"><tspan textLength="20"> </tspan></text><text x="40" y="304" class="cyan bold"><tspan textLength="20">8</tspan></text><text x="60" y="304"><tspan textLength="20"> </tspan></text><text x="80" y="304" class="magenta"><tspan textLength="20">│</tspan></text><text x="100" y="304"><tspan textLength="20"> </tspan></text><text x="120" y="304" class="underline" text-decoration="underline"><tspan textLength="200">toolkit.nu</tspan></text><text x="320" y="304"><tspan textLength="20"> </tspan></text><text x="340" y="304" class="magenta"><tspan textLength="20">│</tspan></text><text x="360" y="304"><tspan textLength="120"> file </tspan></text><text x="480" y="304" class="magenta"><tspan textLength="20">│</tspan></text><text x="500" y="304"><tspan textLength="60">   </tspan></text><text x="560" y="304" class="blue"><tspan textLength="100">436 B</tspan></text><text x="660" y="304"><tspan textLength="20"> </tspan></text><text x="680" y="304" class="magenta"><tspan textLength="20">│</tspan></text><text x="700" y="304"><tspan textLength="20"> </tspan></text><text x="720" y="304" class="color256_184"><tspan textLength="240">12 hours ago</tspan></text><text x="960" y="304"><tspan textLength="20"> </tspan></text><text x="980" y="304" class="magenta"><tspan textLength="20">│</tspan></text><text y="336" class="magenta"><tspan textLength="1000">╰───┴────────────┴──────┴─────────┴──────────────╯</tspan></text></svg>