<svg width="510" height="216" xmlns="http://www.w3.org/2000/svg" xmlns:xlink="http://www.w3.org/1999/xlink"><style>.t{dominant-baseline:central;font-variant-ligatures:none;white-space: pre;font-family:Consolas,Courier New,Monaco;font-size:16px;}.b{font-weight:bold}.u{text-decoration:underline}:root {color-scheme: light dark; background: #FFFFFF}.c5{fill:#BC3FBC}.c2{fill:#0DBC79}.c6{fill:#11A8CD}.cF3{fill:#767676}.c4{fill:#2472C8}.cB8{fill:#D7D700}.c95{fill:#AFD75F}.cF9{fill:#B2B2B2}.c10{fill:#000000}.c51{fill:#5FD7FF}.bBA{fill:#D7D787}svg > text{fill:#000000}@media (prefers-color-scheme: dark) {:root {background: #181818}.c5{fill:#BC3FBC}.c2{fill:#0DBC79}.c6{fill:#11A8CD}.cF3{fill:#767676}.c4{fill:#2472C8}.cB8{fill:#D7D700}.c95{fill:#AFD75F}.cF9{fill:#B2B2B2}.c10{fill:#000000}.c51{fill:#5FD7FF}.bBA{fill:#D7D787}svg > text{fill:#E5E5E5}}</style><text x="0" y="10" width="20" height="18" class='t c5' ><tspan textLength="20">╭─</tspan></text><text x="20" y="10" width="10" height="18" class='t c2 b' ><tspan textLength="10">#</tspan></text><text x="30" y="10" width="60" height="18" class='t c5' ><tspan textLength="60">─┬────</tspan></text><text x="90" y="10" width="40" height="18" class='t c2 b' ><tspan textLength="40">name</tspan></text><text x="130" y="10" width="60" height="18" class='t c5' ><tspan textLength="60">────┬─</tspan></text><text x="190" y="10" width="40" height="18" class='t c2 b' ><tspan textLength="40">type</tspan></text><text x="230" y="10" width="40" height="18" class='t c5' ><tspan textLength="40">─┬──</tspan></text><text x="270" y="10" width="40" height="18" class='t c2 b' ><tspan textLength="40">size</tspan></text><text x="310" y="10" width="70" height="18" class='t c5' ><tspan textLength="70">───┬───</tspan></text><text x="380" y="10" width="80" height="18" class='t c2 b' ><tspan textLength="80">modified</tspan></text><text x="460" y="10" width="40" height="18" class='t c5' ><tspan textLength="40">───╮</tspan></text><text x="0" y="28" width="10" height="18" class='t c5' ><tspan textLength="10">│</tspan></text><text x="10" y="28" width="10" height="18" class='t' ><tspan textLength="10"> </tspan></text><text x="20" y="28" width="10" height="18" class='t c6 b' ><tspan textLength="10">0</tspan></text><text x="30" y="28" width="10" height="18" class='t' ><tspan textLength="10"> </tspan></text><text x="40" y="28" width="10" height="18" class='t c5' ><tspan textLength="10">│</tspan></text><text x="50" y="28" width="10" height="18" class='t' ><tspan textLength="10"> </tspan></text><text x="60" y="28" width="100" height="18" class='t cF3 u' ><tspan textLength="100">Cargo.lock</tspan></text><text x="160" y="28" width="10" height="18" class='t' ><tspan textLength="10"> </tspan></text><text x="170" y="28" width="10" height="18" class='t c5' ><tspan textLength="10">│</tspan></text><text x="180" y="28" width="60" height="18" class='t' ><tspan textLength="60"> file </tspan></text><text x="240" y="28" width="10" height="18" class='t c5' ><tspan textLength="10">│</tspan></text><text x="250" y="28" width="10" height="18" class='t' ><tspan textLength="10"> </tspan></text><text x="260" y="28" width="70" height="18" class='t c4' ><tspan textLength="70">60.5 KB</tspan></text><text x="330" y="28" width="10" height="18" class='t' ><tspan textLength="10"> </tspan></text><text x="340" y="28" width="10" height="18" class='t c5' ><tspan textLength="10">│</tspan></text><text x="350" y="28" width="10" height="18" class='t' ><tspan textLength="10"> </tspan></text><text x="360" y="28" width="120" height="18" class='t cB8' ><tspan textLength="120">12 hours ago</tspan></text><text x="480" y="28" width="10" height="18" class='t' ><tspan textLength="10"> </tspan></text><text x="490" y="28" width="10" height="18" class='t c5' ><tspan textLength="10">│</tspan></text><text x="0" y="46" width="10" height="18" class='t c5' ><tspan textLength="10">│</tspan></text><text x="10" y="46" width="10" height="18" class='t' ><tspan textLength="10"> </tspan></text><text x="20" y="46" width="10" height="18" class='t c6 b' ><tspan textLength="10">1</tspan></text><text x="30" y="46" width="10" height="18" class='t' ><tspan textLength="10"> </tspan></text><text x="40" y="46" width="10" height="18" class='t c5' ><tspan textLength="10">│</tspan></text><text x="50" y="46" width="10" height="18" class='t' ><tspan textLength="10"> </tspan></text><text x="60" y="46" width="100" height="18" class='t c95 u' ><tspan textLength="100">Cargo.toml</tspan></text><text x="160" y="46" width="10" height="18" class='t' ><tspan textLength="10"> </tspan></text><text x="170" y="46" width="10" height="18" class='t c5' ><tspan textLength="10">│</tspan></text><text x="180" y="46" width="60" height="18" class='t' ><tspan textLength="60"> file </tspan></text><text x="240" y="46" width="10" height="18" class='t c5' ><tspan textLength="10">│</tspan></text><text x="250" y="46" width="30" height="18" class='t' ><tspan textLength="30">   </tspan></text><text x="280" y="46" width="50" height="18" class='t c4' ><tspan textLength="50">463 B</tspan></text><text x="330" y="46" width="10" height="18" class='t' ><tspan textLength="10"> </tspan></text><text x="340" y="46" width="10" height="18" class='t c5' ><tspan textLength="10">│</tspan></text><text x="350" y="46" width="10" height="18" class='t' ><tspan textLength="10"> </tspan></text><text x="360" y="46" width="120" height="18" class='t cB8' ><tspan textLength="120">12 hours ago</tspan></text><text x="480" y="46" width="10" height="18" class='t' ><tspan textLength="10"> </tspan></text><text x="490" y="46" width="10" height="18" class='t c5' ><tspan textLength="10">│</tspan></text><text x="0" y="64" width="10" height="18" class='t c5' ><tspan textLength="10">│</tspan></text><text x="10" y="64" width="10" height="18" class='t' ><tspan textLength="10"> </tspan></text><text x="20" y="64" width="10" height="18" class='t c6 b' ><tspan textLength="10">2</tspan></text><text x="30" y="64" width="10" height="18" class='t' ><tspan textLength="10"> </tspan></text><text x="40" y="64" width="10" height="18" class='t c5' ><tspan textLength="10">│</tspan></text><text x="50" y="64" width="10" height="18" class='t' ><tspan textLength="10"> </tspan></text><text x="60" y="64" width="70" height="18" class='t cF9 u' ><tspan textLength="70">LICENSE</tspan></text><text x="130" y="64" width="40" height="18" class='t' ><tspan textLength="40">    </tspan></text><text x="170" y="64" width="10" height="18" class='t c5' ><tspan textLength="10">│</tspan></text><text x="180" y="64" width="60" height="18" class='t' ><tspan textLength="60"> file </tspan></text><text x="240" y="64" width="10" height="18" class='t c5' ><tspan textLength="10">│</tspan></text><text x="250" y="64" width="20" height="18" class='t' ><tspan textLength="20">  </tspan></text><text x="270" y="64" width="60" height="18" class='t c4' ><tspan textLength="60">1.1 KB</tspan></text><text x="330" y="64" width="10" height="18" class='t' ><tspan textLength="10"> </tspan></text><text x="340" y="64" width="10" height="18" class='t c5' ><tspan textLength="10">│</tspan></text><text x="350" y="64" width="10" height="18" class='t' ><tspan textLength="10"> </tspan></text><text x="360" y="64" width="120" height="18" class='t cB8' ><tspan textLength="120">12 hours ago</tspan></text><text x="480" y="64" width="10" height="18" class='t' ><tspan textLength="10"> </tspan></text><text x="490" y="64" width="10" height="18" class='t c5' ><tspan textLength="10">│</tspan></text><text x="0" y="82" width="10" height="18" class='t c5' ><tspan textLength="10">│</tspan></text><text x="10" y="82" width="10" height="18" class='t' ><tspan textLength="10"> </tspan></text><text x="20" y="82" width="10" height="18" class='t c6 b' ><tspan textLength="10">3</tspan></text><text x="30" y="82" width="10" height="18" class='t' ><tspan textLength="10"> </tspan></text><text x="40" y="82" width="10" height="18" class='t c5' ><tspan textLength="10">│</tspan></text><text x="50" y="82" width="10" height="18" class='t' ><tspan textLength="10"> </tspan></text><rect x="60" y="74" width="90" height="18" class='bBA'/><text x="60" y="82" width="90" height="18" class='t c10 u' ><tspan textLength="90">README.md</tspan></text><text x="150" y="82" width="20" height="18" class='t' ><tspan textLength="20">  </tspan></text><text x="170" y="82" width="10" height="18" class='t c5' ><tspan textLength="10">│</tspan></text><text x="180" y="82" width="60" height="18" class='t' ><tspan textLength="60"> file </tspan></text><text x="240" y="82" width="10" height="18" class='t c5' ><tspan textLength="10">│</tspan></text><text x="250" y="82" width="20" height="18" class='t' ><tspan textLength="20">  </tspan></text><text x="270" y="82" width="60" height="18" class='t c4' ><tspan textLength="60">4.2 KB</tspan></text><text x="330" y="82" width="10" height="18" class='t' ><tspan textLength="10"> </tspan></text><text x="340" y="82" width="10" height="18" class='t c5' ><tspan textLength="10">│</tspan></text><text x="350" y="82" width="10" height="18" class='t' ><tspan textLength="10"> </tspan></text><text x="360" y="82" width="120" height="18" class='t cB8' ><tspan textLength="120">12 hours ago</tspan></text><text x="480" y="82" width="10" height="18" class='t' ><tspan textLength="10"> </tspan></text><text x="490" y="82" width="10" height="18" class='t c5' ><tspan textLength="10">│</tspan></text><text x="0" y="100" width="10" height="18" class='t c5' ><tspan textLength="10">│</tspan></text><text x="10" y="100" width="10" height="18" class='t' ><tspan textLength="10"> </tspan></text><text x="20" y="100" width="10" height="18" class='t c6 b' ><tspan textLength="10">4</tspan></text><text x="30" y="100" width="10" height="18" class='t' ><tspan textLength="10"> </tspan></text><text x="40" y="100" width="10" height="18" class='t c5' ><tspan textLength="10">│</tspan></text><text x="50" y="100" width="10" height="18" class='t' ><tspan textLength="10"> </tspan></text><text x="60" y="100" width="70" height="18" class='t c51 u' ><tspan textLength="70">benches</tspan></text><text x="130" y="100" width="40" height="18" class='t' ><tspan textLength="40">    </tspan></text><text x="170" y="100" width="10" height="18" class='t c5' ><tspan textLength="10">│</tspan></text><text x="180" y="100" width="60" height="18" class='t' ><tspan textLength="60"> dir  </tspan></text><text x="240" y="100" width="10" height="18" class='t c5' ><tspan textLength="10">│</tspan></text><text x="250" y="100" width="30" height="18" class='t' ><tspan textLength="30">   </tspan></text><text x="280" y="100" width="50" height="18" class='t c4' ><tspan textLength="50">128 B</tspan></text><text x="330" y="100" width="10" height="18" class='t' ><tspan textLength="10"> </tspan></text><text x="340" y="100" width="10" height="18" class='t c5' ><tspan textLength="10">│</tspan></text><text x="350" y="100" width="10" height="18" class='t' ><tspan textLength="10"> </tspan></text><text x="360" y="100" width="120" height="18" class='t cB8' ><tspan textLength="120">12 hours ago</tspan></text><text x="480" y="100" width="10" height="18" class='t' ><tspan textLength="10"> </tspan></text><text x="490" y="100" width="10" height="18" class='t c5' ><tspan textLength="10">│</tspan></text><text x="0" y="118" width="10" height="18" class='t c5' ><tspan textLength="10">│</tspan></text><text x="10" y="118" width="10" height="18" class='t' ><tspan textLength="10"> </tspan></text><text x="20" y="118" width="10" height="18" class='t c6 b' ><tspan textLength="10">5</tspan></text><text x="30" y="118" width="10" height="18" class='t' ><tspan textLength="10"> </tspan></text><text x="40" y="118" width="10" height="18" class='t c5' ><tspan textLength="10">│</tspan></text><text x="50" y="118" width="10" height="18" class='t' ><tspan textLength="10"> </tspan></text><text x="60" y="118" width="30" height="18" class='t c51 u' ><tspan textLength="30">src</tspan></text><text x="90" y="118" width="80" height="18" class='t' ><tspan textLength="80">        </tspan></text><text x="170" y="118" width="10" height="18" class='t c5' ><tspan textLength="10">│</tspan></text><text x="180" y="118" width="60" height="18" class='t' ><tspan textLength="60"> dir  </tspan></text><text x="240" y="118" width="10" height="18" class='t c5' ><tspan textLength="10">│</tspan></text><text x="250" y="118" width="30" height="18" class='t' ><tspan textLength="30">   </tspan></text><text x="280" y="118" width="50" height="18" class='t c4' ><tspan textLength="50">448 B</tspan></text><text x="330" y="118" width="10" height="18" class='t' ><tspan textLength="10"> </tspan></text><text x="340" y="118" width="10" height="18" class='t c5' ><tspan textLength="10">│</tspan></text><text x="350" y="118" width="10" height="18" class='t' ><tspan textLength="10"> </tspan></text><text x="360" y="118" width="120" height="18" class='t cB8' ><tspan textLength="120">12 hours ago</tspan></text><text x="480" y="118" width="10" height="18" class='t' ><tspan textLength="10"> </tspan></text><text x="490" y="118" width="10" height="18" class='t c5' ><tspan textLength="10">│</tspan></text><text x="0" y="136" width="10" height="18" class='t c5' ><tspan textLength="10">│</tspan></text><text x="10" y="136" width="10" height="18" class='t' ><tspan textLength="10"> </tspan></text><text x="20" y="136" width="10" height="18" class='t c6 b' ><tspan textLength="10">6</tspan></text><text x="30" y="136" width="10" height="18" class='t' ><tspan textLength="10"> </tspan></text><text x="40" y="136" width="10" height="18" class='t c5' ><tspan textLength="10">│</tspan></text><text x="50" y="136" width="10" height="18" class='t' ><tspan textLength="10"> </tspan></text><text x="60" y="136" width="60" height="18" class='t c51 u' ><tspan textLength="60">target</tspan></text><text x="120" y="136" width="50" height="18" class='t' ><tspan textLength="50">     </tspan></text><text x="170" y="136" width="10" height="18" class='t c5' ><tspan textLength="10">│</tspan></text><text x="180" y="136" width="60" height="18" class='t' ><tspan textLength="60"> dir  </tspan></text><text x="240" y="136" width="10" height="18" class='t c5' ><tspan textLength="10">│</tspan></text><text x="250" y="136" width="30" height="18" class='t' ><tspan textLength="30">   </tspan></text><text x="280" y="136" width="50" height="18" class='t c4' ><tspan textLength="50">256 B</tspan></text><text x="330" y="136" width="10" height="18" class='t' ><tspan textLength="10"> </tspan></text><text x="340" y="136" width="10" height="18" class='t c5' ><tspan textLength="10">│</tspan></text><text x="350" y="136" width="10" height="18" class='t' ><tspan textLength="10"> </tspan></text><text x="360" y="136" width="120" height="18" class='t cB8' ><tspan textLength="120">11 hours ago</tspan></text><text x="480" y="136" width="10" height="18" class='t' ><tspan textLength="10"> </tspan></text><text x="490" y="136" width="10" height="18" class='t c5' ><tspan textLength="10">│</tspan></text><text x="0" y="154" width="10" height="18" class='t c5' ><tspan textLength="10">│</tspan></text><text x="10" y="154" width="10" height="18" class='t' ><tspan textLength="10"> </tspan></text><text x="20" y="154" width="10" height="18" class='t c6 b' ><tspan textLength="10">7</tspan></text><text x="30" y="154" width="10" height="18" class='t' ><tspan textLength="10"> </tspan></text><text x="40" y="154" width="10" height="18" class='t c5' ><tspan textLength="10">│</tspan></text><text x="50" y="154" width="10" height="18" class='t' ><tspan textLength="10"> </tspan></text><text x="60" y="154" width="50" height="18" class='t c51 u' ><tspan textLength="50">tests</tspan></text><text x="110" y="154" width="60" height="18" class='t' ><tspan textLength="60">      </tspan></text><text x="170" y="154" width="10" height="18" class='t c5' ><tspan textLength="10">│</tspan></text><text x="180" y="154" width="60" height="18" class='t' ><tspan textLength="60"> dir  </tspan></text><text x="240" y="154" width="10" height="18" class='t c5' ><tspan textLength="10">│</tspan></text><text x="250" y="154" width="20" height="18" class='t' ><tspan textLength="20">  </tspan></text><text x="270" y="154" width="60" height="18" class='t c4' ><tspan textLength="60">1.0 KB</tspan></text><text x="330" y="154" width="10" height="18" class='t' ><tspan textLength="10"> </tspan></text><text x="340" y="154" width="10" height="18" class='t c5' ><tspan textLength="10">│</tspan></text><text x="350" y="154" width="10" height="18" class='t' ><tspan textLength="10"> </tspan></text><text x="360" y="154" width="120" height="18" class='t cB8' ><tspan textLength="120">12 hours ago</tspan></text><text x="480" y="154" width="10" height="18" class='t' ><tspan textLength="10"> </tspan></text><text x="490" y="154" width="10" height="18" class='t c5' ><tspan textLength="10">│</tspan></text><text x="0" y="172" width="10" height="18" class='t c5' ><tspan textLength="10">│</tspan></text><text x="10" y="172" width="10" height="18" class='t' ><tspan textLength="10"> </tspan></text><text x="20" y="172" width="10" height="18" class='t c6 b' ><tspan textLength="10">8</tspan></text><text x="30" y="172" width="10" height="18" class='t' ><tspan textLength="10"> </tspan></text><text x="40" y="172" width="10" height="18" class='t c5' ><tspan textLength="10">│</tspan></text><text x="50" y="172" width="10" height="18" class='t' ><tspan textLength="10"> </tspan></text><text x="60" y="172" width="100" height="18" class='t u' ><tspan textLength="100">toolkit.nu</tspan></text><text x="160" y="172" width="10" height="18" class='t' ><tspan textLength="10"> </tspan></text><text x="170" y="172" width="10" height="18" class='t c5' ><tspan textLength="10">│</tspan></text><text x="180" y="172" width="60" height="18" class='t' ><tspan textLength="60"> file </tspan></text><text x="240" y="172" width="10" height="18" class='t c5' ><tspan textLength="10">│</tspan></text><text x="250" y="172" width="30" height="18" class='t' ><tspan textLength="30">   </tspan></text><text x="280" y="172" width="50" height="18" class='t c4' ><tspan textLength="50">436 B</tspan></text><text x="330" y="172" width="10" height="18" class='t' ><tspan textLength="10"> </tspan></text><text x="340" y="172" width="10" height="18" class='t c5' ><tspan textLength="10">│</tspan></text><text x="350" y="172" width="10" height="18" class='t' ><tspan textLength="10"> </tspan></text><text x="360" y="172" width="120" height="18" class='t cB8' ><tspan textLength="120">12 hours ago</tspan></text><text x="480" y="172" width="10" height="18" class='t' ><tspan textLength="10"> </tspan></text><text x="490" y="172" width="10" height="18" class='t c5' ><tspan textLength="10">│</tspan></text><text x="0" y="190" width="500" height="18" class='t c5' ><tspan textLength="500">╰───┴────────────┴──────┴─────────┴──────────────╯</tspan></text></svg>