<svg xmlns="http://www.w3.org/2000/svg" width="1020" height="384"><style><![CDATA[@keyframes blink_keyframes{50%{opacity:0}}tspan{dominant-baseline:central;font-variant-ligatures:none;white-space:pre;font-family:Consolas,Courier New,Monaco;font-size:32px}:root{color-scheme:light dark;background-color:#fff}.green{fill:#0dbc79}.blue{fill:#2472c8}.magenta{fill:#bc3fbc}.cyan{fill:#11a8cd}svg>text{fill:#000}@media (prefers-color-scheme:dark){:root{background-color:#181818}.green{fill:#0dbc79}.blue{fill:#2472c8}.magenta{fill:#bc3fbc}.cyan{fill:#11a8cd}svg>text{fill:#e5e5e5}}.bold{font-weight:700}.underline{text-decoration:underline}.color256_16{fill:#000}.color256_81{fill:#5fd7ff}.color256_149{fill:#afd75f}.color256_184{fill:#d7d700}.color256_243{fill:#767676}.color256_249{fill:#b2b2b2}.bg-color256_186{fill:#d7d787}]]></style><text y="16" class="magenta"><tspan>╭</tspan></text><text x="20" y="16" class="magenta"><tspan>─</tspan></text><text x="40" y="16" class="green bold"><tspan>#</tspan></text><text x="60" y="16" class="magenta"><tspan>─</tspan></text><text x="80" y="16" class="magenta"><tspan>┬</tspan></text><text x="100" y="16" class="magenta"><tspan>─</tspan></text><text x="120" y="16" class="magenta"><tspan>─</tspan></text><text x="140" y="16" class="magenta"><tspan>─</tspan></text><text x="160" y="16" class="magenta"><tspan>─</tspan></text><text x="180" y="16" class="green bold"><tspan>n</tspan></text><text x="200" y="16" class="green bold"><tspan>a</tspan></text><text x="220" y="16" class="green bold"><tspan>m</tspan></text><text x="240" y="16" class="green bold"><tspan>e</tspan></text><text x="260" y="16" class="magenta"><tspan>─</tspan></text><text x="280" y="16" class="magenta"><tspan>─</tspan></text><text x="300" y="16" class="magenta"><tspan>─</tspan></text><text x="320" y="16" class="magenta"><tspan>─</tspan></text><text x="340" y="16" class="magenta"><tspan>┬</tspan></text><text x="360" y="16" class="magenta"><tspan>─</tspan></text><text x="380" y="16" class="green bold"><tspan>t</tspan></text><text x="400" y="16" class="green bold"><tspan>y</tspan></text><text x="420" y="16" class="green bold"><tspan>p</tspan></text><text x="440" y="16" class="green bold"><tspan>e</tspan></text><text x="460" y="16" class="magenta"><tspan>─</tspan></text><text x="480" y="16" class="magenta"><tspan>┬</tspan></text><text x="500" y="16" class="magenta"><tspan>─</tspan></text><text x="520" y="16" class="magenta"><tspan>─</tspan></text><text x="540" y="16" class="green bold"><tspan>s</tspan></text><text x="560" y="16" class="green bold"><tspan>i</tspan></text><text x="580" y="16" class="green bold"><tspan>z</tspan></text><text x="600" y="16" class="green bold"><tspan>e</tspan></text><text x="620" y="16" class="magenta"><tspan>─</tspan></text><text x="640" y="16" class="magenta"><tspan>─</tspan></text><text x="660" y="16" class="magenta"><tspan>─</tspan></text><text x="680" y="16" class="magenta"><tspan>┬</tspan></text><text x="700" y="16" class="magenta"><tspan>─</tspan></text><text x="720" y="16" class="magenta"><tspan>─</tspan></text><text x="740" y="16" class="magenta"><tspan>─</tspan></text><text x="760" y="16" class="green bold"><tspan>m</tspan></text><text x="780" y="16" class="green bold"><tspan>o</tspan></text><text x="800" y="16" class="green bold"><tspan>d</tspan></text><text x="820" y="16" class="green bold"><tspan>i</tspan></text><text x="840" y="16" class="green bold"><tspan>f</tspan></text><text x="860" y="16" class="green bold"><tspan>i</tspan></text><text x="880" y="16" class="green bold"><tspan>e</tspan></text><text x="900" y="16" class="green bold"><tspan>d</tspan></text><text x="920" y="16" class="magenta"><tspan>─</tspan></text><text x="940" y="16" class="magenta"><tspan>─</tspan></text><text x="960" y="16" class="magenta"><tspan>─</tspan></text><text x="980" y="16" class="magenta"><tspan>╮</tspan></text><text y="48" class="magenta"><tspan>│</tspan></text><text x="20" y="48"><tspan> </tspan></text><text x="40" y="48" class="cyan bold"><tspan>0</tspan></text><text x="60" y="48"><tspan> </tspan></text><text x="80" y="48" class="magenta"><tspan>│</tspan></text><text x="100" y="48"><tspan> </tspan></text><text x="120" y="48" class="color256_243 underline" text-decoration="underline"><tspan>C</tspan></text><text x="140" y="48" class="color256_243 underline" text-decoration="underline"><tspan>a</tspan></text><text x="160" y="48" class="color256_243 underline" text-decoration="underline"><tspan>r</tspan></text><text x="180" y="48" class="color256_243 underline" text-decoration="underline"><tspan>g</tspan></text><text x="200" y="48" class="color256_243 underline" text-decoration="underline"><tspan>o</tspan></text><text x="220" y="48" class="color256_243 underline" text-decoration="underline"><tspan>.</tspan></text><text x="240" y="48" class="color256_243 underline" text-decoration="underline"><tspan>l</tspan></text><text x="260" y="48" class="color256_243 underline" text-decoration="underline"><tspan>o</tspan></text><text x="280" y="48" class="color256_243 underline" text-decoration="underline"><tspan>c</tspan></text><text x="300" y="48" class="color256_243 underline" text-decoration="underline"><tspan>k</tspan></text><text x="320" y="48"><tspan> </tspan></text><text x="340" y="48" class="magenta"><tspan>│</tspan></text><text x="360" y="48"><tspan> </tspan></text><text x="380" y="48"><tspan>f</tspan></text><text x="400" y="48"><tspan>i</tspan></text><text x="420" y="48"><tspan>l</tspan></text><text x="440" y="48"><tspan>e</tspan></text><text x="460" y="48"><tspan> </tspan></text><text x="480" y="48" class="magenta"><tspan>│</tspan></text><text x="500" y="48"><tspan> </tspan></text><text x="520" y="48" class="blue"><tspan>6</tspan></text><text x="540" y="48" class="blue"><tspan>0</tspan></text><text x="560" y="48" class="blue"><tspan>.</tspan></text><text x="580" y="48" class="blue"><tspan>5</tspan></text><text x="600" y="48" class="blue"><tspan> </tspan></text><text x="620" y="48" class="blue"><tspan>K</tspan></text><text x="640" y="48" class="blue"><tspan>B</tspan></text><text x="660" y="48"><tspan> </tspan></text><text x="680" y="48" class="magenta"><tspan>│</tspan></text><text x="700" y="48"><tspan> </tspan></text><text x="720" y="48" class="color256_184"><tspan>1</tspan></text><text x="740" y="48" class="color256_184"><tspan>2</tspan></text><text x="760" y="48" class="color256_184"><tspan> </tspan></text><text x="780" y="48" class="color256_184"><tspan>h</tspan></text><text x="800" y="48" class="color256_184"><tspan>o</tspan></text><text x="820" y="48" class="color256_184"><tspan>u</tspan></text><text x="840" y="48" class="color256_184"><tspan>r</tspan></text><text x="860" y="48" class="color256_184"><tspan>s</tspan></text><text x="880" y="48" class="color256_184"><tspan> </tspan></text><text x="900" y="48" class="color256_184"><tspan>a</tspan></text><text x="920" y="48" class="color256_184"><tspan>g</tspan></text><text x="940" y="48" class="color256_184"><tspan>o</tspan></text><text x="960" y="48"><tspan> </tspan></text><text x="980" y="48" class="magenta"><tspan>│</tspan></text><text y="80" class="magenta"><tspan>│</tspan></text><text x="20" y="80"><tspan> </tspan></text><text x="40" y="80" class="cyan bold"><tspan>1</tspan></text><text x="60" y="80"><tspan> </tspan></text><text x="80" y="80" class="magenta"><tspan>│</tspan></text><text x="100" y="80"><tspan> </tspan></text><text x="120" y="80" class="color256_149 underline" text-decoration="underline"><tspan>C</tspan></text><text x="140" y="80" class="color256_149 underline" text-decoration="underline"><tspan>a</tspan></text><text x="160" y="80" class="color256_149 underline" text-decoration="underline"><tspan>r</tspan></text><text x="180" y="80" class="color256_149 underline" text-decoration="underline"><tspan>g</tspan></text><text x="200" y="80" class="color256_149 underline" text-decoration="underline"><tspan>o</tspan></text><text x="220" y="80" class="color256_149 underline" text-decoration="underline"><tspan>.</tspan></text><text x="240" y="80" class="color256_149 underline" text-decoration="underline"><tspan>t</tspan></text><text x="260" y="80" class="color256_149 underline" text-decoration="underline"><tspan>o</tspan></text><text x="280" y="80" class="color256_149 underline" text-decoration="underline"><tspan>m</tspan></text><text x="300" y="80" class="color256_149 underline" text-decoration="underline"><tspan>l</tspan></text><text x="320" y="80"><tspan> </tspan></text><text x="340" y="80" class="magenta"><tspan>│</tspan></text><text x="360" y="80"><tspan> </tspan></text><text x="380" y="80"><tspan>f</tspan></text><text x="400" y="80"><tspan>i</tspan></text><text x="420" y="80"><tspan>l</tspan></text><text x="440" y="80"><tspan>e</tspan></text><text x="460" y="80"><tspan> </tspan></text><text x="480" y="80" class="magenta"><tspan>│</tspan></text><text x="500" y="80"><tspan> </tspan></text><text x="520" y="80"><tspan> </tspan></text><text x="540" y="80"><tspan> </tspan></text><text x="560" y="80" class="blue"><tspan>4</tspan></text><text x="580" y="80" class="blue"><tspan>6</tspan></text><text x="600" y="80" class="blue"><tspan>3</tspan></text><text x="620" y="80" class="blue"><tspan> </tspan></text><text x="640" y="80" class="blue"><tspan>B</tspan></text><text x="660" y="80"><tspan> </tspan></text><text x="680" y="80" class="magenta"><tspan>│</tspan></text><text x="700" y="80"><tspan> </tspan></text><text x="720" y="80" class="color256_184"><tspan>1</tspan></text><text x="740" y="80" class="color256_184"><tspan>2</tspan></text><text x="760" y="80" class="color256_184"><tspan> </tspan></text><text x="780" y="80" class="color256_184"><tspan>h</tspan></text><text x="800" y="80" class="color256_184"><tspan>o</tspan></text><text x="820" y="80" class="color256_184"><tspan>u</tspan></text><text x="840" y="80" class="color256_184"><tspan>r</tspan></text><text x="860" y="80" class="color256_184"><tspan>s</tspan></text><text x="880" y="80" class="color256_184"><tspan> </tspan></text><text x="900" y="80" class="color256_184"><tspan>a</tspan></text><text x="920" y="80" class="color256_184"><tspan>g</tspan></text><text x="940" y="80" class="color256_184"><tspan>o</tspan></text><text x="960" y="80"><tspan> </tspan></text><text x="980" y="80" class="magenta"><tspan>│</tspan></text><text y="112" class="magenta"><tspan>│</tspan></text><text x="20" y="112"><tspan> </tspan></text><text x="40" y="112" class="cyan bold"><tspan>2</tspan></text><text x="60" y="112"><tspan> </tspan></text><text x="80" y="112" class="magenta"><tspan>│</tspan></text><text x="100" y="112"><tspan> </tspan></text><text x="120" y="112" class="color256_249 underline" text-decoration="underline"><tspan>L</tspan></text><text x="140" y="112" class="color256_249 underline" text-decoration="underline"><tspan>I</tspan></text><text x="160" y="112" class="color256_249 underline" text-decoration="underline"><tspan>C</tspan></text><text x="180" y="112" class="color256_249 underline" text-decoration="underline"><tspan>E</tspan></text><text x="200" y="112" class="color256_249 underline" text-decoration="underline"><tspan>N</tspan></text><text x="220" y="112" class="color256_249 underline" text-decoration="underline"><tspan>S</tspan></text><text x="240" y="112" class="color256_249 underline" text-decoration="underline"><tspan>E</tspan></text><text x="260" y="112"><tspan> </tspan></text><text x="280" y="112"><tspan> </tspan></text><text x="300" y="112"><tspan> </tspan></text><text x="320" y="112"><tspan> </tspan></text><text x="340" y="112" class="magenta"><tspan>│</tspan></text><text x="360" y="112"><tspan> </tspan></text><text x="380" y="112"><tspan>f</tspan></text><text x="400" y="112"><tspan>i</tspan></text><text x="420" y="112"><tspan>l</tspan></text><text x="440" y="112"><tspan>e</tspan></text><text x="460" y="112"><tspan> </tspan></text><text x="480" y="112" class="magenta"><tspan>│</tspan></text><text x="500" y="112"><tspan> </tspan></text><text x="520" y="112"><tspan> </tspan></text><text x="540" y="112" class="blue"><tspan>1</tspan></text><text x="560" y="112" class="blue"><tspan>.</tspan></text><text x="580" y="112" class="blue"><tspan>1</tspan></text><text x="600" y="112" class="blue"><tspan> </tspan></text><text x="620" y="112" class="blue"><tspan>K</tspan></text><text x="640" y="112" class="blue"><tspan>B</tspan></text><text x="660" y="112"><tspan> </tspan></text><text x="680" y="112" class="magenta"><tspan>│</tspan></text><text x="700" y="112"><tspan> </tspan></text><text x="720" y="112" class="color256_184"><tspan>1</tspan></text><text x="740" y="112" class="color256_184"><tspan>2</tspan></text><text x="760" y="112" class="color256_184"><tspan> </tspan></text><text x="780" y="112" class="color256_184"><tspan>h</tspan></text><text x="800" y="112" class="color256_184"><tspan>o</tspan></text><text x="820" y="112" class="color256_184"><tspan>u</tspan></text><text x="840" y="112" class="color256_184"><tspan>r</tspan></text><text x="860" y="112" class="color256_184"><tspan>s</tspan></text><text x="880" y="112" class="color256_184"><tspan> </tspan></text><text x="900" y="112" class="color256_184"><tspan>a</tspan></text><text x="920" y="112" class="color256_184"><tspan>g</tspan></text><text x="940" y="112" class="color256_184"><tspan>o</tspan></text><text x="960" y="112"><tspan> </tspan></text><text x="980" y="112" class="magenta"><tspan>│</tspan></text><text y="144" class="magenta"><tspan>│</tspan></text><text x="20" y="144"><tspan> </tspan></text><text x="40" y="144" class="cyan bold"><tspan>3</tspan></text><text x="60" y="144"><tspan> </tspan></text><text x="80" y="144" class="magenta"><tspan>│</tspan></text><text x="100" y="144"><tspan> </tspan></text><path d="M120 128h20v32h-20z" class="bg-color256_186"/><text x="120" y="144" class="color256_16 underline" text-decoration="underline"><tspan>R</tspan></text><path d="M140 128h20v32h-20z" class="bg-color256_186"/><text x="140" y="144" class="color256_16 underline" text-decoration="underline"><tspan>E</tspan></text><path d="M160 128h20v32h-20z" class="bg-color256_186"/><text x="160" y="144" class="color256_16 underline" text-decoration="underline"><tspan>A</tspan></text><path d="M180 128h20v32h-20z" class="bg-color256_186"/><text x="180" y="144" class="color256_16 underline" text-decoration="underline"><tspan>D</tspan></text><path d="M200 128h20v32h-20z" class="bg-color256_186"/><text x="200" y="144" class="color256_16 underline" text-decoration="underline"><tspan>M</tspan></text><path d="M220 128h20v32h-20z" class="bg-color256_186"/><text x="220" y="144" class="color256_16 underline" text-decoration="underline"><tspan>E</tspan></text><path d="M240 128h20v32h-20z" class="bg-color256_186"/><text x="240" y="144" class="color256_16 underline" text-decoration="underline"><tspan>.</tspan></text><path d="M260 128h20v32h-20z" class="bg-color256_186"/><text x="260" y="144" class="color256_16 underline" text-decoration="underline"><tspan>m</tspan></text><path d="M280 128h20v32h-20z" class="bg-color256_186"/><text x="280" y="144" class="color256_16 underline" text-decoration="underline"><tspan>d</tspan></text><text x="300" y="144"><tspan> </tspan></text><text x="320" y="144"><tspan> </tspan></text><text x="340" y="144" class="magenta"><tspan>│</tspan></text><text x="360" y="144"><tspan> </tspan></text><text x="380" y="144"><tspan>f</tspan></text><text x="400" y="144"><tspan>i</tspan></text><text x="420" y="144"><tspan>l</tspan></text><text x="440" y="144"><tspan>e</tspan></text><text x="460" y="144"><tspan> </tspan></text><text x="480" y="144" class="magenta"><tspan>│</tspan></text><text x="500" y="144"><tspan> </tspan></text><text x="520" y="144"><tspan> </tspan></text><text x="540" y="144" class="blue"><tspan>4</tspan></text><text x="560" y="144" class="blue"><tspan>.</tspan></text><text x="580" y="144" class="blue"><tspan>2</tspan></text><text x="600" y="144" class="blue"><tspan> </tspan></text><text x="620" y="144" class="blue"><tspan>K</tspan></text><text x="640" y="144" class="blue"><tspan>B</tspan></text><text x="660" y="144"><tspan> </tspan></text><text x="680" y="144" class="magenta"><tspan>│</tspan></text><text x="700" y="144"><tspan> </tspan></text><text x="720" y="144" class="color256_184"><tspan>1</tspan></text><text x="740" y="144" class="color256_184"><tspan>2</tspan></text><text x="760" y="144" class="color256_184"><tspan> </tspan></text><text x="780" y="144" class="color256_184"><tspan>h</tspan></text><text x="800" y="144" class="color256_184"><tspan>o</tspan></text><text x="820" y="144" class="color256_184"><tspan>u</tspan></text><text x="840" y="144" class="color256_184"><tspan>r</tspan></text><text x="860" y="144" class="color256_184"><tspan>s</tspan></text><text x="880" y="144" class="color256_184"><tspan> </tspan></text><text x="900" y="144" class="color256_184"><tspan>a</tspan></text><text x="920" y="144" class="color256_184"><tspan>g</tspan></text><text x="940" y="144" class="color256_184"><tspan>o</tspan></text><text x="960" y="144"><tspan> </tspan></text><text x="980" y="144" class="magenta"><tspan>│</tspan></text><text y="176" class="magenta"><tspan>│</tspan></text><text x="20" y="176"><tspan> </tspan></text><text x="40" y="176" class="cyan bold"><tspan>4</tspan></text><text x="60" y="176"><tspan> </tspan></text><text x="80" y="176" class="magenta"><tspan>│</tspan></text><text x="100" y="176"><tspan> </tspan></text><text x="120" y="176" class="color256_81 underline" text-decoration="underline"><tspan>b</tspan></text><text x="140" y="176" class="color256_81 underline" text-decoration="underline"><tspan>e</tspan></text><text x="160" y="176" class="color256_81 underline" text-decoration="underline"><tspan>n</tspan></text><text x="180" y="176" class="color256_81 underline" text-decoration="underline"><tspan>c</tspan></text><text x="200" y="176" class="color256_81 underline" text-decoration="underline"><tspan>h</tspan></text><text x="220" y="176" class="color256_81 underline" text-decoration="underline"><tspan>e</tspan></text><text x="240" y="176" class="color256_81 underline" text-decoration="underline"><tspan>s</tspan></text><text x="260" y="176"><tspan> </tspan></text><text x="280" y="176"><tspan> </tspan></text><text x="300" y="176"><tspan> </tspan></text><text x="320" y="176"><tspan> </tspan></text><text x="340" y="176" class="magenta"><tspan>│</tspan></text><text x="360" y="176"><tspan> </tspan></text><text x="380" y="176"><tspan>d</tspan></text><text x="400" y="176"><tspan>i</tspan></text><text x="420" y="176"><tspan>r</tspan></text><text x="440" y="176"><tspan> </tspan></text><text x="460" y="176"><tspan> </tspan></text><text x="480" y="176" class="magenta"><tspan>│</tspan></text><text x="500" y="176"><tspan> </tspan></text><text x="520" y="176"><tspan> </tspan></text><text x="540" y="176"><tspan> </tspan></text><text x="560" y="176" class="blue"><tspan>1</tspan></text><text x="580" y="176" class="blue"><tspan>2</tspan></text><text x="600" y="176" class="blue"><tspan>8</tspan></text><text x="620" y="176" class="blue"><tspan> </tspan></text><text x="640" y="176" class="blue"><tspan>B</tspan></text><text x="660" y="176"><tspan> </tspan></text><text x="680" y="176" class="magenta"><tspan>│</tspan></text><text x="700" y="176"><tspan> </tspan></text><text x="720" y="176" class="color256_184"><tspan>1</tspan></text><text x="740" y="176" class="color256_184"><tspan>2</tspan></text><text x="760" y="176" class="color256_184"><tspan> </tspan></text><text x="780" y="176" class="color256_184"><tspan>h</tspan></text><text x="800" y="176" class="color256_184"><tspan>o</tspan></text><text x="820" y="176" class="color256_184"><tspan>u</tspan></text><text x="840" y="176" class="color256_184"><tspan>r</tspan></text><text x="860" y="176" class="color256_184"><tspan>s</tspan></text><text x="880" y="176" class="color256_184"><tspan> </tspan></text><text x="900" y="176" class="color256_184"><tspan>a</tspan></text><text x="920" y="176" class="color256_184"><tspan>g</tspan></text><text x="940" y="176" class="color256_184"><tspan>o</tspan></text><text x="960" y="176"><tspan> </tspan></text><text x="980" y="176" class="magenta"><tspan>│</tspan></text><text y="208" class="magenta"><tspan>│</tspan></text><text x="20" y="208"><tspan> </tspan></text><text x="40" y="208" class="cyan bold"><tspan>5</tspan></text><text x="60" y="208"><tspan> </tspan></text><text x="80" y="208" class="magenta"><tspan>│</tspan></text><text x="100" y="208"><tspan> </tspan></text><text x="120" y="208" class="color256_81 underline" text-decoration="underline"><tspan>s</tspan></text><text x="140" y="208" class="color256_81 underline" text-decoration="underline"><tspan>r</tspan></text><text x="160" y="208" class="color256_81 underline" text-decoration="underline"><tspan>c</tspan></text><text x="180" y="208"><tspan> </tspan></text><text x="200" y="208"><tspan> </tspan></text><text x="220" y="208"><tspan> </tspan></text><text x="240" y="208"><tspan> </tspan></text><text x="260" y="208"><tspan> </tspan></text><text x="280" y="208"><tspan> </tspan></text><text x="300" y="208"><tspan> </tspan></text><text x="320" y="208"><tspan> </tspan></text><text x="340" y="208" class="magenta"><tspan>│</tspan></text><text x="360" y="208"><tspan> </tspan></text><text x="380" y="208"><tspan>d</tspan></text><text x="400" y="208"><tspan>i</tspan></text><text x="420" y="208"><tspan>r</tspan></text><text x="440" y="208"><tspan> </tspan></text><text x="460" y="208"><tspan> </tspan></text><text x="480" y="208" class="magenta"><tspan>│</tspan></text><text x="500" y="208"><tspan> </tspan></text><text x="520" y="208"><tspan> </tspan></text><text x="540" y="208"><tspan> </tspan></text><text x="560" y="208" class="blue"><tspan>4</tspan></text><text x="580" y="208" class="blue"><tspan>4</tspan></text><text x="600" y="208" class="blue"><tspan>8</tspan></text><text x="620" y="208" class="blue"><tspan> </tspan></text><text x="640" y="208" class="blue"><tspan>B</tspan></text><text x="660" y="208"><tspan> </tspan></text><text x="680" y="208" class="magenta"><tspan>│</tspan></text><text x="700" y="208"><tspan> </tspan></text><text x="720" y="208" class="color256_184"><tspan>1</tspan></text><text x="740" y="208" class="color256_184"><tspan>2</tspan></text><text x="760" y="208" class="color256_184"><tspan> </tspan></text><text x="780" y="208" class="color256_184"><tspan>h</tspan></text><text x="800" y="208" class="color256_184"><tspan>o</tspan></text><text x="820" y="208" class="color256_184"><tspan>u</tspan></text><text x="840" y="208" class="color256_184"><tspan>r</tspan></text><text x="860" y="208" class="color256_184"><tspan>s</tspan></text><text x="880" y="208" class="color256_184"><tspan> </tspan></text><text x="900" y="208" class="color256_184"><tspan>a</tspan></text><text x="920" y="208" class="color256_184"><tspan>g</tspan></text><text x="940" y="208" class="color256_184"><tspan>o</tspan></text><text x="960" y="208"><tspan> </tspan></text><text x="980" y="208" class="magenta"><tspan>│</tspan></text><text y="240" class="magenta"><tspan>│</tspan></text><text x="20" y="240"><tspan> </tspan></text><text x="40" y="240" class="cyan bold"><tspan>6</tspan></text><text x="60" y="240"><tspan> </tspan></text><text x="80" y="240" class="magenta"><tspan>│</tspan></text><text x="100" y="240"><tspan> </tspan></text><text x="120" y="240" class="color256_81 underline" text-decoration="underline"><tspan>t</tspan></text><text x="140" y="240" class="color256_81 underline" text-decoration="underline"><tspan>a</tspan></text><text x="160" y="240" class="color256_81 underline" text-decoration="underline"><tspan>r</tspan></text><text x="180" y="240" class="color256_81 underline" text-decoration="underline"><tspan>g</tspan></text><text x="200" y="240" class="color256_81 underline" text-decoration="underline"><tspan>e</tspan></text><text x="220" y="240" class="color256_81 underline" text-decoration="underline"><tspan>t</tspan></text><text x="240" y="240"><tspan> </tspan></text><text x="260" y="240"><tspan> </tspan></text><text x="280" y="240"><tspan> </tspan></text><text x="300" y="240"><tspan> </tspan></text><text x="320" y="240"><tspan> </tspan></text><text x="340" y="240" class="magenta"><tspan>│</tspan></text><text x="360" y="240"><tspan> </tspan></text><text x="380" y="240"><tspan>d</tspan></text><text x="400" y="240"><tspan>i</tspan></text><text x="420" y="240"><tspan>r</tspan></text><text x="440" y="240"><tspan> </tspan></text><text x="460" y="240"><tspan> </tspan></text><text x="480" y="240" class="magenta"><tspan>│</tspan></text><text x="500" y="240"><tspan> </tspan></text><text x="520" y="240"><tspan> </tspan></text><text x="540" y="240"><tspan> </tspan></text><text x="560" y="240" class="blue"><tspan>2</tspan></text><text x="580" y="240" class="blue"><tspan>5</tspan></text><text x="600" y="240" class="blue"><tspan>6</tspan></text><text x="620" y="240" class="blue"><tspan> </tspan></text><text x="640" y="240" class="blue"><tspan>B</tspan></text><text x="660" y="240"><tspan> </tspan></text><text x="680" y="240" class="magenta"><tspan>│</tspan></text><text x="700" y="240"><tspan> </tspan></text><text x="720" y="240" class="color256_184"><tspan>1</tspan></text><text x="740" y="240" class="color256_184"><tspan>1</tspan></text><text x="760" y="240" class="color256_184"><tspan> </tspan></text><text x="780" y="240" class="color256_184"><tspan>h</tspan></text><text x="800" y="240" class="color256_184"><tspan>o</tspan></text><text x="820" y="240" class="color256_184"><tspan>u</tspan></text><text x="840" y="240" class="color256_184"><tspan>r</tspan></text><text x="860" y="240" class="color256_184"><tspan>s</tspan></text><text x="880" y="240" class="color256_184"><tspan> </tspan></text><text x="900" y="240" class="color256_184"><tspan>a</tspan></text><text x="920" y="240" class="color256_184"><tspan>g</tspan></text><text x="940" y="240" class="color256_184"><tspan>o</tspan></text><text x="960" y="240"><tspan> </tspan></text><text x="980" y="240" class="magenta"><tspan>│</tspan></text><text y="272" class="magenta"><tspan>│</tspan></text><text x="20" y="272"><tspan> </tspan></text><text x="40" y="272" class="cyan bold"><tspan>7</tspan></text><text x="60" y="272"><tspan> </tspan></text><text x="80" y="272" class="magenta"><tspan>│</tspan></text><text x="100" y="272"><tspan> </tspan></text><text x="120" y="272" class="color256_81 underline" text-decoration="underline"><tspan>t</tspan></text><text x="140" y="272" class="color256_81 underline" text-decoration="underline"><tspan>e</tspan></text><text x="160" y="272" class="color256_81 underline" text-decoration="underline"><tspan>s</tspan></text><text x="180" y="272" class="color256_81 underline" text-decoration="underline"><tspan>t</tspan></text><text x="200" y="272" class="color256_81 underline" text-decoration="underline"><tspan>s</tspan></text><text x="220" y="272"><tspan> </tspan></text><text x="240" y="272"><tspan> </tspan></text><text x="260" y="272"><tspan> </tspan></text><text x="280" y="272"><tspan> </tspan></text><text x="300" y="272"><tspan> </tspan></text><text x="320" y="272"><tspan> </tspan></text><text x="340" y="272" class="magenta"><tspan>│</tspan></text><text x="360" y="272"><tspan> </tspan></text><text x="380" y="272"><tspan>d</tspan></text><text x="400" y="272"><tspan>i</tspan></text><text x="420" y="272"><tspan>r</tspan></text><text x="440" y="272"><tspan> </tspan></text><text x="460" y="272"><tspan> </tspan></text><text x="480" y="272" class="magenta"><tspan>│</tspan></text><text x="500" y="272"><tspan> </tspan></text><text x="520" y="272"><tspan> </tspan></text><text x="540" y="272" class="blue"><tspan>1</tspan></text><text x="560" y="272" class="blue"><tspan>.</tspan></text><text x="580" y="272" class="blue"><tspan>0</tspan></text><text x="600" y="272" class="blue"><tspan> </tspan></text><text x="620" y="272" class="blue"><tspan>K</tspan></text><text x="640" y="272" class="blue"><tspan>B</tspan></text><text x="660" y="272"><tspan> </tspan></text><text x="680" y="272" class="magenta"><tspan>│</tspan></text><text x="700" y="272"><tspan> </tspan></text><text x="720" y="272" class="color256_184"><tspan>1</tspan></text><text x="740" y="272" class="color256_184"><tspan>2</tspan></text><text x="760" y="272" class="color256_184"><tspan> </tspan></text><text x="780" y="272" class="color256_184"><tspan>h</tspan></text><text x="800" y="272" class="color256_184"><tspan>o</tspan></text><text x="820" y="272" class="color256_184"><tspan>u</tspan></text><text x="840" y="272" class="color256_184"><tspan>r</tspan></text><text x="860" y="272" class="color256_184"><tspan>s</tspan></text><text x="880" y="272" class="color256_184"><tspan> </tspan></text><text x="900" y="272" class="color256_184"><tspan>a</tspan></text><text x="920" y="272" class="color256_184"><tspan>g</tspan></text><text x="940" y="272" class="color256_184"><tspan>o</tspan></text><text x="960" y="272"><tspan> </tspan></text><text x="980" y="272" class="magenta"><tspan>│</tspan></text><text y="304" class="magenta"><tspan>│</tspan></text><text x="20" y="304"><tspan> </tspan></text><text x="40" y="304" class="cyan bold"><tspan>8</tspan></text><text x="60" y="304"><tspan> </tspan></text><text x="80" y="304" class="magenta"><tspan>│</tspan></text><text x="100" y="304"><tspan> </tspan></text><text x="120" y="304" class="underline" text-decoration="underline"><tspan>t</tspan></text><text x="140" y="304" class="underline" text-decoration="underline"><tspan>o</tspan></text><text x="160" y="304" class="underline" text-decoration="underline"><tspan>o</tspan></text><text x="180" y="304" class="underline" text-decoration="underline"><tspan>l</tspan></text><text x="200" y="304" class="underline" text-decoration="underline"><tspan>k</tspan></text><text x="220" y="304" class="underline" text-decoration="underline"><tspan>i</tspan></text><text x="240" y="304" class="underline" text-decoration="underline"><tspan>t</tspan></text><text x="260" y="304" class="underline" text-decoration="underline"><tspan>.</tspan></text><text x="280" y="304" class="underline" text-decoration="underline"><tspan>n</tspan></text><text x="300" y="304" class="underline" text-decoration="underline"><tspan>u</tspan></text><text x="320" y="304"><tspan> </tspan></text><text x="340" y="304" class="magenta"><tspan>│</tspan></text><text x="360" y="304"><tspan> </tspan></text><text x="380" y="304"><tspan>f</tspan></text><text x="400" y="304"><tspan>i</tspan></text><text x="420" y="304"><tspan>l</tspan></text><text x="440" y="304"><tspan>e</tspan></text><text x="460" y="304"><tspan> </tspan></text><text x="480" y="304" class="magenta"><tspan>│</tspan></text><text x="500" y="304"><tspan> </tspan></text><text x="520" y="304"><tspan> </tspan></text><text x="540" y="304"><tspan> </tspan></text><text x="560" y="304" class="blue"><tspan>4</tspan></text><text x="580" y="304" class="blue"><tspan>3</tspan></text><text x="600" y="304" class="blue"><tspan>6</tspan></text><text x="620" y="304" class="blue"><tspan> </tspan></text><text x="640" y="304" class="blue"><tspan>B</tspan></text><text x="660" y="304"><tspan> </tspan></text><text x="680" y="304" class="magenta"><tspan>│</tspan></text><text x="700" y="304"><tspan> </tspan></text><text x="720" y="304" class="color256_184"><tspan>1</tspan></text><text x="740" y="304" class="color256_184"><tspan>2</tspan></text><text x="760" y="304" class="color256_184"><tspan> </tspan></text><text x="780" y="304" class="color256_184"><tspan>h</tspan></text><text x="800" y="304" class="color256_184"><tspan>o</tspan></text><text x="820" y="304" class="color256_184"><tspan>u</tspan></text><text x="840" y="304" class="color256_184"><tspan>r</tspan></text><text x="860" y="304" class="color256_184"><tspan>s</tspan></text><text x="880" y="304" class="color256_184"><tspan> </tspan></text><text x="900" y="304" class="color256_184"><tspan>a</tspan></text><text x="920" y="304" class="color256_184"><tspan>g</tspan></text><text x="940" y="304" class="color256_184"><tspan>o</tspan></text><text x="960" y="304"><tspan> </tspan></text><text x="980" y="304" class="magenta"><tspan>│</tspan></text><text y="336" class="magenta"><tspan>╰</tspan></text><text x="20" y="336" class="magenta"><tspan>─</tspan></text><text x="40" y="336" class="magenta"><tspan>─</tspan></text><text x="60" y="336" class="magenta"><tspan>─</tspan></text><text x="80" y="336" class="magenta"><tspan>┴</tspan></text><text x="100" y="336" class="magenta"><tspan>─</tspan></text><text x="120" y="336" class="magenta"><tspan>─</tspan></text><text x="140" y="336" class="magenta"><tspan>─</tspan></text><text x="160" y="336" class="magenta"><tspan>─</tspan></text><text x="180" y="336" class="magenta"><tspan>─</tspan></text><text x="200" y="336" class="magenta"><tspan>─</tspan></text><text x="220" y="336" class="magenta"><tspan>─</tspan></text><text x="240" y="336" class="magenta"><tspan>─</tspan></text><text x="260" y="336" class="magenta"><tspan>─</tspan></text><text x="280" y="336" class="magenta"><tspan>─</tspan></text><text x="300" y="336" class="magenta"><tspan>─</tspan></text><text x="320" y="336" class="magenta"><tspan>─</tspan></text><text x="340" y="336" class="magenta"><tspan>┴</tspan></text><text x="360" y="336" class="magenta"><tspan>─</tspan></text><text x="380" y="336" class="magenta"><tspan>─</tspan></text><text x="400" y="336" class="magenta"><tspan>─</tspan></text><text x="420" y="336" class="magenta"><tspan>─</tspan></text><text x="440" y="336" class="magenta"><tspan>─</tspan></text><text x="460" y="336" class="magenta"><tspan>─</tspan></text><text x="480" y="336" class="magenta"><tspan>┴</tspan></text><text x="500" y="336" class="magenta"><tspan>─</tspan></text><text x="520" y="336" class="magenta"><tspan>─</tspan></text><text x="540" y="336" class="magenta"><tspan>─</tspan></text><text x="560" y="336" class="magenta"><tspan>─</tspan></text><text x="580" y="336" class="magenta"><tspan>─</tspan></text><text x="600" y="336" class="magenta"><tspan>─</tspan></text><text x="620" y="336" class="magenta"><tspan>─</tspan></text><text x="640" y="336" class="magenta"><tspan>─</tspan></text><text x="660" y="336" class="magenta"><tspan>─</tspan></text><text x="680" y="336" class="magenta"><tspan>┴</tspan></text><text x="700" y="336" class="magenta"><tspan>─</tspan></text><text x="720" y="336" class="magenta"><tspan>─</tspan></text><text x="740" y="336" class="magenta"><tspan>─</tspan></text><text x="760" y="336" class="magenta"><tspan>─</tspan></text><text x="780" y="336" class="magenta"><tspan>─</tspan></text><text x="800" y="336" class="magenta"><tspan>─</tspan></text><text x="820" y="336" class="magenta"><tspan>─</tspan></text><text x="840" y="336" class="magenta"><tspan>─</tspan></text><text x="860" y="336" class="magenta"><tspan>─</tspan></text><text x="880" y="336" class="magenta"><tspan>─</tspan></text><text x="900" y="336" class="magenta"><tspan>─</tspan></text><text x="920" y="336" class="magenta"><tspan>─</tspan></text><text x="940" y="336" class="magenta"><tspan>─</tspan></text><text x="960" y="336" class="magenta"><tspan>─</tspan></text><text x="980" y="336" class="magenta"><tspan>╯</tspan></text></svg>