<svg xmlns="http://www.w3.org/2000/svg" width="510" height="192"><style><![CDATA[.t{dominant-baseline:central;font-variant-ligatures:none;white-space:pre;font-family:Consolas,Courier New,Monaco;font-size:16px}.b{font-weight:700}:root{color-scheme:light dark;background:#fff}.c5{fill:#bc3fbc}.cF3{fill:#767676}.c2{fill:#0dbc79}.c95{fill:#afd75f}.c6{fill:#11a8cd}.cB8{fill:#d7d700}.cF9{fill:#b2b2b2}.c10,svg>text{fill:#000}.c51{fill:#5fd7ff}.c4{fill:#2472c8}.bBA{fill:#d7d787}@media (prefers-color-scheme:dark){:root{background:#181818}.c5{fill:#bc3fbc}.cF3{fill:#767676}.c2{fill:#0dbc79}.c95{fill:#afd75f}.c6{fill:#11a8cd}.cB8{fill:#d7d700}.cF9{fill:#b2b2b2}.c10{fill:#000}.c51{fill:#5fd7ff}.c4{fill:#2472c8}.bBA{fill:#d7d787}svg>text{fill:#e5e5e5}}]]></style><text y="10" class="t c5"><tspan>╭─</tspan></text><text x="20" y="10" class="t c2 b"><tspan>#</tspan></text><text x="30" y="10" class="t c5"><tspan>─┬────</tspan></text><text x="90" y="10" class="t c2 b"><tspan>name</tspan></text><text x="130" y="10" class="t c5"><tspan>────┬─</tspan></text><text x="190" y="10" class="t c2 b"><tspan>type</tspan></text><text x="230" y="10" class="t c5"><tspan>─┬──</tspan></text><text x="270" y="10" class="t c2 b"><tspan>size</tspan></text><text x="310" y="10" class="t c5"><tspan>───┬───</tspan></text><text x="380" y="10" class="t c2 b"><tspan>modified</tspan></text><text x="460" y="10" class="t c5"><tspan>───╮</tspan></text><text y="26" class="t c5"><tspan>│</tspan></text><text x="10" y="26" class="t"><tspan> </tspan></text><text x="20" y="26" class="t c6 b"><tspan>0</tspan></text><text x="30" y="26" class="t"><tspan> </tspan></text><text x="40" y="26" class="t c5"><tspan>│</tspan></text><text x="50" y="26" class="t"><tspan> </tspan></text><text x="60" y="26" class="t cF3" text-decoration="underline"><tspan>Cargo.lock</tspan></text><text x="160" y="26" class="t"><tspan> </tspan></text><text x="170" y="26" class="t c5"><tspan>│</tspan></text><text x="180" y="26" class="t"><tspan> file </tspan></text><text x="240" y="26" class="t c5"><tspan>│</tspan></text><text x="250" y="26" class="t"><tspan> </tspan></text><text x="260" y="26" class="t c4"><tspan>60.5 KB</tspan></text><text x="330" y="26" class="t"><tspan> </tspan></text><text x="340" y="26" class="t c5"><tspan>│</tspan></text><text x="350" y="26" class="t"><tspan> </tspan></text><text x="360" y="26" class="t cB8"><tspan>12 hours ago</tspan></text><text x="480" y="26" class="t"><tspan> </tspan></text><text x="490" y="26" class="t c5"><tspan>│</tspan></text><text y="42" class="t c5"><tspan>│</tspan></text><text x="10" y="42" class="t"><tspan> </tspan></text><text x="20" y="42" class="t c6 b"><tspan>1</tspan></text><text x="30" y="42" class="t"><tspan> </tspan></text><text x="40" y="42" class="t c5"><tspan>│</tspan></text><text x="50" y="42" class="t"><tspan> </tspan></text><text x="60" y="42" class="t c95" text-decoration="underline"><tspan>Cargo.toml</tspan></text><text x="160" y="42" class="t"><tspan> </tspan></text><text x="170" y="42" class="t c5"><tspan>│</tspan></text><text x="180" y="42" class="t"><tspan> file </tspan></text><text x="240" y="42" class="t c5"><tspan>│</tspan></text><text x="250" y="42" class="t"><tspan>   </tspan></text><text x="280" y="42" class="t c4"><tspan>463 B</tspan></text><text x="330" y="42" class="t"><tspan> </tspan></text><text x="340" y="42" class="t c5"><tspan>│</tspan></text><text x="350" y="42" class="t"><tspan> </tspan></text><text x="360" y="42" class="t cB8"><tspan>12 hours ago</tspan></text><text x="480" y="42" class="t"><tspan> </tspan></text><text x="490" y="42" class="t c5"><tspan>│</tspan></text><text y="58" class="t c5"><tspan>│</tspan></text><text x="10" y="58" class="t"><tspan> </tspan></text><text x="20" y="58" class="t c6 b"><tspan>2</tspan></text><text x="30" y="58" class="t"><tspan> </tspan></text><text x="40" y="58" class="t c5"><tspan>│</tspan></text><text x="50" y="58" class="t"><tspan> </tspan></text><text x="60" y="58" class="t cF9" text-decoration="underline"><tspan>LICENSE</tspan></text><text x="130" y="58" class="t"><tspan>    </tspan></text><text x="170" y="58" class="t c5"><tspan>│</tspan></text><text x="180" y="58" class="t"><tspan> file </tspan></text><text x="240" y="58" class="t c5"><tspan>│</tspan></text><text x="250" y="58" class="t"><tspan>  </tspan></text><text x="270" y="58" class="t c4"><tspan>1.1 KB</tspan></text><text x="330" y="58" class="t"><tspan> </tspan></text><text x="340" y="58" class="t c5"><tspan>│</tspan></text><text x="350" y="58" class="t"><tspan> </tspan></text><text x="360" y="58" class="t cB8"><tspan>12 hours ago</tspan></text><text x="480" y="58" class="t"><tspan> </tspan></text><text x="490" y="58" class="t c5"><tspan>│</tspan></text><text y="74" class="t c5"><tspan>│</tspan></text><text x="10" y="74" class="t"><tspan> </tspan></text><text x="20" y="74" class="t c6 b"><tspan>3</tspan></text><text x="30" y="74" class="t"><tspan> </tspan></text><text x="40" y="74" class="t c5"><tspan>│</tspan></text><text x="50" y="74" class="t"><tspan> </tspan></text><path d="M60 64h90v16H60z" class="bBA"/><text x="60" y="74" class="t c10" text-decoration="underline"><tspan>README.md</tspan></text><text x="150" y="74" class="t"><tspan>  </tspan></text><text x="170" y="74" class="t c5"><tspan>│</tspan></text><text x="180" y="74" class="t"><tspan> file </tspan></text><text x="240" y="74" class="t c5"><tspan>│</tspan></text><text x="250" y="74" class="t"><tspan>  </tspan></text><text x="270" y="74" class="t c4"><tspan>4.2 KB</tspan></text><text x="330" y="74" class="t"><tspan> </tspan></text><text x="340" y="74" class="t c5"><tspan>│</tspan></text><text x="350" y="74" class="t"><tspan> </tspan></text><text x="360" y="74" class="t cB8"><tspan>12 hours ago</tspan></text><text x="480" y="74" class="t"><tspan> </tspan></text><text x="490" y="74" class="t c5"><tspan>│</tspan></text><text y="90" class="t c5"><tspan>│</tspan></text><text x="10" y="90" class="t"><tspan> </tspan></text><text x="20" y="90" class="t c6 b"><tspan>4</tspan></text><text x="30" y="90" class="t"><tspan> </tspan></text><text x="40" y="90" class="t c5"><tspan>│</tspan></text><text x="50" y="90" class="t"><tspan> </tspan></text><text x="60" y="90" class="t c51" text-decoration="underline"><tspan>benches</tspan></text><text x="130" y="90" class="t"><tspan>    </tspan></text><text x="170" y="90" class="t c5"><tspan>│</tspan></text><text x="180" y="90" class="t"><tspan> dir  </tspan></text><text x="240" y="90" class="t c5"><tspan>│</tspan></text><text x="250" y="90" class="t"><tspan>   </tspan></text><text x="280" y="90" class="t c4"><tspan>128 B</tspan></text><text x="330" y="90" class="t"><tspan> </tspan></text><text x="340" y="90" class="t c5"><tspan>│</tspan></text><text x="350" y="90" class="t"><tspan> </tspan></text><text x="360" y="90" class="t cB8"><tspan>12 hours ago</tspan></text><text x="480" y="90" class="t"><tspan> </tspan></text><text x="490" y="90" class="t c5"><tspan>│</tspan></text><text y="106" class="t c5"><tspan>│</tspan></text><text x="10" y="106" class="t"><tspan> </tspan></text><text x="20" y="106" class="t c6 b"><tspan>5</tspan></text><text x="30" y="106" class="t"><tspan> </tspan></text><text x="40" y="106" class="t c5"><tspan>│</tspan></text><text x="50" y="106" class="t"><tspan> </tspan></text><text x="60" y="106" class="t c51" text-decoration="underline"><tspan>src</tspan></text><text x="90" y="106" class="t"><tspan>        </tspan></text><text x="170" y="106" class="t c5"><tspan>│</tspan></text><text x="180" y="106" class="t"><tspan> dir  </tspan></text><text x="240" y="106" class="t c5"><tspan>│</tspan></text><text x="250" y="106" class="t"><tspan>   </tspan></text><text x="280" y="106" class="t c4"><tspan>448 B</tspan></text><text x="330" y="106" class="t"><tspan> </tspan></text><text x="340" y="106" class="t c5"><tspan>│</tspan></text><text x="350" y="106" class="t"><tspan> </tspan></text><text x="360" y="106" class="t cB8"><tspan>12 hours ago</tspan></text><text x="480" y="106" class="t"><tspan> </tspan></text><text x="490" y="106" class="t c5"><tspan>│</tspan></text><text y="122" class="t c5"><tspan>│</tspan></text><text x="10" y="122" class="t"><tspan> </tspan></text><text x="20" y="122" class="t c6 b"><tspan>6</tspan></text><text x="30" y="122" class="t"><tspan> </tspan></text><text x="40" y="122" class="t c5"><tspan>│</tspan></text><text x="50" y="122" class="t"><tspan> </tspan></text><text x="60" y="122" class="t c51" text-decoration="underline"><tspan>target</tspan></text><text x="120" y="122" class="t"><tspan>     </tspan></text><text x="170" y="122" class="t c5"><tspan>│</tspan></text><text x="180" y="122" class="t"><tspan> dir  </tspan></text><text x="240" y="122" class="t c5"><tspan>│</tspan></text><text x="250" y="122" class="t"><tspan>   </tspan></text><text x="280" y="122" class="t c4"><tspan>256 B</tspan></text><text x="330" y="122" class="t"><tspan> </tspan></text><text x="340" y="122" class="t c5"><tspan>│</tspan></text><text x="350" y="122" class="t"><tspan> </tspan></text><text x="360" y="122" class="t cB8"><tspan>11 hours ago</tspan></text><text x="480" y="122" class="t"><tspan> </tspan></text><text x="490" y="122" class="t c5"><tspan>│</tspan></text><text y="138" class="t c5"><tspan>│</tspan></text><text x="10" y="138" class="t"><tspan> </tspan></text><text x="20" y="138" class="t c6 b"><tspan>7</tspan></text><text x="30" y="138" class="t"><tspan> </tspan></text><text x="40" y="138" class="t c5"><tspan>│</tspan></text><text x="50" y="138" class="t"><tspan> </tspan></text><text x="60" y="138" class="t c51" text-decoration="underline"><tspan>tests</tspan></text><text x="110" y="138" class="t"><tspan>      </tspan></text><text x="170" y="138" class="t c5"><tspan>│</tspan></text><text x="180" y="138" class="t"><tspan> dir  </tspan></text><text x="240" y="138" class="t c5"><tspan>│</tspan></text><text x="250" y="138" class="t"><tspan>  </tspan></text><text x="270" y="138" class="t c4"><tspan>1.0 KB</tspan></text><text x="330" y="138" class="t"><tspan> </tspan></text><text x="340" y="138" class="t c5"><tspan>│</tspan></text><text x="350" y="138" class="t"><tspan> </tspan></text><text x="360" y="138" class="t cB8"><tspan>12 hours ago</tspan></text><text x="480" y="138" class="t"><tspan> </tspan></text><text x="490" y="138" class="t c5"><tspan>│</tspan></text><text y="154" class="t c5"><tspan>│</tspan></text><text x="10" y="154" class="t"><tspan> </tspan></text><text x="20" y="154" class="t c6 b"><tspan>8</tspan></text><text x="30" y="154" class="t"><tspan> </tspan></text><text x="40" y="154" class="t c5"><tspan>│</tspan></text><text x="50" y="154" class="t"><tspan> </tspan></text><text x="60" y="154" class="t" text-decoration="underline"><tspan>toolkit.nu</tspan></text><text x="160" y="154" class="t"><tspan> </tspan></text><text x="170" y="154" class="t c5"><tspan>│</tspan></text><text x="180" y="154" class="t"><tspan> file </tspan></text><text x="240" y="154" class="t c5"><tspan>│</tspan></text><text x="250" y="154" class="t"><tspan>   </tspan></text><text x="280" y="154" class="t c4"><tspan>436 B</tspan></text><text x="330" y="154" class="t"><tspan> </tspan></text><text x="340" y="154" class="t c5"><tspan>│</tspan></text><text x="350" y="154" class="t"><tspan> </tspan></text><text x="360" y="154" class="t cB8"><tspan>12 hours ago</tspan></text><text x="480" y="154" class="t"><tspan> </tspan></text><text x="490" y="154" class="t c5"><tspan>│</tspan></text><text y="170" class="t c5"><tspan>╰───┴────────────┴──────┴─────────┴──────────────╯</tspan></text></svg>