<svg width="810" height="450" xmlns="http://www.w3.org/2000/svg" xmlns:xlink="http://www.w3.org/1999/xlink"><style>.t{dominant-baseline:central;font-variant-ligatures:none;white-space: pre;font-family:Consolas,Courier New,Monaco;font-size:16px;}.b{font-weight:bold}:root {color-scheme: light dark; background: #FFFFFF}.c0{fill:#000000}.c3{fill:#E5E510}.c7{fill:#E5E5E5}.c2{fill:#0DBC79}.c1{fill:#CD3131}.b7{fill:#E5E5E5}.b0{fill:#000000}.b3{fill:#E5E510}.b2{fill:#0DBC79}.b1{fill:#CD3131}svg > text{fill:#000000}@media (prefers-color-scheme: dark) {:root {background: #181818}.c0{fill:#E5E5E5}.c3{fill:#E5E510}.c7{fill:#000000}.c2{fill:#0DBC79}.c1{fill:#CD3131}.b7{fill:#000000}.b0{fill:#E5E5E5}.b3{fill:#E5E510}.b2{fill:#0DBC79}.b1{fill:#CD3131}svg > text{fill:#E5E5E5}}</style><text x="0" y="10" width="90" height="18" class='t c0 b' ><tspan textLength="90">███████▀▀</tspan></text><rect x="90" y="2" width="10" height="18" class='b7'/><text x="90" y="10" width="10" height="18" class='t c0 b' ><tspan textLength="10">▀</tspan></text><text x="100" y="10" width="20" height="18" class='t' ><tspan textLength="20">▄▄</tspan></text><rect x="120" y="2" width="30" height="18" class='b7'/><text x="120" y="10" width="30" height="18" class='t c0 b' ><tspan textLength="30">░░░</tspan></text><text x="150" y="10" width="150" height="18" class='t' ><tspan textLength="150">██████████████▌</tspan></text><text x="300" y="10" width="20" height="18" class='t c3' ><tspan textLength="20">▐▄</tspan></text><text x="320" y="10" width="40" height="18" class='t c7' ><tspan textLength="40">▀██▀</tspan></text><text x="360" y="10" width="10" height="18" class='t c3' ><tspan textLength="10">▄</tspan></text><text x="370" y="10" width="430" height="18" class='t c7' ><tspan textLength="430">▀██████████████████████████████████████████</tspan></text><text x="0" y="28" width="40" height="18" class='t c0 b' ><tspan textLength="40">██▀▀</tspan></text><text x="40" y="28" width="20" height="18" class='t' ><tspan textLength="20">▄▄</tspan></text><rect x="60" y="20" width="30" height="18" class='b7'/><text x="60" y="28" width="30" height="18" class='t c0 b' ><tspan textLength="30">░░░</tspan></text><text x="90" y="28" width="20" height="18" class='t c3' ><tspan textLength="20"> ▄</tspan></text><text x="110" y="28" width="70" height="18" class='t c7' ><tspan textLength="70">▀████▀▀</tspan></text><text x="180" y="28" width="30" height="18" class='t c3' ><tspan textLength="30">▄▄▄</tspan></text><text x="210" y="28" width="100" height="18" class='t c7' ><tspan textLength="100">▀▀▀▀█████ </tspan></text><text x="310" y="28" width="30" height="18" class='t c3' ><tspan textLength="30">██▄</tspan></text><text x="340" y="28" width="20" height="18" class='t c7' ><tspan textLength="20">▀▌</tspan></text><text x="360" y="28" width="20" height="18" class='t c3' ><tspan textLength="20">▐█</tspan></text><text x="380" y="28" width="50" height="18" class='t c7' ><tspan textLength="50"> ████</tspan></text><rect x="430" y="20" width="170" height="18" class='b7'/><text x="430" y="28" width="170" height="18" class='t c0' ><tspan textLength="170">                 </tspan></text><rect x="600" y="20" width="200" height="18" class='b0'/><text x="600" y="28" width="200" height="18" class='t c7' ><tspan textLength="200">████████████████████</tspan></text><rect x="0" y="38" width="10" height="18" class='b0'/><text x="0" y="46" width="10" height="18" class='t c7' ><tspan textLength="10">▄</tspan></text><rect x="10" y="38" width="30" height="18" class='b7'/><text x="10" y="46" width="30" height="18" class='t c0 b' ><tspan textLength="30">░░░</tspan></text><text x="40" y="46" width="60" height="18" class='t' ><tspan textLength="60">█████▌</tspan></text><text x="100" y="46" width="30" height="18" class='t c3' ><tspan textLength="30">██▄</tspan></text><text x="130" y="46" width="10" height="18" class='t c7' ><tspan textLength="10">▀</tspan></text><text x="140" y="46" width="140" height="18" class='t c3' ><tspan textLength="140">▄▄█████████▄▄▄</tspan></text><text x="280" y="46" width="30" height="18" class='t c7' ><tspan textLength="30">▀▀■</tspan></text><text x="310" y="46" width="50" height="18" class='t c3' ><tspan textLength="50">▐███▄</tspan></text><rect x="360" y="38" width="10" height="18" class='b3'/><text x="360" y="46" width="10" height="18" class='t c0' ><tspan textLength="10">░</tspan></text><rect x="370" y="38" width="20" height="18" class='b0'/><text x="370" y="46" width="20" height="18" class='t c3' ><tspan textLength="20">██</tspan></text><rect x="390" y="38" width="410" height="18" class='b0'/><text x="390" y="46" width="410" height="18" class='t c7' ><tspan textLength="410"> ███████████████████▀▀▀▀▀▀▀▀█████████████</tspan></text><rect x="0" y="56" width="60" height="18" class='b0'/><text x="0" y="64" width="60" height="18" class='t c7' ><tspan textLength="60">█████▄</tspan></text><rect x="60" y="56" width="260" height="18" class='b0'/><text x="60" y="64" width="260" height="18" class='t c3' ><tspan textLength="260">▀█▄▄█████████████████████▄</tspan></text><rect x="320" y="56" width="10" height="18" class='b3'/><text x="320" y="64" width="10" height="18" class='t c0' ><tspan textLength="10">░</tspan></text><rect x="330" y="56" width="70" height="18" class='b0'/><text x="330" y="64" width="70" height="18" class='t c3' ><tspan textLength="70">███████</tspan></text><rect x="400" y="56" width="150" height="18" class='b0'/><text x="400" y="64" width="150" height="18" class='t c7' ><tspan textLength="150"> █████████████▀</tspan></text><rect x="550" y="56" width="10" height="18" class='b0'/><text x="550" y="64" width="10" height="18" class='t c2' ><tspan textLength="10"> </tspan></text><rect x="560" y="56" width="10" height="18" class='b2'/><text x="560" y="64" width="10" height="18" class='t c0' ><tspan textLength="10">█</tspan></text><rect x="570" y="56" width="20" height="18" class='b0'/><text x="570" y="64" width="20" height="18" class='t c2 b' ><tspan textLength="20">▄▄</tspan></text><rect x="590" y="56" width="10" height="18" class='b2'/><text x="590" y="64" width="10" height="18" class='t c2 b' ><tspan textLength="10">▀</tspan></text><rect x="600" y="56" width="60" height="18" class='b0'/><text x="600" y="64" width="60" height="18" class='t c2 b' ><tspan textLength="60">▀▀▀▀■■</tspan></text><text x="660" y="64" width="140" height="18" class='t' ><tspan textLength="140"> ▀▀▀██████████</tspan></text><text x="0" y="82" width="80" height="18" class='t' ><tspan textLength="80">███████▄</tspan></text><text x="80" y="82" width="10" height="18" class='t c3' ><tspan textLength="10">▀</tspan></text><rect x="90" y="74" width="10" height="18" class='b3'/><text x="90" y="82" width="10" height="18" class='t c0' ><tspan textLength="10">░</tspan></text><rect x="100" y="74" width="310" height="18" class='b0'/><text x="100" y="82" width="310" height="18" class='t c3' ><tspan textLength="310">██████████████████████████████▌</tspan></text><rect x="410" y="74" width="130" height="18" class='b0'/><text x="410" y="82" width="130" height="18" class='t c7' ><tspan textLength="130">▐███████████ </tspan></text><rect x="540" y="74" width="10" height="18" class='b0'/><text x="540" y="82" width="10" height="18" class='t c2 b' ><tspan textLength="10">▐</tspan></text><rect x="550" y="74" width="60" height="18" class='b2'/><text x="550" y="82" width="60" height="18" class='t c2 b' ><tspan textLength="60">█▓▒▄■■</tspan></text><rect x="610" y="74" width="50" height="18" class='b0'/><text x="610" y="82" width="50" height="18" class='t c2 b' ><tspan textLength="50">▀▀▀▀▀</tspan></text><rect x="660" y="74" width="20" height="18" class='b2'/><text x="660" y="82" width="20" height="18" class='t c2 b' ><tspan textLength="20">▀▓</tspan></text><rect x="680" y="74" width="20" height="18" class='b0'/><text x="680" y="82" width="20" height="18" class='t c2 b' ><tspan textLength="20">█■</tspan></text><text x="700" y="82" width="100" height="18" class='t' ><tspan textLength="100"> ▀▀███████</tspan></text><text x="0" y="100" width="80" height="18" class='t' ><tspan textLength="80">███████▀</tspan></text><text x="80" y="100" width="330" height="18" class='t c3' ><tspan textLength="330">▄████████████████████████████████</tspan></text><text x="410" y="100" width="100" height="18" class='t c7' ><tspan textLength="100"> ███████▀▀</tspan></text><text x="510" y="100" width="20" height="18" class='t c2 b' ><tspan textLength="20">▄▄</tspan></text><rect x="530" y="92" width="10" height="18" class='b2'/><text x="530" y="100" width="10" height="18" class='t c2 b' ><tspan textLength="10">▀</tspan></text><text x="540" y="100" width="10" height="18" class='t' ><tspan textLength="10"> </tspan></text><rect x="550" y="92" width="10" height="18" class='b2'/><text x="550" y="100" width="10" height="18" class='t c2 b' ><tspan textLength="10">▒</tspan></text><text x="560" y="100" width="10" height="18" class='t c2' ><tspan textLength="10">█</tspan></text><text x="570" y="100" width="10" height="18" class='t c7' ><tspan textLength="10"> </tspan></text><rect x="580" y="92" width="100" height="18" class='b2'/><text x="580" y="100" width="100" height="18" class='t c2 b' ><tspan textLength="100">▌ANSI.SYS </tspan></text><rect x="680" y="92" width="10" height="18" class='b0'/><text x="680" y="100" width="10" height="18" class='t c2 b' ><tspan textLength="10">▌</tspan></text><text x="690" y="100" width="10" height="18" class='t c2' ><tspan textLength="10">▐</tspan></text><rect x="700" y="92" width="30" height="18" class='b2'/><text x="700" y="100" width="30" height="18" class='t c2 b' ><tspan textLength="30">▒▀▀</tspan></text><rect x="730" y="92" width="10" height="18" class='b0'/><text x="730" y="100" width="10" height="18" class='t c2 b' ><tspan textLength="10">▄</tspan></text><text x="740" y="100" width="60" height="18" class='t' ><tspan textLength="60">▀█████</tspan></text><text x="0" y="118" width="70" height="18" class='t' ><tspan textLength="70">██████▌</tspan></text><text x="70" y="118" width="110" height="18" class='t c3' ><tspan textLength="110">▐██████████</tspan></text><rect x="180" y="110" width="10" height="18" class='b3'/><text x="180" y="118" width="10" height="18" class='t c0' ><tspan textLength="10">■</tspan></text><rect x="190" y="110" width="30" height="18" class='b0'/><text x="190" y="118" width="30" height="18" class='t c1 b' ><tspan textLength="30">▄▄▄</tspan></text><rect x="220" y="110" width="10" height="18" class='b3'/><text x="220" y="118" width="10" height="18" class='t c1 b' ><tspan textLength="10">▄</tspan></text><text x="230" y="118" width="190" height="18" class='t c3' ><tspan textLength="190">▀▀▀▀██████████████▌</tspan></text><text x="420" y="118" width="70" height="18" class='t c7' ><tspan textLength="70">▐█████ </tspan></text><text x="490" y="118" width="20" height="18" class='t c2 b' ><tspan textLength="20">██</tspan></text><text x="510" y="118" width="10" height="18" class='t' ><tspan textLength="10"> </tspan></text><text x="520" y="118" width="10" height="18" class='t c2 b' ><tspan textLength="10">▀</tspan></text><text x="530" y="118" width="10" height="18" class='t c2' ><tspan textLength="10">█</tspan></text><rect x="540" y="110" width="10" height="18" class='b2'/><text x="540" y="118" width="10" height="18" class='t c0' ><tspan textLength="10"> </tspan></text><rect x="550" y="110" width="10" height="18" class='b2'/><text x="550" y="118" width="10" height="18" class='t c2 b' ><tspan textLength="10">░</tspan></text><text x="560" y="118" width="10" height="18" class='t c2' ><tspan textLength="10">█</tspan></text><text x="570" y="118" width="10" height="18" class='t c7' ><tspan textLength="10"> </tspan></text><rect x="580" y="110" width="20" height="18" class='b2'/><text x="580" y="118" width="20" height="18" class='t c2 b' ><tspan textLength="20">▓ </tspan></text><text x="600" y="118" width="60" height="18" class='t c2' ><tspan textLength="60">██████</tspan></text><rect x="660" y="110" width="20" height="18" class='b2'/><text x="660" y="118" width="20" height="18" class='t c2 b' ><tspan textLength="20"> ▐</tspan></text><text x="680" y="118" width="10" height="18" class='t' ><tspan textLength="10"> </tspan></text><text x="690" y="118" width="50" height="18" class='t c2' ><tspan textLength="50">██▀██</tspan></text><rect x="740" y="110" width="10" height="18" class='b2'/><text x="740" y="118" width="10" height="18" class='t c2 b' ><tspan textLength="10">▀</tspan></text><rect x="750" y="110" width="10" height="18" class='b0'/><text x="750" y="118" width="10" height="18" class='t c2 b' ><tspan textLength="10">▄</tspan></text><text x="760" y="118" width="40" height="18" class='t' ><tspan textLength="40">▀███</tspan></text><text x="0" y="136" width="70" height="18" class='t' ><tspan textLength="70">██████ </tspan></text><text x="70" y="136" width="130" height="18" class='t c3' ><tspan textLength="130">████████████▄</tspan></text><text x="200" y="136" width="100" height="18" class='t c1 b' ><tspan textLength="100">▀██████▄▄▄</tspan></text><text x="300" y="136" width="110" height="18" class='t c3' ><tspan textLength="110">▀▀████████▀</tspan></text><text x="410" y="136" width="90" height="18" class='t c7' ><tspan textLength="90">▄███████▄</tspan></text><text x="500" y="136" width="20" height="18" class='t c2 b' ><tspan textLength="20">▀█</tspan></text><rect x="520" y="128" width="10" height="18" class='b2'/><text x="520" y="136" width="10" height="18" class='t c2 b' ><tspan textLength="10">▄</tspan></text><text x="530" y="136" width="10" height="18" class='t c2' ><tspan textLength="10">▄</tspan></text><text x="540" y="136" width="10" height="18" class='t c7' ><tspan textLength="10"> </tspan></text><text x="550" y="136" width="30" height="18" class='t c2' ><tspan textLength="30">██▌</tspan></text><text x="580" y="136" width="10" height="18" class='t c2 b' ><tspan textLength="10">▐</tspan></text><rect x="590" y="128" width="10" height="18" class='b2'/><text x="590" y="136" width="10" height="18" class='t c2 b' ><tspan textLength="10"> </tspan></text><text x="600" y="136" width="60" height="18" class='t c2' ><tspan textLength="60">██████</tspan></text><rect x="660" y="128" width="20" height="18" class='b2'/><text x="660" y="136" width="20" height="18" class='t c2 b' ><tspan textLength="20"> ▓</tspan></text><text x="680" y="136" width="10" height="18" class='t' ><tspan textLength="10"> </tspan></text><text x="690" y="136" width="50" height="18" class='t c2' ><tspan textLength="50">█ ▐██</tspan></text><rect x="740" y="128" width="20" height="18" class='b2'/><text x="740" y="136" width="20" height="18" class='t c2 b' ><tspan textLength="20">▄▓</tspan></text><rect x="760" y="128" width="10" height="18" class='b0'/><text x="760" y="136" width="10" height="18" class='t c2 b' ><tspan textLength="10">▌</tspan></text><text x="770" y="136" width="30" height="18" class='t' ><tspan textLength="30">▐██</tspan></text><text x="0" y="154" width="70" height="18" class='t' ><tspan textLength="70">██████ </tspan></text><text x="70" y="154" width="100" height="18" class='t c3' ><tspan textLength="100">██████████</tspan></text><text x="170" y="154" width="10" height="18" class='t c7' ><tspan textLength="10"> </tspan></text><text x="180" y="154" width="10" height="18" class='t c1 b' ><tspan textLength="10">▄</tspan></text><rect x="190" y="146" width="10" height="18" class='b3'/><text x="190" y="154" width="10" height="18" class='t c1 b' ><tspan textLength="10">▄</tspan></text><text x="200" y="154" width="10" height="18" class='t c3' ><tspan textLength="10">▀</tspan></text><text x="210" y="154" width="10" height="18" class='t c7' ><tspan textLength="10"> </tspan></text><text x="220" y="154" width="110" height="18" class='t c1 b' ><tspan textLength="110">█████████▄▄</tspan></text><text x="330" y="154" width="200" height="18" class='t' ><tspan textLength="200"> ▄▄▄▄▄▄████████████▄</tspan></text><text x="530" y="154" width="10" height="18" class='t c2 b' ><tspan textLength="10">▀</tspan></text><rect x="540" y="146" width="10" height="18" class='b2'/><text x="540" y="154" width="10" height="18" class='t c2 b' ><tspan textLength="10">▄</tspan></text><text x="550" y="154" width="10" height="18" class='t c2' ><tspan textLength="10">▄</tspan></text><rect x="560" y="146" width="10" height="18" class='b2'/><text x="560" y="154" width="10" height="18" class='t c0' ><tspan textLength="10">■</tspan></text><rect x="570" y="146" width="20" height="18" class='b0'/><text x="570" y="154" width="20" height="18" class='t c2' ><tspan textLength="20">█▀</tspan></text><rect x="590" y="146" width="20" height="18" class='b2'/><text x="590" y="154" width="20" height="18" class='t c2 b' ><tspan textLength="20">▒ </tspan></text><text x="610" y="154" width="50" height="18" class='t c2' ><tspan textLength="50">█████</tspan></text><rect x="660" y="146" width="10" height="18" class='b2'/><text x="660" y="154" width="10" height="18" class='t c2 b' ><tspan textLength="10"> </tspan></text><rect x="670" y="146" width="10" height="18" class='b0'/><text x="670" y="154" width="10" height="18" class='t c2 b' ><tspan textLength="10">▌</tspan></text><text x="680" y="154" width="30" height="18" class='t c2' ><tspan textLength="30">▐▌▐</tspan></text><rect x="710" y="146" width="10" height="18" class='b2'/><text x="710" y="154" width="10" height="18" class='t c2 b' ><tspan textLength="10">▄</tspan></text><rect x="720" y="146" width="20" height="18" class='b0'/><text x="720" y="154" width="20" height="18" class='t c2 b' ><tspan textLength="20">▀▀</tspan></text><text x="740" y="154" width="20" height="18" class='t' ><tspan textLength="20">▄▄</tspan></text><text x="760" y="154" width="10" height="18" class='t c2 b' ><tspan textLength="10">▀</tspan></text><text x="770" y="154" width="30" height="18" class='t' ><tspan textLength="30">▄██</tspan></text><text x="0" y="172" width="70" height="18" class='t' ><tspan textLength="70">██████▌</tspan></text><text x="70" y="172" width="10" height="18" class='t c3' ><tspan textLength="10">▐</tspan></text><rect x="80" y="164" width="10" height="18" class='b3'/><text x="80" y="172" width="10" height="18" class='t c0' ><tspan textLength="10">░</tspan></text><rect x="90" y="164" width="80" height="18" class='b0'/><text x="90" y="172" width="80" height="18" class='t c3' ><tspan textLength="80">████████</tspan></text><rect x="170" y="164" width="10" height="18" class='b3'/><text x="170" y="172" width="10" height="18" class='t c0' ><tspan textLength="10">▐</tspan></text><rect x="180" y="164" width="160" height="18" class='b0'/><text x="180" y="172" width="160" height="18" class='t c1 b' ><tspan textLength="160">▐███▀▀████▌██▀▀█</tspan></text><text x="340" y="172" width="40" height="18" class='t' ><tspan textLength="40"> ███</tspan></text><rect x="380" y="164" width="110" height="18" class='b7'/><text x="380" y="172" width="110" height="18" class='t c0' ><tspan textLength="110">SHUT UP AND</tspan></text><rect x="490" y="164" width="60" height="18" class='b0'/><text x="490" y="172" width="60" height="18" class='t c7' ><tspan textLength="60">█████▄</tspan></text><rect x="550" y="164" width="10" height="18" class='b0'/><text x="550" y="172" width="10" height="18" class='t c2 b' ><tspan textLength="10">▀</tspan></text><rect x="560" y="164" width="10" height="18" class='b2'/><text x="560" y="172" width="10" height="18" class='t c2 b' ><tspan textLength="10">▄</tspan></text><text x="570" y="172" width="20" height="18" class='t c2' ><tspan textLength="20">█▌</tspan></text><text x="590" y="172" width="10" height="18" class='t c2 b' ><tspan textLength="10">▐</tspan></text><text x="600" y="172" width="60" height="18" class='t c2' ><tspan textLength="60">██████</tspan></text><rect x="660" y="164" width="10" height="18" class='b2'/><text x="660" y="172" width="10" height="18" class='t c2 b' ><tspan textLength="10">▐</tspan></text><rect x="670" y="164" width="10" height="18" class='b0'/><text x="670" y="172" width="10" height="18" class='t c2 b' ><tspan textLength="10">▌</tspan></text><text x="680" y="172" width="20" height="18" class='t c2' ><tspan textLength="20">█▒</tspan></text><rect x="700" y="164" width="10" height="18" class='b2'/><text x="700" y="172" width="10" height="18" class='t c2 b' ><tspan textLength="10">▐</tspan></text><rect x="710" y="164" width="10" height="18" class='b0'/><text x="710" y="172" width="10" height="18" class='t c2 b' ><tspan textLength="10">▌</tspan></text><text x="720" y="172" width="80" height="18" class='t' ><tspan textLength="80">▐███████</tspan></text><text x="0" y="190" width="80" height="18" class='t' ><tspan textLength="80">███████▄</tspan></text><text x="80" y="190" width="100" height="18" class='t c3' ><tspan textLength="100">▀█████▀▀██</tspan></text><text x="180" y="190" width="10" height="18" class='t c7' ><tspan textLength="10"> </tspan></text><text x="190" y="190" width="30" height="18" class='t c1 b' ><tspan textLength="30">██▌</tspan></text><text x="220" y="190" width="50" height="18" class='t c7 b' ><tspan textLength="50">▄██▄▄</tspan></text><text x="270" y="190" width="20" height="18" class='t c1 b' ><tspan textLength="20">▀■</tspan></text><text x="290" y="190" width="50" height="18" class='t c7 b' ><tspan textLength="50">▄▄██▄</tspan></text><text x="340" y="190" width="40" height="18" class='t' ><tspan textLength="40">▀███</tspan></text><rect x="380" y="182" width="120" height="18" class='b7'/><text x="380" y="190" width="120" height="18" class='t c0' ><tspan textLength="120">TAKE MY ANSI</tspan></text><rect x="500" y="182" width="60" height="18" class='b0'/><text x="500" y="190" width="60" height="18" class='t c7' ><tspan textLength="60">█████▄</tspan></text><rect x="560" y="182" width="10" height="18" class='b0'/><text x="560" y="190" width="10" height="18" class='t c2 b' ><tspan textLength="10">▀</tspan></text><rect x="570" y="182" width="20" height="18" class='b2'/><text x="570" y="190" width="20" height="18" class='t c2 b' ><tspan textLength="20">▓░</tspan></text><text x="590" y="190" width="10" height="18" class='t' ><tspan textLength="10"> </tspan></text><rect x="600" y="182" width="10" height="18" class='b2'/><text x="600" y="190" width="10" height="18" class='t c2 b' ><tspan textLength="10">▌</tspan></text><text x="610" y="190" width="40" height="18" class='t c2' ><tspan textLength="40">████</tspan></text><rect x="650" y="182" width="10" height="18" class='b2'/><text x="650" y="190" width="10" height="18" class='t c2 b' ><tspan textLength="10"> </tspan></text><rect x="660" y="182" width="10" height="18" class='b0'/><text x="660" y="190" width="10" height="18" class='t c2 b' ><tspan textLength="10">█</tspan></text><text x="670" y="190" width="10" height="18" class='t' ><tspan textLength="10"> </tspan></text><text x="680" y="190" width="20" height="18" class='t c2' ><tspan textLength="20">██</tspan></text><text x="700" y="190" width="10" height="18" class='t c2 b' ><tspan textLength="10">█</tspan></text><text x="710" y="190" width="90" height="18" class='t' ><tspan textLength="90"> ████████</tspan></text><text x="0" y="208" width="100" height="18" class='t' ><tspan textLength="100">█████████▄</tspan></text><text x="100" y="208" width="30" height="18" class='t c3' ><tspan textLength="30">▀▀▀</tspan></text><text x="130" y="208" width="40" height="18" class='t c1 b' ><tspan textLength="40">▄██▄</tspan></text><text x="170" y="208" width="10" height="18" class='t c3' ><tspan textLength="10">▀</tspan></text><rect x="180" y="200" width="10" height="18" class='b3'/><text x="180" y="208" width="10" height="18" class='t c0' ><tspan textLength="10">▐</tspan></text><rect x="190" y="200" width="20" height="18" class='b0'/><text x="190" y="208" width="20" height="18" class='t c1 b' ><tspan textLength="20">▐█</tspan></text><text x="210" y="208" width="10" height="18" class='t' ><tspan textLength="10"> </tspan></text><text x="220" y="208" width="120" height="18" class='t b' ><tspan textLength="120">███▄█▌ ███▄█</tspan></text><text x="340" y="208" width="220" height="18" class='t' ><tspan textLength="220"> ████████████████████▀</tspan></text><text x="560" y="208" width="20" height="18" class='t c1 b' ><tspan textLength="20">__</tspan></text><text x="580" y="208" width="10" height="18" class='t c2 b' ><tspan textLength="10">▀</tspan></text><text x="590" y="208" width="10" height="18" class='t' ><tspan textLength="10"> </tspan></text><text x="600" y="208" width="10" height="18" class='t c2 b' ><tspan textLength="10">▀</tspan></text><text x="610" y="208" width="40" height="18" class='t c2' ><tspan textLength="40">█▀██</tspan></text><rect x="650" y="200" width="10" height="18" class='b2'/><text x="650" y="208" width="10" height="18" class='t c2 b' ><tspan textLength="10"> </tspan></text><rect x="660" y="200" width="10" height="18" class='b0'/><text x="660" y="208" width="10" height="18" class='t c2 b' ><tspan textLength="10">▌</tspan></text><text x="670" y="208" width="10" height="18" class='t' ><tspan textLength="10"> </tspan></text><text x="680" y="208" width="20" height="18" class='t c1 b' ><tspan textLength="20">▄▄</tspan></text><rect x="700" y="200" width="10" height="18" class='b2'/><text x="700" y="208" width="10" height="18" class='t c1 b' ><tspan textLength="10">▄</tspan></text><text x="710" y="208" width="90" height="18" class='t' ><tspan textLength="90"> ████████</tspan></text><text x="0" y="226" width="130" height="18" class='t' ><tspan textLength="130">████████████ </tspan></text><text x="130" y="226" width="10" height="18" class='t c1 b' ><tspan textLength="10">█</tspan></text><text x="140" y="226" width="10" height="18" class='t' ><tspan textLength="10"> </tspan></text><text x="150" y="226" width="80" height="18" class='t c1 b' ><tspan textLength="80">▄▀█▄███▄</tspan></text><text x="230" y="226" width="40" height="18" class='t c7 b' ><tspan textLength="40">▀▀▀▀</tspan></text><text x="270" y="226" width="30" height="18" class='t c1 b' ><tspan textLength="30">▄█▄</tspan></text><text x="300" y="226" width="30" height="18" class='t c7 b' ><tspan textLength="30">▀▀▀</tspan></text><text x="330" y="226" width="210" height="18" class='t' ><tspan textLength="210"> ▀██████████████████▀</tspan></text><text x="540" y="226" width="90" height="18" class='t c1 b' ><tspan textLength="90">▄██████▄ </tspan></text><text x="630" y="226" width="20" height="18" class='t c2' ><tspan textLength="20">█▀</tspan></text><text x="650" y="226" width="70" height="18" class='t c1 b' ><tspan textLength="70">▄▄█████</tspan></text><text x="720" y="226" width="80" height="18" class='t' ><tspan textLength="80"> ███████</tspan></text><text x="0" y="244" width="140" height="18" class='t' ><tspan textLength="140">█████████████▄</tspan></text><text x="140" y="244" width="220" height="18" class='t c1 b' ><tspan textLength="220">▓█▀██████████████████▄</tspan></text><text x="360" y="244" width="170" height="18" class='t' ><tspan textLength="170">▀███████████████ </tspan></text><text x="530" y="244" width="190" height="18" class='t c1 b' ><tspan textLength="190">▐█▀▀██████  ███▀▀▀▄</tspan></text><text x="720" y="244" width="80" height="18" class='t' ><tspan textLength="80">▐███████</tspan></text><text x="0" y="262" width="150" height="18" class='t' ><tspan textLength="150">███████████████</tspan></text><text x="150" y="262" width="200" height="18" class='t c1 b' ><tspan textLength="200"> ▐████████████▄▄█▀▀▀</tspan></text><text x="350" y="262" width="140" height="18" class='t' ><tspan textLength="140">▄█████████████</tspan></text><rect x="490" y="254" width="10" height="18" class='b7'/><text x="490" y="262" width="10" height="18" class='t c0' ><tspan textLength="10">▄</tspan></text><rect x="500" y="254" width="30" height="18" class='b0'/><text x="500" y="262" width="30" height="18" class='t c7' ><tspan textLength="30">▀█ </tspan></text><rect x="530" y="254" width="60" height="18" class='b0'/><text x="530" y="262" width="60" height="18" class='t c1 b' ><tspan textLength="60">███▒  </tspan></text><text x="590" y="262" width="10" height="18" class='t c2' ><tspan textLength="10">▄</tspan></text><text x="600" y="262" width="20" height="18" class='t c1 b' ><tspan textLength="20">▀▀</tspan></text><text x="620" y="262" width="20" height="18" class='t c2' ><tspan textLength="20">▄▀</tspan></text><text x="640" y="262" width="10" height="18" class='t c7' ><tspan textLength="10"> </tspan></text><text x="650" y="262" width="70" height="18" class='t c1 b' ><tspan textLength="70">▄▄█████</tspan></text><text x="720" y="262" width="80" height="18" class='t' ><tspan textLength="80"> ███████</tspan></text><text x="0" y="280" width="160" height="18" class='t' ><tspan textLength="160">███████████████ </tspan></text><text x="160" y="280" width="180" height="18" class='t c1 b' ><tspan textLength="180">█████████████████▄</tspan></text><text x="340" y="280" width="120" height="18" class='t' ><tspan textLength="120">▀███████████</tspan></text><rect x="460" y="272" width="10" height="18" class='b1'/><text x="460" y="280" width="10" height="18" class='t' ><tspan textLength="10">█</tspan></text><rect x="470" y="272" width="20" height="18" class='b0'/><text x="470" y="280" width="20" height="18" class='t' ><tspan textLength="20">▀ </tspan></text><rect x="490" y="272" width="10" height="18" class='b1'/><text x="490" y="280" width="10" height="18" class='t c1' ><tspan textLength="10">█</tspan></text><rect x="500" y="272" width="10" height="18" class='b0'/><text x="500" y="280" width="10" height="18" class='t c1' ><tspan textLength="10">▓</tspan></text><rect x="510" y="272" width="10" height="18" class='b0'/><text x="510" y="280" width="10" height="18" class='t c7' ><tspan textLength="10"> </tspan></text><rect x="520" y="272" width="60" height="18" class='b0'/><text x="520" y="280" width="60" height="18" class='t c1 b' ><tspan textLength="60">▐████░</tspan></text><text x="580" y="280" width="10" height="18" class='t' ><tspan textLength="10"> </tspan></text><text x="590" y="280" width="10" height="18" class='t c2 b' ><tspan textLength="10">█</tspan></text><rect x="600" y="272" width="10" height="18" class='b2'/><text x="600" y="280" width="10" height="18" class='t c2 b' ><tspan textLength="10"> </tspan></text><text x="610" y="280" width="20" height="18" class='t c2' ><tspan textLength="20">██</tspan></text><text x="630" y="280" width="10" height="18" class='t c7' ><tspan textLength="10"> </tspan></text><text x="640" y="280" width="70" height="18" class='t c1 b' ><tspan textLength="70">█████▀▀</tspan></text><text x="710" y="280" width="90" height="18" class='t' ><tspan textLength="90"> ▐███████</tspan></text><text x="0" y="298" width="160" height="18" class='t' ><tspan textLength="160">███████████████ </tspan></text><text x="160" y="298" width="50" height="18" class='t c1 b' ><tspan textLength="50">████▀</tspan></text><text x="210" y="298" width="10" height="18" class='t' ><tspan textLength="10"> </tspan></text><text x="220" y="298" width="20" height="18" class='t b' ><tspan textLength="20">▄▄</tspan></text><text x="240" y="298" width="110" height="18" class='t c1 b' ><tspan textLength="110">▀▀████████▄</tspan></text><text x="350" y="298" width="190" height="18" class='t' ><tspan textLength="190"> ███████░▒▓█▀▄◄§   </tspan></text><text x="540" y="298" width="50" height="18" class='t c1 b' ><tspan textLength="50">███▓ </tspan></text><text x="590" y="298" width="10" height="18" class='t c2 b' ><tspan textLength="10">▐</tspan></text><rect x="600" y="290" width="20" height="18" class='b2'/><text x="600" y="298" width="20" height="18" class='t c2 b' ><tspan textLength="20">▌ </tspan></text><text x="620" y="298" width="10" height="18" class='t c2' ><tspan textLength="10">█</tspan></text><rect x="630" y="290" width="10" height="18" class='b2'/><text x="630" y="298" width="10" height="18" class='t c2 b' ><tspan textLength="10"> </tspan></text><text x="640" y="298" width="10" height="18" class='t' ><tspan textLength="10"> </tspan></text><text x="650" y="298" width="60" height="18" class='t c1 b' ><tspan textLength="60">▀▀▄▄█▀</tspan></text><text x="710" y="298" width="90" height="18" class='t' ><tspan textLength="90">▄████████</tspan></text><text x="0" y="316" width="150" height="18" class='t' ><tspan textLength="150">██████████████▌</tspan></text><text x="150" y="316" width="40" height="18" class='t c1 b' ><tspan textLength="40">▐███</tspan></text><text x="190" y="316" width="10" height="18" class='t' ><tspan textLength="10"> </tspan></text><text x="200" y="316" width="30" height="18" class='t c1' ><tspan textLength="30">▐▄ </tspan></text><text x="230" y="316" width="70" height="18" class='t c7 b' ><tspan textLength="70">▀▀■■▄▄_</tspan></text><text x="300" y="316" width="60" height="18" class='t c1 b' ><tspan textLength="60">▀▀████</tspan></text><text x="360" y="316" width="100" height="18" class='t' ><tspan textLength="100"> ████████ </tspan></text><rect x="460" y="308" width="20" height="18" class='b1'/><text x="460" y="316" width="20" height="18" class='t c1 b' ><tspan textLength="20">▒░</tspan></text><text x="480" y="316" width="10" height="18" class='t' ><tspan textLength="10"> </tspan></text><text x="490" y="316" width="40" height="18" class='t c1' ><tspan textLength="40">███▄</tspan></text><text x="530" y="316" width="50" height="18" class='t c1 b' ><tspan textLength="50">▀▀▀▀▀</tspan></text><text x="580" y="316" width="10" height="18" class='t c2 b' ><tspan textLength="10">▄</tspan></text><text x="590" y="316" width="10" height="18" class='t' ><tspan textLength="10"> </tspan></text><rect x="600" y="308" width="20" height="18" class='b2'/><text x="600" y="316" width="20" height="18" class='t c2 b' ><tspan textLength="20">▌ </tspan></text><text x="620" y="316" width="20" height="18" class='t c2' ><tspan textLength="20">██</tspan></text><rect x="640" y="308" width="10" height="18" class='b2'/><text x="640" y="316" width="10" height="18" class='t c2 b' ><tspan textLength="10">▐</tspan></text><rect x="650" y="308" width="10" height="18" class='b0'/><text x="650" y="316" width="10" height="18" class='t c2 b' ><tspan textLength="10">▐</tspan></text><rect x="660" y="308" width="10" height="18" class='b2'/><text x="660" y="316" width="10" height="18" class='t c2 b' ><tspan textLength="10">▌</tspan></text><text x="670" y="316" width="10" height="18" class='t c2' ><tspan textLength="10">▀</tspan></text><text x="680" y="316" width="10" height="18" class='t c2 b' ><tspan textLength="10">▄</tspan></text><text x="690" y="316" width="110" height="18" class='t' ><tspan textLength="110"> ██████████</tspan></text><text x="0" y="334" width="150" height="18" class='t' ><tspan textLength="150">████████████▀▀ </tspan></text><text x="150" y="334" width="80" height="18" class='t c1 b' ><tspan textLength="80">█████▄▄▄</tspan></text><text x="230" y="334" width="20" height="18" class='t c1' ><tspan textLength="20">▀■</tspan></text><text x="250" y="334" width="30" height="18" class='t c7' ><tspan textLength="30">   </tspan></text><text x="280" y="334" width="10" height="18" class='t c1 b' ><tspan textLength="10">▄</tspan></text><text x="290" y="334" width="160" height="18" class='t' ><tspan textLength="160"> ▐█▄▄▄▄████████ </tspan></text><rect x="450" y="326" width="10" height="18" class='b1'/><text x="450" y="334" width="10" height="18" class='t c1 b' ><tspan textLength="10">░</tspan></text><text x="460" y="334" width="30" height="18" class='t c1' ><tspan textLength="30">███</tspan></text><rect x="490" y="326" width="10" height="18" class='b1'/><text x="490" y="334" width="10" height="18" class='t c0' ><tspan textLength="10">■</tspan></text><rect x="500" y="326" width="70" height="18" class='b0'/><text x="500" y="334" width="70" height="18" class='t c1' ><tspan textLength="70">██████▓</tspan></text><rect x="570" y="326" width="10" height="18" class='b0'/><text x="570" y="334" width="10" height="18" class='t c7' ><tspan textLength="10"> </tspan></text><rect x="580" y="326" width="10" height="18" class='b0'/><text x="580" y="334" width="10" height="18" class='t c2 b' ><tspan textLength="10">█</tspan></text><text x="590" y="334" width="10" height="18" class='t' ><tspan textLength="10"> </tspan></text><text x="600" y="334" width="10" height="18" class='t c2 b' ><tspan textLength="10">█</tspan></text><rect x="610" y="326" width="30" height="18" class='b2'/><text x="610" y="334" width="30" height="18" class='t c2 b' ><tspan textLength="30">█▄ </tspan></text><rect x="640" y="326" width="10" height="18" class='b0'/><text x="640" y="334" width="10" height="18" class='t c2 b' ><tspan textLength="10">█</tspan></text><text x="650" y="334" width="10" height="18" class='t c2' ><tspan textLength="10">░</tspan></text><text x="660" y="334" width="10" height="18" class='t c2 b' ><tspan textLength="10">█</tspan></text><text x="670" y="334" width="10" height="18" class='t c2' ><tspan textLength="10">░</tspan></text><text x="680" y="334" width="20" height="18" class='t c2 b' ><tspan textLength="20">▐▌</tspan></text><text x="700" y="334" width="100" height="18" class='t' ><tspan textLength="100">▀█████████</tspan></text><text x="0" y="352" width="100" height="18" class='t' ><tspan textLength="100">█████▀▀▀▀▀</tspan></text><text x="100" y="352" width="20" height="18" class='t c1' ><tspan textLength="20">▄▄</tspan></text><rect x="120" y="344" width="10" height="18" class='b1'/><text x="120" y="352" width="10" height="18" class='t c1 b' ><tspan textLength="10">░</tspan></text><text x="130" y="352" width="10" height="18" class='t c1' ><tspan textLength="10">▀</tspan></text><text x="140" y="352" width="170" height="18" class='t c1 b' ><tspan textLength="170">▐██████████████▀ </tspan></text><text x="310" y="352" width="120" height="18" class='t' ><tspan textLength="120">███████████▀</tspan></text><text x="430" y="352" width="80" height="18" class='t c1' ><tspan textLength="80">▄██████▄</tspan></text><rect x="510" y="344" width="30" height="18" class='b1'/><text x="510" y="352" width="30" height="18" class='t c0' ><tspan textLength="30">■▄▄</tspan></text><rect x="540" y="344" width="40" height="18" class='b0'/><text x="540" y="352" width="40" height="18" class='t c1' ><tspan textLength="40">███▄</tspan></text><rect x="580" y="344" width="10" height="18" class='b0'/><text x="580" y="352" width="10" height="18" class='t c2 b' ><tspan textLength="10">▀</tspan></text><text x="590" y="352" width="20" height="18" class='t' ><tspan textLength="20">  </tspan></text><text x="610" y="352" width="40" height="18" class='t c2 b' ><tspan textLength="40">▀▀▀▀</tspan></text><text x="650" y="352" width="10" height="18" class='t' ><tspan textLength="10"> </tspan></text><text x="660" y="352" width="10" height="18" class='t c2 b' ><tspan textLength="10">█</tspan></text><rect x="670" y="344" width="30" height="18" class='b2'/><text x="670" y="352" width="30" height="18" class='t c2 b' ><tspan textLength="30">▄▄█</tspan></text><text x="700" y="352" width="100" height="18" class='t' ><tspan textLength="100"> █████████</tspan></text><text x="0" y="370" width="30" height="18" class='t' ><tspan textLength="30">█▀▀</tspan></text><text x="30" y="370" width="50" height="18" class='t c1' ><tspan textLength="50"> ▄▄██</tspan></text><text x="80" y="370" width="10" height="18" class='t c7' ><tspan textLength="10"> </tspan></text><rect x="90" y="362" width="10" height="18" class='b1'/><text x="90" y="370" width="10" height="18" class='t c1 b' ><tspan textLength="10">░</tspan></text><text x="100" y="370" width="30" height="18" class='t c1' ><tspan textLength="30">██▌</tspan></text><text x="130" y="370" width="10" height="18" class='t c7' ><tspan textLength="10"> </tspan></text><text x="140" y="370" width="130" height="18" class='t c1 b' ><tspan textLength="130">▓████████████</tspan></text><text x="270" y="370" width="10" height="18" class='t' ><tspan textLength="10"> </tspan></text><text x="280" y="370" width="10" height="18" class='t c1' ><tspan textLength="10">▄</tspan></text><text x="290" y="370" width="10" height="18" class='t c7' ><tspan textLength="10"> </tspan></text><text x="300" y="370" width="10" height="18" class='t c1' ><tspan textLength="10">▄</tspan></text><text x="310" y="370" width="90" height="18" class='t c7' ><tspan textLength="90">▀▀█████▀▀</tspan></text><text x="400" y="370" width="120" height="18" class='t c1' ><tspan textLength="120">▄▄██████████</tspan></text><rect x="520" y="362" width="30" height="18" class='b1'/><text x="520" y="370" width="30" height="18" class='t c0' ><tspan textLength="30">   </tspan></text><rect x="550" y="362" width="20" height="18" class='b0'/><text x="550" y="370" width="20" height="18" class='t c1' ><tspan textLength="20">▄▄</tspan></text><rect x="570" y="362" width="20" height="18" class='b1'/><text x="570" y="370" width="20" height="18" class='t c0' ><tspan textLength="20">▀▀</tspan></text><rect x="590" y="362" width="10" height="18" class='b0'/><text x="590" y="370" width="10" height="18" class='t c1' ><tspan textLength="10">▓</tspan></text><rect x="600" y="362" width="200" height="18" class='b0'/><text x="600" y="370" width="200" height="18" class='t c7' ><tspan textLength="200"> █████▄▄▄▄██████████</tspan></text><rect x="0" y="380" width="20" height="18" class='b0'/><text x="0" y="388" width="20" height="18" class='t c1' ><tspan textLength="20"> ▄</tspan></text><rect x="20" y="380" width="20" height="18" class='b1'/><text x="20" y="388" width="20" height="18" class='t c1 b' ><tspan textLength="20">░░</tspan></text><text x="40" y="388" width="80" height="18" class='t c1' ><tspan textLength="80">██▀▄████</tspan></text><text x="120" y="388" width="20" height="18" class='t c7' ><tspan textLength="20"> ▄</tspan></text><text x="140" y="388" width="10" height="18" class='t c7 b' ><tspan textLength="10"> </tspan></text><text x="150" y="388" width="110" height="18" class='t c1 b' ><tspan textLength="110">▀▀█████████</tspan></text><text x="260" y="388" width="10" height="18" class='t' ><tspan textLength="10"> </tspan></text><text x="270" y="388" width="50" height="18" class='t c1' ><tspan textLength="50">▐██▄▀</tspan></text><rect x="320" y="380" width="20" height="18" class='b1'/><text x="320" y="388" width="20" height="18" class='t c1 b' ><tspan textLength="20">░░</tspan></text><text x="340" y="388" width="250" height="18" class='t c1' ><tspan textLength="250">▄▄▄█████████████████████▓</tspan></text><rect x="590" y="380" width="10" height="18" class='b1'/><text x="590" y="388" width="10" height="18" class='t c0' ><tspan textLength="10">▐</tspan></text><rect x="600" y="380" width="200" height="18" class='b0'/><text x="600" y="388" width="200" height="18" class='t c7' ><tspan textLength="200">▐███████████████████</tspan></text><rect x="0" y="398" width="20" height="18" class='b1'/><text x="0" y="406" width="20" height="18" class='t c1 b' ><tspan textLength="20">░░</tspan></text><text x="20" y="406" width="90" height="18" class='t c1' ><tspan textLength="90">███▀▄████</tspan></text><text x="110" y="406" width="20" height="18" class='t c7' ><tspan textLength="20"> ▐</tspan></text><text x="130" y="406" width="20" height="18" class='t c7 b' ><tspan textLength="20">██</tspan></text><rect x="150" y="398" width="10" height="18" class='b7'/><text x="150" y="406" width="10" height="18" class='t c7 b' ><tspan textLength="10">▄</tspan></text><rect x="160" y="398" width="20" height="18" class='b0'/><text x="160" y="406" width="20" height="18" class='t c7 b' ><tspan textLength="20">▄▄</tspan></text><text x="180" y="406" width="10" height="18" class='t' ><tspan textLength="10">▄</tspan></text><text x="190" y="406" width="50" height="18" class='t c1 b' ><tspan textLength="50">▀▀▀▀▀</tspan></text><text x="240" y="406" width="30" height="18" class='t' ><tspan textLength="30">▄▄ </tspan></text><text x="270" y="406" width="310" height="18" class='t c1' ><tspan textLength="310">████▌▐███████████████████████▓▓</tspan></text><text x="580" y="406" width="220" height="18" class='t c7' ><tspan textLength="220"> █████████████████████</tspan></text><text x="0" y="424" width="100" height="18" class='t c1' ><tspan textLength="100">█████░▐▀▀▀</tspan></text><text x="100" y="424" width="20" height="18" class='t c7' ><tspan textLength="20"> ▐</tspan></text><text x="120" y="424" width="140" height="18" class='t c7 b' ><tspan textLength="140">█████████████▌</tspan></text><text x="260" y="424" width="10" height="18" class='t' ><tspan textLength="10"> </tspan></text><text x="270" y="424" width="50" height="18" class='t c1' ><tspan textLength="50">█████</tspan></text><text x="320" y="424" width="10" height="18" class='t c7' ><tspan textLength="10"> </tspan></text><text x="330" y="424" width="240" height="18" class='t c1' ><tspan textLength="240">████████████████████▓▓▀▀</tspan></text><text x="570" y="424" width="230" height="18" class='t c7' ><tspan textLength="230">▄██████████████████████</tspan></text><text x="0" y="442" width="100" height="18" class='t c1' ><tspan textLength="100">█████████▀</tspan></text><text x="100" y="442" width="10" height="18" class='t c7' ><tspan textLength="10"> </tspan></text><rect x="110" y="434" width="10" height="18" class='b7'/><text x="110" y="442" width="10" height="18" class='t c7 b' ><tspan textLength="10">▓</tspan></text><rect x="120" y="434" width="140" height="18" class='b0'/><text x="120" y="442" width="140" height="18" class='t c7 b' ><tspan textLength="140">████████████▓░</tspan></text><text x="260" y="442" width="10" height="18" class='t' ><tspan textLength="10"> </tspan></text><text x="270" y="442" width="20" height="18" class='t c1' ><tspan textLength="20">▀▀</tspan></text><rect x="290" y="434" width="10" height="18" class='b1'/><text x="290" y="442" width="10" height="18" class='t c0' ><tspan textLength="10">_</tspan></text><rect x="300" y="434" width="20" height="18" class='b0'/><text x="300" y="442" width="20" height="18" class='t c1' ><tspan textLength="20">█▓</tspan></text><rect x="320" y="434" width="10" height="18" class='b0'/><text x="320" y="442" width="10" height="18" class='t c7' ><tspan textLength="10"> </tspan></text><rect x="330" y="434" width="190" height="18" class='b0'/><text x="330" y="442" width="190" height="18" class='t c1' ><tspan textLength="190">██████████████▓▓▀▀▀</tspan></text><rect x="520" y="434" width="280" height="18" class='b0'/><text x="520" y="442" width="280" height="18" class='t c7' ><tspan textLength="280">▄▄▄█████████████████████████</tspan></text></svg>