<svg xmlns="http://www.w3.org/2000/svg" width="810" height="450"><style><![CDATA[.t{dominant-baseline:central;font-variant-ligatures:none;white-space:pre;font-family:Consolas,Courier New,Monaco;font-size:16px}.b{font-weight:700}:root{color-scheme:light dark;background:#fff}.c0{fill:#000}.c3{fill:#e5e510}.c7{fill:#e5e5e5}.c2{fill:#0dbc79}.c1{fill:#cd3131}.b7{fill:#e5e5e5}.b0,svg>text{fill:#000}.b3{fill:#e5e510}.b2{fill:#0dbc79}.b1{fill:#cd3131}@media (prefers-color-scheme:dark){:root{background:#181818}.c0{fill:#e5e5e5}.c3{fill:#e5e510}.c7{fill:#000}.c2{fill:#0dbc79}.c1{fill:#cd3131}.b7{fill:#000}.b0,svg>text{fill:#e5e5e5}.b3{fill:#e5e510}.b2{fill:#0dbc79}.b1{fill:#cd3131}}]]></style><text y="10" class="t c0 b"><tspan textLength="90">███████▀▀</tspan></text><path d="M90 2h10v18H90z" class="b7"/><text x="90" y="10" class="t c0 b"><tspan textLength="10">▀</tspan></text><text x="100" y="10" class="t"><tspan textLength="20">▄▄</tspan></text><path d="M120 2h30v18h-30z" class="b7"/><text x="120" y="10" class="t c0 b"><tspan textLength="30">░░░</tspan></text><text x="150" y="10" class="t"><tspan textLength="150">██████████████▌</tspan></text><text x="300" y="10" class="t c3"><tspan textLength="20">▐▄</tspan></text><text x="320" y="10" class="t c7"><tspan textLength="40">▀██▀</tspan></text><text x="360" y="10" class="t c3"><tspan textLength="10">▄</tspan></text><text x="370" y="10" class="t c7"><tspan textLength="430">▀██████████████████████████████████████████</tspan></text><text y="28" class="t c0 b"><tspan textLength="40">██▀▀</tspan></text><text x="40" y="28" class="t"><tspan textLength="20">▄▄</tspan></text><path d="M60 20h30v18H60z" class="b7"/><text x="60" y="28" class="t c0 b"><tspan textLength="30">░░░</tspan></text><text x="90" y="28" class="t c3"><tspan textLength="20"> ▄</tspan></text><text x="110" y="28" class="t c7"><tspan textLength="70">▀████▀▀</tspan></text><text x="180" y="28" class="t c3"><tspan textLength="30">▄▄▄</tspan></text><text x="210" y="28" class="t c7"><tspan textLength="100">▀▀▀▀█████ </tspan></text><text x="310" y="28" class="t c3"><tspan textLength="30">██▄</tspan></text><text x="340" y="28" class="t c7"><tspan textLength="20">▀▌</tspan></text><text x="360" y="28" class="t c3"><tspan textLength="20">▐█</tspan></text><text x="380" y="28" class="t c7"><tspan textLength="50"> ████</tspan></text><path d="M430 20h170v18H430z" class="b7"/><text x="430" y="28" class="t c0"><tspan textLength="170">                 </tspan></text><path d="M600 20h200v18H600z" class="b0"/><text x="600" y="28" class="t c7"><tspan textLength="200">████████████████████</tspan></text><path d="M0 38h10v18H0z" class="b0"/><text y="46" class="t c7"><tspan textLength="10">▄</tspan></text><path d="M10 38h30v18H10z" class="b7"/><text x="10" y="46" class="t c0 b"><tspan textLength="30">░░░</tspan></text><text x="40" y="46" class="t"><tspan textLength="60">█████▌</tspan></text><text x="100" y="46" class="t c3"><tspan textLength="30">██▄</tspan></text><text x="130" y="46" class="t c7"><tspan textLength="10">▀</tspan></text><text x="140" y="46" class="t c3"><tspan textLength="140">▄▄█████████▄▄▄</tspan></text><text x="280" y="46" class="t c7"><tspan textLength="30">▀▀■</tspan></text><text x="310" y="46" class="t c3"><tspan textLength="50">▐███▄</tspan></text><path d="M360 38h10v18h-10z" class="b3"/><text x="360" y="46" class="t c0"><tspan textLength="10">░</tspan></text><path d="M370 38h20v18h-20z" class="b0"/><text x="370" y="46" class="t c3"><tspan textLength="20">██</tspan></text><path d="M390 38h410v18H390z" class="b0"/><text x="390" y="46" class="t c7"><tspan textLength="410"> ███████████████████▀▀▀▀▀▀▀▀█████████████</tspan></text><path d="M0 56h60v18H0z" class="b0"/><text y="64" class="t c7"><tspan textLength="60">█████▄</tspan></text><path d="M60 56h260v18H60z" class="b0"/><text x="60" y="64" class="t c3"><tspan textLength="260">▀█▄▄█████████████████████▄</tspan></text><path d="M320 56h10v18h-10z" class="b3"/><text x="320" y="64" class="t c0"><tspan textLength="10">░</tspan></text><path d="M330 56h70v18h-70z" class="b0"/><text x="330" y="64" class="t c3"><tspan textLength="70">███████</tspan></text><path d="M400 56h150v18H400z" class="b0"/><text x="400" y="64" class="t c7"><tspan textLength="150"> █████████████▀</tspan></text><path d="M550 56h10v18h-10z" class="b0"/><text x="550" y="64" class="t c2"><tspan textLength="10"> </tspan></text><path d="M560 56h10v18h-10z" class="b2"/><text x="560" y="64" class="t c0"><tspan textLength="10">█</tspan></text><path d="M570 56h20v18h-20z" class="b0"/><text x="570" y="64" class="t c2 b"><tspan textLength="20">▄▄</tspan></text><path d="M590 56h10v18h-10z" class="b2"/><text x="590" y="64" class="t c2 b"><tspan textLength="10">▀</tspan></text><path d="M600 56h60v18h-60z" class="b0"/><text x="600" y="64" class="t c2 b"><tspan textLength="60">▀▀▀▀■■</tspan></text><text x="660" y="64" class="t"><tspan textLength="140"> ▀▀▀██████████</tspan></text><text y="82" class="t"><tspan textLength="80">███████▄</tspan></text><text x="80" y="82" class="t c3"><tspan textLength="10">▀</tspan></text><path d="M90 74h10v18H90z" class="b3"/><text x="90" y="82" class="t c0"><tspan textLength="10">░</tspan></text><path d="M100 74h310v18H100z" class="b0"/><text x="100" y="82" class="t c3"><tspan textLength="310">██████████████████████████████▌</tspan></text><path d="M410 74h130v18H410z" class="b0"/><text x="410" y="82" class="t c7"><tspan textLength="130">▐███████████ </tspan></text><path d="M540 74h10v18h-10z" class="b0"/><text x="540" y="82" class="t c2 b"><tspan textLength="10">▐</tspan></text><path d="M550 74h60v18h-60z" class="b2"/><text x="550" y="82" class="t c2 b"><tspan textLength="60">█▓▒▄■■</tspan></text><path d="M610 74h50v18h-50z" class="b0"/><text x="610" y="82" class="t c2 b"><tspan textLength="50">▀▀▀▀▀</tspan></text><path d="M660 74h20v18h-20z" class="b2"/><text x="660" y="82" class="t c2 b"><tspan textLength="20">▀▓</tspan></text><path d="M680 74h20v18h-20z" class="b0"/><text x="680" y="82" class="t c2 b"><tspan textLength="20">█■</tspan></text><text x="700" y="82" class="t"><tspan textLength="100"> ▀▀███████</tspan></text><text y="100" class="t"><tspan textLength="80">███████▀</tspan></text><text x="80" y="100" class="t c3"><tspan textLength="330">▄████████████████████████████████</tspan></text><text x="410" y="100" class="t c7"><tspan textLength="100"> ███████▀▀</tspan></text><text x="510" y="100" class="t c2 b"><tspan textLength="20">▄▄</tspan></text><path d="M530 92h10v18h-10z" class="b2"/><text x="530" y="100" class="t c2 b"><tspan textLength="10">▀</tspan></text><text x="540" y="100" class="t"><tspan textLength="10"> </tspan></text><path d="M550 92h10v18h-10z" class="b2"/><text x="550" y="100" class="t c2 b"><tspan textLength="10">▒</tspan></text><text x="560" y="100" class="t c2"><tspan textLength="10">█</tspan></text><text x="570" y="100" class="t c7"><tspan textLength="10"> </tspan></text><path d="M580 92h100v18H580z" class="b2"/><text x="580" y="100" class="t c2 b"><tspan textLength="100">▌ANSI.SYS </tspan></text><path d="M680 92h10v18h-10z" class="b0"/><text x="680" y="100" class="t c2 b"><tspan textLength="10">▌</tspan></text><text x="690" y="100" class="t c2"><tspan textLength="10">▐</tspan></text><path d="M700 92h30v18h-30z" class="b2"/><text x="700" y="100" class="t c2 b"><tspan textLength="30">▒▀▀</tspan></text><path d="M730 92h10v18h-10z" class="b0"/><text x="730" y="100" class="t c2 b"><tspan textLength="10">▄</tspan></text><text x="740" y="100" class="t"><tspan textLength="60">▀█████</tspan></text><text y="118" class="t"><tspan textLength="70">██████▌</tspan></text><text x="70" y="118" class="t c3"><tspan textLength="110">▐██████████</tspan></text><path d="M180 110h10v18h-10z" class="b3"/><text x="180" y="118" class="t c0"><tspan textLength="10">■</tspan></text><path d="M190 110h30v18h-30z" class="b0"/><text x="190" y="118" class="t c1 b"><tspan textLength="30">▄▄▄</tspan></text><path d="M220 110h10v18h-10z" class="b3"/><text x="220" y="118" class="t c1 b"><tspan textLength="10">▄</tspan></text><text x="230" y="118" class="t c3"><tspan textLength="190">▀▀▀▀██████████████▌</tspan></text><text x="420" y="118" class="t c7"><tspan textLength="70">▐█████ </tspan></text><text x="490" y="118" class="t c2 b"><tspan textLength="20">██</tspan></text><text x="510" y="118" class="t"><tspan textLength="10"> </tspan></text><text x="520" y="118" class="t c2 b"><tspan textLength="10">▀</tspan></text><text x="530" y="118" class="t c2"><tspan textLength="10">█</tspan></text><path d="M540 110h10v18h-10z" class="b2"/><text x="540" y="118" class="t c0"><tspan textLength="10"> </tspan></text><path d="M550 110h10v18h-10z" class="b2"/><text x="550" y="118" class="t c2 b"><tspan textLength="10">░</tspan></text><text x="560" y="118" class="t c2"><tspan textLength="10">█</tspan></text><text x="570" y="118" class="t c7"><tspan textLength="10"> </tspan></text><path d="M580 110h20v18h-20z" class="b2"/><text x="580" y="118" class="t c2 b"><tspan textLength="20">▓ </tspan></text><text x="600" y="118" class="t c2"><tspan textLength="60">██████</tspan></text><path d="M660 110h20v18h-20z" class="b2"/><text x="660" y="118" class="t c2 b"><tspan textLength="20"> ▐</tspan></text><text x="680" y="118" class="t"><tspan textLength="10"> </tspan></text><text x="690" y="118" class="t c2"><tspan textLength="50">██▀██</tspan></text><path d="M740 110h10v18h-10z" class="b2"/><text x="740" y="118" class="t c2 b"><tspan textLength="10">▀</tspan></text><path d="M750 110h10v18h-10z" class="b0"/><text x="750" y="118" class="t c2 b"><tspan textLength="10">▄</tspan></text><text x="760" y="118" class="t"><tspan textLength="40">▀███</tspan></text><text y="136" class="t"><tspan textLength="70">██████ </tspan></text><text x="70" y="136" class="t c3"><tspan textLength="130">████████████▄</tspan></text><text x="200" y="136" class="t c1 b"><tspan textLength="100">▀██████▄▄▄</tspan></text><text x="300" y="136" class="t c3"><tspan textLength="110">▀▀████████▀</tspan></text><text x="410" y="136" class="t c7"><tspan textLength="90">▄███████▄</tspan></text><text x="500" y="136" class="t c2 b"><tspan textLength="20">▀█</tspan></text><path d="M520 128h10v18h-10z" class="b2"/><text x="520" y="136" class="t c2 b"><tspan textLength="10">▄</tspan></text><text x="530" y="136" class="t c2"><tspan textLength="10">▄</tspan></text><text x="540" y="136" class="t c7"><tspan textLength="10"> </tspan></text><text x="550" y="136" class="t c2"><tspan textLength="30">██▌</tspan></text><text x="580" y="136" class="t c2 b"><tspan textLength="10">▐</tspan></text><path d="M590 128h10v18h-10z" class="b2"/><text x="590" y="136" class="t c2 b"><tspan textLength="10"> </tspan></text><text x="600" y="136" class="t c2"><tspan textLength="60">██████</tspan></text><path d="M660 128h20v18h-20z" class="b2"/><text x="660" y="136" class="t c2 b"><tspan textLength="20"> ▓</tspan></text><text x="680" y="136" class="t"><tspan textLength="10"> </tspan></text><text x="690" y="136" class="t c2"><tspan textLength="50">█ ▐██</tspan></text><path d="M740 128h20v18h-20z" class="b2"/><text x="740" y="136" class="t c2 b"><tspan textLength="20">▄▓</tspan></text><path d="M760 128h10v18h-10z" class="b0"/><text x="760" y="136" class="t c2 b"><tspan textLength="10">▌</tspan></text><text x="770" y="136" class="t"><tspan textLength="30">▐██</tspan></text><text y="154" class="t"><tspan textLength="70">██████ </tspan></text><text x="70" y="154" class="t c3"><tspan textLength="100">██████████</tspan></text><text x="170" y="154" class="t c7"><tspan textLength="10"> </tspan></text><text x="180" y="154" class="t c1 b"><tspan textLength="10">▄</tspan></text><path d="M190 146h10v18h-10z" class="b3"/><text x="190" y="154" class="t c1 b"><tspan textLength="10">▄</tspan></text><text x="200" y="154" class="t c3"><tspan textLength="10">▀</tspan></text><text x="210" y="154" class="t c7"><tspan textLength="10"> </tspan></text><text x="220" y="154" class="t c1 b"><tspan textLength="110">█████████▄▄</tspan></text><text x="330" y="154" class="t"><tspan textLength="200"> ▄▄▄▄▄▄████████████▄</tspan></text><text x="530" y="154" class="t c2 b"><tspan textLength="10">▀</tspan></text><path d="M540 146h10v18h-10z" class="b2"/><text x="540" y="154" class="t c2 b"><tspan textLength="10">▄</tspan></text><text x="550" y="154" class="t c2"><tspan textLength="10">▄</tspan></text><path d="M560 146h10v18h-10z" class="b2"/><text x="560" y="154" class="t c0"><tspan textLength="10">■</tspan></text><path d="M570 146h20v18h-20z" class="b0"/><text x="570" y="154" class="t c2"><tspan textLength="20">█▀</tspan></text><path d="M590 146h20v18h-20z" class="b2"/><text x="590" y="154" class="t c2 b"><tspan textLength="20">▒ </tspan></text><text x="610" y="154" class="t c2"><tspan textLength="50">█████</tspan></text><path d="M660 146h10v18h-10z" class="b2"/><text x="660" y="154" class="t c2 b"><tspan textLength="10"> </tspan></text><path d="M670 146h10v18h-10z" class="b0"/><text x="670" y="154" class="t c2 b"><tspan textLength="10">▌</tspan></text><text x="680" y="154" class="t c2"><tspan textLength="30">▐▌▐</tspan></text><path d="M710 146h10v18h-10z" class="b2"/><text x="710" y="154" class="t c2 b"><tspan textLength="10">▄</tspan></text><path d="M720 146h20v18h-20z" class="b0"/><text x="720" y="154" class="t c2 b"><tspan textLength="20">▀▀</tspan></text><text x="740" y="154" class="t"><tspan textLength="20">▄▄</tspan></text><text x="760" y="154" class="t c2 b"><tspan textLength="10">▀</tspan></text><text x="770" y="154" class="t"><tspan textLength="30">▄██</tspan></text><text y="172" class="t"><tspan textLength="70">██████▌</tspan></text><text x="70" y="172" class="t c3"><tspan textLength="10">▐</tspan></text><path d="M80 164h10v18H80z" class="b3"/><text x="80" y="172" class="t c0"><tspan textLength="10">░</tspan></text><path d="M90 164h80v18H90z" class="b0"/><text x="90" y="172" class="t c3"><tspan textLength="80">████████</tspan></text><path d="M170 164h10v18h-10z" class="b3"/><text x="170" y="172" class="t c0"><tspan textLength="10">▐</tspan></text><path d="M180 164h160v18H180z" class="b0"/><text x="180" y="172" class="t c1 b"><tspan textLength="160">▐███▀▀████▌██▀▀█</tspan></text><text x="340" y="172" class="t"><tspan textLength="40"> ███</tspan></text><path d="M380 164h110v18H380z" class="b7"/><text x="380" y="172" class="t c0"><tspan textLength="110">SHUT UP AND</tspan></text><path d="M490 164h60v18h-60z" class="b0"/><text x="490" y="172" class="t c7"><tspan textLength="60">█████▄</tspan></text><path d="M550 164h10v18h-10z" class="b0"/><text x="550" y="172" class="t c2 b"><tspan textLength="10">▀</tspan></text><path d="M560 164h10v18h-10z" class="b2"/><text x="560" y="172" class="t c2 b"><tspan textLength="10">▄</tspan></text><text x="570" y="172" class="t c2"><tspan textLength="20">█▌</tspan></text><text x="590" y="172" class="t c2 b"><tspan textLength="10">▐</tspan></text><text x="600" y="172" class="t c2"><tspan textLength="60">██████</tspan></text><path d="M660 164h10v18h-10z" class="b2"/><text x="660" y="172" class="t c2 b"><tspan textLength="10">▐</tspan></text><path d="M670 164h10v18h-10z" class="b0"/><text x="670" y="172" class="t c2 b"><tspan textLength="10">▌</tspan></text><text x="680" y="172" class="t c2"><tspan textLength="20">█▒</tspan></text><path d="M700 164h10v18h-10z" class="b2"/><text x="700" y="172" class="t c2 b"><tspan textLength="10">▐</tspan></text><path d="M710 164h10v18h-10z" class="b0"/><text x="710" y="172" class="t c2 b"><tspan textLength="10">▌</tspan></text><text x="720" y="172" class="t"><tspan textLength="80">▐███████</tspan></text><text y="190" class="t"><tspan textLength="80">███████▄</tspan></text><text x="80" y="190" class="t c3"><tspan textLength="100">▀█████▀▀██</tspan></text><text x="180" y="190" class="t c7"><tspan textLength="10"> </tspan></text><text x="190" y="190" class="t c1 b"><tspan textLength="30">██▌</tspan></text><text x="220" y="190" class="t c7 b"><tspan textLength="50">▄██▄▄</tspan></text><text x="270" y="190" class="t c1 b"><tspan textLength="20">▀■</tspan></text><text x="290" y="190" class="t c7 b"><tspan textLength="50">▄▄██▄</tspan></text><text x="340" y="190" class="t"><tspan textLength="40">▀███</tspan></text><path d="M380 182h120v18H380z" class="b7"/><text x="380" y="190" class="t c0"><tspan textLength="120">TAKE MY ANSI</tspan></text><path d="M500 182h60v18h-60z" class="b0"/><text x="500" y="190" class="t c7"><tspan textLength="60">█████▄</tspan></text><path d="M560 182h10v18h-10z" class="b0"/><text x="560" y="190" class="t c2 b"><tspan textLength="10">▀</tspan></text><path d="M570 182h20v18h-20z" class="b2"/><text x="570" y="190" class="t c2 b"><tspan textLength="20">▓░</tspan></text><text x="590" y="190" class="t"><tspan textLength="10"> </tspan></text><path d="M600 182h10v18h-10z" class="b2"/><text x="600" y="190" class="t c2 b"><tspan textLength="10">▌</tspan></text><text x="610" y="190" class="t c2"><tspan textLength="40">████</tspan></text><path d="M650 182h10v18h-10z" class="b2"/><text x="650" y="190" class="t c2 b"><tspan textLength="10"> </tspan></text><path d="M660 182h10v18h-10z" class="b0"/><text x="660" y="190" class="t c2 b"><tspan textLength="10">█</tspan></text><text x="670" y="190" class="t"><tspan textLength="10"> </tspan></text><text x="680" y="190" class="t c2"><tspan textLength="20">██</tspan></text><text x="700" y="190" class="t c2 b"><tspan textLength="10">█</tspan></text><text x="710" y="190" class="t"><tspan textLength="90"> ████████</tspan></text><text y="208" class="t"><tspan textLength="100">█████████▄</tspan></text><text x="100" y="208" class="t c3"><tspan textLength="30">▀▀▀</tspan></text><text x="130" y="208" class="t c1 b"><tspan textLength="40">▄██▄</tspan></text><text x="170" y="208" class="t c3"><tspan textLength="10">▀</tspan></text><path d="M180 200h10v18h-10z" class="b3"/><text x="180" y="208" class="t c0"><tspan textLength="10">▐</tspan></text><path d="M190 200h20v18h-20z" class="b0"/><text x="190" y="208" class="t c1 b"><tspan textLength="20">▐█</tspan></text><text x="210" y="208" class="t"><tspan textLength="10"> </tspan></text><text x="220" y="208" class="t b"><tspan textLength="120">███▄█▌ ███▄█</tspan></text><text x="340" y="208" class="t"><tspan textLength="220"> ████████████████████▀</tspan></text><text x="560" y="208" class="t c1 b"><tspan textLength="20">__</tspan></text><text x="580" y="208" class="t c2 b"><tspan textLength="10">▀</tspan></text><text x="590" y="208" class="t"><tspan textLength="10"> </tspan></text><text x="600" y="208" class="t c2 b"><tspan textLength="10">▀</tspan></text><text x="610" y="208" class="t c2"><tspan textLength="40">█▀██</tspan></text><path d="M650 200h10v18h-10z" class="b2"/><text x="650" y="208" class="t c2 b"><tspan textLength="10"> </tspan></text><path d="M660 200h10v18h-10z" class="b0"/><text x="660" y="208" class="t c2 b"><tspan textLength="10">▌</tspan></text><text x="670" y="208" class="t"><tspan textLength="10"> </tspan></text><text x="680" y="208" class="t c1 b"><tspan textLength="20">▄▄</tspan></text><path d="M700 200h10v18h-10z" class="b2"/><text x="700" y="208" class="t c1 b"><tspan textLength="10">▄</tspan></text><text x="710" y="208" class="t"><tspan textLength="90"> ████████</tspan></text><text y="226" class="t"><tspan textLength="130">████████████ </tspan></text><text x="130" y="226" class="t c1 b"><tspan textLength="10">█</tspan></text><text x="140" y="226" class="t"><tspan textLength="10"> </tspan></text><text x="150" y="226" class="t c1 b"><tspan textLength="80">▄▀█▄███▄</tspan></text><text x="230" y="226" class="t c7 b"><tspan textLength="40">▀▀▀▀</tspan></text><text x="270" y="226" class="t c1 b"><tspan textLength="30">▄█▄</tspan></text><text x="300" y="226" class="t c7 b"><tspan textLength="30">▀▀▀</tspan></text><text x="330" y="226" class="t"><tspan textLength="210"> ▀██████████████████▀</tspan></text><text x="540" y="226" class="t c1 b"><tspan textLength="90">▄██████▄ </tspan></text><text x="630" y="226" class="t c2"><tspan textLength="20">█▀</tspan></text><text x="650" y="226" class="t c1 b"><tspan textLength="70">▄▄█████</tspan></text><text x="720" y="226" class="t"><tspan textLength="80"> ███████</tspan></text><text y="244" class="t"><tspan textLength="140">█████████████▄</tspan></text><text x="140" y="244" class="t c1 b"><tspan textLength="220">▓█▀██████████████████▄</tspan></text><text x="360" y="244" class="t"><tspan textLength="170">▀███████████████ </tspan></text><text x="530" y="244" class="t c1 b"><tspan textLength="190">▐█▀▀██████  ███▀▀▀▄</tspan></text><text x="720" y="244" class="t"><tspan textLength="80">▐███████</tspan></text><text y="262" class="t"><tspan textLength="150">███████████████</tspan></text><text x="150" y="262" class="t c1 b"><tspan textLength="200"> ▐████████████▄▄█▀▀▀</tspan></text><text x="350" y="262" class="t"><tspan textLength="140">▄█████████████</tspan></text><path d="M490 254h10v18h-10z" class="b7"/><text x="490" y="262" class="t c0"><tspan textLength="10">▄</tspan></text><path d="M500 254h30v18h-30z" class="b0"/><text x="500" y="262" class="t c7"><tspan textLength="30">▀█ </tspan></text><path d="M530 254h60v18h-60z" class="b0"/><text x="530" y="262" class="t c1 b"><tspan textLength="60">███▒  </tspan></text><text x="590" y="262" class="t c2"><tspan textLength="10">▄</tspan></text><text x="600" y="262" class="t c1 b"><tspan textLength="20">▀▀</tspan></text><text x="620" y="262" class="t c2"><tspan textLength="20">▄▀</tspan></text><text x="640" y="262" class="t c7"><tspan textLength="10"> </tspan></text><text x="650" y="262" class="t c1 b"><tspan textLength="70">▄▄█████</tspan></text><text x="720" y="262" class="t"><tspan textLength="80"> ███████</tspan></text><text y="280" class="t"><tspan textLength="160">███████████████ </tspan></text><text x="160" y="280" class="t c1 b"><tspan textLength="180">█████████████████▄</tspan></text><text x="340" y="280" class="t"><tspan textLength="120">▀███████████</tspan></text><path d="M460 272h10v18h-10z" class="b1"/><text x="460" y="280" class="t"><tspan textLength="10">█</tspan></text><path d="M470 272h20v18h-20z" class="b0"/><text x="470" y="280" class="t"><tspan textLength="20">▀ </tspan></text><path d="M490 272h10v18h-10z" class="b1"/><text x="490" y="280" class="t c1"><tspan textLength="10">█</tspan></text><path d="M500 272h10v18h-10z" class="b0"/><text x="500" y="280" class="t c1"><tspan textLength="10">▓</tspan></text><path d="M510 272h10v18h-10z" class="b0"/><text x="510" y="280" class="t c7"><tspan textLength="10"> </tspan></text><path d="M520 272h60v18h-60z" class="b0"/><text x="520" y="280" class="t c1 b"><tspan textLength="60">▐████░</tspan></text><text x="580" y="280" class="t"><tspan textLength="10"> </tspan></text><text x="590" y="280" class="t c2 b"><tspan textLength="10">█</tspan></text><path d="M600 272h10v18h-10z" class="b2"/><text x="600" y="280" class="t c2 b"><tspan textLength="10"> </tspan></text><text x="610" y="280" class="t c2"><tspan textLength="20">██</tspan></text><text x="630" y="280" class="t c7"><tspan textLength="10"> </tspan></text><text x="640" y="280" class="t c1 b"><tspan textLength="70">█████▀▀</tspan></text><text x="710" y="280" class="t"><tspan textLength="90"> ▐███████</tspan></text><text y="298" class="t"><tspan textLength="160">███████████████ </tspan></text><text x="160" y="298" class="t c1 b"><tspan textLength="50">████▀</tspan></text><text x="210" y="298" class="t"><tspan textLength="10"> </tspan></text><text x="220" y="298" class="t b"><tspan textLength="20">▄▄</tspan></text><text x="240" y="298" class="t c1 b"><tspan textLength="110">▀▀████████▄</tspan></text><text x="350" y="298" class="t"><tspan textLength="190"> ███████░▒▓█▀▄◄§   </tspan></text><text x="540" y="298" class="t c1 b"><tspan textLength="50">███▓ </tspan></text><text x="590" y="298" class="t c2 b"><tspan textLength="10">▐</tspan></text><path d="M600 290h20v18h-20z" class="b2"/><text x="600" y="298" class="t c2 b"><tspan textLength="20">▌ </tspan></text><text x="620" y="298" class="t c2"><tspan textLength="10">█</tspan></text><path d="M630 290h10v18h-10z" class="b2"/><text x="630" y="298" class="t c2 b"><tspan textLength="10"> </tspan></text><text x="640" y="298" class="t"><tspan textLength="10"> </tspan></text><text x="650" y="298" class="t c1 b"><tspan textLength="60">▀▀▄▄█▀</tspan></text><text x="710" y="298" class="t"><tspan textLength="90">▄████████</tspan></text><text y="316" class="t"><tspan textLength="150">██████████████▌</tspan></text><text x="150" y="316" class="t c1 b"><tspan textLength="40">▐███</tspan></text><text x="190" y="316" class="t"><tspan textLength="10"> </tspan></text><text x="200" y="316" class="t c1"><tspan textLength="30">▐▄ </tspan></text><text x="230" y="316" class="t c7 b"><tspan textLength="70">▀▀■■▄▄_</tspan></text><text x="300" y="316" class="t c1 b"><tspan textLength="60">▀▀████</tspan></text><text x="360" y="316" class="t"><tspan textLength="100"> ████████ </tspan></text><path d="M460 308h20v18h-20z" class="b1"/><text x="460" y="316" class="t c1 b"><tspan textLength="20">▒░</tspan></text><text x="480" y="316" class="t"><tspan textLength="10"> </tspan></text><text x="490" y="316" class="t c1"><tspan textLength="40">███▄</tspan></text><text x="530" y="316" class="t c1 b"><tspan textLength="50">▀▀▀▀▀</tspan></text><text x="580" y="316" class="t c2 b"><tspan textLength="10">▄</tspan></text><text x="590" y="316" class="t"><tspan textLength="10"> </tspan></text><path d="M600 308h20v18h-20z" class="b2"/><text x="600" y="316" class="t c2 b"><tspan textLength="20">▌ </tspan></text><text x="620" y="316" class="t c2"><tspan textLength="20">██</tspan></text><path d="M640 308h10v18h-10z" class="b2"/><text x="640" y="316" class="t c2 b"><tspan textLength="10">▐</tspan></text><path d="M650 308h10v18h-10z" class="b0"/><text x="650" y="316" class="t c2 b"><tspan textLength="10">▐</tspan></text><path d="M660 308h10v18h-10z" class="b2"/><text x="660" y="316" class="t c2 b"><tspan textLength="10">▌</tspan></text><text x="670" y="316" class="t c2"><tspan textLength="10">▀</tspan></text><text x="680" y="316" class="t c2 b"><tspan textLength="10">▄</tspan></text><text x="690" y="316" class="t"><tspan textLength="110"> ██████████</tspan></text><text y="334" class="t"><tspan textLength="150">████████████▀▀ </tspan></text><text x="150" y="334" class="t c1 b"><tspan textLength="80">█████▄▄▄</tspan></text><text x="230" y="334" class="t c1"><tspan textLength="20">▀■</tspan></text><text x="250" y="334" class="t c7"><tspan textLength="30">   </tspan></text><text x="280" y="334" class="t c1 b"><tspan textLength="10">▄</tspan></text><text x="290" y="334" class="t"><tspan textLength="160"> ▐█▄▄▄▄████████ </tspan></text><path d="M450 326h10v18h-10z" class="b1"/><text x="450" y="334" class="t c1 b"><tspan textLength="10">░</tspan></text><text x="460" y="334" class="t c1"><tspan textLength="30">███</tspan></text><path d="M490 326h10v18h-10z" class="b1"/><text x="490" y="334" class="t c0"><tspan textLength="10">■</tspan></text><path d="M500 326h70v18h-70z" class="b0"/><text x="500" y="334" class="t c1"><tspan textLength="70">██████▓</tspan></text><path d="M570 326h10v18h-10z" class="b0"/><text x="570" y="334" class="t c7"><tspan textLength="10"> </tspan></text><path d="M580 326h10v18h-10z" class="b0"/><text x="580" y="334" class="t c2 b"><tspan textLength="10">█</tspan></text><text x="590" y="334" class="t"><tspan textLength="10"> </tspan></text><text x="600" y="334" class="t c2 b"><tspan textLength="10">█</tspan></text><path d="M610 326h30v18h-30z" class="b2"/><text x="610" y="334" class="t c2 b"><tspan textLength="30">█▄ </tspan></text><path d="M640 326h10v18h-10z" class="b0"/><text x="640" y="334" class="t c2 b"><tspan textLength="10">█</tspan></text><text x="650" y="334" class="t c2"><tspan textLength="10">░</tspan></text><text x="660" y="334" class="t c2 b"><tspan textLength="10">█</tspan></text><text x="670" y="334" class="t c2"><tspan textLength="10">░</tspan></text><text x="680" y="334" class="t c2 b"><tspan textLength="20">▐▌</tspan></text><text x="700" y="334" class="t"><tspan textLength="100">▀█████████</tspan></text><text y="352" class="t"><tspan textLength="100">█████▀▀▀▀▀</tspan></text><text x="100" y="352" class="t c1"><tspan textLength="20">▄▄</tspan></text><path d="M120 344h10v18h-10z" class="b1"/><text x="120" y="352" class="t c1 b"><tspan textLength="10">░</tspan></text><text x="130" y="352" class="t c1"><tspan textLength="10">▀</tspan></text><text x="140" y="352" class="t c1 b"><tspan textLength="170">▐██████████████▀ </tspan></text><text x="310" y="352" class="t"><tspan textLength="120">███████████▀</tspan></text><text x="430" y="352" class="t c1"><tspan textLength="80">▄██████▄</tspan></text><path d="M510 344h30v18h-30z" class="b1"/><text x="510" y="352" class="t c0"><tspan textLength="30">■▄▄</tspan></text><path d="M540 344h40v18h-40z" class="b0"/><text x="540" y="352" class="t c1"><tspan textLength="40">███▄</tspan></text><path d="M580 344h10v18h-10z" class="b0"/><text x="580" y="352" class="t c2 b"><tspan textLength="10">▀</tspan></text><text x="590" y="352" class="t"><tspan textLength="20">  </tspan></text><text x="610" y="352" class="t c2 b"><tspan textLength="40">▀▀▀▀</tspan></text><text x="650" y="352" class="t"><tspan textLength="10"> </tspan></text><text x="660" y="352" class="t c2 b"><tspan textLength="10">█</tspan></text><path d="M670 344h30v18h-30z" class="b2"/><text x="670" y="352" class="t c2 b"><tspan textLength="30">▄▄█</tspan></text><text x="700" y="352" class="t"><tspan textLength="100"> █████████</tspan></text><text y="370" class="t"><tspan textLength="30">█▀▀</tspan></text><text x="30" y="370" class="t c1"><tspan textLength="50"> ▄▄██</tspan></text><text x="80" y="370" class="t c7"><tspan textLength="10"> </tspan></text><path d="M90 362h10v18H90z" class="b1"/><text x="90" y="370" class="t c1 b"><tspan textLength="10">░</tspan></text><text x="100" y="370" class="t c1"><tspan textLength="30">██▌</tspan></text><text x="130" y="370" class="t c7"><tspan textLength="10"> </tspan></text><text x="140" y="370" class="t c1 b"><tspan textLength="130">▓████████████</tspan></text><text x="270" y="370" class="t"><tspan textLength="10"> </tspan></text><text x="280" y="370" class="t c1"><tspan textLength="10">▄</tspan></text><text x="290" y="370" class="t c7"><tspan textLength="10"> </tspan></text><text x="300" y="370" class="t c1"><tspan textLength="10">▄</tspan></text><text x="310" y="370" class="t c7"><tspan textLength="90">▀▀█████▀▀</tspan></text><text x="400" y="370" class="t c1"><tspan textLength="120">▄▄██████████</tspan></text><path d="M520 362h30v18h-30z" class="b1"/><text x="520" y="370" class="t c0"><tspan textLength="30">   </tspan></text><path d="M550 362h20v18h-20z" class="b0"/><text x="550" y="370" class="t c1"><tspan textLength="20">▄▄</tspan></text><path d="M570 362h20v18h-20z" class="b1"/><text x="570" y="370" class="t c0"><tspan textLength="20">▀▀</tspan></text><path d="M590 362h10v18h-10z" class="b0"/><text x="590" y="370" class="t c1"><tspan textLength="10">▓</tspan></text><path d="M600 362h200v18H600z" class="b0"/><text x="600" y="370" class="t c7"><tspan textLength="200"> █████▄▄▄▄██████████</tspan></text><path d="M0 380h20v18H0z" class="b0"/><text y="388" class="t c1"><tspan textLength="20"> ▄</tspan></text><path d="M20 380h20v18H20z" class="b1"/><text x="20" y="388" class="t c1 b"><tspan textLength="20">░░</tspan></text><text x="40" y="388" class="t c1"><tspan textLength="80">██▀▄████</tspan></text><text x="120" y="388" class="t c7"><tspan textLength="20"> ▄</tspan></text><text x="140" y="388" class="t c7 b"><tspan textLength="10"> </tspan></text><text x="150" y="388" class="t c1 b"><tspan textLength="110">▀▀█████████</tspan></text><text x="260" y="388" class="t"><tspan textLength="10"> </tspan></text><text x="270" y="388" class="t c1"><tspan textLength="50">▐██▄▀</tspan></text><path d="M320 380h20v18h-20z" class="b1"/><text x="320" y="388" class="t c1 b"><tspan textLength="20">░░</tspan></text><text x="340" y="388" class="t c1"><tspan textLength="250">▄▄▄█████████████████████▓</tspan></text><path d="M590 380h10v18h-10z" class="b1"/><text x="590" y="388" class="t c0"><tspan textLength="10">▐</tspan></text><path d="M600 380h200v18H600z" class="b0"/><text x="600" y="388" class="t c7"><tspan textLength="200">▐███████████████████</tspan></text><path d="M0 398h20v18H0z" class="b1"/><text y="406" class="t c1 b"><tspan textLength="20">░░</tspan></text><text x="20" y="406" class="t c1"><tspan textLength="90">███▀▄████</tspan></text><text x="110" y="406" class="t c7"><tspan textLength="20"> ▐</tspan></text><text x="130" y="406" class="t c7 b"><tspan textLength="20">██</tspan></text><path d="M150 398h10v18h-10z" class="b7"/><text x="150" y="406" class="t c7 b"><tspan textLength="10">▄</tspan></text><path d="M160 398h20v18h-20z" class="b0"/><text x="160" y="406" class="t c7 b"><tspan textLength="20">▄▄</tspan></text><text x="180" y="406" class="t"><tspan textLength="10">▄</tspan></text><text x="190" y="406" class="t c1 b"><tspan textLength="50">▀▀▀▀▀</tspan></text><text x="240" y="406" class="t"><tspan textLength="30">▄▄ </tspan></text><text x="270" y="406" class="t c1"><tspan textLength="310">████▌▐███████████████████████▓▓</tspan></text><text x="580" y="406" class="t c7"><tspan textLength="220"> █████████████████████</tspan></text><text y="424" class="t c1"><tspan textLength="100">█████░▐▀▀▀</tspan></text><text x="100" y="424" class="t c7"><tspan textLength="20"> ▐</tspan></text><text x="120" y="424" class="t c7 b"><tspan textLength="140">█████████████▌</tspan></text><text x="260" y="424" class="t"><tspan textLength="10"> </tspan></text><text x="270" y="424" class="t c1"><tspan textLength="50">█████</tspan></text><text x="320" y="424" class="t c7"><tspan textLength="10"> </tspan></text><text x="330" y="424" class="t c1"><tspan textLength="240">████████████████████▓▓▀▀</tspan></text><text x="570" y="424" class="t c7"><tspan textLength="230">▄██████████████████████</tspan></text><text y="442" class="t c1"><tspan textLength="100">█████████▀</tspan></text><text x="100" y="442" class="t c7"><tspan textLength="10"> </tspan></text><path d="M110 434h10v18h-10z" class="b7"/><text x="110" y="442" class="t c7 b"><tspan textLength="10">▓</tspan></text><path d="M120 434h140v18H120z" class="b0"/><text x="120" y="442" class="t c7 b"><tspan textLength="140">████████████▓░</tspan></text><text x="260" y="442" class="t"><tspan textLength="10"> </tspan></text><text x="270" y="442" class="t c1"><tspan textLength="20">▀▀</tspan></text><path d="M290 434h10v18h-10z" class="b1"/><text x="290" y="442" class="t c0"><tspan textLength="10">_</tspan></text><path d="M300 434h20v18h-20z" class="b0"/><text x="300" y="442" class="t c1"><tspan textLength="20">█▓</tspan></text><path d="M320 434h10v18h-10z" class="b0"/><text x="320" y="442" class="t c7"><tspan textLength="10"> </tspan></text><path d="M330 434h190v18H330z" class="b0"/><text x="330" y="442" class="t c1"><tspan textLength="190">██████████████▓▓▀▀▀</tspan></text><path d="M520 434h280v18H520z" class="b0"/><text x="520" y="442" class="t c7"><tspan textLength="280">▄▄▄█████████████████████████</tspan></text></svg>