<svg xmlns="http://www.w3.org/2000/svg" width="2280" height="1184"><style><![CDATA[@keyframes blink_keyframes{50%{opacity:0}}tspan{dominant-baseline:central;font-variant-ligatures:none;white-space:pre;font-family:Consolas,Courier New,Monaco;font-size:32px}:root{color-scheme:light dark;background-color:#fff}.green{fill:#0dbc79}.yellow{fill:#e5e510}.blue{fill:#2472c8}.cyan{fill:#11a8cd}.white{fill:#e5e5e5}.bright_black{fill:#666}.bg-cyan{fill:#11a8cd}svg>text{fill:#000}@media (prefers-color-scheme:dark){:root{background-color:#181818}.green{fill:#0dbc79}.yellow{fill:#e5e510}.blue{fill:#2472c8}.cyan{fill:#11a8cd}.white{fill:#000}.bright_black,svg>text{fill:#e5e5e5}.bg-cyan{fill:#11a8cd}}.bold{font-weight:700}.dim{font-weight:lighter;opacity:.5}]]></style><text y="48"><tspan textLength="1020">&gt; @xwat/bench@0.2.2 bench:run C:\wt\xwat\xwat-bench</tspan></text><text y="80"><tspan textLength="400">&gt; vitest bench --run</tspan></text><path d="M0 160h100v32H0z" class="bg-cyan"/><text y="176" class="white bold"><tspan textLength="100"> RUN </tspan></text><text x="100" y="176"><tspan textLength="20"> </tspan></text><text x="120" y="176" class="cyan"><tspan textLength="120">v2.0.3</tspan></text><text x="240" y="176"><tspan textLength="20"> </tspan></text><text x="260" y="176" class="bright_black"><tspan textLength="420">C:/wt/xwat/xwat-bench</tspan></text><text y="240"><tspan textLength="20"> </tspan></text><text x="20" y="240" class="green"><tspan textLength="20">✓</tspan></text><text x="40" y="240"><tspan textLength="460"> bench/invert.bench.tsx</tspan></text><text x="500" y="240" class="dim" opacity=".5"><tspan textLength="60"> &gt; </tspan></text><text x="560" y="240"><tspan textLength="80">gray</tspan></text><text x="640" y="240" class="yellow"><tspan textLength="100"> 2509</tspan></text><text x="740" y="240" class="yellow dim" opacity=".5"><tspan textLength="40">ms</tspan></text><text y="272"><tspan textLength="100">     </tspan></text><text x="100" y="272" class="bold"><tspan textLength="180">name     </tspan></text><text x="280" y="272"><tspan textLength="40">  </tspan></text><text x="320" y="272" class="bold"><tspan textLength="140">     hz</tspan></text><text x="460" y="272"><tspan textLength="40">  </tspan></text><text x="500" y="272" class="bold"><tspan textLength="140">    min</tspan></text><text x="640" y="272"><tspan textLength="40">  </tspan></text><text x="680" y="272" class="bold"><tspan textLength="140">    max</tspan></text><text x="820" y="272"><tspan textLength="40">  </tspan></text><text x="860" y="272" class="bold"><tspan textLength="140">   mean</tspan></text><text x="1000" y="272"><tspan textLength="40">  </tspan></text><text x="1040" y="272" class="bold"><tspan textLength="140">    p75</tspan></text><text x="1180" y="272"><tspan textLength="40">  </tspan></text><text x="1220" y="272" class="bold"><tspan textLength="140">    p99</tspan></text><text x="1360" y="272"><tspan textLength="40">  </tspan></text><text x="1400" y="272" class="bold"><tspan textLength="140">   p995</tspan></text><text x="1540" y="272"><tspan textLength="40">  </tspan></text><text x="1580" y="272" class="bold"><tspan textLength="140">   p999</tspan></text><text x="1720" y="272"><tspan textLength="40">  </tspan></text><text x="1760" y="272" class="bold"><tspan textLength="120">   rme</tspan></text><text x="1880" y="272"><tspan textLength="40">  </tspan></text><text x="1920" y="272" class="bold"><tspan textLength="140">samples</tspan></text><text y="304"><tspan textLength="60">   </tspan></text><text x="60" y="304" class="green"><tspan textLength="20">·</tspan></text><text x="80" y="304"><tspan textLength="240"> js         </tspan></text><text x="320" y="304" class="blue"><tspan textLength="140">48.4839</tspan></text><text x="460" y="304"><tspan textLength="40">  </tspan></text><text x="500" y="304" class="cyan"><tspan textLength="140">20.3462</tspan></text><text x="640" y="304"><tspan textLength="40">  </tspan></text><text x="680" y="304" class="cyan"><tspan textLength="140">21.0757</tspan></text><text x="820" y="304"><tspan textLength="40">  </tspan></text><text x="860" y="304" class="cyan"><tspan textLength="140">20.6254</tspan></text><text x="1000" y="304"><tspan textLength="40">  </tspan></text><text x="1040" y="304" class="cyan"><tspan textLength="140">20.7499</tspan></text><text x="1180" y="304"><tspan textLength="40">  </tspan></text><text x="1220" y="304" class="cyan"><tspan textLength="140">21.0757</tspan></text><text x="1360" y="304"><tspan textLength="40">  </tspan></text><text x="1400" y="304" class="cyan"><tspan textLength="140">21.0757</tspan></text><text x="1540" y="304"><tspan textLength="40">  </tspan></text><text x="1580" y="304" class="cyan"><tspan textLength="140">21.0757</tspan></text><text x="1720" y="304"><tspan textLength="40">  </tspan></text><text x="1760" y="304" class="dim" opacity=".5"><tspan textLength="120">±0.40%</tspan></text><text x="1880" y="304"><tspan textLength="40">  </tspan></text><text x="1920" y="304" class="dim" opacity=".5"><tspan textLength="140">     25</tspan></text><text x="2060" y="304"><tspan textLength="40">  </tspan></text><text x="2100" y="304" class="bright_black bold"><tspan textLength="160"> slowest</tspan></text><text y="336"><tspan textLength="60">   </tspan></text><text x="60" y="336" class="green"><tspan textLength="20">·</tspan></text><text x="80" y="336"><tspan textLength="240"> wasm       </tspan></text><text x="320" y="336" class="blue"><tspan textLength="140"> 132.98</tspan></text><text x="460" y="336"><tspan textLength="40">  </tspan></text><text x="500" y="336" class="cyan"><tspan textLength="140"> 7.2320</tspan></text><text x="640" y="336"><tspan textLength="40">  </tspan></text><text x="680" y="336" class="cyan"><tspan textLength="140"> 8.2683</tspan></text><text x="820" y="336"><tspan textLength="40">  </tspan></text><text x="860" y="336" class="cyan"><tspan textLength="140"> 7.5197</tspan></text><text x="1000" y="336"><tspan textLength="40">  </tspan></text><text x="1040" y="336" class="cyan"><tspan textLength="140"> 7.6484</tspan></text><text x="1180" y="336"><tspan textLength="40">  </tspan></text><text x="1220" y="336" class="cyan"><tspan textLength="140"> 8.2683</tspan></text><text x="1360" y="336"><tspan textLength="40">  </tspan></text><text x="1400" y="336" class="cyan"><tspan textLength="140"> 8.2683</tspan></text><text x="1540" y="336"><tspan textLength="40">  </tspan></text><text x="1580" y="336" class="cyan"><tspan textLength="140"> 8.2683</tspan></text><text x="1720" y="336"><tspan textLength="40">  </tspan></text><text x="1760" y="336" class="dim" opacity=".5"><tspan textLength="120">±0.89%</tspan></text><text x="1880" y="336"><tspan textLength="40">  </tspan></text><text x="1920" y="336" class="dim" opacity=".5"><tspan textLength="140">     67</tspan></text><text y="368"><tspan textLength="60">   </tspan></text><text x="60" y="368" class="green"><tspan textLength="20">·</tspan></text><text x="80" y="368"><tspan textLength="240"> wasm-simd  </tspan></text><text x="320" y="368" class="blue"><tspan textLength="140"> 269.44</tspan></text><text x="460" y="368"><tspan textLength="40">  </tspan></text><text x="500" y="368" class="cyan"><tspan textLength="140"> 3.4001</tspan></text><text x="640" y="368"><tspan textLength="40">  </tspan></text><text x="680" y="368" class="cyan"><tspan textLength="140"> 4.3596</tspan></text><text x="820" y="368"><tspan textLength="40">  </tspan></text><text x="860" y="368" class="cyan"><tspan textLength="140"> 3.7113</tspan></text><text x="1000" y="368"><tspan textLength="40">  </tspan></text><text x="1040" y="368" class="cyan"><tspan textLength="140"> 3.8567</tspan></text><text x="1180" y="368"><tspan textLength="40">  </tspan></text><text x="1220" y="368" class="cyan"><tspan textLength="140"> 4.3015</tspan></text><text x="1360" y="368"><tspan textLength="40">  </tspan></text><text x="1400" y="368" class="cyan"><tspan textLength="140"> 4.3596</tspan></text><text x="1540" y="368"><tspan textLength="40">  </tspan></text><text x="1580" y="368" class="cyan"><tspan textLength="140"> 4.3596</tspan></text><text x="1720" y="368"><tspan textLength="40">  </tspan></text><text x="1760" y="368" class="dim" opacity=".5"><tspan textLength="120">±1.07%</tspan></text><text x="1880" y="368"><tspan textLength="40">  </tspan></text><text x="1920" y="368" class="dim" opacity=".5"><tspan textLength="140">    135</tspan></text><text x="2060" y="368"><tspan textLength="40">  </tspan></text><text x="2100" y="368" class="green bold"><tspan textLength="160"> fastest</tspan></text><text y="400"><tspan textLength="60">   </tspan></text><text x="60" y="400" class="green"><tspan textLength="20">·</tspan></text><text x="80" y="400"><tspan textLength="240"> wasm-64    </tspan></text><text x="320" y="400" class="blue"><tspan textLength="140"> 213.71</tspan></text><text x="460" y="400"><tspan textLength="40">  </tspan></text><text x="500" y="400" class="cyan"><tspan textLength="140"> 4.3320</tspan></text><text x="640" y="400"><tspan textLength="40">  </tspan></text><text x="680" y="400" class="cyan"><tspan textLength="140"> 5.3301</tspan></text><text x="820" y="400"><tspan textLength="40">  </tspan></text><text x="860" y="400" class="cyan"><tspan textLength="140"> 4.6793</tspan></text><text x="1000" y="400"><tspan textLength="40">  </tspan></text><text x="1040" y="400" class="cyan"><tspan textLength="140"> 4.8425</tspan></text><text x="1180" y="400"><tspan textLength="40">  </tspan></text><text x="1220" y="400" class="cyan"><tspan textLength="140"> 5.3176</tspan></text><text x="1360" y="400"><tspan textLength="40">  </tspan></text><text x="1400" y="400" class="cyan"><tspan textLength="140"> 5.3301</tspan></text><text x="1540" y="400"><tspan textLength="40">  </tspan></text><text x="1580" y="400" class="cyan"><tspan textLength="140"> 5.3301</tspan></text><text x="1720" y="400"><tspan textLength="40">  </tspan></text><text x="1760" y="400" class="dim" opacity=".5"><tspan textLength="120">±1.18%</tspan></text><text x="1880" y="400"><tspan textLength="40">  </tspan></text><text x="1920" y="400" class="dim" opacity=".5"><tspan textLength="140">    107</tspan></text><text y="432"><tspan textLength="20"> </tspan></text><text x="20" y="432" class="green"><tspan textLength="20">✓</tspan></text><text x="40" y="432"><tspan textLength="420"> bench/gray.bench.tsx</tspan></text><text x="460" y="432" class="dim" opacity=".5"><tspan textLength="60"> &gt; </tspan></text><text x="520" y="432"><tspan textLength="80">gray</tspan></text><text x="600" y="432" class="yellow"><tspan textLength="100"> 1306</tspan></text><text x="700" y="432" class="yellow dim" opacity=".5"><tspan textLength="40">ms</tspan></text><text y="464"><tspan textLength="100">     </tspan></text><text x="100" y="464" class="bold"><tspan textLength="80">name</tspan></text><text x="180" y="464"><tspan textLength="40">  </tspan></text><text x="220" y="464" class="bold"><tspan textLength="140">     hz</tspan></text><text x="360" y="464"><tspan textLength="40">  </tspan></text><text x="400" y="464" class="bold"><tspan textLength="140">    min</tspan></text><text x="540" y="464"><tspan textLength="40">  </tspan></text><text x="580" y="464" class="bold"><tspan textLength="140">    max</tspan></text><text x="720" y="464"><tspan textLength="40">  </tspan></text><text x="760" y="464" class="bold"><tspan textLength="140">   mean</tspan></text><text x="900" y="464"><tspan textLength="40">  </tspan></text><text x="940" y="464" class="bold"><tspan textLength="140">    p75</tspan></text><text x="1080" y="464"><tspan textLength="40">  </tspan></text><text x="1120" y="464" class="bold"><tspan textLength="140">    p99</tspan></text><text x="1260" y="464"><tspan textLength="40">  </tspan></text><text x="1300" y="464" class="bold"><tspan textLength="140">   p995</tspan></text><text x="1440" y="464"><tspan textLength="40">  </tspan></text><text x="1480" y="464" class="bold"><tspan textLength="140">   p999</tspan></text><text x="1620" y="464"><tspan textLength="40">  </tspan></text><text x="1660" y="464" class="bold"><tspan textLength="120">   rme</tspan></text><text x="1780" y="464"><tspan textLength="40">  </tspan></text><text x="1820" y="464" class="bold"><tspan textLength="140">samples</tspan></text><text y="496"><tspan textLength="60">   </tspan></text><text x="60" y="496" class="green"><tspan textLength="20">·</tspan></text><text x="80" y="496"><tspan textLength="140"> js    </tspan></text><text x="220" y="496" class="blue"><tspan textLength="140">44.7290</tspan></text><text x="360" y="496"><tspan textLength="40">  </tspan></text><text x="400" y="496" class="cyan"><tspan textLength="140">22.0049</tspan></text><text x="540" y="496"><tspan textLength="40">  </tspan></text><text x="580" y="496" class="cyan"><tspan textLength="140">22.7500</tspan></text><text x="720" y="496"><tspan textLength="40">  </tspan></text><text x="760" y="496" class="cyan"><tspan textLength="140">22.3569</tspan></text><text x="900" y="496"><tspan textLength="40">  </tspan></text><text x="940" y="496" class="cyan"><tspan textLength="140">22.4467</tspan></text><text x="1080" y="496"><tspan textLength="40">  </tspan></text><text x="1120" y="496" class="cyan"><tspan textLength="140">22.7500</tspan></text><text x="1260" y="496"><tspan textLength="40">  </tspan></text><text x="1300" y="496" class="cyan"><tspan textLength="140">22.7500</tspan></text><text x="1440" y="496"><tspan textLength="40">  </tspan></text><text x="1480" y="496" class="cyan"><tspan textLength="140">22.7500</tspan></text><text x="1620" y="496"><tspan textLength="40">  </tspan></text><text x="1660" y="496" class="dim" opacity=".5"><tspan textLength="120">±0.30%</tspan></text><text x="1780" y="496"><tspan textLength="40">  </tspan></text><text x="1820" y="496" class="dim" opacity=".5"><tspan textLength="140">     23</tspan></text><text y="528"><tspan textLength="60">   </tspan></text><text x="60" y="528" class="green"><tspan textLength="20">·</tspan></text><text x="80" y="528"><tspan textLength="140"> wasm  </tspan></text><text x="220" y="528" class="blue"><tspan textLength="140"> 114.37</tspan></text><text x="360" y="528"><tspan textLength="40">  </tspan></text><text x="400" y="528" class="cyan"><tspan textLength="140"> 8.3838</tspan></text><text x="540" y="528"><tspan textLength="40">  </tspan></text><text x="580" y="528" class="cyan"><tspan textLength="140"> 9.4932</tspan></text><text x="720" y="528"><tspan textLength="40">  </tspan></text><text x="760" y="528" class="cyan"><tspan textLength="140"> 8.7436</tspan></text><text x="900" y="528"><tspan textLength="40">  </tspan></text><text x="940" y="528" class="cyan"><tspan textLength="140"> 8.8762</tspan></text><text x="1080" y="528"><tspan textLength="40">  </tspan></text><text x="1120" y="528" class="cyan"><tspan textLength="140"> 9.4932</tspan></text><text x="1260" y="528"><tspan textLength="40">  </tspan></text><text x="1300" y="528" class="cyan"><tspan textLength="140"> 9.4932</tspan></text><text x="1440" y="528"><tspan textLength="40">  </tspan></text><text x="1480" y="528" class="cyan"><tspan textLength="140"> 9.4932</tspan></text><text x="1620" y="528"><tspan textLength="40">  </tspan></text><text x="1660" y="528" class="dim" opacity=".5"><tspan textLength="120">±0.79%</tspan></text><text x="1780" y="528"><tspan textLength="40">  </tspan></text><text x="1820" y="528" class="dim" opacity=".5"><tspan textLength="140">     58</tspan></text><text x="1960" y="528"><tspan textLength="40">  </tspan></text><text x="2000" y="528" class="green bold"><tspan textLength="160"> fastest</tspan></text><text y="560"><tspan textLength="20"> </tspan></text><text x="20" y="560" class="green"><tspan textLength="20">✓</tspan></text><text x="40" y="560"><tspan textLength="400"> bench/fib.bench.tsx</tspan></text><text x="440" y="560" class="dim" opacity=".5"><tspan textLength="60"> &gt; </tspan></text><text x="500" y="560"><tspan textLength="60">fib</tspan></text><text x="560" y="560" class="yellow"><tspan textLength="100"> 1238</tspan></text><text x="660" y="560" class="yellow dim" opacity=".5"><tspan textLength="40">ms</tspan></text><text y="592"><tspan textLength="100">     </tspan></text><text x="100" y="592" class="bold"><tspan textLength="80">name</tspan></text><text x="180" y="592"><tspan textLength="40">  </tspan></text><text x="220" y="592" class="bold"><tspan textLength="180">       hz</tspan></text><text x="400" y="592"><tspan textLength="40">  </tspan></text><text x="440" y="592" class="bold"><tspan textLength="120">   min</tspan></text><text x="560" y="592"><tspan textLength="40">  </tspan></text><text x="600" y="592" class="bold"><tspan textLength="120">   max</tspan></text><text x="720" y="592"><tspan textLength="40">  </tspan></text><text x="760" y="592" class="bold"><tspan textLength="120">  mean</tspan></text><text x="880" y="592"><tspan textLength="40">  </tspan></text><text x="920" y="592" class="bold"><tspan textLength="120">   p75</tspan></text><text x="1040" y="592"><tspan textLength="40">  </tspan></text><text x="1080" y="592" class="bold"><tspan textLength="120">   p99</tspan></text><text x="1200" y="592"><tspan textLength="40">  </tspan></text><text x="1240" y="592" class="bold"><tspan textLength="120">  p995</tspan></text><text x="1360" y="592"><tspan textLength="40">  </tspan></text><text x="1400" y="592" class="bold"><tspan textLength="120">  p999</tspan></text><text x="1520" y="592"><tspan textLength="40">  </tspan></text><text x="1560" y="592" class="bold"><tspan textLength="120">   rme</tspan></text><text x="1680" y="592"><tspan textLength="40">  </tspan></text><text x="1720" y="592" class="bold"><tspan textLength="140">samples</tspan></text><text y="624"><tspan textLength="60">   </tspan></text><text x="60" y="624" class="green"><tspan textLength="20">·</tspan></text><text x="80" y="624"><tspan textLength="140"> js    </tspan></text><text x="220" y="624" class="blue"><tspan textLength="180">73,454.37</tspan></text><text x="400" y="624"><tspan textLength="40">  </tspan></text><text x="440" y="624" class="cyan"><tspan textLength="120">0.0127</tspan></text><text x="560" y="624"><tspan textLength="40">  </tspan></text><text x="600" y="624" class="cyan"><tspan textLength="120">0.2051</tspan></text><text x="720" y="624"><tspan textLength="40">  </tspan></text><text x="760" y="624" class="cyan"><tspan textLength="120">0.0136</tspan></text><text x="880" y="624"><tspan textLength="40">  </tspan></text><text x="920" y="624" class="cyan"><tspan textLength="120">0.0134</tspan></text><text x="1040" y="624"><tspan textLength="40">  </tspan></text><text x="1080" y="624" class="cyan"><tspan textLength="120">0.0196</tspan></text><text x="1200" y="624"><tspan textLength="40">  </tspan></text><text x="1240" y="624" class="cyan"><tspan textLength="120">0.0252</tspan></text><text x="1360" y="624"><tspan textLength="40">  </tspan></text><text x="1400" y="624" class="cyan"><tspan textLength="120">0.0646</tspan></text><text x="1520" y="624"><tspan textLength="40">  </tspan></text><text x="1560" y="624" class="dim" opacity=".5"><tspan textLength="120">±0.25%</tspan></text><text x="1680" y="624"><tspan textLength="40">  </tspan></text><text x="1720" y="624" class="dim" opacity=".5"><tspan textLength="140">  36728</tspan></text><text y="656"><tspan textLength="60">   </tspan></text><text x="60" y="656" class="green"><tspan textLength="20">·</tspan></text><text x="80" y="656"><tspan textLength="140"> wasm  </tspan></text><text x="220" y="656" class="blue"><tspan textLength="180">91,504.04</tspan></text><text x="400" y="656"><tspan textLength="40">  </tspan></text><text x="440" y="656" class="cyan"><tspan textLength="120">0.0103</tspan></text><text x="560" y="656"><tspan textLength="40">  </tspan></text><text x="600" y="656" class="cyan"><tspan textLength="120">0.1469</tspan></text><text x="720" y="656"><tspan textLength="40">  </tspan></text><text x="760" y="656" class="cyan"><tspan textLength="120">0.0109</tspan></text><text x="880" y="656"><tspan textLength="40">  </tspan></text><text x="920" y="656" class="cyan"><tspan textLength="120">0.0108</tspan></text><text x="1040" y="656"><tspan textLength="40">  </tspan></text><text x="1080" y="656" class="cyan"><tspan textLength="120">0.0156</tspan></text><text x="1200" y="656"><tspan textLength="40">  </tspan></text><text x="1240" y="656" class="cyan"><tspan textLength="120">0.0203</tspan></text><text x="1360" y="656"><tspan textLength="40">  </tspan></text><text x="1400" y="656" class="cyan"><tspan textLength="120">0.0536</tspan></text><text x="1520" y="656"><tspan textLength="40">  </tspan></text><text x="1560" y="656" class="dim" opacity=".5"><tspan textLength="120">±0.22%</tspan></text><text x="1680" y="656"><tspan textLength="40">  </tspan></text><text x="1720" y="656" class="dim" opacity=".5"><tspan textLength="140">  45753</tspan></text><text x="1860" y="656"><tspan textLength="40">  </tspan></text><text x="1900" y="656" class="green bold"><tspan textLength="160"> fastest</tspan></text><path d="M0 736h140v32H0z" class="bg-cyan"/><text y="752" class="white bold"><tspan textLength="140"> BENCH </tspan></text><text x="140" y="752"><tspan textLength="20"> </tspan></text><text x="160" y="752" class="cyan"><tspan textLength="140">Summary</tspan></text><text y="816"><tspan textLength="120">  wasm</tspan></text><text x="120" y="816" class="dim" opacity=".5"><tspan textLength="560"> - bench/fib.bench.tsx &gt; fib</tspan></text><text y="848"><tspan textLength="80">    </tspan></text><text x="80" y="848" class="green"><tspan textLength="100">1.25x</tspan></text><text x="180" y="848"><tspan textLength="20"> </tspan></text><text x="200" y="848" class="bright_black"><tspan textLength="220">faster than</tspan></text><text x="420" y="848"><tspan textLength="60"> js</tspan></text><text y="912"><tspan textLength="120">  wasm</tspan></text><text x="120" y="912" class="dim" opacity=".5"><tspan textLength="600"> - bench/gray.bench.tsx &gt; gray</tspan></text><text y="944"><tspan textLength="80">    </tspan></text><text x="80" y="944" class="green"><tspan textLength="100">2.56x</tspan></text><text x="180" y="944"><tspan textLength="20"> </tspan></text><text x="200" y="944" class="bright_black"><tspan textLength="220">faster than</tspan></text><text x="420" y="944"><tspan textLength="60"> js</tspan></text><text y="1008"><tspan textLength="220">  wasm-simd</tspan></text><text x="220" y="1008" class="dim" opacity=".5"><tspan textLength="640"> - bench/invert.bench.tsx &gt; gray</tspan></text><text y="1040"><tspan textLength="80">    </tspan></text><text x="80" y="1040" class="green"><tspan textLength="100">1.26x</tspan></text><text x="180" y="1040"><tspan textLength="20"> </tspan></text><text x="200" y="1040" class="bright_black"><tspan textLength="220">faster than</tspan></text><text x="420" y="1040"><tspan textLength="160"> wasm-64</tspan></text><text y="1072"><tspan textLength="80">    </tspan></text><text x="80" y="1072" class="green"><tspan textLength="100">2.03x</tspan></text><text x="180" y="1072"><tspan textLength="20"> </tspan></text><text x="200" y="1072" class="bright_black"><tspan textLength="220">faster than</tspan></text><text x="420" y="1072"><tspan textLength="100"> wasm</tspan></text><text y="1104"><tspan textLength="80">    </tspan></text><text x="80" y="1104" class="green"><tspan textLength="100">5.56x</tspan></text><text x="180" y="1104"><tspan textLength="20"> </tspan></text><text x="200" y="1104" class="bright_black"><tspan textLength="220">faster than</tspan></text><text x="420" y="1104"><tspan textLength="60"> js</tspan></text></svg>