<svg width="1140" height="666" xmlns="http://www.w3.org/2000/svg" xmlns:xlink="http://www.w3.org/1999/xlink"><style>.t{dominant-baseline:central;font-variant-ligatures:none;white-space: pre;font-family:Consolas,Courier New,Monaco;font-size:16px;}.b{font-weight:bold}:root {color-scheme: light dark; background: #FFFFFF}.c7{fill:#E5E5E5}.c6{fill:#11A8CD}.ca{fill:#666666}.c2{fill:#0DBC79}.c3{fill:#E5E510}.c4{fill:#2472C8}.b6{fill:#11A8CD}svg > text{fill:#000000}@media (prefers-color-scheme: dark) {:root {background: #181818}.c7{fill:#000000}.c6{fill:#11A8CD}.ca{fill:#E5E5E5}.c2{fill:#0DBC79}.c3{fill:#E5E510}.c4{fill:#2472C8}.b6{fill:#11A8CD}svg > text{fill:#E5E5E5}}</style><text x="0" y="28" width="510" height="18" class='t' ><tspan textLength="510">&gt; @xwat/bench@0.2.2 bench:run C:\wt\xwat\xwat-bench</tspan></text><text x="0" y="46" width="200" height="18" class='t' ><tspan textLength="200">&gt; vitest bench --run</tspan></text><rect x="0" y="92" width="50" height="18" class='b6'/><text x="0" y="100" width="50" height="18" class='t c7 b' ><tspan textLength="50"> RUN </tspan></text><text x="50" y="100" width="10" height="18" class='t' ><tspan textLength="10"> </tspan></text><text x="60" y="100" width="60" height="18" class='t c6' ><tspan textLength="60">v2.0.3</tspan></text><text x="120" y="100" width="10" height="18" class='t' ><tspan textLength="10"> </tspan></text><text x="130" y="100" width="210" height="18" class='t ca' ><tspan textLength="210">C:/wt/xwat/xwat-bench</tspan></text><text x="0" y="136" width="10" height="18" class='t' ><tspan textLength="10"> </tspan></text><text x="10" y="136" width="10" height="18" class='t c2' ><tspan textLength="10">✓</tspan></text><text x="20" y="136" width="230" height="18" class='t' ><tspan textLength="230"> bench/invert.bench.tsx</tspan></text><text x="250" y="136" width="30" height="18" class='t' opacity="0.5"><tspan textLength="30"> &gt; </tspan></text><text x="280" y="136" width="40" height="18" class='t' ><tspan textLength="40">gray</tspan></text><text x="320" y="136" width="50" height="18" class='t c3' ><tspan textLength="50"> 2509</tspan></text><text x="370" y="136" width="20" height="18" class='t c3' opacity="0.5"><tspan textLength="20">ms</tspan></text><text x="0" y="154" width="50" height="18" class='t' ><tspan textLength="50">     </tspan></text><text x="50" y="154" width="90" height="18" class='t b' ><tspan textLength="90">name     </tspan></text><text x="140" y="154" width="20" height="18" class='t' ><tspan textLength="20">  </tspan></text><text x="160" y="154" width="70" height="18" class='t b' ><tspan textLength="70">     hz</tspan></text><text x="230" y="154" width="20" height="18" class='t' ><tspan textLength="20">  </tspan></text><text x="250" y="154" width="70" height="18" class='t b' ><tspan textLength="70">    min</tspan></text><text x="320" y="154" width="20" height="18" class='t' ><tspan textLength="20">  </tspan></text><text x="340" y="154" width="70" height="18" class='t b' ><tspan textLength="70">    max</tspan></text><text x="410" y="154" width="20" height="18" class='t' ><tspan textLength="20">  </tspan></text><text x="430" y="154" width="70" height="18" class='t b' ><tspan textLength="70">   mean</tspan></text><text x="500" y="154" width="20" height="18" class='t' ><tspan textLength="20">  </tspan></text><text x="520" y="154" width="70" height="18" class='t b' ><tspan textLength="70">    p75</tspan></text><text x="590" y="154" width="20" height="18" class='t' ><tspan textLength="20">  </tspan></text><text x="610" y="154" width="70" height="18" class='t b' ><tspan textLength="70">    p99</tspan></text><text x="680" y="154" width="20" height="18" class='t' ><tspan textLength="20">  </tspan></text><text x="700" y="154" width="70" height="18" class='t b' ><tspan textLength="70">   p995</tspan></text><text x="770" y="154" width="20" height="18" class='t' ><tspan textLength="20">  </tspan></text><text x="790" y="154" width="70" height="18" class='t b' ><tspan textLength="70">   p999</tspan></text><text x="860" y="154" width="20" height="18" class='t' ><tspan textLength="20">  </tspan></text><text x="880" y="154" width="60" height="18" class='t b' ><tspan textLength="60">   rme</tspan></text><text x="940" y="154" width="20" height="18" class='t' ><tspan textLength="20">  </tspan></text><text x="960" y="154" width="70" height="18" class='t b' ><tspan textLength="70">samples</tspan></text><text x="0" y="172" width="30" height="18" class='t' ><tspan textLength="30">   </tspan></text><text x="30" y="172" width="10" height="18" class='t c2' ><tspan textLength="10">·</tspan></text><text x="40" y="172" width="120" height="18" class='t' ><tspan textLength="120"> js         </tspan></text><text x="160" y="172" width="70" height="18" class='t c4' ><tspan textLength="70">48.4839</tspan></text><text x="230" y="172" width="20" height="18" class='t' ><tspan textLength="20">  </tspan></text><text x="250" y="172" width="70" height="18" class='t c6' ><tspan textLength="70">20.3462</tspan></text><text x="320" y="172" width="20" height="18" class='t' ><tspan textLength="20">  </tspan></text><text x="340" y="172" width="70" height="18" class='t c6' ><tspan textLength="70">21.0757</tspan></text><text x="410" y="172" width="20" height="18" class='t' ><tspan textLength="20">  </tspan></text><text x="430" y="172" width="70" height="18" class='t c6' ><tspan textLength="70">20.6254</tspan></text><text x="500" y="172" width="20" height="18" class='t' ><tspan textLength="20">  </tspan></text><text x="520" y="172" width="70" height="18" class='t c6' ><tspan textLength="70">20.7499</tspan></text><text x="590" y="172" width="20" height="18" class='t' ><tspan textLength="20">  </tspan></text><text x="610" y="172" width="70" height="18" class='t c6' ><tspan textLength="70">21.0757</tspan></text><text x="680" y="172" width="20" height="18" class='t' ><tspan textLength="20">  </tspan></text><text x="700" y="172" width="70" height="18" class='t c6' ><tspan textLength="70">21.0757</tspan></text><text x="770" y="172" width="20" height="18" class='t' ><tspan textLength="20">  </tspan></text><text x="790" y="172" width="70" height="18" class='t c6' ><tspan textLength="70">21.0757</tspan></text><text x="860" y="172" width="20" height="18" class='t' ><tspan textLength="20">  </tspan></text><text x="880" y="172" width="60" height="18" class='t' opacity="0.5"><tspan textLength="60">±0.40%</tspan></text><text x="940" y="172" width="20" height="18" class='t' ><tspan textLength="20">  </tspan></text><text x="960" y="172" width="70" height="18" class='t' opacity="0.5"><tspan textLength="70">     25</tspan></text><text x="1030" y="172" width="20" height="18" class='t' ><tspan textLength="20">  </tspan></text><text x="1050" y="172" width="80" height="18" class='t ca b' ><tspan textLength="80"> slowest</tspan></text><text x="0" y="190" width="30" height="18" class='t' ><tspan textLength="30">   </tspan></text><text x="30" y="190" width="10" height="18" class='t c2' ><tspan textLength="10">·</tspan></text><text x="40" y="190" width="120" height="18" class='t' ><tspan textLength="120"> wasm       </tspan></text><text x="160" y="190" width="70" height="18" class='t c4' ><tspan textLength="70"> 132.98</tspan></text><text x="230" y="190" width="20" height="18" class='t' ><tspan textLength="20">  </tspan></text><text x="250" y="190" width="70" height="18" class='t c6' ><tspan textLength="70"> 7.2320</tspan></text><text x="320" y="190" width="20" height="18" class='t' ><tspan textLength="20">  </tspan></text><text x="340" y="190" width="70" height="18" class='t c6' ><tspan textLength="70"> 8.2683</tspan></text><text x="410" y="190" width="20" height="18" class='t' ><tspan textLength="20">  </tspan></text><text x="430" y="190" width="70" height="18" class='t c6' ><tspan textLength="70"> 7.5197</tspan></text><text x="500" y="190" width="20" height="18" class='t' ><tspan textLength="20">  </tspan></text><text x="520" y="190" width="70" height="18" class='t c6' ><tspan textLength="70"> 7.6484</tspan></text><text x="590" y="190" width="20" height="18" class='t' ><tspan textLength="20">  </tspan></text><text x="610" y="190" width="70" height="18" class='t c6' ><tspan textLength="70"> 8.2683</tspan></text><text x="680" y="190" width="20" height="18" class='t' ><tspan textLength="20">  </tspan></text><text x="700" y="190" width="70" height="18" class='t c6' ><tspan textLength="70"> 8.2683</tspan></text><text x="770" y="190" width="20" height="18" class='t' ><tspan textLength="20">  </tspan></text><text x="790" y="190" width="70" height="18" class='t c6' ><tspan textLength="70"> 8.2683</tspan></text><text x="860" y="190" width="20" height="18" class='t' ><tspan textLength="20">  </tspan></text><text x="880" y="190" width="60" height="18" class='t' opacity="0.5"><tspan textLength="60">±0.89%</tspan></text><text x="940" y="190" width="20" height="18" class='t' ><tspan textLength="20">  </tspan></text><text x="960" y="190" width="70" height="18" class='t' opacity="0.5"><tspan textLength="70">     67</tspan></text><text x="0" y="208" width="30" height="18" class='t' ><tspan textLength="30">   </tspan></text><text x="30" y="208" width="10" height="18" class='t c2' ><tspan textLength="10">·</tspan></text><text x="40" y="208" width="120" height="18" class='t' ><tspan textLength="120"> wasm-simd  </tspan></text><text x="160" y="208" width="70" height="18" class='t c4' ><tspan textLength="70"> 269.44</tspan></text><text x="230" y="208" width="20" height="18" class='t' ><tspan textLength="20">  </tspan></text><text x="250" y="208" width="70" height="18" class='t c6' ><tspan textLength="70"> 3.4001</tspan></text><text x="320" y="208" width="20" height="18" class='t' ><tspan textLength="20">  </tspan></text><text x="340" y="208" width="70" height="18" class='t c6' ><tspan textLength="70"> 4.3596</tspan></text><text x="410" y="208" width="20" height="18" class='t' ><tspan textLength="20">  </tspan></text><text x="430" y="208" width="70" height="18" class='t c6' ><tspan textLength="70"> 3.7113</tspan></text><text x="500" y="208" width="20" height="18" class='t' ><tspan textLength="20">  </tspan></text><text x="520" y="208" width="70" height="18" class='t c6' ><tspan textLength="70"> 3.8567</tspan></text><text x="590" y="208" width="20" height="18" class='t' ><tspan textLength="20">  </tspan></text><text x="610" y="208" width="70" height="18" class='t c6' ><tspan textLength="70"> 4.3015</tspan></text><text x="680" y="208" width="20" height="18" class='t' ><tspan textLength="20">  </tspan></text><text x="700" y="208" width="70" height="18" class='t c6' ><tspan textLength="70"> 4.3596</tspan></text><text x="770" y="208" width="20" height="18" class='t' ><tspan textLength="20">  </tspan></text><text x="790" y="208" width="70" height="18" class='t c6' ><tspan textLength="70"> 4.3596</tspan></text><text x="860" y="208" width="20" height="18" class='t' ><tspan textLength="20">  </tspan></text><text x="880" y="208" width="60" height="18" class='t' opacity="0.5"><tspan textLength="60">±1.07%</tspan></text><text x="940" y="208" width="20" height="18" class='t' ><tspan textLength="20">  </tspan></text><text x="960" y="208" width="70" height="18" class='t' opacity="0.5"><tspan textLength="70">    135</tspan></text><text x="1030" y="208" width="20" height="18" class='t' ><tspan textLength="20">  </tspan></text><text x="1050" y="208" width="80" height="18" class='t c2 b' ><tspan textLength="80"> fastest</tspan></text><text x="0" y="226" width="30" height="18" class='t' ><tspan textLength="30">   </tspan></text><text x="30" y="226" width="10" height="18" class='t c2' ><tspan textLength="10">·</tspan></text><text x="40" y="226" width="120" height="18" class='t' ><tspan textLength="120"> wasm-64    </tspan></text><text x="160" y="226" width="70" height="18" class='t c4' ><tspan textLength="70"> 213.71</tspan></text><text x="230" y="226" width="20" height="18" class='t' ><tspan textLength="20">  </tspan></text><text x="250" y="226" width="70" height="18" class='t c6' ><tspan textLength="70"> 4.3320</tspan></text><text x="320" y="226" width="20" height="18" class='t' ><tspan textLength="20">  </tspan></text><text x="340" y="226" width="70" height="18" class='t c6' ><tspan textLength="70"> 5.3301</tspan></text><text x="410" y="226" width="20" height="18" class='t' ><tspan textLength="20">  </tspan></text><text x="430" y="226" width="70" height="18" class='t c6' ><tspan textLength="70"> 4.6793</tspan></text><text x="500" y="226" width="20" height="18" class='t' ><tspan textLength="20">  </tspan></text><text x="520" y="226" width="70" height="18" class='t c6' ><tspan textLength="70"> 4.8425</tspan></text><text x="590" y="226" width="20" height="18" class='t' ><tspan textLength="20">  </tspan></text><text x="610" y="226" width="70" height="18" class='t c6' ><tspan textLength="70"> 5.3176</tspan></text><text x="680" y="226" width="20" height="18" class='t' ><tspan textLength="20">  </tspan></text><text x="700" y="226" width="70" height="18" class='t c6' ><tspan textLength="70"> 5.3301</tspan></text><text x="770" y="226" width="20" height="18" class='t' ><tspan textLength="20">  </tspan></text><text x="790" y="226" width="70" height="18" class='t c6' ><tspan textLength="70"> 5.3301</tspan></text><text x="860" y="226" width="20" height="18" class='t' ><tspan textLength="20">  </tspan></text><text x="880" y="226" width="60" height="18" class='t' opacity="0.5"><tspan textLength="60">±1.18%</tspan></text><text x="940" y="226" width="20" height="18" class='t' ><tspan textLength="20">  </tspan></text><text x="960" y="226" width="70" height="18" class='t' opacity="0.5"><tspan textLength="70">    107</tspan></text><text x="0" y="244" width="10" height="18" class='t' ><tspan textLength="10"> </tspan></text><text x="10" y="244" width="10" height="18" class='t c2' ><tspan textLength="10">✓</tspan></text><text x="20" y="244" width="210" height="18" class='t' ><tspan textLength="210"> bench/gray.bench.tsx</tspan></text><text x="230" y="244" width="30" height="18" class='t' opacity="0.5"><tspan textLength="30"> &gt; </tspan></text><text x="260" y="244" width="40" height="18" class='t' ><tspan textLength="40">gray</tspan></text><text x="300" y="244" width="50" height="18" class='t c3' ><tspan textLength="50"> 1306</tspan></text><text x="350" y="244" width="20" height="18" class='t c3' opacity="0.5"><tspan textLength="20">ms</tspan></text><text x="0" y="262" width="50" height="18" class='t' ><tspan textLength="50">     </tspan></text><text x="50" y="262" width="40" height="18" class='t b' ><tspan textLength="40">name</tspan></text><text x="90" y="262" width="20" height="18" class='t' ><tspan textLength="20">  </tspan></text><text x="110" y="262" width="70" height="18" class='t b' ><tspan textLength="70">     hz</tspan></text><text x="180" y="262" width="20" height="18" class='t' ><tspan textLength="20">  </tspan></text><text x="200" y="262" width="70" height="18" class='t b' ><tspan textLength="70">    min</tspan></text><text x="270" y="262" width="20" height="18" class='t' ><tspan textLength="20">  </tspan></text><text x="290" y="262" width="70" height="18" class='t b' ><tspan textLength="70">    max</tspan></text><text x="360" y="262" width="20" height="18" class='t' ><tspan textLength="20">  </tspan></text><text x="380" y="262" width="70" height="18" class='t b' ><tspan textLength="70">   mean</tspan></text><text x="450" y="262" width="20" height="18" class='t' ><tspan textLength="20">  </tspan></text><text x="470" y="262" width="70" height="18" class='t b' ><tspan textLength="70">    p75</tspan></text><text x="540" y="262" width="20" height="18" class='t' ><tspan textLength="20">  </tspan></text><text x="560" y="262" width="70" height="18" class='t b' ><tspan textLength="70">    p99</tspan></text><text x="630" y="262" width="20" height="18" class='t' ><tspan textLength="20">  </tspan></text><text x="650" y="262" width="70" height="18" class='t b' ><tspan textLength="70">   p995</tspan></text><text x="720" y="262" width="20" height="18" class='t' ><tspan textLength="20">  </tspan></text><text x="740" y="262" width="70" height="18" class='t b' ><tspan textLength="70">   p999</tspan></text><text x="810" y="262" width="20" height="18" class='t' ><tspan textLength="20">  </tspan></text><text x="830" y="262" width="60" height="18" class='t b' ><tspan textLength="60">   rme</tspan></text><text x="890" y="262" width="20" height="18" class='t' ><tspan textLength="20">  </tspan></text><text x="910" y="262" width="70" height="18" class='t b' ><tspan textLength="70">samples</tspan></text><text x="0" y="280" width="30" height="18" class='t' ><tspan textLength="30">   </tspan></text><text x="30" y="280" width="10" height="18" class='t c2' ><tspan textLength="10">·</tspan></text><text x="40" y="280" width="70" height="18" class='t' ><tspan textLength="70"> js    </tspan></text><text x="110" y="280" width="70" height="18" class='t c4' ><tspan textLength="70">44.7290</tspan></text><text x="180" y="280" width="20" height="18" class='t' ><tspan textLength="20">  </tspan></text><text x="200" y="280" width="70" height="18" class='t c6' ><tspan textLength="70">22.0049</tspan></text><text x="270" y="280" width="20" height="18" class='t' ><tspan textLength="20">  </tspan></text><text x="290" y="280" width="70" height="18" class='t c6' ><tspan textLength="70">22.7500</tspan></text><text x="360" y="280" width="20" height="18" class='t' ><tspan textLength="20">  </tspan></text><text x="380" y="280" width="70" height="18" class='t c6' ><tspan textLength="70">22.3569</tspan></text><text x="450" y="280" width="20" height="18" class='t' ><tspan textLength="20">  </tspan></text><text x="470" y="280" width="70" height="18" class='t c6' ><tspan textLength="70">22.4467</tspan></text><text x="540" y="280" width="20" height="18" class='t' ><tspan textLength="20">  </tspan></text><text x="560" y="280" width="70" height="18" class='t c6' ><tspan textLength="70">22.7500</tspan></text><text x="630" y="280" width="20" height="18" class='t' ><tspan textLength="20">  </tspan></text><text x="650" y="280" width="70" height="18" class='t c6' ><tspan textLength="70">22.7500</tspan></text><text x="720" y="280" width="20" height="18" class='t' ><tspan textLength="20">  </tspan></text><text x="740" y="280" width="70" height="18" class='t c6' ><tspan textLength="70">22.7500</tspan></text><text x="810" y="280" width="20" height="18" class='t' ><tspan textLength="20">  </tspan></text><text x="830" y="280" width="60" height="18" class='t' opacity="0.5"><tspan textLength="60">±0.30%</tspan></text><text x="890" y="280" width="20" height="18" class='t' ><tspan textLength="20">  </tspan></text><text x="910" y="280" width="70" height="18" class='t' opacity="0.5"><tspan textLength="70">     23</tspan></text><text x="0" y="298" width="30" height="18" class='t' ><tspan textLength="30">   </tspan></text><text x="30" y="298" width="10" height="18" class='t c2' ><tspan textLength="10">·</tspan></text><text x="40" y="298" width="70" height="18" class='t' ><tspan textLength="70"> wasm  </tspan></text><text x="110" y="298" width="70" height="18" class='t c4' ><tspan textLength="70"> 114.37</tspan></text><text x="180" y="298" width="20" height="18" class='t' ><tspan textLength="20">  </tspan></text><text x="200" y="298" width="70" height="18" class='t c6' ><tspan textLength="70"> 8.3838</tspan></text><text x="270" y="298" width="20" height="18" class='t' ><tspan textLength="20">  </tspan></text><text x="290" y="298" width="70" height="18" class='t c6' ><tspan textLength="70"> 9.4932</tspan></text><text x="360" y="298" width="20" height="18" class='t' ><tspan textLength="20">  </tspan></text><text x="380" y="298" width="70" height="18" class='t c6' ><tspan textLength="70"> 8.7436</tspan></text><text x="450" y="298" width="20" height="18" class='t' ><tspan textLength="20">  </tspan></text><text x="470" y="298" width="70" height="18" class='t c6' ><tspan textLength="70"> 8.8762</tspan></text><text x="540" y="298" width="20" height="18" class='t' ><tspan textLength="20">  </tspan></text><text x="560" y="298" width="70" height="18" class='t c6' ><tspan textLength="70"> 9.4932</tspan></text><text x="630" y="298" width="20" height="18" class='t' ><tspan textLength="20">  </tspan></text><text x="650" y="298" width="70" height="18" class='t c6' ><tspan textLength="70"> 9.4932</tspan></text><text x="720" y="298" width="20" height="18" class='t' ><tspan textLength="20">  </tspan></text><text x="740" y="298" width="70" height="18" class='t c6' ><tspan textLength="70"> 9.4932</tspan></text><text x="810" y="298" width="20" height="18" class='t' ><tspan textLength="20">  </tspan></text><text x="830" y="298" width="60" height="18" class='t' opacity="0.5"><tspan textLength="60">±0.79%</tspan></text><text x="890" y="298" width="20" height="18" class='t' ><tspan textLength="20">  </tspan></text><text x="910" y="298" width="70" height="18" class='t' opacity="0.5"><tspan textLength="70">     58</tspan></text><text x="980" y="298" width="20" height="18" class='t' ><tspan textLength="20">  </tspan></text><text x="1000" y="298" width="80" height="18" class='t c2 b' ><tspan textLength="80"> fastest</tspan></text><text x="0" y="316" width="10" height="18" class='t' ><tspan textLength="10"> </tspan></text><text x="10" y="316" width="10" height="18" class='t c2' ><tspan textLength="10">✓</tspan></text><text x="20" y="316" width="200" height="18" class='t' ><tspan textLength="200"> bench/fib.bench.tsx</tspan></text><text x="220" y="316" width="30" height="18" class='t' opacity="0.5"><tspan textLength="30"> &gt; </tspan></text><text x="250" y="316" width="30" height="18" class='t' ><tspan textLength="30">fib</tspan></text><text x="280" y="316" width="50" height="18" class='t c3' ><tspan textLength="50"> 1238</tspan></text><text x="330" y="316" width="20" height="18" class='t c3' opacity="0.5"><tspan textLength="20">ms</tspan></text><text x="0" y="334" width="50" height="18" class='t' ><tspan textLength="50">     </tspan></text><text x="50" y="334" width="40" height="18" class='t b' ><tspan textLength="40">name</tspan></text><text x="90" y="334" width="20" height="18" class='t' ><tspan textLength="20">  </tspan></text><text x="110" y="334" width="90" height="18" class='t b' ><tspan textLength="90">       hz</tspan></text><text x="200" y="334" width="20" height="18" class='t' ><tspan textLength="20">  </tspan></text><text x="220" y="334" width="60" height="18" class='t b' ><tspan textLength="60">   min</tspan></text><text x="280" y="334" width="20" height="18" class='t' ><tspan textLength="20">  </tspan></text><text x="300" y="334" width="60" height="18" class='t b' ><tspan textLength="60">   max</tspan></text><text x="360" y="334" width="20" height="18" class='t' ><tspan textLength="20">  </tspan></text><text x="380" y="334" width="60" height="18" class='t b' ><tspan textLength="60">  mean</tspan></text><text x="440" y="334" width="20" height="18" class='t' ><tspan textLength="20">  </tspan></text><text x="460" y="334" width="60" height="18" class='t b' ><tspan textLength="60">   p75</tspan></text><text x="520" y="334" width="20" height="18" class='t' ><tspan textLength="20">  </tspan></text><text x="540" y="334" width="60" height="18" class='t b' ><tspan textLength="60">   p99</tspan></text><text x="600" y="334" width="20" height="18" class='t' ><tspan textLength="20">  </tspan></text><text x="620" y="334" width="60" height="18" class='t b' ><tspan textLength="60">  p995</tspan></text><text x="680" y="334" width="20" height="18" class='t' ><tspan textLength="20">  </tspan></text><text x="700" y="334" width="60" height="18" class='t b' ><tspan textLength="60">  p999</tspan></text><text x="760" y="334" width="20" height="18" class='t' ><tspan textLength="20">  </tspan></text><text x="780" y="334" width="60" height="18" class='t b' ><tspan textLength="60">   rme</tspan></text><text x="840" y="334" width="20" height="18" class='t' ><tspan textLength="20">  </tspan></text><text x="860" y="334" width="70" height="18" class='t b' ><tspan textLength="70">samples</tspan></text><text x="0" y="352" width="30" height="18" class='t' ><tspan textLength="30">   </tspan></text><text x="30" y="352" width="10" height="18" class='t c2' ><tspan textLength="10">·</tspan></text><text x="40" y="352" width="70" height="18" class='t' ><tspan textLength="70"> js    </tspan></text><text x="110" y="352" width="90" height="18" class='t c4' ><tspan textLength="90">73,454.37</tspan></text><text x="200" y="352" width="20" height="18" class='t' ><tspan textLength="20">  </tspan></text><text x="220" y="352" width="60" height="18" class='t c6' ><tspan textLength="60">0.0127</tspan></text><text x="280" y="352" width="20" height="18" class='t' ><tspan textLength="20">  </tspan></text><text x="300" y="352" width="60" height="18" class='t c6' ><tspan textLength="60">0.2051</tspan></text><text x="360" y="352" width="20" height="18" class='t' ><tspan textLength="20">  </tspan></text><text x="380" y="352" width="60" height="18" class='t c6' ><tspan textLength="60">0.0136</tspan></text><text x="440" y="352" width="20" height="18" class='t' ><tspan textLength="20">  </tspan></text><text x="460" y="352" width="60" height="18" class='t c6' ><tspan textLength="60">0.0134</tspan></text><text x="520" y="352" width="20" height="18" class='t' ><tspan textLength="20">  </tspan></text><text x="540" y="352" width="60" height="18" class='t c6' ><tspan textLength="60">0.0196</tspan></text><text x="600" y="352" width="20" height="18" class='t' ><tspan textLength="20">  </tspan></text><text x="620" y="352" width="60" height="18" class='t c6' ><tspan textLength="60">0.0252</tspan></text><text x="680" y="352" width="20" height="18" class='t' ><tspan textLength="20">  </tspan></text><text x="700" y="352" width="60" height="18" class='t c6' ><tspan textLength="60">0.0646</tspan></text><text x="760" y="352" width="20" height="18" class='t' ><tspan textLength="20">  </tspan></text><text x="780" y="352" width="60" height="18" class='t' opacity="0.5"><tspan textLength="60">±0.25%</tspan></text><text x="840" y="352" width="20" height="18" class='t' ><tspan textLength="20">  </tspan></text><text x="860" y="352" width="70" height="18" class='t' opacity="0.5"><tspan textLength="70">  36728</tspan></text><text x="0" y="370" width="30" height="18" class='t' ><tspan textLength="30">   </tspan></text><text x="30" y="370" width="10" height="18" class='t c2' ><tspan textLength="10">·</tspan></text><text x="40" y="370" width="70" height="18" class='t' ><tspan textLength="70"> wasm  </tspan></text><text x="110" y="370" width="90" height="18" class='t c4' ><tspan textLength="90">91,504.04</tspan></text><text x="200" y="370" width="20" height="18" class='t' ><tspan textLength="20">  </tspan></text><text x="220" y="370" width="60" height="18" class='t c6' ><tspan textLength="60">0.0103</tspan></text><text x="280" y="370" width="20" height="18" class='t' ><tspan textLength="20">  </tspan></text><text x="300" y="370" width="60" height="18" class='t c6' ><tspan textLength="60">0.1469</tspan></text><text x="360" y="370" width="20" height="18" class='t' ><tspan textLength="20">  </tspan></text><text x="380" y="370" width="60" height="18" class='t c6' ><tspan textLength="60">0.0109</tspan></text><text x="440" y="370" width="20" height="18" class='t' ><tspan textLength="20">  </tspan></text><text x="460" y="370" width="60" height="18" class='t c6' ><tspan textLength="60">0.0108</tspan></text><text x="520" y="370" width="20" height="18" class='t' ><tspan textLength="20">  </tspan></text><text x="540" y="370" width="60" height="18" class='t c6' ><tspan textLength="60">0.0156</tspan></text><text x="600" y="370" width="20" height="18" class='t' ><tspan textLength="20">  </tspan></text><text x="620" y="370" width="60" height="18" class='t c6' ><tspan textLength="60">0.0203</tspan></text><text x="680" y="370" width="20" height="18" class='t' ><tspan textLength="20">  </tspan></text><text x="700" y="370" width="60" height="18" class='t c6' ><tspan textLength="60">0.0536</tspan></text><text x="760" y="370" width="20" height="18" class='t' ><tspan textLength="20">  </tspan></text><text x="780" y="370" width="60" height="18" class='t' opacity="0.5"><tspan textLength="60">±0.22%</tspan></text><text x="840" y="370" width="20" height="18" class='t' ><tspan textLength="20">  </tspan></text><text x="860" y="370" width="70" height="18" class='t' opacity="0.5"><tspan textLength="70">  45753</tspan></text><text x="930" y="370" width="20" height="18" class='t' ><tspan textLength="20">  </tspan></text><text x="950" y="370" width="80" height="18" class='t c2 b' ><tspan textLength="80"> fastest</tspan></text><rect x="0" y="416" width="70" height="18" class='b6'/><text x="0" y="424" width="70" height="18" class='t c7 b' ><tspan textLength="70"> BENCH </tspan></text><text x="70" y="424" width="10" height="18" class='t' ><tspan textLength="10"> </tspan></text><text x="80" y="424" width="70" height="18" class='t c6' ><tspan textLength="70">Summary</tspan></text><text x="0" y="460" width="60" height="18" class='t' ><tspan textLength="60">  wasm</tspan></text><text x="60" y="460" width="280" height="18" class='t' opacity="0.5"><tspan textLength="280"> - bench/fib.bench.tsx &gt; fib</tspan></text><text x="0" y="478" width="40" height="18" class='t' ><tspan textLength="40">    </tspan></text><text x="40" y="478" width="50" height="18" class='t c2' ><tspan textLength="50">1.25x</tspan></text><text x="90" y="478" width="10" height="18" class='t' ><tspan textLength="10"> </tspan></text><text x="100" y="478" width="110" height="18" class='t ca' ><tspan textLength="110">faster than</tspan></text><text x="210" y="478" width="30" height="18" class='t' ><tspan textLength="30"> js</tspan></text><text x="0" y="514" width="60" height="18" class='t' ><tspan textLength="60">  wasm</tspan></text><text x="60" y="514" width="300" height="18" class='t' opacity="0.5"><tspan textLength="300"> - bench/gray.bench.tsx &gt; gray</tspan></text><text x="0" y="532" width="40" height="18" class='t' ><tspan textLength="40">    </tspan></text><text x="40" y="532" width="50" height="18" class='t c2' ><tspan textLength="50">2.56x</tspan></text><text x="90" y="532" width="10" height="18" class='t' ><tspan textLength="10"> </tspan></text><text x="100" y="532" width="110" height="18" class='t ca' ><tspan textLength="110">faster than</tspan></text><text x="210" y="532" width="30" height="18" class='t' ><tspan textLength="30"> js</tspan></text><text x="0" y="568" width="110" height="18" class='t' ><tspan textLength="110">  wasm-simd</tspan></text><text x="110" y="568" width="320" height="18" class='t' opacity="0.5"><tspan textLength="320"> - bench/invert.bench.tsx &gt; gray</tspan></text><text x="0" y="586" width="40" height="18" class='t' ><tspan textLength="40">    </tspan></text><text x="40" y="586" width="50" height="18" class='t c2' ><tspan textLength="50">1.26x</tspan></text><text x="90" y="586" width="10" height="18" class='t' ><tspan textLength="10"> </tspan></text><text x="100" y="586" width="110" height="18" class='t ca' ><tspan textLength="110">faster than</tspan></text><text x="210" y="586" width="80" height="18" class='t' ><tspan textLength="80"> wasm-64</tspan></text><text x="0" y="604" width="40" height="18" class='t' ><tspan textLength="40">    </tspan></text><text x="40" y="604" width="50" height="18" class='t c2' ><tspan textLength="50">2.03x</tspan></text><text x="90" y="604" width="10" height="18" class='t' ><tspan textLength="10"> </tspan></text><text x="100" y="604" width="110" height="18" class='t ca' ><tspan textLength="110">faster than</tspan></text><text x="210" y="604" width="50" height="18" class='t' ><tspan textLength="50"> wasm</tspan></text><text x="0" y="622" width="40" height="18" class='t' ><tspan textLength="40">    </tspan></text><text x="40" y="622" width="50" height="18" class='t c2' ><tspan textLength="50">5.56x</tspan></text><text x="90" y="622" width="10" height="18" class='t' ><tspan textLength="10"> </tspan></text><text x="100" y="622" width="110" height="18" class='t ca' ><tspan textLength="110">faster than</tspan></text><text x="210" y="622" width="30" height="18" class='t' ><tspan textLength="30"> js</tspan></text></svg>