<svg xmlns="http://www.w3.org/2000/svg" width="1140" height="592"><style><![CDATA[.t{dominant-baseline:central;font-variant-ligatures:none;white-space:pre;font-family:Consolas,Courier New,Monaco;font-size:16px}.b{font-weight:700}:root{color-scheme:light dark;background:#fff}.c4{fill:#2472c8}.c2{fill:#0dbc79}.c7{fill:#e5e5e5}.c6{fill:#11a8cd}.c3{fill:#e5e510}.ca{fill:#666}.b6{fill:#11a8cd}svg>text{fill:#000}@media (prefers-color-scheme:dark){:root{background:#181818}.c4{fill:#2472c8}.c2{fill:#0dbc79}.c7{fill:#000}.c6{fill:#11a8cd}.c3{fill:#e5e510}.ca,svg>text{fill:#e5e5e5}.b6{fill:#11a8cd}}]]></style><text y="26" class="t"><tspan>&gt; @xwat/bench@0.2.2 bench:run C:\wt\xwat\xwat-bench</tspan></text><text y="42" class="t"><tspan>&gt; vitest bench --run</tspan></text><path d="M0 80h50v16H0z" class="b6"/><text y="90" class="t c7 b"><tspan> RUN </tspan></text><text x="50" y="90" class="t"><tspan> </tspan></text><text x="60" y="90" class="t c6"><tspan>v2.0.3</tspan></text><text x="120" y="90" class="t"><tspan> </tspan></text><text x="130" y="90" class="t ca"><tspan>C:/wt/xwat/xwat-bench</tspan></text><text y="122" class="t"><tspan> </tspan></text><text x="10" y="122" class="t c2"><tspan>✓</tspan></text><text x="20" y="122" class="t"><tspan> bench/invert.bench.tsx</tspan></text><text x="250" y="122" class="t" opacity=".5"><tspan> &gt; </tspan></text><text x="280" y="122" class="t"><tspan>gray</tspan></text><text x="320" y="122" class="t c3"><tspan> 2509</tspan></text><text x="370" y="122" class="t c3" opacity=".5"><tspan>ms</tspan></text><text y="138" class="t"><tspan>     </tspan></text><text x="50" y="138" class="t b"><tspan>name     </tspan></text><text x="140" y="138" class="t"><tspan>  </tspan></text><text x="160" y="138" class="t b"><tspan>     hz</tspan></text><text x="230" y="138" class="t"><tspan>  </tspan></text><text x="250" y="138" class="t b"><tspan>    min</tspan></text><text x="320" y="138" class="t"><tspan>  </tspan></text><text x="340" y="138" class="t b"><tspan>    max</tspan></text><text x="410" y="138" class="t"><tspan>  </tspan></text><text x="430" y="138" class="t b"><tspan>   mean</tspan></text><text x="500" y="138" class="t"><tspan>  </tspan></text><text x="520" y="138" class="t b"><tspan>    p75</tspan></text><text x="590" y="138" class="t"><tspan>  </tspan></text><text x="610" y="138" class="t b"><tspan>    p99</tspan></text><text x="680" y="138" class="t"><tspan>  </tspan></text><text x="700" y="138" class="t b"><tspan>   p995</tspan></text><text x="770" y="138" class="t"><tspan>  </tspan></text><text x="790" y="138" class="t b"><tspan>   p999</tspan></text><text x="860" y="138" class="t"><tspan>  </tspan></text><text x="880" y="138" class="t b"><tspan>   rme</tspan></text><text x="940" y="138" class="t"><tspan>  </tspan></text><text x="960" y="138" class="t b"><tspan>samples</tspan></text><text y="154" class="t"><tspan>   </tspan></text><text x="30" y="154" class="t c2"><tspan>·</tspan></text><text x="40" y="154" class="t"><tspan> js         </tspan></text><text x="160" y="154" class="t c4"><tspan>48.4839</tspan></text><text x="230" y="154" class="t"><tspan>  </tspan></text><text x="250" y="154" class="t c6"><tspan>20.3462</tspan></text><text x="320" y="154" class="t"><tspan>  </tspan></text><text x="340" y="154" class="t c6"><tspan>21.0757</tspan></text><text x="410" y="154" class="t"><tspan>  </tspan></text><text x="430" y="154" class="t c6"><tspan>20.6254</tspan></text><text x="500" y="154" class="t"><tspan>  </tspan></text><text x="520" y="154" class="t c6"><tspan>20.7499</tspan></text><text x="590" y="154" class="t"><tspan>  </tspan></text><text x="610" y="154" class="t c6"><tspan>21.0757</tspan></text><text x="680" y="154" class="t"><tspan>  </tspan></text><text x="700" y="154" class="t c6"><tspan>21.0757</tspan></text><text x="770" y="154" class="t"><tspan>  </tspan></text><text x="790" y="154" class="t c6"><tspan>21.0757</tspan></text><text x="860" y="154" class="t"><tspan>  </tspan></text><text x="880" y="154" class="t" opacity=".5"><tspan>±0.40%</tspan></text><text x="940" y="154" class="t"><tspan>  </tspan></text><text x="960" y="154" class="t" opacity=".5"><tspan>     25</tspan></text><text x="1030" y="154" class="t"><tspan>  </tspan></text><text x="1050" y="154" class="t ca b"><tspan> slowest</tspan></text><text y="170" class="t"><tspan>   </tspan></text><text x="30" y="170" class="t c2"><tspan>·</tspan></text><text x="40" y="170" class="t"><tspan> wasm       </tspan></text><text x="160" y="170" class="t c4"><tspan> 132.98</tspan></text><text x="230" y="170" class="t"><tspan>  </tspan></text><text x="250" y="170" class="t c6"><tspan> 7.2320</tspan></text><text x="320" y="170" class="t"><tspan>  </tspan></text><text x="340" y="170" class="t c6"><tspan> 8.2683</tspan></text><text x="410" y="170" class="t"><tspan>  </tspan></text><text x="430" y="170" class="t c6"><tspan> 7.5197</tspan></text><text x="500" y="170" class="t"><tspan>  </tspan></text><text x="520" y="170" class="t c6"><tspan> 7.6484</tspan></text><text x="590" y="170" class="t"><tspan>  </tspan></text><text x="610" y="170" class="t c6"><tspan> 8.2683</tspan></text><text x="680" y="170" class="t"><tspan>  </tspan></text><text x="700" y="170" class="t c6"><tspan> 8.2683</tspan></text><text x="770" y="170" class="t"><tspan>  </tspan></text><text x="790" y="170" class="t c6"><tspan> 8.2683</tspan></text><text x="860" y="170" class="t"><tspan>  </tspan></text><text x="880" y="170" class="t" opacity=".5"><tspan>±0.89%</tspan></text><text x="940" y="170" class="t"><tspan>  </tspan></text><text x="960" y="170" class="t" opacity=".5"><tspan>     67</tspan></text><text y="186" class="t"><tspan>   </tspan></text><text x="30" y="186" class="t c2"><tspan>·</tspan></text><text x="40" y="186" class="t"><tspan> wasm-simd  </tspan></text><text x="160" y="186" class="t c4"><tspan> 269.44</tspan></text><text x="230" y="186" class="t"><tspan>  </tspan></text><text x="250" y="186" class="t c6"><tspan> 3.4001</tspan></text><text x="320" y="186" class="t"><tspan>  </tspan></text><text x="340" y="186" class="t c6"><tspan> 4.3596</tspan></text><text x="410" y="186" class="t"><tspan>  </tspan></text><text x="430" y="186" class="t c6"><tspan> 3.7113</tspan></text><text x="500" y="186" class="t"><tspan>  </tspan></text><text x="520" y="186" class="t c6"><tspan> 3.8567</tspan></text><text x="590" y="186" class="t"><tspan>  </tspan></text><text x="610" y="186" class="t c6"><tspan> 4.3015</tspan></text><text x="680" y="186" class="t"><tspan>  </tspan></text><text x="700" y="186" class="t c6"><tspan> 4.3596</tspan></text><text x="770" y="186" class="t"><tspan>  </tspan></text><text x="790" y="186" class="t c6"><tspan> 4.3596</tspan></text><text x="860" y="186" class="t"><tspan>  </tspan></text><text x="880" y="186" class="t" opacity=".5"><tspan>±1.07%</tspan></text><text x="940" y="186" class="t"><tspan>  </tspan></text><text x="960" y="186" class="t" opacity=".5"><tspan>    135</tspan></text><text x="1030" y="186" class="t"><tspan>  </tspan></text><text x="1050" y="186" class="t c2 b"><tspan> fastest</tspan></text><text y="202" class="t"><tspan>   </tspan></text><text x="30" y="202" class="t c2"><tspan>·</tspan></text><text x="40" y="202" class="t"><tspan> wasm-64    </tspan></text><text x="160" y="202" class="t c4"><tspan> 213.71</tspan></text><text x="230" y="202" class="t"><tspan>  </tspan></text><text x="250" y="202" class="t c6"><tspan> 4.3320</tspan></text><text x="320" y="202" class="t"><tspan>  </tspan></text><text x="340" y="202" class="t c6"><tspan> 5.3301</tspan></text><text x="410" y="202" class="t"><tspan>  </tspan></text><text x="430" y="202" class="t c6"><tspan> 4.6793</tspan></text><text x="500" y="202" class="t"><tspan>  </tspan></text><text x="520" y="202" class="t c6"><tspan> 4.8425</tspan></text><text x="590" y="202" class="t"><tspan>  </tspan></text><text x="610" y="202" class="t c6"><tspan> 5.3176</tspan></text><text x="680" y="202" class="t"><tspan>  </tspan></text><text x="700" y="202" class="t c6"><tspan> 5.3301</tspan></text><text x="770" y="202" class="t"><tspan>  </tspan></text><text x="790" y="202" class="t c6"><tspan> 5.3301</tspan></text><text x="860" y="202" class="t"><tspan>  </tspan></text><text x="880" y="202" class="t" opacity=".5"><tspan>±1.18%</tspan></text><text x="940" y="202" class="t"><tspan>  </tspan></text><text x="960" y="202" class="t" opacity=".5"><tspan>    107</tspan></text><text y="218" class="t"><tspan> </tspan></text><text x="10" y="218" class="t c2"><tspan>✓</tspan></text><text x="20" y="218" class="t"><tspan> bench/gray.bench.tsx</tspan></text><text x="230" y="218" class="t" opacity=".5"><tspan> &gt; </tspan></text><text x="260" y="218" class="t"><tspan>gray</tspan></text><text x="300" y="218" class="t c3"><tspan> 1306</tspan></text><text x="350" y="218" class="t c3" opacity=".5"><tspan>ms</tspan></text><text y="234" class="t"><tspan>     </tspan></text><text x="50" y="234" class="t b"><tspan>name</tspan></text><text x="90" y="234" class="t"><tspan>  </tspan></text><text x="110" y="234" class="t b"><tspan>     hz</tspan></text><text x="180" y="234" class="t"><tspan>  </tspan></text><text x="200" y="234" class="t b"><tspan>    min</tspan></text><text x="270" y="234" class="t"><tspan>  </tspan></text><text x="290" y="234" class="t b"><tspan>    max</tspan></text><text x="360" y="234" class="t"><tspan>  </tspan></text><text x="380" y="234" class="t b"><tspan>   mean</tspan></text><text x="450" y="234" class="t"><tspan>  </tspan></text><text x="470" y="234" class="t b"><tspan>    p75</tspan></text><text x="540" y="234" class="t"><tspan>  </tspan></text><text x="560" y="234" class="t b"><tspan>    p99</tspan></text><text x="630" y="234" class="t"><tspan>  </tspan></text><text x="650" y="234" class="t b"><tspan>   p995</tspan></text><text x="720" y="234" class="t"><tspan>  </tspan></text><text x="740" y="234" class="t b"><tspan>   p999</tspan></text><text x="810" y="234" class="t"><tspan>  </tspan></text><text x="830" y="234" class="t b"><tspan>   rme</tspan></text><text x="890" y="234" class="t"><tspan>  </tspan></text><text x="910" y="234" class="t b"><tspan>samples</tspan></text><text y="250" class="t"><tspan>   </tspan></text><text x="30" y="250" class="t c2"><tspan>·</tspan></text><text x="40" y="250" class="t"><tspan> js    </tspan></text><text x="110" y="250" class="t c4"><tspan>44.7290</tspan></text><text x="180" y="250" class="t"><tspan>  </tspan></text><text x="200" y="250" class="t c6"><tspan>22.0049</tspan></text><text x="270" y="250" class="t"><tspan>  </tspan></text><text x="290" y="250" class="t c6"><tspan>22.7500</tspan></text><text x="360" y="250" class="t"><tspan>  </tspan></text><text x="380" y="250" class="t c6"><tspan>22.3569</tspan></text><text x="450" y="250" class="t"><tspan>  </tspan></text><text x="470" y="250" class="t c6"><tspan>22.4467</tspan></text><text x="540" y="250" class="t"><tspan>  </tspan></text><text x="560" y="250" class="t c6"><tspan>22.7500</tspan></text><text x="630" y="250" class="t"><tspan>  </tspan></text><text x="650" y="250" class="t c6"><tspan>22.7500</tspan></text><text x="720" y="250" class="t"><tspan>  </tspan></text><text x="740" y="250" class="t c6"><tspan>22.7500</tspan></text><text x="810" y="250" class="t"><tspan>  </tspan></text><text x="830" y="250" class="t" opacity=".5"><tspan>±0.30%</tspan></text><text x="890" y="250" class="t"><tspan>  </tspan></text><text x="910" y="250" class="t" opacity=".5"><tspan>     23</tspan></text><text y="266" class="t"><tspan>   </tspan></text><text x="30" y="266" class="t c2"><tspan>·</tspan></text><text x="40" y="266" class="t"><tspan> wasm  </tspan></text><text x="110" y="266" class="t c4"><tspan> 114.37</tspan></text><text x="180" y="266" class="t"><tspan>  </tspan></text><text x="200" y="266" class="t c6"><tspan> 8.3838</tspan></text><text x="270" y="266" class="t"><tspan>  </tspan></text><text x="290" y="266" class="t c6"><tspan> 9.4932</tspan></text><text x="360" y="266" class="t"><tspan>  </tspan></text><text x="380" y="266" class="t c6"><tspan> 8.7436</tspan></text><text x="450" y="266" class="t"><tspan>  </tspan></text><text x="470" y="266" class="t c6"><tspan> 8.8762</tspan></text><text x="540" y="266" class="t"><tspan>  </tspan></text><text x="560" y="266" class="t c6"><tspan> 9.4932</tspan></text><text x="630" y="266" class="t"><tspan>  </tspan></text><text x="650" y="266" class="t c6"><tspan> 9.4932</tspan></text><text x="720" y="266" class="t"><tspan>  </tspan></text><text x="740" y="266" class="t c6"><tspan> 9.4932</tspan></text><text x="810" y="266" class="t"><tspan>  </tspan></text><text x="830" y="266" class="t" opacity=".5"><tspan>±0.79%</tspan></text><text x="890" y="266" class="t"><tspan>  </tspan></text><text x="910" y="266" class="t" opacity=".5"><tspan>     58</tspan></text><text x="980" y="266" class="t"><tspan>  </tspan></text><text x="1000" y="266" class="t c2 b"><tspan> fastest</tspan></text><text y="282" class="t"><tspan> </tspan></text><text x="10" y="282" class="t c2"><tspan>✓</tspan></text><text x="20" y="282" class="t"><tspan> bench/fib.bench.tsx</tspan></text><text x="220" y="282" class="t" opacity=".5"><tspan> &gt; </tspan></text><text x="250" y="282" class="t"><tspan>fib</tspan></text><text x="280" y="282" class="t c3"><tspan> 1238</tspan></text><text x="330" y="282" class="t c3" opacity=".5"><tspan>ms</tspan></text><text y="298" class="t"><tspan>     </tspan></text><text x="50" y="298" class="t b"><tspan>name</tspan></text><text x="90" y="298" class="t"><tspan>  </tspan></text><text x="110" y="298" class="t b"><tspan>       hz</tspan></text><text x="200" y="298" class="t"><tspan>  </tspan></text><text x="220" y="298" class="t b"><tspan>   min</tspan></text><text x="280" y="298" class="t"><tspan>  </tspan></text><text x="300" y="298" class="t b"><tspan>   max</tspan></text><text x="360" y="298" class="t"><tspan>  </tspan></text><text x="380" y="298" class="t b"><tspan>  mean</tspan></text><text x="440" y="298" class="t"><tspan>  </tspan></text><text x="460" y="298" class="t b"><tspan>   p75</tspan></text><text x="520" y="298" class="t"><tspan>  </tspan></text><text x="540" y="298" class="t b"><tspan>   p99</tspan></text><text x="600" y="298" class="t"><tspan>  </tspan></text><text x="620" y="298" class="t b"><tspan>  p995</tspan></text><text x="680" y="298" class="t"><tspan>  </tspan></text><text x="700" y="298" class="t b"><tspan>  p999</tspan></text><text x="760" y="298" class="t"><tspan>  </tspan></text><text x="780" y="298" class="t b"><tspan>   rme</tspan></text><text x="840" y="298" class="t"><tspan>  </tspan></text><text x="860" y="298" class="t b"><tspan>samples</tspan></text><text y="314" class="t"><tspan>   </tspan></text><text x="30" y="314" class="t c2"><tspan>·</tspan></text><text x="40" y="314" class="t"><tspan> js    </tspan></text><text x="110" y="314" class="t c4"><tspan>73,454.37</tspan></text><text x="200" y="314" class="t"><tspan>  </tspan></text><text x="220" y="314" class="t c6"><tspan>0.0127</tspan></text><text x="280" y="314" class="t"><tspan>  </tspan></text><text x="300" y="314" class="t c6"><tspan>0.2051</tspan></text><text x="360" y="314" class="t"><tspan>  </tspan></text><text x="380" y="314" class="t c6"><tspan>0.0136</tspan></text><text x="440" y="314" class="t"><tspan>  </tspan></text><text x="460" y="314" class="t c6"><tspan>0.0134</tspan></text><text x="520" y="314" class="t"><tspan>  </tspan></text><text x="540" y="314" class="t c6"><tspan>0.0196</tspan></text><text x="600" y="314" class="t"><tspan>  </tspan></text><text x="620" y="314" class="t c6"><tspan>0.0252</tspan></text><text x="680" y="314" class="t"><tspan>  </tspan></text><text x="700" y="314" class="t c6"><tspan>0.0646</tspan></text><text x="760" y="314" class="t"><tspan>  </tspan></text><text x="780" y="314" class="t" opacity=".5"><tspan>±0.25%</tspan></text><text x="840" y="314" class="t"><tspan>  </tspan></text><text x="860" y="314" class="t" opacity=".5"><tspan>  36728</tspan></text><text y="330" class="t"><tspan>   </tspan></text><text x="30" y="330" class="t c2"><tspan>·</tspan></text><text x="40" y="330" class="t"><tspan> wasm  </tspan></text><text x="110" y="330" class="t c4"><tspan>91,504.04</tspan></text><text x="200" y="330" class="t"><tspan>  </tspan></text><text x="220" y="330" class="t c6"><tspan>0.0103</tspan></text><text x="280" y="330" class="t"><tspan>  </tspan></text><text x="300" y="330" class="t c6"><tspan>0.1469</tspan></text><text x="360" y="330" class="t"><tspan>  </tspan></text><text x="380" y="330" class="t c6"><tspan>0.0109</tspan></text><text x="440" y="330" class="t"><tspan>  </tspan></text><text x="460" y="330" class="t c6"><tspan>0.0108</tspan></text><text x="520" y="330" class="t"><tspan>  </tspan></text><text x="540" y="330" class="t c6"><tspan>0.0156</tspan></text><text x="600" y="330" class="t"><tspan>  </tspan></text><text x="620" y="330" class="t c6"><tspan>0.0203</tspan></text><text x="680" y="330" class="t"><tspan>  </tspan></text><text x="700" y="330" class="t c6"><tspan>0.0536</tspan></text><text x="760" y="330" class="t"><tspan>  </tspan></text><text x="780" y="330" class="t" opacity=".5"><tspan>±0.22%</tspan></text><text x="840" y="330" class="t"><tspan>  </tspan></text><text x="860" y="330" class="t" opacity=".5"><tspan>  45753</tspan></text><text x="930" y="330" class="t"><tspan>  </tspan></text><text x="950" y="330" class="t c2 b"><tspan> fastest</tspan></text><path d="M0 368h70v16H0z" class="b6"/><text y="378" class="t c7 b"><tspan> BENCH </tspan></text><text x="70" y="378" class="t"><tspan> </tspan></text><text x="80" y="378" class="t c6"><tspan>Summary</tspan></text><text y="410" class="t"><tspan>  wasm</tspan></text><text x="60" y="410" class="t" opacity=".5"><tspan> - bench/fib.bench.tsx &gt; fib</tspan></text><text y="426" class="t"><tspan>    </tspan></text><text x="40" y="426" class="t c2"><tspan>1.25x</tspan></text><text x="90" y="426" class="t"><tspan> </tspan></text><text x="100" y="426" class="t ca"><tspan>faster than</tspan></text><text x="210" y="426" class="t"><tspan> js</tspan></text><text y="458" class="t"><tspan>  wasm</tspan></text><text x="60" y="458" class="t" opacity=".5"><tspan> - bench/gray.bench.tsx &gt; gray</tspan></text><text y="474" class="t"><tspan>    </tspan></text><text x="40" y="474" class="t c2"><tspan>2.56x</tspan></text><text x="90" y="474" class="t"><tspan> </tspan></text><text x="100" y="474" class="t ca"><tspan>faster than</tspan></text><text x="210" y="474" class="t"><tspan> js</tspan></text><text y="506" class="t"><tspan>  wasm-simd</tspan></text><text x="110" y="506" class="t" opacity=".5"><tspan> - bench/invert.bench.tsx &gt; gray</tspan></text><text y="522" class="t"><tspan>    </tspan></text><text x="40" y="522" class="t c2"><tspan>1.26x</tspan></text><text x="90" y="522" class="t"><tspan> </tspan></text><text x="100" y="522" class="t ca"><tspan>faster than</tspan></text><text x="210" y="522" class="t"><tspan> wasm-64</tspan></text><text y="538" class="t"><tspan>    </tspan></text><text x="40" y="538" class="t c2"><tspan>2.03x</tspan></text><text x="90" y="538" class="t"><tspan> </tspan></text><text x="100" y="538" class="t ca"><tspan>faster than</tspan></text><text x="210" y="538" class="t"><tspan> wasm</tspan></text><text y="554" class="t"><tspan>    </tspan></text><text x="40" y="554" class="t c2"><tspan>5.56x</tspan></text><text x="90" y="554" class="t"><tspan> </tspan></text><text x="100" y="554" class="t ca"><tspan>faster than</tspan></text><text x="210" y="554" class="t"><tspan> js</tspan></text></svg>