<svg width="1020" height="432" xmlns="http://www.w3.org/2000/svg" xmlns:xlink="http://www.w3.org/1999/xlink"><style>.t{dominant-baseline:central;font-variant-ligatures:none;white-space: pre;font-family:Consolas,Courier New,Monaco;font-size:16px;}.b{font-weight:bold}:root {color-scheme: light dark; background: #FFFFFF}.c6{fill:#11A8CD}.c1{fill:#CD3131}.c2{fill:#0DBC79}.b0{fill:#000000}.b1{fill:#CD3131}.b2{fill:#0DBC79}.b3{fill:#E5E510}.b4{fill:#2472C8}.b5{fill:#BC3FBC}.b6{fill:#11A8CD}.b7{fill:#E5E5E5}.ba{fill:#666666}.bb{fill:#F14C4C}.bc{fill:#23D18B}.bd{fill:#F5F543}.be{fill:#3B8EEA}.bf{fill:#D670D6}.bg{fill:#29B8DB}.bh{fill:#E5E5E5}svg > text{fill:#000000}@media (prefers-color-scheme: dark) {:root {background: #181818}.c6{fill:#11A8CD}.c1{fill:#CD3131}.c2{fill:#0DBC79}.b0{fill:#E5E5E5}.b1{fill:#CD3131}.b2{fill:#0DBC79}.b3{fill:#E5E510}.b4{fill:#2472C8}.b5{fill:#BC3FBC}.b6{fill:#11A8CD}.b7{fill:#000000}.ba{fill:#E5E5E5}.bb{fill:#F14C4C}.bc{fill:#23D18B}.bd{fill:#F5F543}.be{fill:#3B8EEA}.bf{fill:#D670D6}.bg{fill:#29B8DB}.bh{fill:#666666}svg > text{fill:#E5E5E5}}</style><text x="0" y="10" width="370" height="18" class='t c6' ><tspan textLength="370">                                     </tspan></text><text x="370" y="10" width="30" height="18" class='t c1 b' ><tspan textLength="30">Ace</tspan></text><text x="400" y="10" width="10" height="18" class='t' ><tspan textLength="10">@</tspan></text><text x="410" y="10" width="30" height="18" class='t c1 b' ><tspan textLength="30">win</tspan></text><text x="0" y="28" width="370" height="18" class='t c6' ><tspan textLength="370">################  ################   </tspan></text><text x="370" y="28" width="70" height="18" class='t' ><tspan textLength="70">-------</tspan></text><text x="0" y="46" width="370" height="18" class='t c6' ><tspan textLength="370">################  ################   </tspan></text><text x="370" y="46" width="40" height="18" class='t c2 b' ><tspan textLength="40">OS: </tspan></text><text x="410" y="46" width="170" height="18" class='t' ><tspan textLength="170">Windows 11 x86_64</tspan></text><text x="0" y="64" width="370" height="18" class='t c6' ><tspan textLength="370">################  ################   </tspan></text><text x="370" y="64" width="60" height="18" class='t c2 b' ><tspan textLength="60">Host: </tspan></text><text x="430" y="64" width="40" height="18" class='t' ><tspan textLength="40">ASUS</tspan></text><text x="0" y="82" width="370" height="18" class='t c6' ><tspan textLength="370">################  ################   </tspan></text><text x="370" y="82" width="80" height="18" class='t c2 b' ><tspan textLength="80">Kernel: </tspan></text><text x="450" y="82" width="100" height="18" class='t' ><tspan textLength="100">10.0.26100</tspan></text><text x="0" y="100" width="370" height="18" class='t c6' ><tspan textLength="370">################  ################   </tspan></text><text x="370" y="100" width="80" height="18" class='t c2 b' ><tspan textLength="80">Uptime: </tspan></text><text x="450" y="100" width="230" height="18" class='t' ><tspan textLength="230">4 days, 1 hour, 35 mins</tspan></text><text x="0" y="118" width="370" height="18" class='t c6' ><tspan textLength="370">################  ################   </tspan></text><text x="370" y="118" width="100" height="18" class='t c2 b' ><tspan textLength="100">Packages: </tspan></text><text x="470" y="118" width="120" height="18" class='t' ><tspan textLength="120">155 (pacman)</tspan></text><text x="0" y="136" width="370" height="18" class='t c6' ><tspan textLength="370">################  ################   </tspan></text><text x="370" y="136" width="70" height="18" class='t c2 b' ><tspan textLength="70">Shell: </tspan></text><text x="440" y="136" width="100" height="18" class='t' ><tspan textLength="100">fish 3.7.1</tspan></text><text x="0" y="154" width="370" height="18" class='t c6' ><tspan textLength="370">                                     </tspan></text><text x="370" y="154" width="300" height="18" class='t c2 b' ><tspan textLength="300">Display(Generic PnP Monitor): </tspan></text><text x="670" y="154" width="340" height="18" class='t' ><tspan textLength="340">3840x2160 @ 144Hz (as 2560x1440) *</tspan></text><text x="0" y="172" width="370" height="18" class='t c6' ><tspan textLength="370">################  ################   </tspan></text><text x="370" y="172" width="300" height="18" class='t c2 b' ><tspan textLength="300">Display(Generic PnP Monitor): </tspan></text><text x="670" y="172" width="320" height="18" class='t' ><tspan textLength="320">3840x2160 @ 144Hz (as 2560x1440)</tspan></text><text x="0" y="190" width="370" height="18" class='t c6' ><tspan textLength="370">################  ################   </tspan></text><text x="370" y="190" width="40" height="18" class='t c2 b' ><tspan textLength="40">DE: </tspan></text><text x="410" y="190" width="60" height="18" class='t' ><tspan textLength="60">Fluent</tspan></text><text x="0" y="208" width="370" height="18" class='t c6' ><tspan textLength="370">################  ################   </tspan></text><text x="370" y="208" width="40" height="18" class='t c2 b' ><tspan textLength="40">WM: </tspan></text><text x="410" y="208" width="80" height="18" class='t' ><tspan textLength="80">Explorer</tspan></text><text x="0" y="226" width="370" height="18" class='t c6' ><tspan textLength="370">################  ################   </tspan></text><text x="370" y="226" width="100" height="18" class='t c2 b' ><tspan textLength="100">WM Theme: </tspan></text><text x="470" y="226" width="60" height="18" class='t' ><tspan textLength="60">Custom</tspan></text><text x="0" y="244" width="370" height="18" class='t c6' ><tspan textLength="370">################  ################   </tspan></text><text x="370" y="244" width="100" height="18" class='t c2 b' ><tspan textLength="100">Terminal: </tspan></text><text x="470" y="244" width="160" height="18" class='t' ><tspan textLength="160">Windows Terminal</tspan></text><text x="0" y="262" width="370" height="18" class='t c6' ><tspan textLength="370">################  ################   </tspan></text><text x="370" y="262" width="90" height="18" class='t c2 b' ><tspan textLength="90">Disk(C): </tspan></text><text x="460" y="262" width="270" height="18" class='t' ><tspan textLength="270">397.9 GiB / 930.7 GiB (43%)</tspan></text><text x="0" y="280" width="370" height="18" class='t c6' ><tspan textLength="370">################  ################   </tspan></text><text x="370" y="280" width="90" height="18" class='t c2 b' ><tspan textLength="90">Disk(D): </tspan></text><text x="460" y="280" width="250" height="18" class='t' ><tspan textLength="250">105.8 GiB / 1.8 TiB ( 6%)</tspan></text><text x="0" y="298" width="370" height="18" class='t c6' ><tspan textLength="370">                                     </tspan></text><text x="370" y="298" width="50" height="18" class='t c2 b' ><tspan textLength="50">CPU: </tspan></text><text x="420" y="298" width="380" height="18" class='t' ><tspan textLength="380">Intel(R) Core(TM) i7-14700KF @ 3.42GHz</tspan></text><text x="0" y="316" width="370" height="18" class='t c6' ><tspan textLength="370">                                     </tspan></text><text x="370" y="316" width="50" height="18" class='t c2 b' ><tspan textLength="50">GPU: </tspan></text><text x="420" y="316" width="230" height="18" class='t' ><tspan textLength="230">NVIDIA GeForce RTX 4080</tspan></text><text x="0" y="334" width="370" height="18" class='t c6' ><tspan textLength="370">                                     </tspan></text><text x="370" y="334" width="80" height="18" class='t c2 b' ><tspan textLength="80">Memory: </tspan></text><text x="450" y="334" width="190" height="18" class='t' ><tspan textLength="190">11.3 GiB / 31.8 GiB</tspan></text><text x="0" y="352" width="370" height="18" class='t c6' ><tspan textLength="370">                                     </tspan></text><text x="0" y="370" width="370" height="18" class='t c6' ><tspan textLength="370">                                     </tspan></text><rect x="370" y="362" width="30" height="18" class='b0'/><text x="370" y="370" width="30" height="18" class='t' ><tspan textLength="30">   </tspan></text><rect x="400" y="362" width="30" height="18" class='b1'/><text x="400" y="370" width="30" height="18" class='t' ><tspan textLength="30">   </tspan></text><rect x="430" y="362" width="30" height="18" class='b2'/><text x="430" y="370" width="30" height="18" class='t' ><tspan textLength="30">   </tspan></text><rect x="460" y="362" width="30" height="18" class='b3'/><text x="460" y="370" width="30" height="18" class='t' ><tspan textLength="30">   </tspan></text><rect x="490" y="362" width="30" height="18" class='b4'/><text x="490" y="370" width="30" height="18" class='t' ><tspan textLength="30">   </tspan></text><rect x="520" y="362" width="30" height="18" class='b5'/><text x="520" y="370" width="30" height="18" class='t' ><tspan textLength="30">   </tspan></text><rect x="550" y="362" width="30" height="18" class='b6'/><text x="550" y="370" width="30" height="18" class='t' ><tspan textLength="30">   </tspan></text><rect x="580" y="362" width="30" height="18" class='b7'/><text x="580" y="370" width="30" height="18" class='t' ><tspan textLength="30">   </tspan></text><text x="0" y="388" width="370" height="18" class='t c6' ><tspan textLength="370">                                     </tspan></text><rect x="370" y="380" width="30" height="18" class='ba'/><text x="370" y="388" width="30" height="18" class='t' ><tspan textLength="30">   </tspan></text><rect x="400" y="380" width="30" height="18" class='bb'/><text x="400" y="388" width="30" height="18" class='t' ><tspan textLength="30">   </tspan></text><rect x="430" y="380" width="30" height="18" class='bc'/><text x="430" y="388" width="30" height="18" class='t' ><tspan textLength="30">   </tspan></text><rect x="460" y="380" width="30" height="18" class='bd'/><text x="460" y="388" width="30" height="18" class='t' ><tspan textLength="30">   </tspan></text><rect x="490" y="380" width="30" height="18" class='be'/><text x="490" y="388" width="30" height="18" class='t' ><tspan textLength="30">   </tspan></text><rect x="520" y="380" width="30" height="18" class='bf'/><text x="520" y="388" width="30" height="18" class='t' ><tspan textLength="30">   </tspan></text><rect x="550" y="380" width="30" height="18" class='bg'/><text x="550" y="388" width="30" height="18" class='t' ><tspan textLength="30">   </tspan></text><rect x="580" y="380" width="30" height="18" class='bh'/><text x="580" y="388" width="30" height="18" class='t' ><tspan textLength="30">   </tspan></text></svg>