<svg xmlns="http://www.w3.org/2000/svg" width="1020" height="384"><style><![CDATA[.t{dominant-baseline:central;font-variant-ligatures:none;white-space:pre;font-family:Consolas,Courier New,Monaco;font-size:16px}.b{font-weight:700}:root{color-scheme:light dark;background:#fff}.c1{fill:#cd3131}.c6{fill:#11a8cd}.b2,.c2{fill:#0dbc79}.be{fill:#3b8eea}.b5{fill:#bc3fbc}.bc{fill:#23d18b}.b0,svg>text{fill:#000}.b6{fill:#11a8cd}.b4{fill:#2472c8}.bh{fill:#e5e5e5}.b1{fill:#cd3131}.b3{fill:#e5e510}.b7{fill:#e5e5e5}.ba{fill:#666}.bd{fill:#f5f543}.bf{fill:#d670d6}.bg{fill:#29b8db}.bb{fill:#f14c4c}@media (prefers-color-scheme:dark){:root{background:#181818}.c1{fill:#cd3131}.c6{fill:#11a8cd}.b2,.c2{fill:#0dbc79}.be{fill:#3b8eea}.b5{fill:#bc3fbc}.bc{fill:#23d18b}.b0{fill:#e5e5e5}.b6{fill:#11a8cd}.b4{fill:#2472c8}.bh{fill:#666}.b1{fill:#cd3131}.b3{fill:#e5e510}.b7{fill:#000}.ba,svg>text{fill:#e5e5e5}.bd{fill:#f5f543}.bf{fill:#d670d6}.bg{fill:#29b8db}.bb{fill:#f14c4c}}]]></style><text y="10" class="t c6"><tspan textLength="370">                                     </tspan></text><text x="370" y="10" class="t c1 b"><tspan textLength="30">Ace</tspan></text><text x="400" y="10" class="t"><tspan textLength="10">@</tspan></text><text x="410" y="10" class="t c1 b"><tspan textLength="30">win</tspan></text><text y="26" class="t c6"><tspan textLength="370">################  ################   </tspan></text><text x="370" y="26" class="t"><tspan textLength="70">-------</tspan></text><text y="42" class="t c6"><tspan textLength="370">################  ################   </tspan></text><text x="370" y="42" class="t c2 b"><tspan textLength="40">OS: </tspan></text><text x="410" y="42" class="t"><tspan textLength="170">Windows 11 x86_64</tspan></text><text y="58" class="t c6"><tspan textLength="370">################  ################   </tspan></text><text x="370" y="58" class="t c2 b"><tspan textLength="60">Host: </tspan></text><text x="430" y="58" class="t"><tspan textLength="40">ASUS</tspan></text><text y="74" class="t c6"><tspan textLength="370">################  ################   </tspan></text><text x="370" y="74" class="t c2 b"><tspan textLength="80">Kernel: </tspan></text><text x="450" y="74" class="t"><tspan textLength="100">10.0.26100</tspan></text><text y="90" class="t c6"><tspan textLength="370">################  ################   </tspan></text><text x="370" y="90" class="t c2 b"><tspan textLength="80">Uptime: </tspan></text><text x="450" y="90" class="t"><tspan textLength="230">4 days, 1 hour, 35 mins</tspan></text><text y="106" class="t c6"><tspan textLength="370">################  ################   </tspan></text><text x="370" y="106" class="t c2 b"><tspan textLength="100">Packages: </tspan></text><text x="470" y="106" class="t"><tspan textLength="120">155 (pacman)</tspan></text><text y="122" class="t c6"><tspan textLength="370">################  ################   </tspan></text><text x="370" y="122" class="t c2 b"><tspan textLength="70">Shell: </tspan></text><text x="440" y="122" class="t"><tspan textLength="100">fish 3.7.1</tspan></text><text y="138" class="t c6"><tspan textLength="370">                                     </tspan></text><text x="370" y="138" class="t c2 b"><tspan textLength="300">Display(Generic PnP Monitor): </tspan></text><text x="670" y="138" class="t"><tspan textLength="340">3840x2160 @ 144Hz (as 2560x1440) *</tspan></text><text y="154" class="t c6"><tspan textLength="370">################  ################   </tspan></text><text x="370" y="154" class="t c2 b"><tspan textLength="300">Display(Generic PnP Monitor): </tspan></text><text x="670" y="154" class="t"><tspan textLength="320">3840x2160 @ 144Hz (as 2560x1440)</tspan></text><text y="170" class="t c6"><tspan textLength="370">################  ################   </tspan></text><text x="370" y="170" class="t c2 b"><tspan textLength="40">DE: </tspan></text><text x="410" y="170" class="t"><tspan textLength="60">Fluent</tspan></text><text y="186" class="t c6"><tspan textLength="370">################  ################   </tspan></text><text x="370" y="186" class="t c2 b"><tspan textLength="40">WM: </tspan></text><text x="410" y="186" class="t"><tspan textLength="80">Explorer</tspan></text><text y="202" class="t c6"><tspan textLength="370">################  ################   </tspan></text><text x="370" y="202" class="t c2 b"><tspan textLength="100">WM Theme: </tspan></text><text x="470" y="202" class="t"><tspan textLength="60">Custom</tspan></text><text y="218" class="t c6"><tspan textLength="370">################  ################   </tspan></text><text x="370" y="218" class="t c2 b"><tspan textLength="100">Terminal: </tspan></text><text x="470" y="218" class="t"><tspan textLength="160">Windows Terminal</tspan></text><text y="234" class="t c6"><tspan textLength="370">################  ################   </tspan></text><text x="370" y="234" class="t c2 b"><tspan textLength="90">Disk(C): </tspan></text><text x="460" y="234" class="t"><tspan textLength="270">397.9 GiB / 930.7 GiB (43%)</tspan></text><text y="250" class="t c6"><tspan textLength="370">################  ################   </tspan></text><text x="370" y="250" class="t c2 b"><tspan textLength="90">Disk(D): </tspan></text><text x="460" y="250" class="t"><tspan textLength="250">105.8 GiB / 1.8 TiB ( 6%)</tspan></text><text y="266" class="t c6"><tspan textLength="370">                                     </tspan></text><text x="370" y="266" class="t c2 b"><tspan textLength="50">CPU: </tspan></text><text x="420" y="266" class="t"><tspan textLength="380">Intel(R) Core(TM) i7-14700KF @ 3.42GHz</tspan></text><text y="282" class="t c6"><tspan textLength="370">                                     </tspan></text><text x="370" y="282" class="t c2 b"><tspan textLength="50">GPU: </tspan></text><text x="420" y="282" class="t"><tspan textLength="230">NVIDIA GeForce RTX 4080</tspan></text><text y="298" class="t c6"><tspan textLength="370">                                     </tspan></text><text x="370" y="298" class="t c2 b"><tspan textLength="80">Memory: </tspan></text><text x="450" y="298" class="t"><tspan textLength="190">11.3 GiB / 31.8 GiB</tspan></text><text y="314" class="t c6"><tspan textLength="370">                                     </tspan></text><text y="330" class="t c6"><tspan textLength="370">                                     </tspan></text><path d="M370 320h30v16h-30z" class="b0"/><text x="370" y="330" class="t"><tspan textLength="30">   </tspan></text><path d="M400 320h30v16h-30z" class="b1"/><text x="400" y="330" class="t"><tspan textLength="30">   </tspan></text><path d="M430 320h30v16h-30z" class="b2"/><text x="430" y="330" class="t"><tspan textLength="30">   </tspan></text><path d="M460 320h30v16h-30z" class="b3"/><text x="460" y="330" class="t"><tspan textLength="30">   </tspan></text><path d="M490 320h30v16h-30z" class="b4"/><text x="490" y="330" class="t"><tspan textLength="30">   </tspan></text><path d="M520 320h30v16h-30z" class="b5"/><text x="520" y="330" class="t"><tspan textLength="30">   </tspan></text><path d="M550 320h30v16h-30z" class="b6"/><text x="550" y="330" class="t"><tspan textLength="30">   </tspan></text><path d="M580 320h30v16h-30z" class="b7"/><text x="580" y="330" class="t"><tspan textLength="30">   </tspan></text><text y="346" class="t c6"><tspan textLength="370">                                     </tspan></text><path d="M370 336h30v16h-30z" class="ba"/><text x="370" y="346" class="t"><tspan textLength="30">   </tspan></text><path d="M400 336h30v16h-30z" class="bb"/><text x="400" y="346" class="t"><tspan textLength="30">   </tspan></text><path d="M430 336h30v16h-30z" class="bc"/><text x="430" y="346" class="t"><tspan textLength="30">   </tspan></text><path d="M460 336h30v16h-30z" class="bd"/><text x="460" y="346" class="t"><tspan textLength="30">   </tspan></text><path d="M490 336h30v16h-30z" class="be"/><text x="490" y="346" class="t"><tspan textLength="30">   </tspan></text><path d="M520 336h30v16h-30z" class="bf"/><text x="520" y="346" class="t"><tspan textLength="30">   </tspan></text><path d="M550 336h30v16h-30z" class="bg"/><text x="550" y="346" class="t"><tspan textLength="30">   </tspan></text><path d="M580 336h30v16h-30z" class="bh"/><text x="580" y="346" class="t"><tspan textLength="30">   </tspan></text></svg>