<svg xmlns="http://www.w3.org/2000/svg" width="1020" height="432"><style><![CDATA[.t{dominant-baseline:central;font-variant-ligatures:none;white-space:pre;font-family:Consolas,Courier New,Monaco;font-size:16px}.b{font-weight:700}:root{color-scheme:light dark;background:#fff}.c6{fill:#11a8cd}.c1{fill:#cd3131}.c2{fill:#0dbc79}.b0,svg>text{fill:#000}.b1{fill:#cd3131}.b2{fill:#0dbc79}.b3{fill:#e5e510}.b4{fill:#2472c8}.b5{fill:#bc3fbc}.b6{fill:#11a8cd}.b7{fill:#e5e5e5}.ba{fill:#666}.bb{fill:#f14c4c}.bc{fill:#23d18b}.bd{fill:#f5f543}.be{fill:#3b8eea}.bf{fill:#d670d6}.bg{fill:#29b8db}.bh{fill:#e5e5e5}@media (prefers-color-scheme:dark){:root{background:#181818}.c6{fill:#11a8cd}.c1{fill:#cd3131}.c2{fill:#0dbc79}.b0{fill:#e5e5e5}.b1{fill:#cd3131}.b2{fill:#0dbc79}.b3{fill:#e5e510}.b4{fill:#2472c8}.b5{fill:#bc3fbc}.b6{fill:#11a8cd}.b7{fill:#000}.ba,svg>text{fill:#e5e5e5}.bb{fill:#f14c4c}.bc{fill:#23d18b}.bd{fill:#f5f543}.be{fill:#3b8eea}.bf{fill:#d670d6}.bg{fill:#29b8db}.bh{fill:#666}}]]></style><text y="10" class="t c6"><tspan textLength="370">                                     </tspan></text><text x="370" y="10" class="t c1 b"><tspan textLength="30">Ace</tspan></text><text x="400" y="10" class="t"><tspan textLength="10">@</tspan></text><text x="410" y="10" class="t c1 b"><tspan textLength="30">win</tspan></text><text y="28" class="t c6"><tspan textLength="370">################  ################   </tspan></text><text x="370" y="28" class="t"><tspan textLength="70">-------</tspan></text><text y="46" class="t c6"><tspan textLength="370">################  ################   </tspan></text><text x="370" y="46" class="t c2 b"><tspan textLength="40">OS: </tspan></text><text x="410" y="46" class="t"><tspan textLength="170">Windows 11 x86_64</tspan></text><text y="64" class="t c6"><tspan textLength="370">################  ################   </tspan></text><text x="370" y="64" class="t c2 b"><tspan textLength="60">Host: </tspan></text><text x="430" y="64" class="t"><tspan textLength="40">ASUS</tspan></text><text y="82" class="t c6"><tspan textLength="370">################  ################   </tspan></text><text x="370" y="82" class="t c2 b"><tspan textLength="80">Kernel: </tspan></text><text x="450" y="82" class="t"><tspan textLength="100">10.0.26100</tspan></text><text y="100" class="t c6"><tspan textLength="370">################  ################   </tspan></text><text x="370" y="100" class="t c2 b"><tspan textLength="80">Uptime: </tspan></text><text x="450" y="100" class="t"><tspan textLength="230">4 days, 1 hour, 35 mins</tspan></text><text y="118" class="t c6"><tspan textLength="370">################  ################   </tspan></text><text x="370" y="118" class="t c2 b"><tspan textLength="100">Packages: </tspan></text><text x="470" y="118" class="t"><tspan textLength="120">155 (pacman)</tspan></text><text y="136" class="t c6"><tspan textLength="370">################  ################   </tspan></text><text x="370" y="136" class="t c2 b"><tspan textLength="70">Shell: </tspan></text><text x="440" y="136" class="t"><tspan textLength="100">fish 3.7.1</tspan></text><text y="154" class="t c6"><tspan textLength="370">                                     </tspan></text><text x="370" y="154" class="t c2 b"><tspan textLength="300">Display(Generic PnP Monitor): </tspan></text><text x="670" y="154" class="t"><tspan textLength="340">3840x2160 @ 144Hz (as 2560x1440) *</tspan></text><text y="172" class="t c6"><tspan textLength="370">################  ################   </tspan></text><text x="370" y="172" class="t c2 b"><tspan textLength="300">Display(Generic PnP Monitor): </tspan></text><text x="670" y="172" class="t"><tspan textLength="320">3840x2160 @ 144Hz (as 2560x1440)</tspan></text><text y="190" class="t c6"><tspan textLength="370">################  ################   </tspan></text><text x="370" y="190" class="t c2 b"><tspan textLength="40">DE: </tspan></text><text x="410" y="190" class="t"><tspan textLength="60">Fluent</tspan></text><text y="208" class="t c6"><tspan textLength="370">################  ################   </tspan></text><text x="370" y="208" class="t c2 b"><tspan textLength="40">WM: </tspan></text><text x="410" y="208" class="t"><tspan textLength="80">Explorer</tspan></text><text y="226" class="t c6"><tspan textLength="370">################  ################   </tspan></text><text x="370" y="226" class="t c2 b"><tspan textLength="100">WM Theme: </tspan></text><text x="470" y="226" class="t"><tspan textLength="60">Custom</tspan></text><text y="244" class="t c6"><tspan textLength="370">################  ################   </tspan></text><text x="370" y="244" class="t c2 b"><tspan textLength="100">Terminal: </tspan></text><text x="470" y="244" class="t"><tspan textLength="160">Windows Terminal</tspan></text><text y="262" class="t c6"><tspan textLength="370">################  ################   </tspan></text><text x="370" y="262" class="t c2 b"><tspan textLength="90">Disk(C): </tspan></text><text x="460" y="262" class="t"><tspan textLength="270">397.9 GiB / 930.7 GiB (43%)</tspan></text><text y="280" class="t c6"><tspan textLength="370">################  ################   </tspan></text><text x="370" y="280" class="t c2 b"><tspan textLength="90">Disk(D): </tspan></text><text x="460" y="280" class="t"><tspan textLength="250">105.8 GiB / 1.8 TiB ( 6%)</tspan></text><text y="298" class="t c6"><tspan textLength="370">                                     </tspan></text><text x="370" y="298" class="t c2 b"><tspan textLength="50">CPU: </tspan></text><text x="420" y="298" class="t"><tspan textLength="380">Intel(R) Core(TM) i7-14700KF @ 3.42GHz</tspan></text><text y="316" class="t c6"><tspan textLength="370">                                     </tspan></text><text x="370" y="316" class="t c2 b"><tspan textLength="50">GPU: </tspan></text><text x="420" y="316" class="t"><tspan textLength="230">NVIDIA GeForce RTX 4080</tspan></text><text y="334" class="t c6"><tspan textLength="370">                                     </tspan></text><text x="370" y="334" class="t c2 b"><tspan textLength="80">Memory: </tspan></text><text x="450" y="334" class="t"><tspan textLength="190">11.3 GiB / 31.8 GiB</tspan></text><text y="352" class="t c6"><tspan textLength="370">                                     </tspan></text><text y="370" class="t c6"><tspan textLength="370">                                     </tspan></text><path d="M370 362h30v18h-30z" class="b0"/><text x="370" y="370" class="t"><tspan textLength="30">   </tspan></text><path d="M400 362h30v18h-30z" class="b1"/><text x="400" y="370" class="t"><tspan textLength="30">   </tspan></text><path d="M430 362h30v18h-30z" class="b2"/><text x="430" y="370" class="t"><tspan textLength="30">   </tspan></text><path d="M460 362h30v18h-30z" class="b3"/><text x="460" y="370" class="t"><tspan textLength="30">   </tspan></text><path d="M490 362h30v18h-30z" class="b4"/><text x="490" y="370" class="t"><tspan textLength="30">   </tspan></text><path d="M520 362h30v18h-30z" class="b5"/><text x="520" y="370" class="t"><tspan textLength="30">   </tspan></text><path d="M550 362h30v18h-30z" class="b6"/><text x="550" y="370" class="t"><tspan textLength="30">   </tspan></text><path d="M580 362h30v18h-30z" class="b7"/><text x="580" y="370" class="t"><tspan textLength="30">   </tspan></text><text y="388" class="t c6"><tspan textLength="370">                                     </tspan></text><path d="M370 380h30v18h-30z" class="ba"/><text x="370" y="388" class="t"><tspan textLength="30">   </tspan></text><path d="M400 380h30v18h-30z" class="bb"/><text x="400" y="388" class="t"><tspan textLength="30">   </tspan></text><path d="M430 380h30v18h-30z" class="bc"/><text x="430" y="388" class="t"><tspan textLength="30">   </tspan></text><path d="M460 380h30v18h-30z" class="bd"/><text x="460" y="388" class="t"><tspan textLength="30">   </tspan></text><path d="M490 380h30v18h-30z" class="be"/><text x="490" y="388" class="t"><tspan textLength="30">   </tspan></text><path d="M520 380h30v18h-30z" class="bf"/><text x="520" y="388" class="t"><tspan textLength="30">   </tspan></text><path d="M550 380h30v18h-30z" class="bg"/><text x="550" y="388" class="t"><tspan textLength="30">   </tspan></text><path d="M580 380h30v18h-30z" class="bh"/><text x="580" y="388" class="t"><tspan textLength="30">   </tspan></text></svg>