<svg xmlns="http://www.w3.org/2000/svg" width="1938" height="768"><style><![CDATA[.t{dominant-baseline:central;font-variant-ligatures:none;white-space:pre;font-family:Consolas,Courier New,Monaco;font-size:32px}.b{font-weight:700}:root{color-scheme:light dark;background:#fff}.c2{fill:#0dbc79}.c1{fill:#cd3131}.c6{fill:#11a8cd}.bf{fill:#d670d6}.bd{fill:#f5f543}.b7{fill:#e5e5e5}.b4{fill:#2472c8}.b2{fill:#0dbc79}.bg{fill:#29b8db}.ba{fill:#666}.bc{fill:#23d18b}.b6{fill:#11a8cd}.b5{fill:#bc3fbc}.b1{fill:#cd3131}.bh{fill:#e5e5e5}.be{fill:#3b8eea}.b0,svg>text{fill:#000}.b3{fill:#e5e510}.bb{fill:#f14c4c}@media (prefers-color-scheme:dark){:root{background:#181818}.c2{fill:#0dbc79}.c1{fill:#cd3131}.c6{fill:#11a8cd}.bf{fill:#d670d6}.bd{fill:#f5f543}.b7{fill:#000}.b4{fill:#2472c8}.b2{fill:#0dbc79}.bg{fill:#29b8db}.ba{fill:#e5e5e5}.bc{fill:#23d18b}.b6{fill:#11a8cd}.b5{fill:#bc3fbc}.b1{fill:#cd3131}.bh{fill:#666}.be{fill:#3b8eea}.b0,svg>text{fill:#e5e5e5}.b3{fill:#e5e510}.bb{fill:#f14c4c}}]]></style><text y="16" class="t c6"><tspan textLength="703">                                     </tspan></text><text x="703" y="16" class="t c1 b"><tspan textLength="57">Ace</tspan></text><text x="760" y="16" class="t"><tspan textLength="19">@</tspan></text><text x="779" y="16" class="t c1 b"><tspan textLength="57">win</tspan></text><text y="48" class="t c6"><tspan textLength="703">################  ################   </tspan></text><text x="703" y="48" class="t"><tspan textLength="133">-------</tspan></text><text y="80" class="t c6"><tspan textLength="703">################  ################   </tspan></text><text x="703" y="80" class="t c2 b"><tspan textLength="76">OS: </tspan></text><text x="779" y="80" class="t"><tspan textLength="323">Windows 11 x86_64</tspan></text><text y="112" class="t c6"><tspan textLength="703">################  ################   </tspan></text><text x="703" y="112" class="t c2 b"><tspan textLength="114">Host: </tspan></text><text x="817" y="112" class="t"><tspan textLength="76">ASUS</tspan></text><text y="144" class="t c6"><tspan textLength="703">################  ################   </tspan></text><text x="703" y="144" class="t c2 b"><tspan textLength="152">Kernel: </tspan></text><text x="855" y="144" class="t"><tspan textLength="190">10.0.26100</tspan></text><text y="176" class="t c6"><tspan textLength="703">################  ################   </tspan></text><text x="703" y="176" class="t c2 b"><tspan textLength="152">Uptime: </tspan></text><text x="855" y="176" class="t"><tspan textLength="437">4 days, 1 hour, 35 mins</tspan></text><text y="208" class="t c6"><tspan textLength="703">################  ################   </tspan></text><text x="703" y="208" class="t c2 b"><tspan textLength="190">Packages: </tspan></text><text x="893" y="208" class="t"><tspan textLength="228">155 (pacman)</tspan></text><text y="240" class="t c6"><tspan textLength="703">################  ################   </tspan></text><text x="703" y="240" class="t c2 b"><tspan textLength="133">Shell: </tspan></text><text x="836" y="240" class="t"><tspan textLength="190">fish 3.7.1</tspan></text><text y="272" class="t c6"><tspan textLength="703">                                     </tspan></text><text x="703" y="272" class="t c2 b"><tspan textLength="570">Display(Generic PnP Monitor): </tspan></text><text x="1273" y="272" class="t"><tspan textLength="646">3840x2160 @ 144Hz (as 2560x1440) *</tspan></text><text y="304" class="t c6"><tspan textLength="703">################  ################   </tspan></text><text x="703" y="304" class="t c2 b"><tspan textLength="570">Display(Generic PnP Monitor): </tspan></text><text x="1273" y="304" class="t"><tspan textLength="608">3840x2160 @ 144Hz (as 2560x1440)</tspan></text><text y="336" class="t c6"><tspan textLength="703">################  ################   </tspan></text><text x="703" y="336" class="t c2 b"><tspan textLength="76">DE: </tspan></text><text x="779" y="336" class="t"><tspan textLength="114">Fluent</tspan></text><text y="368" class="t c6"><tspan textLength="703">################  ################   </tspan></text><text x="703" y="368" class="t c2 b"><tspan textLength="76">WM: </tspan></text><text x="779" y="368" class="t"><tspan textLength="152">Explorer</tspan></text><text y="400" class="t c6"><tspan textLength="703">################  ################   </tspan></text><text x="703" y="400" class="t c2 b"><tspan textLength="190">WM Theme: </tspan></text><text x="893" y="400" class="t"><tspan textLength="114">Custom</tspan></text><text y="432" class="t c6"><tspan textLength="703">################  ################   </tspan></text><text x="703" y="432" class="t c2 b"><tspan textLength="190">Terminal: </tspan></text><text x="893" y="432" class="t"><tspan textLength="304">Windows Terminal</tspan></text><text y="464" class="t c6"><tspan textLength="703">################  ################   </tspan></text><text x="703" y="464" class="t c2 b"><tspan textLength="171">Disk(C): </tspan></text><text x="874" y="464" class="t"><tspan textLength="513">397.9 GiB / 930.7 GiB (43%)</tspan></text><text y="496" class="t c6"><tspan textLength="703">################  ################   </tspan></text><text x="703" y="496" class="t c2 b"><tspan textLength="171">Disk(D): </tspan></text><text x="874" y="496" class="t"><tspan textLength="475">105.8 GiB / 1.8 TiB ( 6%)</tspan></text><text y="528" class="t c6"><tspan textLength="703">                                     </tspan></text><text x="703" y="528" class="t c2 b"><tspan textLength="95">CPU: </tspan></text><text x="798" y="528" class="t"><tspan textLength="722">Intel(R) Core(TM) i7-14700KF @ 3.42GHz</tspan></text><text y="560" class="t c6"><tspan textLength="703">                                     </tspan></text><text x="703" y="560" class="t c2 b"><tspan textLength="95">GPU: </tspan></text><text x="798" y="560" class="t"><tspan textLength="437">NVIDIA GeForce RTX 4080</tspan></text><text y="592" class="t c6"><tspan textLength="703">                                     </tspan></text><text x="703" y="592" class="t c2 b"><tspan textLength="152">Memory: </tspan></text><text x="855" y="592" class="t"><tspan textLength="361">11.3 GiB / 31.8 GiB</tspan></text><text y="624" class="t c6"><tspan textLength="703">                                     </tspan></text><text y="656" class="t c6"><tspan textLength="703">                                     </tspan></text><path d="M703 640h57v32h-57z" class="b0"/><text x="703" y="656" class="t"><tspan textLength="57">   </tspan></text><path d="M760 640h57v32h-57z" class="b1"/><text x="760" y="656" class="t"><tspan textLength="57">   </tspan></text><path d="M817 640h57v32h-57z" class="b2"/><text x="817" y="656" class="t"><tspan textLength="57">   </tspan></text><path d="M874 640h57v32h-57z" class="b3"/><text x="874" y="656" class="t"><tspan textLength="57">   </tspan></text><path d="M931 640h57v32h-57z" class="b4"/><text x="931" y="656" class="t"><tspan textLength="57">   </tspan></text><path d="M988 640h57v32h-57z" class="b5"/><text x="988" y="656" class="t"><tspan textLength="57">   </tspan></text><path d="M1045 640h57v32h-57z" class="b6"/><text x="1045" y="656" class="t"><tspan textLength="57">   </tspan></text><path d="M1102 640h57v32h-57z" class="b7"/><text x="1102" y="656" class="t"><tspan textLength="57">   </tspan></text><text y="688" class="t c6"><tspan textLength="703">                                     </tspan></text><path d="M703 672h57v32h-57z" class="ba"/><text x="703" y="688" class="t"><tspan textLength="57">   </tspan></text><path d="M760 672h57v32h-57z" class="bb"/><text x="760" y="688" class="t"><tspan textLength="57">   </tspan></text><path d="M817 672h57v32h-57z" class="bc"/><text x="817" y="688" class="t"><tspan textLength="57">   </tspan></text><path d="M874 672h57v32h-57z" class="bd"/><text x="874" y="688" class="t"><tspan textLength="57">   </tspan></text><path d="M931 672h57v32h-57z" class="be"/><text x="931" y="688" class="t"><tspan textLength="57">   </tspan></text><path d="M988 672h57v32h-57z" class="bf"/><text x="988" y="688" class="t"><tspan textLength="57">   </tspan></text><path d="M1045 672h57v32h-57z" class="bg"/><text x="1045" y="688" class="t"><tspan textLength="57">   </tspan></text><path d="M1102 672h57v32h-57z" class="bh"/><text x="1102" y="688" class="t"><tspan textLength="57">   </tspan></text></svg>